<svg width="768" height="1562" viewBox="0 0 768 1562" fill="none" xmlns="http://www.w3.org/2000/svg">
<path d="M701 0V111.5H121C54.7258 111.5 1 165.226 1 231.5V444H382C437.228 444 482 488.772 482 544V679.5H707C740.413 679.5 767.5 706.587 767.5 740V740C767.5 773.413 740.413 800.5 707 800.5H326.75C306.73 800.5 290.5 816.73 290.5 836.75V836.75C290.5 856.77 274.27 873 254.25 873H88.5V1070V1111.5V1338.75C88.5 1373.96 117.042 1402.5 152.25 1402.5H189.75C204.247 1402.5 216 1414.25 216 1428.75V1428.75C216 1443.25 227.753 1455 242.25 1455H327V1562" stroke="#2C233D" stroke-dasharray="2 2"/>
</svg>
