<svg width="1010" height="378" viewBox="0 0 1010 378" fill="none" xmlns="http://www.w3.org/2000/svg">
<path opacity="0.3" d="M35.1295 266.446C21.8972 282.561 8.18375 299.121 -10.0985 311.451L-7.64006 314.591C10.9904 301.98 24.9406 285.077 38.3395 268.842L38.4398 268.721C50.6953 253.948 62.1857 239.91 77.0447 228.917C121.795 195.677 191.389 211.94 219.299 220.514C240.1 227.002 261.09 235.352 281.318 243.427C319.491 258.75 358.941 274.568 399.586 277.674C495.006 285.126 576.879 225.118 656.068 167.078L656.382 166.848L666.062 159.72C746.187 101.194 882.707 -9.44132 978.274 20.2059L979.852 16.3738C882.406 -13.8558 744.715 97.2695 663.714 156.555L654.034 163.682C575.364 221.43 493.968 281.029 400.094 273.749C360.137 270.598 320.957 254.943 283.054 239.783C262.715 231.733 241.701 223.276 220.679 216.839C192.142 208.071 120.853 191.52 74.4996 225.909C59.2459 237.215 47.0145 252.094 35.1295 266.446Z" fill="#7583F7"/>
<path d="M349.726 266.677C356.905 266.628 362.675 259.202 362.613 250.089C362.675 259.202 368.546 266.549 375.725 266.5C368.546 266.549 362.776 273.976 362.838 283.088C362.776 273.976 356.905 266.628 349.726 266.677Z" fill="#FF5A5F"/>
</svg>
