<svg width="234" height="210" viewBox="0 0 234 210" fill="none" xmlns="http://www.w3.org/2000/svg">
<path d="M22.0343 31.131L51.1865 40.2387L56.9588 51.2231L52.0357 56.68L22.0383 31.1328L22.0343 31.131ZM50.5295 41.027L26.188 33.4209L51.9484 55.3605L55.8112 51.0808L50.5295 41.027V41.027Z" fill="#00000A"/>
<path d="M21.0511 31.0354L64.3118 43.3512L88.7313 69.5685L21.0511 31.0354Z" fill="#505ECE"/>
<path d="M57.8655 33.4319L21.0455 31.0335L63.5899 14.7675L57.8655 33.4319Z" fill="#505ECE"/>
<path d="M57.866 33.4315L51.7008 39.7569L21.0459 31.0332L57.866 33.4315Z" fill="#00000A"/>
<path opacity="0.4" d="M110.103 197.308C105.492 196.774 102.41 195.755 102.359 195.736L102.675 194.798C102.76 194.826 111.409 197.68 121.372 196.226C134.685 194.283 143.922 185.982 148.827 171.554C149.449 169.722 150.371 166.184 150.191 161.689C149.117 161.599 148.05 161.489 146.976 161.364C126.945 158.971 112.545 150.058 107.462 136.909C105.326 131.385 106.816 128.719 108.439 127.457C112.886 124.005 124.126 126.825 134.025 133.88C138.369 136.976 150.271 146.706 151.262 160.781C162.992 161.617 175.366 160.173 186.55 156.63C199.639 152.484 209.96 145.706 215.618 137.55C222.35 127.848 222.556 116.23 216.218 103.946C208.871 89.7147 197.073 77.639 181.143 68.0508C168.378 60.3636 152.949 54.2498 135.285 49.8782C105.178 42.4237 78.6741 42.6253 78.4096 42.6255L78.4008 41.637C78.6658 41.6325 105.275 41.4299 135.503 48.9117C153.269 53.3084 168.792 59.4594 181.643 67.1963C197.738 76.883 209.666 89.0972 217.095 103.492C223.614 116.119 223.384 128.092 216.43 138.112C205.495 153.868 178.063 163.673 151.314 161.779C151.418 164.943 150.966 168.316 149.755 171.874C143.479 190.335 130.912 195.842 121.474 197.212C117.282 197.819 113.317 197.685 110.098 197.312L110.103 197.308ZM115.73 127.081C112.868 126.75 110.509 127.097 109.05 128.233C107.098 129.748 106.87 132.622 108.386 136.549C113.329 149.346 127.441 158.032 147.094 160.382C148.099 160.498 149.114 160.603 150.135 160.69C149.579 153.282 145.936 143.571 133.456 134.678C127.442 130.393 120.802 127.665 115.73 127.077L115.73 127.081Z" fill="#505ECE"/>
</svg>
