<svg width="125" height="59" viewBox="0 0 125 59" fill="none" xmlns="http://www.w3.org/2000/svg">
<path d="M103.891 38.5099L104.354 34.629L110.773 33.0981L124.623 41.5925L103.891 38.5129V38.5099ZM104.812 35.0386L104.45 38.0853L122.252 40.7314L110.687 33.6393L104.812 35.0416V35.0386Z" fill="#00000A"/>
<path d="M125 41.9509L104.931 28.9268L85.8828 28.3169L125 41.9509Z" fill="#FF5A5F"/>
<path d="M111.152 28.0395L124.996 41.9515L116.627 19.2163L111.152 28.0395Z" fill="#FF5A5F"/>
<path d="M111.156 28.0403L110.779 32.7225L124.999 41.9523L111.156 28.0403Z" fill="#00000A"/>
<path d="M7.01732 58.2882C3.91978 57.5557 1.65642 56.0218 0.603973 53.7166C-0.798292 50.652 0.260134 46.5977 3.58192 42.3012C7.34621 37.4336 13.9599 32.282 22.7143 27.4025C32.2372 22.0924 42.4507 18.6301 53.0648 17.1172C55.8066 16.7255 58.5782 16.4624 61.3708 16.3279C63.7926 9.97432 65.0573 4.2068 65.4341 0L65.9364 0.044849C65.5596 4.24267 64.3099 9.9803 61.9179 16.301C67.5928 16.0648 73.3483 16.3578 79.1189 17.183C94.0983 19.3237 104.117 24.3797 104.219 24.4305L103.989 24.879C103.89 24.8282 93.9338 19.8051 79.0292 17.6763C73.2228 16.8481 67.4283 16.5581 61.7236 16.8122C60.0014 21.2732 57.7171 26.0122 54.7751 30.6944C49.3514 39.3292 39.7986 50.7506 25.0823 56.1175C18.0381 58.6858 11.6098 59.3705 7.01732 58.2852V58.2882ZM61.1735 16.8421C58.4676 16.9797 55.7827 17.2368 53.1246 17.6165C42.5762 19.1234 32.4285 22.5648 22.9625 27.842C14.2678 32.6886 7.705 37.7954 3.98257 42.6091C0.780378 46.7501 -0.257119 50.6221 1.06442 53.5073C2.21553 56.0188 5.08883 57.6663 9.15809 58.1417C13.5712 58.6589 19.0218 57.7948 24.9119 55.6451C39.4937 50.3261 48.9687 38.9943 54.3505 30.4283C57.2268 25.8447 59.4752 21.2134 61.1764 16.8421H61.1735Z" fill="#00000A"/>
</svg>
