<svg width="641" height="250" viewBox="0 0 641 250" fill="none" xmlns="http://www.w3.org/2000/svg">
<path d="M269.5 188L269.08 187.729L269.5 188ZM309.5 245.5L309.459 245.002L309.5 245.5ZM639.477 0.850194C639.394 0.586738 639.114 0.440234 638.85 0.522969L634.557 1.87122C634.293 1.95396 634.147 2.2346 634.23 2.49806C634.312 2.76151 634.593 2.90802 634.857 2.82528L638.673 1.62684L639.871 5.44308C639.954 5.70654 640.235 5.85304 640.498 5.77031C640.762 5.68757 640.908 5.40693 640.825 5.14347L639.477 0.850194ZM0.339751 228.474C33.6321 239.738 87.0442 251.253 139.107 249.187C191.158 247.122 241.989 231.475 269.92 188.272L269.08 187.729C241.411 230.526 190.992 246.128 139.068 248.188C87.1558 250.247 33.8679 238.762 0.660249 227.526L0.339751 228.474ZM269.92 188.272C274.272 181.54 277.418 175.933 279.538 171.332C281.656 166.737 282.765 163.118 283.016 160.37C283.267 157.625 282.667 155.646 281.23 154.497C279.813 153.363 277.731 153.163 275.309 153.602C270.455 154.482 263.772 158.016 256.767 163.164C249.747 168.324 242.346 175.148 236.054 182.68C229.765 190.207 224.563 198.467 221.969 206.499C219.373 214.534 219.374 222.397 223.585 229.049C227.79 235.69 236.123 241.012 249.942 244.132C263.764 247.254 283.141 248.188 309.541 245.998L309.459 245.002C283.109 247.187 263.845 246.247 250.162 243.157C236.474 240.066 228.436 234.841 224.43 228.514C220.431 222.197 220.381 214.669 222.92 206.806C225.461 198.94 230.579 190.793 236.821 183.321C243.06 175.852 250.402 169.083 257.36 163.969C264.334 158.844 270.865 155.424 275.488 154.586C277.804 154.166 279.526 154.414 280.606 155.278C281.666 156.126 282.257 157.692 282.021 160.279C281.784 162.863 280.728 166.362 278.63 170.913C276.536 175.458 273.416 181.022 269.08 187.729L269.92 188.272ZM309.541 245.998C394.085 238.986 466.682 196.71 523.069 146.749C579.456 96.7892 619.667 39.1146 639.443 1.23138L638.557 0.768617C618.833 38.5521 578.694 96.1276 522.406 146.001C466.118 195.874 393.715 238.014 309.459 245.002L309.541 245.998Z" fill="#232632"/>
</svg>
