<svg width="136" height="102" viewBox="0 0 136 102" fill="none" xmlns="http://www.w3.org/2000/svg">
<g opacity="0.7">
<path d="M66.1036 76.4797L65.5924 76.3136L65.2628 77.3046L65.7739 77.4707C67.5782 78.0531 69.5154 78.5232 71.5292 78.8146L72.048 78.8887L72.1962 77.8517L71.6774 77.7776C69.7249 77.4914 67.8491 77.0264 66.1036 76.4797Z" fill="#929AB0"/>
<path d="M73.4889 61.6425C72.85 63.0064 72.0552 64.3843 71.1378 65.7542L70.8822 66.1252L71.7972 66.5244L72.0527 66.1534C73.0034 64.7614 73.8007 63.3595 74.4753 61.9495L74.6721 61.5503L73.6831 61.2674L73.4889 61.6425Z" fill="#929AB0"/>
<path d="M60.53 76.6632C59.1269 77.935 57.6319 79.1992 56.1165 80.3382L55.6897 80.6421L56.3286 81.4978L56.7554 81.1939C58.3347 80.0294 59.8298 78.7652 61.2685 77.4346L61.6698 77.0668L60.9618 76.298L60.53 76.6632Z" fill="#929AB0"/>
<path d="M100.142 74.1635C101.908 73.354 103.682 72.4525 105.368 71.4821L105.823 71.2114L105.281 70.3021L104.827 70.5728C103.173 71.5151 101.43 72.4191 99.6975 73.2006L99.217 73.4074L99.6617 74.3703L100.142 74.1635Z" fill="#929AB0"/>
<path d="M89.0532 77.8989C90.9418 77.4699 92.8406 76.9184 94.7139 76.303L95.2224 76.1294L94.8723 75.1434L94.3637 75.3171C92.5211 75.935 90.6862 76.461 88.8283 76.8925L88.3248 77.0049L88.5472 78.0419L89.0532 77.8989Z" fill="#929AB0"/>
<path d="M77.3917 79.2422C79.3058 79.2474 81.2916 79.1352 83.2568 78.8978L83.7858 78.8493L83.658 77.7893L83.129 77.8378C81.1944 78.0778 79.2726 78.1645 77.3891 78.1618L76.8652 78.1489L76.8703 79.1987L77.3917 79.2422Z" fill="#929AB0"/>
<path d="M133.186 28.5879C133.559 26.7055 133.906 24.7593 134.19 22.8386L134.264 22.3201L133.198 22.1387L133.124 22.6572C132.841 24.5779 132.526 26.496 132.125 28.3451L132.02 28.8611L133.053 29.0706L133.186 28.5879Z" fill="#929AB0"/>
<path d="M74.9226 57.7381L75.9551 57.9026L76.0598 57.4974C76.4483 55.8748 76.645 54.3123 76.5811 52.8782L76.5632 52.465L75.5103 52.493L75.5282 52.9062C75.5972 54.2922 75.4081 55.7825 75.0248 57.357L74.9226 57.7381Z" fill="#929AB0"/>
<path d="M133.819 16.9125L133.776 17.4336L134.818 17.5205L134.862 16.9995C135.023 15.0686 135.156 13.1044 135.225 11.1659L135.237 10.6423L134.19 10.6167L134.177 11.1403C134.11 13.0482 133.98 14.9816 133.819 16.9125Z" fill="#929AB0"/>
<path d="M125.424 50.5629C126.337 48.8798 127.193 47.1303 127.993 45.3143L128.218 44.8393L127.264 44.4203L127.04 44.8954C126.273 46.6832 125.417 48.4327 124.507 50.0852L124.251 50.5577L125.166 51.066L125.424 50.5629Z" fill="#929AB0"/>
<path d="M118.841 60.2597C120.076 58.7886 121.287 57.223 122.381 55.5859L122.664 55.1466L121.788 54.5489L121.504 54.9882C120.413 56.5946 119.235 58.1321 118.034 59.5751L117.691 59.9786L118.499 60.6632L118.841 60.2597Z" fill="#929AB0"/>
<path d="M110.298 68.2824C111.847 67.1153 113.372 65.8537 114.811 64.5231L115.182 64.1528L114.474 63.3839L114.103 63.7542C112.698 65.0567 111.233 66.3235 109.69 67.4293L109.263 67.7332L109.902 68.5889L110.298 68.2824Z" fill="#929AB0"/>
<path d="M130.116 39.8433C130.73 38.0427 131.317 36.1782 131.849 34.2473L131.982 33.7646L130.955 33.4938L130.819 34.0072C130.321 35.9099 129.736 37.7438 129.125 39.5137L128.931 39.9913L129.92 40.3515L130.116 39.8433Z" fill="#929AB0"/>
<path d="M35.4362 90.5891C37.3836 90.1959 39.308 89.7082 41.1148 89.149L41.6208 89.006L41.3039 87.992L40.7979 88.135C39.0217 88.6968 37.1306 89.1564 35.2138 89.5521L34.7104 89.6644L34.9327 90.7014L35.4362 90.5891Z" fill="#929AB0"/>
<path d="M74.4445 48.5698L74.6515 48.9469L75.6124 48.622L75.4054 48.2449C74.5287 46.6121 73.1768 45.3845 71.4645 44.6423L70.9917 44.4417L70.4831 45.1597L70.9559 45.3603C72.4587 46.0404 73.6419 47.1115 74.4445 48.5698Z" fill="#929AB0"/>
<path d="M46.6274 87.1082C48.4521 86.3345 50.2257 85.433 51.8817 84.46L52.3366 84.1893L51.7948 83.28L51.3399 83.5507C49.7171 84.4956 48.0074 85.3715 46.2134 86.1478L45.7329 86.3547L46.1469 87.3151L46.6274 87.1082Z" fill="#929AB0"/>
<path d="M6.32779 91.1866L6.84659 91.2608L6.9948 90.2238L6.476 90.1497C4.58227 89.8992 2.62976 89.613 0.7437 89.2706L0.227456 89.1659L0.0485875 90.2003L0.564822 90.305C2.45089 90.6474 4.40339 90.9336 6.32779 91.1866Z" fill="#929AB0"/>
<path d="M49.2693 59.9837L50.3222 59.9557L50.3043 59.5425C50.248 58.0362 50.3758 56.5419 50.7156 55.0858L50.8204 54.6806L49.7854 54.5402L49.6806 54.9453C49.3356 56.4496 49.2002 58.0161 49.2514 59.5706L49.2693 59.9837Z" fill="#929AB0"/>
<path d="M12.1444 91.7953C14.1097 91.9282 16.0776 92.0305 17.9892 92.0665L18.5131 92.0793L18.5386 91.0321L18.0147 91.0193C16.1338 90.9859 14.1966 90.8862 12.2313 90.7532L11.71 90.7097L11.6231 91.7518L12.1444 91.7953Z" fill="#929AB0"/>
<path d="M23.8312 91.9979C25.8144 91.9163 27.7439 91.7377 29.676 91.5284L30.205 91.4799L30.0772 90.4199L29.5482 90.4684C27.6468 90.6802 25.7479 90.8614 23.7954 90.9456L23.269 90.9634L23.3048 92.0157L23.8312 91.9979Z" fill="#929AB0"/>
<path d="M65.3548 73.6893C66.6505 72.5381 67.8925 71.3106 68.9812 70.0731L69.2955 69.7302L68.4189 69.2608L68.1046 69.6037C67.0185 70.8171 65.8403 72.0245 64.5472 73.1517L64.2048 73.4686L65.0124 74.0062L65.3548 73.6893Z" fill="#929AB0"/>
<path d="M51.6919 65.669C51.4415 65.1194 51.2549 64.5497 51.0683 63.9801L50.9558 63.585L49.9464 63.7855L50.0588 64.1806C50.2428 64.7743 50.4575 65.37 50.708 65.9196C51.1067 66.8182 51.6 67.6988 52.1597 68.5352L52.3999 68.8903L53.3378 68.4912L53.0976 68.1361C52.5328 67.3478 52.0651 66.5174 51.6919 65.669Z" fill="#929AB0"/>
<path d="M60.0868 44.7695C61.0426 44.4927 62.0495 44.3163 63.1075 44.2401C63.9177 44.172 64.7201 44.1761 65.5788 44.2323L66.1002 44.2664L66.1871 43.4481L65.6657 43.4139C64.7763 43.3557 63.8819 43.3456 63.0104 43.4098C61.8578 43.504 60.7563 43.6984 59.7366 43.9952L59.2281 44.1316L59.5782 44.9058L60.0868 44.7695Z" fill="#929AB0"/>
<path d="M52.3715 50.8334C53.202 49.4093 54.26 48.1699 55.479 47.159L55.8496 46.8682L55.0777 46.2845L54.7072 46.5753C53.3885 47.6523 52.2922 48.962 51.3901 50.4783L51.1652 50.8514L52.1159 51.2044L52.3715 50.8334Z" fill="#929AB0"/>
<path d="M60.3866 75.1084L60.8288 75.307L61.368 74.591L60.9259 74.3924C59.2468 73.6281 57.7389 72.7054 56.4279 71.6743L56.0573 71.3835L55.3162 71.9651L55.6868 72.256C57.0515 73.3632 58.6181 74.3141 60.3866 75.1084Z" fill="#929AB0"/>
</g>
</svg>
