<svg width="274" height="187" viewBox="0 0 274 187" fill="none" xmlns="http://www.w3.org/2000/svg">
<g opacity="0.3">
<line x1="1" y1="0.5" x2="274" y2="0.5" stroke="#FAFAFA"/>
<line x1="1" y1="186.5" x2="274" y2="186.5" stroke="#FAFAFA"/>
<line x1="1" y1="149.301" x2="274" y2="149.301" stroke="#FAFAFA"/>
<line x1="1" y1="112.1" x2="274" y2="112.1" stroke="#FAFAFA"/>
<line x1="1" y1="74.8986" x2="274" y2="74.8986" stroke="#FAFAFA"/>
<line x1="1" y1="37.6993" x2="274" y2="37.6993" stroke="#FAFAFA"/>
<line x1="0.5" y1="187" x2="0.5" y2="1.00087" stroke="#FAFAFA"/>
<line x1="137" y1="187" x2="137" y2="1.00087" stroke="#FAFAFA"/>
<line x1="68.75" y1="187" x2="68.75" y2="1.00087" stroke="#FAFAFA"/>
<line x1="205.25" y1="187" x2="205.25" y2="1.00087" stroke="#FAFAFA"/>
<line x1="34.5" y1="186" x2="34.5" y2="1" stroke="#FAFAFA"/>
<line x1="171.125" y1="187" x2="171.125" y2="1.00087" stroke="#FAFAFA"/>
<line x1="102.875" y1="187" x2="102.875" y2="1.00087" stroke="#FAFAFA"/>
<line x1="239.5" y1="187" x2="239.5" y2="1" stroke="#FAFAFA"/>
<line x1="273.5" y1="187" x2="273.5" y2="1.00087" stroke="#FAFAFA"/>
</g>
</svg>
