<svg width="425" height="588" viewBox="0 0 425 588" fill="none" xmlns="http://www.w3.org/2000/svg">
<path d="M55.6265 436.349L99.0058 535.29C100.793 539.367 104.823 542 109.274 542L333.644 536.059C352.964 535.548 365.508 515.501 357.521 497.902C354.253 490.701 354.305 482.43 357.664 475.271L379.453 428.826C380.924 425.691 381.841 422.326 382.163 418.879L390.457 330.232C390.816 326.397 390.432 322.528 389.328 318.838L371 257.583C368.869 250.462 364.171 244.385 357.815 240.531L311.535 212.465C302.568 207.027 297.091 197.301 297.091 186.814V132.724C297.091 126.399 295.092 120.235 291.379 115.115L259.093 70.5844C254.425 64.1451 247.39 59.8233 239.536 58.5693L194.847 51.434C188.991 50.499 182.99 51.3205 177.601 53.7946L134.89 73.4023C124.856 78.0086 118.163 87.7539 117.466 98.7724L114.24 149.775C114.038 152.956 114.345 156.148 115.149 159.232L127.253 205.698C130.45 217.971 125.584 230.929 115.098 238.064L61.7029 274.394C53.1751 280.196 48.2261 289.973 48.5988 300.281L53.1214 425.387C53.258 429.166 54.108 432.886 55.6265 436.349Z" stroke="white" stroke-width="9"/>
<path d="M16.4627 459.801L78.4497 575.46C80.9378 580.103 85.7779 583 91.045 583L364.236 575.775C383.076 575.277 396.795 557.736 392.74 539.331L390.556 529.418C389.534 524.78 389.628 519.965 390.83 515.371L408.494 447.851C408.906 446.279 409.189 444.675 409.34 443.056L419.704 332.415C419.901 330.316 419.876 328.203 419.629 326.11L410.665 249.961C409.676 241.562 405.189 233.971 398.307 229.056L352.302 196.198C344.929 190.932 340.331 182.615 339.791 173.57L335.789 106.419C335.374 99.4558 332.546 92.8548 327.79 87.7515L268.399 24.0199C263.793 19.0774 257.654 15.8343 250.976 14.8155L188.024 5.21301C182.814 4.41837 177.487 5.00997 172.579 6.92826L103.438 33.9512C94.0033 37.6387 87.0665 45.8386 84.9936 55.7541L70.4679 125.239C69.565 129.558 69.6259 134.023 70.6464 138.316L83.8399 193.819C86.565 205.283 82.3267 217.28 73.0053 224.489L16.4353 268.235C8.64731 274.258 4.3099 283.718 4.82923 293.549L12.9463 447.212C13.1789 451.616 14.3796 455.914 16.4627 459.801Z" stroke="white" stroke-width="9"/>
</svg>
