<svg width="50" height="63" viewBox="0 0 50 63" fill="none" xmlns="http://www.w3.org/2000/svg">
<g clip-path="url(#clip0_3076_2084)">
<path d="M37.0968 18.6272C37.0968 18.6272 18.4508 16.6298 18.4508 0C18.4508 16.2193 1.18703 18.4089 0.13853 18.5267H0C0 18.5267 18.647 20.5221 18.647 37.1538C18.647 20.9355 35.9107 18.745 36.9592 18.6272H37.0968Z" fill="#505ECE"/>
<path d="M50.5378 54.6765C50.5378 54.6765 42.1606 53.7789 42.1606 46.3077C42.1606 53.5947 34.4044 54.5785 33.9334 54.6313H33.8711C33.8711 54.6313 42.2487 55.5278 42.2487 63C42.2487 55.7136 50.0049 54.7293 50.4759 54.6765H50.5378Z" fill="#505ECE"/>
</g>
<defs>
<clipPath id="clip0_3076_2084">
<rect width="50" height="63" fill="white"/>
</clipPath>
</defs>
</svg>
