<svg width="107" height="60" viewBox="0 0 107 60" fill="none" xmlns="http://www.w3.org/2000/svg">
<g clip-path="url(#clip0_2715_2997)">
<path d="M103.357 60L25.5308 59.403C23.768 59.403 22.3284 57.9104 22.3284 56.1194L22.7103 3.25373C22.7103 1.46269 24.1793 0 25.9421 0L103.798 0.597015C105.59 0.597015 107 2.08955 107 3.8806L106.618 56.7463C106.589 58.5672 105.149 60.0299 103.357 60Z" fill="#FF5A5F"/>
<path d="M25.1194 29.403L0 55.4328L30.9953 49.5522L25.1194 29.403Z" fill="#FF5A5F"/>
<path d="M47.8004 25.7314L55.3509 25.5821C55.3509 25.5821 64.8699 18.3582 65.1637 15.7911C65.4574 13.2239 63.9003 7.82091 65.3693 7.13434C66.8383 6.44777 69.9819 5.91046 71.9503 9.31345C73.3899 11.7612 72.1853 20.7463 73.0667 21.3433C73.6249 21.7314 77.9731 21.7612 81.1461 21.7314C83.232 21.7314 85.1417 22.8955 86.1406 24.7761C86.8163 26.0299 86.4931 27.612 85.4061 28.5373L83.7315 29.9702L85.0535 31.7612C86.0524 33.1045 85.788 34.9851 84.466 36L83.1439 37.0448L84.0546 38.0896C85.2298 39.4627 84.9948 41.5523 83.5258 42.5672L82.3506 43.403L82.5269 43.7314C83.2614 45.1045 82.8501 46.8358 81.5574 47.7015L80.3822 48.5075L60.2279 48.8657C58.3476 48.8955 56.4673 48.5373 54.7339 47.8209L47.6241 46.7463C46.8602 46.6269 46.302 45.9702 46.302 45.194L46.2433 27.2836C46.2433 26.4776 46.9484 25.7612 47.8004 25.7314Z" fill="white"/>
</g>
<defs>
<clipPath id="clip0_2715_2997">
<rect width="107" height="60" fill="white" transform="matrix(-1 0 0 1 107 0)"/>
</clipPath>
</defs>
</svg>
