<svg width="116" height="129" viewBox="0 0 116 129" fill="none" xmlns="http://www.w3.org/2000/svg">
<path d="M1.41593 109.299L21.2438 109.123L26.9978 114.761L25.042 119.113L1.41872 109.299L1.41593 109.299ZM20.9947 109.74L4.4386 109.887L24.7253 118.315L26.2603 114.902L20.9947 109.74Z" fill="#00000A"/>
<path d="M0.78896 109.435L29.9739 108.432L50.2837 119.771L0.78896 109.435Z" fill="#FF5A5F"/>
<path d="M24.0158 103.587L0.785486 109.436L23.8371 90.9135L24.0158 103.587Z" fill="#FF5A5F"/>
<path d="M24.0164 103.586L21.4661 108.722L0.786088 109.435L24.0164 103.586Z" fill="#00000A"/>
<path d="M38.5685 102.441C35.5751 102.094 33.574 101.432 33.5411 101.42L33.7462 100.811C33.8014 100.829 39.4162 102.682 45.8849 101.738C54.5283 100.477 60.5251 95.0876 63.7092 85.7206C64.1133 84.5311 64.7118 82.2337 64.5952 79.3153C63.8979 79.2573 63.205 79.1856 62.5075 79.1047C49.5028 77.5507 40.1542 71.7644 36.8541 63.228C35.467 59.6414 36.4347 57.9106 37.4885 57.0912C40.3756 54.8503 47.6731 56.6811 54.0993 61.2613C56.9199 63.2713 64.6472 69.5879 65.2902 78.7262C72.9059 79.2689 80.9393 78.3317 88.2006 76.0314C96.6979 73.3392 103.399 68.9391 107.072 63.6441C111.443 57.3453 111.576 49.8024 107.462 41.8269C102.692 32.5878 95.0324 24.7479 84.69 18.5229C76.4025 13.5322 66.3853 9.56291 54.9176 6.72474C35.3709 1.885 18.1641 2.01592 17.9923 2.01604L17.9866 1.37431C18.1587 1.37137 35.4343 1.23984 55.059 6.09721C66.5936 8.95172 76.671 12.9451 85.0148 17.9681C95.4642 24.2571 103.208 32.1868 108.031 41.5323C112.263 49.7304 112.114 57.5033 107.599 64.0086C100.5 74.2381 82.6905 80.6039 65.3239 79.3741C65.3919 81.4282 65.0979 83.6179 64.3119 85.9279C60.2375 97.9134 52.0784 101.489 45.9509 102.378C43.2293 102.772 40.655 102.686 38.5653 102.443L38.5685 102.441ZM42.2218 56.8474C40.3637 56.6319 38.8321 56.8578 37.8851 57.5951C36.6177 58.5786 36.47 60.4446 37.4536 62.9942C40.6628 71.3025 49.8253 76.9413 62.5843 78.4668C63.2367 78.5424 63.8956 78.6103 64.5587 78.6672C64.1978 73.8573 61.8323 67.5529 53.7301 61.7794C49.8257 58.997 45.5149 57.2264 42.2222 56.8445L42.2218 56.8474Z" fill="white" fill-opacity="0.61"/>
</svg>
