<svg width="178" height="197" viewBox="0 0 178 197" fill="none" xmlns="http://www.w3.org/2000/svg">
<path d="M2.17268 168.06L32.598 167.789L41.4273 176.458L38.4261 183.149L2.17696 168.061L2.17268 168.06ZM32.2158 168.739L6.81088 168.964L37.9402 181.922L40.2956 176.674L32.2158 168.739Z" fill="#00000A"/>
<path d="M1.21049 168.27L45.9941 166.728L77.1587 184.16L1.21049 168.27Z" fill="#FF5A5F"/>
<path d="M36.8509 159.28L1.20495 168.271L36.5767 139.797L36.8509 159.28Z" fill="#FF5A5F"/>
<path d="M36.8508 159.278L32.9373 167.174L1.20435 168.27L36.8508 159.278Z" fill="#00000A"/>
<path d="M59.1844 157.518C54.5911 156.984 51.5206 155.968 51.4701 155.948L51.7848 155.013C51.8694 155.04 60.4853 157.889 70.4113 156.438C83.6742 154.499 92.8761 146.215 97.7619 131.815C98.382 129.986 99.3002 126.455 99.1213 121.968C98.0513 121.879 96.9881 121.769 95.9178 121.644C75.9625 119.255 61.6173 110.36 56.5533 97.2373C54.4249 91.7237 55.9098 89.063 57.5267 87.8034C61.9569 84.3585 73.1546 87.173 83.0154 94.2142C87.3436 97.304 99.201 107.015 100.188 121.063C111.874 121.897 124.201 120.456 135.343 116.92C148.382 112.782 158.664 106.018 164.301 97.8777C171.007 88.1948 171.212 76.5994 164.898 64.3388C157.579 50.1357 145.826 38.0835 129.955 28.5139C117.239 20.8418 101.867 14.7398 84.2705 10.3766C54.2767 2.93638 27.8734 3.13745 27.6099 3.13763L27.6011 2.15111C27.8651 2.14659 54.3739 1.94459 84.4876 9.41193C102.187 13.8002 117.65 19.9393 130.454 27.6611C146.488 37.329 158.37 49.5194 165.771 63.886C172.266 76.4886 172.038 88.4377 165.11 98.4381C154.216 114.164 126.888 123.949 100.239 122.059C100.344 125.216 99.8927 128.582 98.6868 132.134C92.4348 150.558 79.915 156.055 70.5126 157.422C66.3363 158.028 62.3862 157.894 59.1796 157.522L59.1844 157.518ZM64.7899 87.4286C61.9386 87.0973 59.5884 87.4446 58.1354 88.578C56.1906 90.0899 55.9639 92.9585 57.4732 96.8779C62.3977 109.65 76.4574 118.319 96.0357 120.664C97.0367 120.78 98.0478 120.884 99.0653 120.972C98.5115 113.578 94.8817 103.886 82.4489 95.0107C76.4577 90.7333 69.843 88.0113 64.7904 87.4243L64.7899 87.4286Z" fill="black" fill-opacity="0.61"/>
</svg>
