<svg width="1283" height="353" viewBox="0 0 1283 353" fill="none" xmlns="http://www.w3.org/2000/svg">
<path d="M696 47.8212C696 47.314 696.193 46.8257 696.539 46.4552L727.166 13.7012C728.405 12.3759 730.627 13.2528 730.627 15.0672V338.219C730.627 340.033 728.405 340.91 727.166 339.585L696.539 306.831C696.193 306.46 696 305.972 696 305.465V47.8212Z" fill="url(#paint0_linear_2948_1202)"/>
<path d="M593.258 52.8212C593.258 52.314 593.065 51.8257 592.719 51.4552L562.092 18.7012C560.852 17.3759 558.631 18.2528 558.631 20.0672V343.219C558.631 345.033 560.852 345.91 562.092 344.585L592.719 311.831C593.065 311.46 593.258 310.972 593.258 310.465V52.8212Z" fill="url(#paint1_linear_2948_1202)"/>
<path d="M805 66.5349C805 65.9126 805.29 65.3258 805.784 64.9473L874.284 12.4643C875.6 11.4562 877.501 12.3943 877.501 14.0519V339.234C877.501 340.892 875.6 341.83 874.284 340.822L805.784 288.339C805.29 287.96 805 287.374 805 286.751V66.5349Z" fill="url(#paint2_linear_2948_1202)"/>
<path d="M484.633 71.5259C484.633 70.9087 484.348 70.3261 483.861 69.9472L416.442 17.5106C415.129 16.4888 413.214 17.425 413.214 19.0893V344.197C413.214 345.861 415.129 346.797 416.442 345.776L483.861 293.339C484.348 292.96 484.633 292.378 484.633 291.76V71.5259Z" fill="url(#paint3_linear_2948_1202)"/>
<path d="M952 88.7924C952 88.1485 952.31 87.544 952.833 87.1683L1057.04 12.2761C1058.37 11.3252 1060.21 12.2708 1060.21 13.9002V339.386C1060.21 341.015 1058.37 341.961 1057.04 341.01L952.833 266.118C952.31 265.742 952 265.138 952 264.494V88.7924Z" fill="url(#paint4_linear_2948_1202)"/>
<path d="M1134 108.843C1134 108.171 1134.34 107.544 1134.9 107.174L1279.11 12.0458C1280.44 11.1686 1282.21 12.1223 1282.21 13.7152V339.571C1282.21 341.164 1280.44 342.118 1279.11 341.24L1134.9 246.112C1134.34 245.742 1134 245.115 1134 244.443V108.843Z" fill="url(#paint5_linear_2948_1202)"/>
<path d="M157 104.626C157 103.954 156.662 103.327 156.101 102.957L3.10117 2.04538C1.77142 1.16835 0 2.12202 0 3.71494V349.285C0 350.878 1.77142 351.832 3.10117 350.955L156.101 250.043C156.662 249.673 157 249.046 157 248.374V104.626Z" fill="url(#paint6_linear_2948_1202)"/>
<path d="M339.211 93.7924C339.211 93.1485 338.901 92.544 338.378 92.1683L234.168 17.2761C232.845 16.3252 231.001 17.2708 231.001 18.9002V344.386C231.001 346.015 232.845 346.961 234.168 346.01L338.378 271.118C338.901 270.742 339.211 270.138 339.211 269.494V93.7924Z" fill="url(#paint7_linear_2948_1202)"/>
<defs>
<linearGradient id="paint0_linear_2948_1202" x1="695.758" y1="177" x2="730.758" y2="177" gradientUnits="userSpaceOnUse">
<stop stop-color="#FFF0CA"/>
<stop offset="1" stop-color="#FF8B7C"/>
</linearGradient>
<linearGradient id="paint1_linear_2948_1202" x1="593.5" y1="182" x2="558.5" y2="182" gradientUnits="userSpaceOnUse">
<stop stop-color="#FFF0CA"/>
<stop offset="1" stop-color="#FF8B7C"/>
</linearGradient>
<linearGradient id="paint2_linear_2948_1202" x1="804.493" y1="177" x2="877.774" y2="177" gradientUnits="userSpaceOnUse">
<stop stop-color="#FFF0CA"/>
<stop offset="1" stop-color="#FF8B7C"/>
</linearGradient>
<linearGradient id="paint3_linear_2948_1202" x1="485.132" y1="182" x2="412.945" y2="182" gradientUnits="userSpaceOnUse">
<stop stop-color="#FFF0CA"/>
<stop offset="1" stop-color="#FF8B7C"/>
</linearGradient>
<linearGradient id="paint4_linear_2948_1202" x1="951.243" y1="177" x2="1060.62" y2="177" gradientUnits="userSpaceOnUse">
<stop stop-color="#FFF0CA"/>
<stop offset="1" stop-color="#FF8B7C"/>
</linearGradient>
<linearGradient id="paint5_linear_2948_1202" x1="1132.96" y1="177" x2="1282.77" y2="176.999" gradientUnits="userSpaceOnUse">
<stop stop-color="#FFF0CA"/>
<stop offset="1" stop-color="#FF8B7C"/>
</linearGradient>
<linearGradient id="paint6_linear_2948_1202" x1="158.098" y1="176.878" x2="-0.592489" y2="176.877" gradientUnits="userSpaceOnUse">
<stop stop-color="#FFF0CA"/>
<stop offset="1" stop-color="#FF8B7C"/>
</linearGradient>
<linearGradient id="paint7_linear_2948_1202" x1="339.968" y1="182" x2="230.593" y2="182" gradientUnits="userSpaceOnUse">
<stop stop-color="#FFF0CA"/>
<stop offset="1" stop-color="#FF8B7C"/>
</linearGradient>
</defs>
</svg>
