<svg width="548" height="227" viewBox="0 0 548 227" fill="none" xmlns="http://www.w3.org/2000/svg">
<path opacity="0.2" d="M478.5 30H547V185.5H428" stroke="black" stroke-width="2" stroke-dasharray="14 14"/>
<g clip-path="url(#clip0_3026_1078)">
<path d="M512.357 60L434.531 59.403C432.768 59.403 431.328 57.9105 431.328 56.1194L431.71 3.25373C431.71 1.46269 433.179 0 434.942 0L512.798 0.597015C514.59 0.597015 516 2.08955 516 3.8806L515.618 56.7463C515.589 58.5672 514.149 60.0299 512.357 60Z" fill="#FF5A5F"/>
<path d="M434.119 29.403L409 55.4328L439.995 49.5522L434.119 29.403Z" fill="#FF5A5F"/>
<path d="M456.8 25.7314L464.351 25.5821C464.351 25.5821 473.87 18.3582 474.164 15.7911C474.458 13.2239 472.9 7.82091 474.369 7.13434C475.838 6.44777 478.982 5.91046 480.95 9.31345C482.39 11.7612 481.185 20.7463 482.067 21.3433C482.625 21.7314 486.973 21.7612 490.146 21.7314C492.232 21.7314 494.142 22.8955 495.141 24.7761C495.816 26.0299 495.493 27.612 494.406 28.5373L492.732 29.9702L494.054 31.7612C495.053 33.1045 494.788 34.9851 493.466 36L492.144 37.0448L493.055 38.0896C494.23 39.4627 493.995 41.5523 492.526 42.5672L491.351 43.403L491.527 43.7314C492.261 45.1045 491.85 46.8358 490.557 47.7015L489.382 48.5075L469.228 48.8657C467.348 48.8955 465.467 48.5373 463.734 47.8209L456.624 46.7463C455.86 46.6269 455.302 45.9702 455.302 45.194L455.243 27.2836C455.243 26.4776 455.948 25.7612 456.8 25.7314Z" fill="white"/>
</g>
<rect opacity="0.8" x="34" y="101" width="395" height="86" rx="10" fill="#F1EFEF"/>
<rect x="16" y="113" width="431" height="94" rx="10" fill="#F1EFEF"/>
<rect y="125" width="463" height="102" rx="10" fill="white"/>
<rect x="362" y="174" width="35" height="18" rx="9" fill="#FF5A5F"/>
<path d="M367.146 187V186.048L369.671 183.573C369.913 183.329 370.114 183.113 370.275 182.923C370.436 182.734 370.557 182.55 370.637 182.373C370.718 182.195 370.758 182.006 370.758 181.805C370.758 181.575 370.706 181.379 370.602 181.215C370.497 181.049 370.354 180.922 370.172 180.832C369.99 180.742 369.782 180.697 369.55 180.697C369.311 180.697 369.102 180.746 368.922 180.846C368.742 180.943 368.602 181.081 368.503 181.261C368.406 181.441 368.357 181.656 368.357 181.904H367.104C367.104 181.442 367.209 181.041 367.42 180.7C367.63 180.359 367.92 180.095 368.29 179.908C368.661 179.721 369.088 179.628 369.568 179.628C370.056 179.628 370.484 179.719 370.854 179.901C371.223 180.084 371.509 180.333 371.713 180.651C371.919 180.968 372.022 181.33 372.022 181.737C372.022 182.009 371.97 182.277 371.866 182.54C371.762 182.803 371.578 183.094 371.315 183.413C371.055 183.733 370.689 184.12 370.218 184.575L368.964 185.849V185.899H372.132V187H367.146ZM376.015 179.727V187H374.698V181.009H374.655L372.954 182.096V180.888L374.762 179.727H376.015ZM381.45 185.636V185.253C381.45 184.971 381.51 184.712 381.628 184.475C381.749 184.238 381.924 184.048 382.154 183.903C382.383 183.759 382.661 183.687 382.988 183.687C383.324 183.687 383.606 183.759 383.833 183.903C384.061 184.045 384.232 184.235 384.348 184.472C384.467 184.708 384.526 184.969 384.526 185.253V185.636C384.526 185.918 384.467 186.177 384.348 186.414C384.23 186.651 384.056 186.841 383.826 186.986C383.599 187.13 383.32 187.202 382.988 187.202C382.657 187.202 382.376 187.13 382.146 186.986C381.917 186.841 381.743 186.651 381.624 186.414C381.508 186.177 381.45 185.918 381.45 185.636ZM382.377 185.253V185.636C382.377 185.823 382.422 185.995 382.512 186.151C382.602 186.308 382.761 186.386 382.988 186.386C383.218 186.386 383.375 186.309 383.46 186.155C383.548 185.999 383.592 185.826 383.592 185.636V185.253C383.592 185.063 383.55 184.891 383.467 184.734C383.385 184.576 383.225 184.496 382.988 184.496C382.766 184.496 382.608 184.576 382.516 184.734C382.423 184.891 382.377 185.063 382.377 185.253ZM377.754 181.474V181.091C377.754 180.807 377.814 180.546 377.935 180.31C378.056 180.073 378.231 179.884 378.46 179.741C378.69 179.597 378.968 179.525 379.295 179.525C379.629 179.525 379.909 179.597 380.137 179.741C380.366 179.884 380.539 180.073 380.655 180.31C380.771 180.546 380.829 180.807 380.829 181.091V181.474C380.829 181.759 380.77 182.019 380.651 182.256C380.535 182.49 380.363 182.678 380.133 182.82C379.903 182.962 379.624 183.033 379.295 183.033C378.961 183.033 378.679 182.962 378.45 182.82C378.222 182.678 378.05 182.489 377.931 182.252C377.813 182.015 377.754 181.756 377.754 181.474ZM378.688 181.091V181.474C378.688 181.664 378.731 181.837 378.819 181.993C378.909 182.147 379.068 182.224 379.295 182.224C379.522 182.224 379.678 182.147 379.764 181.993C379.851 181.837 379.895 181.664 379.895 181.474V181.091C379.895 180.902 379.854 180.729 379.771 180.572C379.688 180.414 379.529 180.335 379.295 180.335C379.07 180.335 378.913 180.414 378.823 180.572C378.733 180.731 378.688 180.904 378.688 181.091ZM378.159 187L383.159 179.727H384.046L379.046 187H378.159Z" fill="white"/>
<path d="M390 185.5L387.835 181.75H392.165L390 185.5Z" fill="white"/>
<path opacity="0.3" d="M22.52 143.304L25.304 150H26.408L29.192 143.292V150H30.62V141.504H28.616L25.844 148.188L23.096 141.504H21.092V150H22.52V143.304ZM35.083 143.664C33.127 143.664 31.771 145.02 31.771 146.952C31.771 148.884 33.127 150.24 35.083 150.24C37.027 150.24 38.395 148.884 38.395 146.952C38.395 145.02 37.027 143.664 35.083 143.664ZM35.083 149.076C33.907 149.076 33.079 148.188 33.079 146.952C33.079 145.716 33.907 144.828 35.083 144.828C36.247 144.828 37.099 145.716 37.099 146.952C37.099 148.188 36.247 149.076 35.083 149.076ZM39.3288 143.904V150H40.6368V146.496C40.6368 145.524 41.3928 144.828 42.3048 144.828C43.2168 144.828 43.7568 145.476 43.7568 146.376V150H45.0528V146.28C45.0528 144.768 44.0808 143.664 42.5928 143.664C41.8008 143.664 41.0448 144.048 40.6128 144.684V143.904H39.3288ZM46.6328 150.168C46.6328 150.588 46.3328 151.104 45.9008 151.416L46.5488 151.764C47.1248 151.368 47.5448 150.516 47.5448 149.688C47.5448 149.028 47.1968 148.596 46.6808 148.596C46.2248 148.596 45.8888 148.92 45.8888 149.376C45.8888 149.844 46.1888 150.168 46.6328 150.168ZM53.3841 150H54.8121V141.504H53.6241L51.2961 143.244V144.816L53.3841 143.256V150ZM60.1758 142.692L58.0998 144.972L58.4838 145.92C58.6758 145.836 58.9758 145.776 59.2158 145.776C60.2358 145.776 60.9798 146.484 60.9798 147.444C60.9798 148.392 60.2238 149.076 59.1798 149.076C58.2078 149.076 57.4278 148.236 57.2718 147.072L56.0118 147.288C56.1438 149.028 57.4998 150.3 59.2278 150.3C61.0518 150.3 62.3598 149.124 62.3598 147.504C62.3598 146.052 61.3758 144.96 59.9598 144.78L62.0718 142.404V141.504H56.4798V142.692H60.1758ZM70.2673 142.752L71.9473 147.336H68.5993L70.2673 142.752ZM68.2873 148.416H72.2473L72.8113 150H74.3353L71.3113 141.504H69.2233L66.1873 150H67.7233L68.2873 148.416ZM78.2921 149.016C77.1281 149.016 76.2881 148.14 76.2881 146.952C76.2881 145.764 77.1281 144.888 78.2921 144.888C79.4441 144.888 80.3081 145.74 80.3081 146.952C80.3081 148.14 79.4561 149.016 78.2921 149.016ZM81.6041 146.952C81.6041 145.044 80.3081 143.664 78.5441 143.664C77.6081 143.664 76.8281 144.072 76.3001 144.756V143.904H75.0281V152.76H76.3361V149.172C76.8521 149.844 77.6321 150.24 78.5441 150.24C80.3201 150.24 81.6041 148.86 81.6041 146.952ZM82.5437 143.904V150H83.8517V146.664C83.8517 145.584 84.4277 144.816 85.2917 144.816C85.5317 144.816 85.9037 144.864 86.2397 145.008V143.844C85.9757 143.748 85.6997 143.688 85.4597 143.688C84.7637 143.688 84.1757 144.06 83.8037 144.684V143.904H82.5437ZM86.5664 150.168C86.5664 150.588 86.2664 151.104 85.8344 151.416L86.4824 151.764C87.0584 151.368 87.4784 150.516 87.4784 149.688C87.4784 149.028 87.1304 148.596 86.6144 148.596C86.1584 148.596 85.8224 148.92 85.8224 149.376C85.8224 149.844 86.1224 150.168 86.5664 150.168ZM95.2977 150.3C97.5297 150.3 99.0297 148.392 99.0297 145.752C99.0297 143.112 97.5297 141.204 95.2977 141.204C93.0657 141.204 91.5657 143.112 91.5657 145.752C91.5657 148.392 93.0657 150.3 95.2977 150.3ZM95.2977 142.464C96.6897 142.464 97.5897 143.844 97.5897 145.752C97.5897 147.66 96.6897 149.052 95.2977 149.052C93.9057 149.052 93.0057 147.66 93.0057 145.752C93.0057 143.844 93.9057 142.464 95.2977 142.464ZM103.46 146.112C104.492 146.112 105.248 146.736 105.248 147.588C105.248 148.452 104.504 149.064 103.46 149.064C102.428 149.064 101.684 148.452 101.684 147.588C101.684 146.736 102.428 146.112 103.46 146.112ZM103.46 142.404C104.372 142.404 105.02 142.932 105.02 143.676C105.02 144.432 104.372 144.984 103.46 144.984C102.56 144.984 101.9 144.432 101.9 143.676C101.9 142.932 102.56 142.404 103.46 142.404ZM103.46 141.192C101.744 141.192 100.496 142.152 100.496 143.508C100.496 144.42 101.06 145.248 101.84 145.476C100.844 145.704 100.136 146.676 100.136 147.744C100.136 149.22 101.528 150.276 103.46 150.276C105.392 150.276 106.784 149.232 106.784 147.744C106.784 146.676 106.064 145.704 105.08 145.476C105.86 145.248 106.424 144.42 106.424 143.508C106.424 142.128 105.176 141.192 103.46 141.192ZM108.474 150.168C108.954 150.168 109.278 149.832 109.278 149.364C109.278 148.908 108.954 148.584 108.474 148.584C108.006 148.584 107.67 148.908 107.67 149.364C107.67 149.832 108.006 150.168 108.474 150.168ZM108.474 145.668C108.954 145.668 109.278 145.344 109.278 144.876C109.278 144.42 108.954 144.084 108.474 144.084C108.006 144.084 107.67 144.42 107.67 144.876C107.67 145.344 108.006 145.668 108.474 145.668ZM113.055 145.584C114.315 145.584 115.047 146.34 115.047 147.384C115.047 148.368 114.303 149.076 113.259 149.076C112.239 149.076 111.447 148.236 111.351 147.072L110.091 147.276C110.223 149.028 111.543 150.3 113.307 150.3C115.131 150.3 116.439 149.076 116.439 147.384C116.439 145.692 115.227 144.468 113.307 144.468H112.047L112.239 142.692H115.755V141.504H111.123L110.691 145.584H113.055ZM121.212 150.3C123.444 150.3 124.944 148.392 124.944 145.752C124.944 143.112 123.444 141.204 121.212 141.204C118.98 141.204 117.48 143.112 117.48 145.752C117.48 148.392 118.98 150.3 121.212 150.3ZM121.212 142.464C122.604 142.464 123.504 143.844 123.504 145.752C123.504 147.66 122.604 149.052 121.212 149.052C119.82 149.052 118.92 147.66 118.92 145.752C118.92 143.844 119.82 142.464 121.212 142.464ZM132.589 142.692C133.885 142.692 134.809 143.424 134.809 144.456C134.821 145.476 133.885 146.208 132.589 146.208H130.933V142.692H132.589ZM132.817 147.408C134.821 147.408 136.249 146.172 136.249 144.456C136.249 142.74 134.821 141.504 132.829 141.504H129.541V150H130.933V147.408H132.817ZM138.836 143.304L141.62 150H142.724L145.508 143.292V150H146.936V141.504H144.932L142.16 148.188L139.412 141.504H137.408V150H138.836V143.304Z" fill="black"/>
<path d="M72.274 187H75.648C79.092 187 81.388 185.026 81.388 182.044C81.388 179.062 79.092 177.088 75.648 177.088H72.274V187ZM79.708 182.044C79.708 184.228 78.07 185.6 75.648 185.6H73.94V178.488H75.648C78.07 178.488 79.708 179.86 79.708 182.044ZM82.6779 179.888V187H84.2039V183.108C84.2039 181.848 84.8759 180.952 85.8839 180.952C86.1639 180.952 86.5979 181.008 86.9899 181.176V179.818C86.6819 179.706 86.3599 179.636 86.0799 179.636C85.2679 179.636 84.5819 180.07 84.1479 180.798V179.888H82.6779ZM90.9829 179.608C88.7009 179.608 87.1189 181.19 87.1189 183.444C87.1189 185.698 88.7009 187.28 90.9829 187.28C93.2509 187.28 94.8469 185.698 94.8469 183.444C94.8469 181.19 93.2509 179.608 90.9829 179.608ZM90.9829 185.922C89.6109 185.922 88.6449 184.886 88.6449 183.444C88.6449 182.002 89.6109 180.966 90.9829 180.966C92.3409 180.966 93.3349 182.002 93.3349 183.444C93.3349 184.886 92.3409 185.922 90.9829 185.922ZM99.8277 185.852C98.4697 185.852 97.4897 184.83 97.4897 183.444C97.4897 182.058 98.4697 181.036 99.8277 181.036C101.172 181.036 102.18 182.03 102.18 183.444C102.18 184.83 101.186 185.852 99.8277 185.852ZM103.692 183.444C103.692 181.218 102.18 179.608 100.122 179.608C99.0297 179.608 98.1197 180.084 97.5037 180.882V179.888H96.0197V190.22H97.5457V186.034C98.1477 186.818 99.0577 187.28 100.122 187.28C102.194 187.28 103.692 185.67 103.692 183.444ZM108.888 179.888V187H110.4V179.888H108.888ZM109.644 178.74C110.19 178.74 110.582 178.348 110.582 177.802C110.582 177.27 110.19 176.892 109.644 176.892C109.084 176.892 108.692 177.27 108.692 177.802C108.692 178.348 109.084 178.74 109.644 178.74ZM112.102 179.888V187H113.628V182.912C113.628 181.778 114.51 180.966 115.574 180.966C116.638 180.966 117.268 181.722 117.268 182.772V187H118.78V182.66C118.78 180.896 117.646 179.608 115.91 179.608C114.986 179.608 114.104 180.056 113.6 180.798V179.888H112.102ZM130.085 184.858C130.085 183.248 128.335 182.954 126.977 182.73C125.829 182.534 125.297 182.366 125.297 181.834C125.297 181.26 125.941 180.84 126.711 180.84C127.733 180.84 128.475 181.33 128.489 182.03H129.903C129.903 180.616 128.559 179.594 126.725 179.594C125.115 179.594 123.869 180.546 123.869 181.848C123.869 183.542 125.129 183.752 126.795 184.004C127.509 184.102 128.615 184.284 128.615 185.026C128.629 185.614 127.943 186.048 126.991 186.048C125.927 186.048 125.157 185.432 125.157 184.592H123.757C123.757 186.16 125.115 187.294 126.991 187.294C128.797 187.294 130.085 186.272 130.085 184.858ZM137.839 187V179.888H136.327V183.976C136.327 185.11 135.431 185.922 134.381 185.922C133.303 185.922 132.687 185.166 132.687 184.116V179.888H131.161V184.228C131.161 185.992 132.295 187.28 134.045 187.28C134.955 187.28 135.851 186.832 136.341 186.09V187H137.839ZM143.168 181.036C144.526 181.036 145.52 182.058 145.52 183.444C145.52 184.858 144.512 185.852 143.168 185.852C141.81 185.852 140.83 184.83 140.83 183.444C140.83 182.058 141.81 181.036 143.168 181.036ZM147.032 183.444C147.032 181.218 145.534 179.608 143.462 179.608C142.398 179.608 141.488 180.07 140.886 180.854V176.668H139.36V187H140.844V186.006C141.46 186.804 142.37 187.28 143.462 187.28C145.52 187.28 147.032 185.67 147.032 183.444ZM149.737 187V182.828C149.737 181.708 150.409 180.966 151.417 180.966C152.397 180.966 153.027 181.708 153.027 182.828V187H154.553V182.828C154.553 181.75 155.267 180.966 156.261 180.966C157.227 180.98 157.913 181.75 157.913 182.828V187H159.425V182.702C159.425 180.896 158.249 179.622 156.583 179.622C155.561 179.622 154.665 180.14 154.175 180.952C153.755 180.14 152.831 179.608 151.725 179.608C150.871 179.608 150.129 180.014 149.681 180.7V179.888H148.211V187H149.737ZM160.991 179.888V187H162.503V179.888H160.991ZM161.747 178.74C162.293 178.74 162.685 178.348 162.685 177.802C162.685 177.27 162.293 176.892 161.747 176.892C161.187 176.892 160.795 177.27 160.795 177.802C160.795 178.348 161.187 178.74 161.747 178.74ZM170.309 184.858C170.309 183.248 168.559 182.954 167.201 182.73C166.053 182.534 165.521 182.366 165.521 181.834C165.521 181.26 166.165 180.84 166.935 180.84C167.957 180.84 168.699 181.33 168.713 182.03H170.127C170.127 180.616 168.783 179.594 166.949 179.594C165.339 179.594 164.093 180.546 164.093 181.848C164.093 183.542 165.353 183.752 167.019 184.004C167.733 184.102 168.839 184.284 168.839 185.026C168.853 185.614 168.167 186.048 167.215 186.048C166.151 186.048 165.381 185.432 165.381 184.592H163.981C163.981 186.16 165.339 187.294 167.215 187.294C169.021 187.294 170.309 186.272 170.309 184.858ZM177.63 184.858C177.63 183.248 175.88 182.954 174.522 182.73C173.374 182.534 172.842 182.366 172.842 181.834C172.842 181.26 173.486 180.84 174.256 180.84C175.278 180.84 176.02 181.33 176.034 182.03H177.448C177.448 180.616 176.104 179.594 174.27 179.594C172.66 179.594 171.414 180.546 171.414 181.848C171.414 183.542 172.674 183.752 174.34 184.004C175.054 184.102 176.16 184.284 176.16 185.026C176.174 185.614 175.488 186.048 174.536 186.048C173.472 186.048 172.702 185.432 172.702 184.592H171.302C171.302 186.16 172.66 187.294 174.536 187.294C176.342 187.294 177.63 186.272 177.63 184.858ZM179.042 179.888V187H180.554V179.888H179.042ZM179.798 178.74C180.344 178.74 180.736 178.348 180.736 177.802C180.736 177.27 180.344 176.892 179.798 176.892C179.238 176.892 178.846 177.27 178.846 177.802C178.846 178.348 179.238 178.74 179.798 178.74ZM185.77 179.608C183.488 179.608 181.906 181.19 181.906 183.444C181.906 185.698 183.488 187.28 185.77 187.28C188.038 187.28 189.634 185.698 189.634 183.444C189.634 181.19 188.038 179.608 185.77 179.608ZM185.77 185.922C184.398 185.922 183.432 184.886 183.432 183.444C183.432 182.002 184.398 180.966 185.77 180.966C187.128 180.966 188.122 182.002 188.122 183.444C188.122 184.886 187.128 185.922 185.77 185.922ZM190.807 179.888V187H192.333V182.912C192.333 181.778 193.215 180.966 194.279 180.966C195.343 180.966 195.973 181.722 195.973 182.772V187H197.485V182.66C197.485 180.896 196.351 179.608 194.615 179.608C193.691 179.608 192.809 180.056 192.305 180.798V179.888H190.807ZM204.969 184.858C204.969 183.248 203.219 182.954 201.861 182.73C200.713 182.534 200.181 182.366 200.181 181.834C200.181 181.26 200.825 180.84 201.595 180.84C202.617 180.84 203.359 181.33 203.373 182.03H204.787C204.787 180.616 203.443 179.594 201.609 179.594C199.999 179.594 198.753 180.546 198.753 181.848C198.753 183.542 200.013 183.752 201.679 184.004C202.393 184.102 203.499 184.284 203.499 185.026C203.513 185.614 202.827 186.048 201.875 186.048C200.811 186.048 200.041 185.432 200.041 184.592H198.641C198.641 186.16 199.999 187.294 201.875 187.294C203.681 187.294 204.969 186.272 204.969 184.858ZM212.274 178.796C212.288 178.166 212.68 177.746 213.268 177.746C213.534 177.746 213.758 177.788 213.996 177.858V176.584C213.632 176.458 213.254 176.388 212.806 176.388C211.588 176.388 210.762 177.298 210.762 178.67V179.888H209.67V181.078H210.762V187H212.274V181.078H213.996V179.888H212.274V178.796ZM215.029 179.888V187H216.555V183.108C216.555 181.848 217.227 180.952 218.235 180.952C218.515 180.952 218.949 181.008 219.341 181.176V179.818C219.033 179.706 218.711 179.636 218.431 179.636C217.619 179.636 216.933 180.07 216.499 180.798V179.888H215.029ZM223.335 179.608C221.053 179.608 219.471 181.19 219.471 183.444C219.471 185.698 221.053 187.28 223.335 187.28C225.603 187.28 227.199 185.698 227.199 183.444C227.199 181.19 225.603 179.608 223.335 179.608ZM223.335 185.922C221.963 185.922 220.997 184.886 220.997 183.444C220.997 182.002 221.963 180.966 223.335 180.966C224.693 180.966 225.687 182.002 225.687 183.444C225.687 184.886 224.693 185.922 223.335 185.922ZM229.897 187V182.828C229.897 181.708 230.569 180.966 231.577 180.966C232.557 180.966 233.187 181.708 233.187 182.828V187H234.713V182.828C234.713 181.75 235.427 180.966 236.421 180.966C237.387 180.98 238.073 181.75 238.073 182.828V187H239.585V182.702C239.585 180.896 238.409 179.622 236.743 179.622C235.721 179.622 234.825 180.14 234.335 180.952C233.915 180.14 232.991 179.608 231.885 179.608C231.031 179.608 230.289 180.014 229.841 180.7V179.888H228.371V187H229.897Z" fill="black"/>
<path d="M248.906 178.544L250.866 183.892H246.96L248.906 178.544ZM246.596 185.152H251.216L251.874 187H253.652L250.124 177.088H247.688L244.146 187H245.938L246.596 185.152ZM257.535 179.608C255.365 179.608 253.783 181.218 253.783 183.444C253.783 185.67 255.365 187.28 257.549 187.28C259.299 187.28 260.797 186.146 261.091 184.592L259.635 184.41C259.383 185.32 258.557 185.978 257.549 185.978C256.275 185.978 255.309 184.914 255.295 183.444C255.295 181.974 256.289 180.91 257.549 180.91C258.529 180.91 259.397 181.568 259.621 182.492L261.077 182.31C260.825 180.742 259.341 179.608 257.535 179.608ZM263.8 187V182.828C263.8 181.708 264.472 180.966 265.48 180.966C266.46 180.966 267.09 181.708 267.09 182.828V187H268.616V182.828C268.616 181.75 269.33 180.966 270.324 180.966C271.29 180.98 271.976 181.75 271.976 182.828V187H273.488V182.702C273.488 180.896 272.312 179.622 270.646 179.622C269.624 179.622 268.728 180.14 268.238 180.952C267.818 180.14 266.894 179.608 265.788 179.608C264.934 179.608 264.192 180.014 263.744 180.7V179.888H262.274V187H263.8ZM276.104 182.786C276.3 181.652 277.14 180.882 278.288 180.882C279.464 180.882 280.36 181.666 280.528 182.786H276.104ZM274.522 183.36C274.522 185.642 276.118 187.28 278.344 187.28C279.968 187.28 281.438 186.272 281.844 184.872L280.416 184.662C280.15 185.446 279.268 186.006 278.316 186.006C277.154 186.006 276.272 185.166 276.09 183.906L282.082 183.92C282.096 183.752 282.11 183.542 282.11 183.374C282.11 181.176 280.542 179.608 278.33 179.608C276.118 179.608 274.522 181.176 274.522 183.36ZM287.372 177.088V187H289.052V177.088H287.372ZM290.844 179.888V187H292.37V182.912C292.37 181.778 293.252 180.966 294.316 180.966C295.38 180.966 296.01 181.722 296.01 182.772V187H297.522V182.66C297.522 180.896 296.388 179.608 294.652 179.608C293.728 179.608 292.846 180.056 292.342 180.798V179.888H290.844ZM305.007 184.858C305.007 183.248 303.257 182.954 301.899 182.73C300.751 182.534 300.219 182.366 300.219 181.834C300.219 181.26 300.863 180.84 301.633 180.84C302.655 180.84 303.397 181.33 303.411 182.03H304.825C304.825 180.616 303.481 179.594 301.647 179.594C300.037 179.594 298.791 180.546 298.791 181.848C298.791 183.542 300.051 183.752 301.717 184.004C302.431 184.102 303.537 184.284 303.537 185.026C303.551 185.614 302.865 186.048 301.913 186.048C300.849 186.048 300.079 185.432 300.079 184.592H298.679C298.679 186.16 300.037 187.294 301.913 187.294C303.719 187.294 305.007 186.272 305.007 184.858ZM312.761 187V179.888H311.249V183.976C311.249 185.11 310.353 185.922 309.303 185.922C308.225 185.922 307.609 185.166 307.609 184.116V179.888H306.083V184.228C306.083 185.992 307.217 187.28 308.967 187.28C309.877 187.28 310.773 186.832 311.263 186.09V187H312.761ZM314.281 179.888V187H315.807V183.108C315.807 181.848 316.479 180.952 317.487 180.952C317.767 180.952 318.201 181.008 318.593 181.176V179.818C318.285 179.706 317.963 179.636 317.683 179.636C316.871 179.636 316.185 180.07 315.751 180.798V179.888H314.281ZM322.6 185.922C321.242 185.922 320.248 184.872 320.248 183.444C320.248 182.002 321.242 180.966 322.6 180.966C323.958 180.966 324.938 182.002 324.938 183.444C324.938 184.886 323.958 185.922 322.6 185.922ZM324.952 180.952C324.35 180.112 323.412 179.608 322.306 179.608C320.22 179.608 318.736 181.218 318.736 183.444C318.736 185.67 320.22 187.28 322.306 187.28C323.412 187.28 324.35 186.776 324.952 185.936V187H326.478V179.888H324.952V180.952ZM327.992 179.888V187H329.518V182.912C329.518 181.778 330.4 180.966 331.464 180.966C332.528 180.966 333.158 181.722 333.158 182.772V187H334.67V182.66C334.67 180.896 333.536 179.608 331.8 179.608C330.876 179.608 329.994 180.056 329.49 180.798V179.888H327.992ZM339.467 179.608C337.297 179.608 335.715 181.218 335.715 183.444C335.715 185.67 337.297 187.28 339.481 187.28C341.231 187.28 342.729 186.146 343.023 184.592L341.567 184.41C341.315 185.32 340.489 185.978 339.481 185.978C338.207 185.978 337.241 184.914 337.227 183.444C337.227 181.974 338.221 180.91 339.481 180.91C340.461 180.91 341.329 181.568 341.553 182.492L343.009 182.31C342.757 180.742 341.273 179.608 339.467 179.608ZM345.451 182.786C345.647 181.652 346.487 180.882 347.635 180.882C348.811 180.882 349.707 181.666 349.875 182.786H345.451ZM343.869 183.36C343.869 185.642 345.465 187.28 347.691 187.28C349.315 187.28 350.785 186.272 351.191 184.872L349.763 184.662C349.497 185.446 348.615 186.006 347.663 186.006C346.501 186.006 345.619 185.166 345.437 183.906L351.429 183.92C351.443 183.752 351.457 183.542 351.457 183.374C351.457 181.176 349.889 179.608 347.677 179.608C345.465 179.608 343.869 181.176 343.869 183.36Z" fill="#18A0FB"/>
<path opacity="0.3" d="M78.764 204.456C78.764 202.548 77.048 202.26 75.464 202.044C74.24 201.876 73.256 201.72 73.256 200.748C73.256 199.968 74 199.392 75.152 199.392C76.364 199.392 77.24 200.112 77.24 201.12H78.572C78.572 199.428 77.132 198.204 75.14 198.204C73.16 198.204 71.828 199.32 71.828 200.892C71.828 202.848 73.46 203.136 75.056 203.352C76.256 203.52 77.336 203.664 77.336 204.636C77.336 205.488 76.628 206.112 75.416 206.112C74.048 206.112 73.088 205.32 73.088 204.228H71.72C71.72 206.004 73.256 207.3 75.38 207.3C77.456 207.3 78.764 206.112 78.764 204.456ZM85.4758 207V200.904H84.1798V204.408C84.1798 205.38 83.4118 206.076 82.5118 206.076C81.5878 206.076 81.0598 205.428 81.0598 204.528V200.904H79.7518V204.624C79.7518 206.136 80.7238 207.24 82.2238 207.24C83.0038 207.24 83.7718 206.856 84.1918 206.22V207H85.4758ZM89.9718 201.888C91.1358 201.888 91.9878 202.764 91.9878 203.952C91.9878 205.164 91.1238 206.016 89.9718 206.016C88.8078 206.016 87.9678 205.14 87.9678 203.952C87.9678 202.764 88.8078 201.888 89.9718 201.888ZM93.2838 203.952C93.2838 202.044 91.9998 200.664 90.2238 200.664C89.3118 200.664 88.5318 201.06 88.0158 201.732V198.144H86.7078V207H87.9798V206.148C88.5078 206.832 89.2878 207.24 90.2238 207.24C91.9878 207.24 93.2838 205.86 93.2838 203.952ZM95.5314 207V203.424C95.5314 202.464 96.1074 201.828 96.9714 201.828C97.8114 201.828 98.3514 202.464 98.3514 203.424V207H99.6594V203.424C99.6594 202.5 100.271 201.828 101.123 201.828C101.951 201.84 102.539 202.5 102.539 203.424V207H103.835V203.316C103.835 201.768 102.827 200.676 101.399 200.676C100.523 200.676 99.7554 201.12 99.3354 201.816C98.9754 201.12 98.1834 200.664 97.2354 200.664C96.5034 200.664 95.8674 201.012 95.4834 201.6V200.904H94.2234V207H95.5314ZM105.106 200.904V207H106.402V200.904H105.106ZM105.754 199.92C106.222 199.92 106.558 199.584 106.558 199.116C106.558 198.66 106.222 198.336 105.754 198.336C105.274 198.336 104.938 198.66 104.938 199.116C104.938 199.584 105.274 199.92 105.754 199.92ZM113.022 205.164C113.022 203.784 111.522 203.532 110.358 203.34C109.374 203.172 108.918 203.028 108.918 202.572C108.918 202.08 109.47 201.72 110.13 201.72C111.006 201.72 111.642 202.14 111.654 202.74H112.866C112.866 201.528 111.714 200.652 110.142 200.652C108.762 200.652 107.694 201.468 107.694 202.584C107.694 204.036 108.774 204.216 110.202 204.432C110.814 204.516 111.762 204.672 111.762 205.308C111.774 205.812 111.186 206.184 110.37 206.184C109.458 206.184 108.798 205.656 108.798 204.936H107.598C107.598 206.28 108.762 207.252 110.37 207.252C111.918 207.252 113.022 206.376 113.022 205.164ZM119.225 205.164C119.225 203.784 117.725 203.532 116.561 203.34C115.577 203.172 115.121 203.028 115.121 202.572C115.121 202.08 115.673 201.72 116.333 201.72C117.209 201.72 117.845 202.14 117.857 202.74H119.069C119.069 201.528 117.917 200.652 116.345 200.652C114.965 200.652 113.897 201.468 113.897 202.584C113.897 204.036 114.977 204.216 116.405 204.432C117.017 204.516 117.965 204.672 117.965 205.308C117.977 205.812 117.389 206.184 116.573 206.184C115.661 206.184 115.001 205.656 115.001 204.936H113.801C113.801 206.28 114.965 207.252 116.573 207.252C118.121 207.252 119.225 206.376 119.225 205.164ZM120.364 200.904V207H121.66V200.904H120.364ZM121.012 199.92C121.48 199.92 121.816 199.584 121.816 199.116C121.816 198.66 121.48 198.336 121.012 198.336C120.532 198.336 120.196 198.66 120.196 199.116C120.196 199.584 120.532 199.92 121.012 199.92ZM126.06 200.664C124.104 200.664 122.748 202.02 122.748 203.952C122.748 205.884 124.104 207.24 126.06 207.24C128.004 207.24 129.372 205.884 129.372 203.952C129.372 202.02 128.004 200.664 126.06 200.664ZM126.06 206.076C124.884 206.076 124.056 205.188 124.056 203.952C124.056 202.716 124.884 201.828 126.06 201.828C127.224 201.828 128.076 202.716 128.076 203.952C128.076 205.188 127.224 206.076 126.06 206.076ZM130.305 200.904V207H131.613V203.496C131.613 202.524 132.369 201.828 133.281 201.828C134.193 201.828 134.733 202.476 134.733 203.376V207H136.029V203.28C136.029 201.768 135.057 200.664 133.569 200.664C132.777 200.664 132.021 201.048 131.589 201.684V200.904H130.305ZM140.572 207H143.464C146.416 207 148.384 205.308 148.384 202.752C148.384 200.196 146.416 198.504 143.464 198.504H140.572V207ZM146.944 202.752C146.944 204.624 145.54 205.8 143.464 205.8H142V199.704H143.464C145.54 199.704 146.944 200.88 146.944 202.752ZM149.419 200.904V207H150.727V203.664C150.727 202.584 151.303 201.816 152.167 201.816C152.407 201.816 152.779 201.864 153.115 202.008V200.844C152.851 200.748 152.575 200.688 152.335 200.688C151.639 200.688 151.051 201.06 150.679 201.684V200.904H149.419ZM156.466 200.664C154.51 200.664 153.154 202.02 153.154 203.952C153.154 205.884 154.51 207.24 156.466 207.24C158.41 207.24 159.778 205.884 159.778 203.952C159.778 202.02 158.41 200.664 156.466 200.664ZM156.466 206.076C155.29 206.076 154.462 205.188 154.462 203.952C154.462 202.716 155.29 201.828 156.466 201.828C157.63 201.828 158.482 202.716 158.482 203.952C158.482 205.188 157.63 206.076 156.466 206.076ZM163.976 206.016C162.812 206.016 161.972 205.14 161.972 203.952C161.972 202.764 162.812 201.888 163.976 201.888C165.128 201.888 165.992 202.74 165.992 203.952C165.992 205.14 165.14 206.016 163.976 206.016ZM167.288 203.952C167.288 202.044 165.992 200.664 164.228 200.664C163.292 200.664 162.512 201.072 161.984 201.756V200.904H160.712V209.76H162.02V206.172C162.536 206.844 163.316 207.24 164.228 207.24C166.004 207.24 167.288 205.86 167.288 203.952Z" fill="black"/>
<circle cx="40" cy="191" r="20" fill="#307388"/>
<path d="M40.1359 184.231C40.3502 184.28 40.5434 184.36 40.7291 184.477C40.917 184.594 41.0616 184.718 41.3583 185.015L43.9296 187.586C44.2267 187.883 44.3502 188.027 44.4679 188.215C44.5828 188.398 44.6658 188.598 44.7133 188.808C44.7629 189.024 44.7777 189.213 44.7777 189.634V193.261C44.7777 194.306 44.6801 194.812 44.3977 195.34C44.1461 195.814 43.7583 196.202 43.2841 196.453C42.7569 196.736 42.2502 196.833 41.2052 196.833H37.7952C36.7502 196.833 36.2436 196.736 35.7163 196.453C35.2422 196.202 34.8543 195.814 34.6027 195.34C34.3193 194.812 34.2222 194.305 34.2222 193.26V187.368C34.2222 186.69 34.3446 186.142 34.6022 185.66C34.8538 185.186 35.2416 184.798 35.7158 184.547C36.1971 184.289 36.7455 184.167 37.4237 184.167H39.3105C39.7311 184.167 39.9201 184.181 40.1359 184.231V184.231ZM39.4081 185.223L37.4237 185.222C36.9107 185.222 36.5328 185.307 36.214 185.477C35.9235 185.63 35.686 185.868 35.5326 186.158C35.3622 186.478 35.2777 186.856 35.2777 187.369V193.261C35.2777 194.147 35.3437 194.489 35.5326 194.842C35.6904 195.138 35.919 195.366 36.2135 195.523C36.5671 195.712 36.9091 195.778 37.7947 195.778H41.2052C42.0908 195.778 42.4333 195.712 42.7859 195.523C43.0764 195.37 43.3139 195.133 43.4673 194.843C43.6562 194.489 43.7222 194.147 43.7222 193.261V189.634C43.7222 189.562 43.7222 189.499 43.7211 189.444H40.8194C40.4695 189.444 40.1338 189.305 39.8864 189.058C39.639 188.811 39.4999 188.475 39.4999 188.125L39.5005 185.223L39.4081 185.223V185.223ZM40.612 185.761L40.5555 185.705V188.125C40.5555 188.187 40.5771 188.247 40.6167 188.294C40.6562 188.341 40.7111 188.374 40.7719 188.385L40.8194 188.389L43.2403 188.39L43.1833 188.332L40.612 185.762V185.761Z" fill="white"/>
<defs>
<clipPath id="clip0_3026_1078">
<rect width="107" height="60" fill="white" transform="matrix(-1 0 0 1 516 0)"/>
</clipPath>
</defs>
</svg>
