<svg width="563" height="231" viewBox="0 0 563 231" fill="none" xmlns="http://www.w3.org/2000/svg">
<path opacity="0.2" d="M493.5 33H562V188.5H443" stroke="black" stroke-width="2" stroke-dasharray="14 14"/>
<rect y="129" width="463" height="102" rx="10" fill="white"/>
<path opacity="0.3" d="M22.52 147.304L25.304 154H26.408L29.192 147.292V154H30.62V145.504H28.616L25.844 152.188L23.096 145.504H21.092V154H22.52V147.304ZM35.083 147.664C33.127 147.664 31.771 149.02 31.771 150.952C31.771 152.884 33.127 154.24 35.083 154.24C37.027 154.24 38.395 152.884 38.395 150.952C38.395 149.02 37.027 147.664 35.083 147.664ZM35.083 153.076C33.907 153.076 33.079 152.188 33.079 150.952C33.079 149.716 33.907 148.828 35.083 148.828C36.247 148.828 37.099 149.716 37.099 150.952C37.099 152.188 36.247 153.076 35.083 153.076ZM39.3288 147.904V154H40.6368V150.496C40.6368 149.524 41.3928 148.828 42.3048 148.828C43.2168 148.828 43.7568 149.476 43.7568 150.376V154H45.0528V150.28C45.0528 148.768 44.0808 147.664 42.5928 147.664C41.8008 147.664 41.0448 148.048 40.6128 148.684V147.904H39.3288ZM46.6328 154.168C46.6328 154.588 46.3328 155.104 45.9008 155.416L46.5488 155.764C47.1248 155.368 47.5448 154.516 47.5448 153.688C47.5448 153.028 47.1968 152.596 46.6808 152.596C46.2248 152.596 45.8888 152.92 45.8888 153.376C45.8888 153.844 46.1888 154.168 46.6328 154.168ZM53.3841 154H54.8121V145.504H53.6241L51.2961 147.244V148.816L53.3841 147.256V154ZM60.1758 146.692L58.0998 148.972L58.4838 149.92C58.6758 149.836 58.9758 149.776 59.2158 149.776C60.2358 149.776 60.9798 150.484 60.9798 151.444C60.9798 152.392 60.2238 153.076 59.1798 153.076C58.2078 153.076 57.4278 152.236 57.2718 151.072L56.0118 151.288C56.1438 153.028 57.4998 154.3 59.2278 154.3C61.0518 154.3 62.3598 153.124 62.3598 151.504C62.3598 150.052 61.3758 148.96 59.9598 148.78L62.0718 146.404V145.504H56.4798V146.692H60.1758ZM70.2673 146.752L71.9473 151.336H68.5993L70.2673 146.752ZM68.2873 152.416H72.2473L72.8113 154H74.3353L71.3113 145.504H69.2233L66.1873 154H67.7233L68.2873 152.416ZM78.2921 153.016C77.1281 153.016 76.2881 152.14 76.2881 150.952C76.2881 149.764 77.1281 148.888 78.2921 148.888C79.4441 148.888 80.3081 149.74 80.3081 150.952C80.3081 152.14 79.4561 153.016 78.2921 153.016ZM81.6041 150.952C81.6041 149.044 80.3081 147.664 78.5441 147.664C77.6081 147.664 76.8281 148.072 76.3001 148.756V147.904H75.0281V156.76H76.3361V153.172C76.8521 153.844 77.6321 154.24 78.5441 154.24C80.3201 154.24 81.6041 152.86 81.6041 150.952ZM82.5437 147.904V154H83.8517V150.664C83.8517 149.584 84.4277 148.816 85.2917 148.816C85.5317 148.816 85.9037 148.864 86.2397 149.008V147.844C85.9757 147.748 85.6997 147.688 85.4597 147.688C84.7637 147.688 84.1757 148.06 83.8037 148.684V147.904H82.5437ZM86.5664 154.168C86.5664 154.588 86.2664 155.104 85.8344 155.416L86.4824 155.764C87.0584 155.368 87.4784 154.516 87.4784 153.688C87.4784 153.028 87.1304 152.596 86.6144 152.596C86.1584 152.596 85.8224 152.92 85.8224 153.376C85.8224 153.844 86.1224 154.168 86.5664 154.168ZM95.2977 154.3C97.5297 154.3 99.0297 152.392 99.0297 149.752C99.0297 147.112 97.5297 145.204 95.2977 145.204C93.0657 145.204 91.5657 147.112 91.5657 149.752C91.5657 152.392 93.0657 154.3 95.2977 154.3ZM95.2977 146.464C96.6897 146.464 97.5897 147.844 97.5897 149.752C97.5897 151.66 96.6897 153.052 95.2977 153.052C93.9057 153.052 93.0057 151.66 93.0057 149.752C93.0057 147.844 93.9057 146.464 95.2977 146.464ZM103.46 150.112C104.492 150.112 105.248 150.736 105.248 151.588C105.248 152.452 104.504 153.064 103.46 153.064C102.428 153.064 101.684 152.452 101.684 151.588C101.684 150.736 102.428 150.112 103.46 150.112ZM103.46 146.404C104.372 146.404 105.02 146.932 105.02 147.676C105.02 148.432 104.372 148.984 103.46 148.984C102.56 148.984 101.9 148.432 101.9 147.676C101.9 146.932 102.56 146.404 103.46 146.404ZM103.46 145.192C101.744 145.192 100.496 146.152 100.496 147.508C100.496 148.42 101.06 149.248 101.84 149.476C100.844 149.704 100.136 150.676 100.136 151.744C100.136 153.22 101.528 154.276 103.46 154.276C105.392 154.276 106.784 153.232 106.784 151.744C106.784 150.676 106.064 149.704 105.08 149.476C105.86 149.248 106.424 148.42 106.424 147.508C106.424 146.128 105.176 145.192 103.46 145.192ZM108.474 154.168C108.954 154.168 109.278 153.832 109.278 153.364C109.278 152.908 108.954 152.584 108.474 152.584C108.006 152.584 107.67 152.908 107.67 153.364C107.67 153.832 108.006 154.168 108.474 154.168ZM108.474 149.668C108.954 149.668 109.278 149.344 109.278 148.876C109.278 148.42 108.954 148.084 108.474 148.084C108.006 148.084 107.67 148.42 107.67 148.876C107.67 149.344 108.006 149.668 108.474 149.668ZM113.055 149.584C114.315 149.584 115.047 150.34 115.047 151.384C115.047 152.368 114.303 153.076 113.259 153.076C112.239 153.076 111.447 152.236 111.351 151.072L110.091 151.276C110.223 153.028 111.543 154.3 113.307 154.3C115.131 154.3 116.439 153.076 116.439 151.384C116.439 149.692 115.227 148.468 113.307 148.468H112.047L112.239 146.692H115.755V145.504H111.123L110.691 149.584H113.055ZM121.212 154.3C123.444 154.3 124.944 152.392 124.944 149.752C124.944 147.112 123.444 145.204 121.212 145.204C118.98 145.204 117.48 147.112 117.48 149.752C117.48 152.392 118.98 154.3 121.212 154.3ZM121.212 146.464C122.604 146.464 123.504 147.844 123.504 149.752C123.504 151.66 122.604 153.052 121.212 153.052C119.82 153.052 118.92 151.66 118.92 149.752C118.92 147.844 119.82 146.464 121.212 146.464ZM132.589 146.692C133.885 146.692 134.809 147.424 134.809 148.456C134.821 149.476 133.885 150.208 132.589 150.208H130.933V146.692H132.589ZM132.817 151.408C134.821 151.408 136.249 150.172 136.249 148.456C136.249 146.74 134.821 145.504 132.829 145.504H129.541V154H130.933V151.408H132.817ZM138.836 147.304L141.62 154H142.724L145.508 147.292V154H146.936V145.504H144.932L142.16 152.188L139.412 145.504H137.408V154H138.836V147.304Z" fill="black"/>
<rect x="362" y="178" width="35" height="18" rx="9" fill="#FF5A5F"/>
<path d="M367.146 191V190.048L369.671 187.573C369.913 187.329 370.114 187.113 370.275 186.923C370.436 186.734 370.557 186.55 370.637 186.373C370.718 186.195 370.758 186.006 370.758 185.805C370.758 185.575 370.706 185.379 370.602 185.215C370.497 185.049 370.354 184.922 370.172 184.832C369.99 184.742 369.782 184.697 369.55 184.697C369.311 184.697 369.102 184.746 368.922 184.846C368.742 184.943 368.602 185.081 368.503 185.261C368.406 185.441 368.357 185.656 368.357 185.904H367.104C367.104 185.442 367.209 185.041 367.42 184.7C367.63 184.359 367.92 184.095 368.29 183.908C368.661 183.721 369.088 183.628 369.568 183.628C370.056 183.628 370.484 183.719 370.854 183.901C371.223 184.084 371.509 184.333 371.713 184.651C371.919 184.968 372.022 185.33 372.022 185.737C372.022 186.009 371.97 186.277 371.866 186.54C371.762 186.803 371.578 187.094 371.315 187.413C371.055 187.733 370.689 188.12 370.218 188.575L368.964 189.849V189.899H372.132V191H367.146ZM376.015 183.727V191H374.698V185.009H374.655L372.954 186.096V184.888L374.762 183.727H376.015ZM381.45 189.636V189.253C381.45 188.971 381.51 188.712 381.628 188.475C381.749 188.238 381.924 188.048 382.154 187.903C382.383 187.759 382.661 187.687 382.988 187.687C383.324 187.687 383.606 187.759 383.833 187.903C384.061 188.045 384.232 188.235 384.348 188.472C384.467 188.708 384.526 188.969 384.526 189.253V189.636C384.526 189.918 384.467 190.177 384.348 190.414C384.23 190.651 384.056 190.841 383.826 190.986C383.599 191.13 383.32 191.202 382.988 191.202C382.657 191.202 382.376 191.13 382.146 190.986C381.917 190.841 381.743 190.651 381.624 190.414C381.508 190.177 381.45 189.918 381.45 189.636ZM382.377 189.253V189.636C382.377 189.823 382.422 189.995 382.512 190.151C382.602 190.308 382.761 190.386 382.988 190.386C383.218 190.386 383.375 190.309 383.46 190.155C383.548 189.999 383.592 189.826 383.592 189.636V189.253C383.592 189.063 383.55 188.891 383.467 188.734C383.385 188.576 383.225 188.496 382.988 188.496C382.766 188.496 382.608 188.576 382.516 188.734C382.423 188.891 382.377 189.063 382.377 189.253ZM377.754 185.474V185.091C377.754 184.807 377.814 184.546 377.935 184.31C378.056 184.073 378.231 183.884 378.46 183.741C378.69 183.597 378.968 183.525 379.295 183.525C379.629 183.525 379.909 183.597 380.137 183.741C380.366 183.884 380.539 184.073 380.655 184.31C380.771 184.546 380.829 184.807 380.829 185.091V185.474C380.829 185.759 380.77 186.019 380.651 186.256C380.535 186.49 380.363 186.678 380.133 186.82C379.903 186.962 379.624 187.033 379.295 187.033C378.961 187.033 378.679 186.962 378.45 186.82C378.222 186.678 378.05 186.489 377.931 186.252C377.813 186.015 377.754 185.756 377.754 185.474ZM378.688 185.091V185.474C378.688 185.664 378.731 185.837 378.819 185.993C378.909 186.147 379.068 186.224 379.295 186.224C379.522 186.224 379.678 186.147 379.764 185.993C379.851 185.837 379.895 185.664 379.895 185.474V185.091C379.895 184.902 379.854 184.729 379.771 184.572C379.688 184.414 379.529 184.335 379.295 184.335C379.07 184.335 378.913 184.414 378.823 184.572C378.733 184.731 378.688 184.904 378.688 185.091ZM378.159 191L383.159 183.727H384.046L379.046 191H378.159Z" fill="white"/>
<path d="M390 189.5L387.835 185.75H392.165L390 189.5Z" fill="white"/>
<path d="M72.274 191H75.648C79.092 191 81.388 189.026 81.388 186.044C81.388 183.062 79.092 181.088 75.648 181.088H72.274V191ZM79.708 186.044C79.708 188.228 78.07 189.6 75.648 189.6H73.94V182.488H75.648C78.07 182.488 79.708 183.86 79.708 186.044ZM82.6779 183.888V191H84.2039V187.108C84.2039 185.848 84.8759 184.952 85.8839 184.952C86.1639 184.952 86.5979 185.008 86.9899 185.176V183.818C86.6819 183.706 86.3599 183.636 86.0799 183.636C85.2679 183.636 84.5819 184.07 84.1479 184.798V183.888H82.6779ZM90.9829 183.608C88.7009 183.608 87.1189 185.19 87.1189 187.444C87.1189 189.698 88.7009 191.28 90.9829 191.28C93.2509 191.28 94.8469 189.698 94.8469 187.444C94.8469 185.19 93.2509 183.608 90.9829 183.608ZM90.9829 189.922C89.6109 189.922 88.6449 188.886 88.6449 187.444C88.6449 186.002 89.6109 184.966 90.9829 184.966C92.3409 184.966 93.3349 186.002 93.3349 187.444C93.3349 188.886 92.3409 189.922 90.9829 189.922ZM99.8277 189.852C98.4697 189.852 97.4897 188.83 97.4897 187.444C97.4897 186.058 98.4697 185.036 99.8277 185.036C101.172 185.036 102.18 186.03 102.18 187.444C102.18 188.83 101.186 189.852 99.8277 189.852ZM103.692 187.444C103.692 185.218 102.18 183.608 100.122 183.608C99.0297 183.608 98.1197 184.084 97.5037 184.882V183.888H96.0197V194.22H97.5457V190.034C98.1477 190.818 99.0577 191.28 100.122 191.28C102.194 191.28 103.692 189.67 103.692 187.444ZM108.888 183.888V191H110.4V183.888H108.888ZM109.644 182.74C110.19 182.74 110.582 182.348 110.582 181.802C110.582 181.27 110.19 180.892 109.644 180.892C109.084 180.892 108.692 181.27 108.692 181.802C108.692 182.348 109.084 182.74 109.644 182.74ZM112.102 183.888V191H113.628V186.912C113.628 185.778 114.51 184.966 115.574 184.966C116.638 184.966 117.268 185.722 117.268 186.772V191H118.78V186.66C118.78 184.896 117.646 183.608 115.91 183.608C114.986 183.608 114.104 184.056 113.6 184.798V183.888H112.102ZM130.085 188.858C130.085 187.248 128.335 186.954 126.977 186.73C125.829 186.534 125.297 186.366 125.297 185.834C125.297 185.26 125.941 184.84 126.711 184.84C127.733 184.84 128.475 185.33 128.489 186.03H129.903C129.903 184.616 128.559 183.594 126.725 183.594C125.115 183.594 123.869 184.546 123.869 185.848C123.869 187.542 125.129 187.752 126.795 188.004C127.509 188.102 128.615 188.284 128.615 189.026C128.629 189.614 127.943 190.048 126.991 190.048C125.927 190.048 125.157 189.432 125.157 188.592H123.757C123.757 190.16 125.115 191.294 126.991 191.294C128.797 191.294 130.085 190.272 130.085 188.858ZM137.839 191V183.888H136.327V187.976C136.327 189.11 135.431 189.922 134.381 189.922C133.303 189.922 132.687 189.166 132.687 188.116V183.888H131.161V188.228C131.161 189.992 132.295 191.28 134.045 191.28C134.955 191.28 135.851 190.832 136.341 190.09V191H137.839ZM143.168 185.036C144.526 185.036 145.52 186.058 145.52 187.444C145.52 188.858 144.512 189.852 143.168 189.852C141.81 189.852 140.83 188.83 140.83 187.444C140.83 186.058 141.81 185.036 143.168 185.036ZM147.032 187.444C147.032 185.218 145.534 183.608 143.462 183.608C142.398 183.608 141.488 184.07 140.886 184.854V180.668H139.36V191H140.844V190.006C141.46 190.804 142.37 191.28 143.462 191.28C145.52 191.28 147.032 189.67 147.032 187.444ZM149.737 191V186.828C149.737 185.708 150.409 184.966 151.417 184.966C152.397 184.966 153.027 185.708 153.027 186.828V191H154.553V186.828C154.553 185.75 155.267 184.966 156.261 184.966C157.227 184.98 157.913 185.75 157.913 186.828V191H159.425V186.702C159.425 184.896 158.249 183.622 156.583 183.622C155.561 183.622 154.665 184.14 154.175 184.952C153.755 184.14 152.831 183.608 151.725 183.608C150.871 183.608 150.129 184.014 149.681 184.7V183.888H148.211V191H149.737ZM160.991 183.888V191H162.503V183.888H160.991ZM161.747 182.74C162.293 182.74 162.685 182.348 162.685 181.802C162.685 181.27 162.293 180.892 161.747 180.892C161.187 180.892 160.795 181.27 160.795 181.802C160.795 182.348 161.187 182.74 161.747 182.74ZM170.309 188.858C170.309 187.248 168.559 186.954 167.201 186.73C166.053 186.534 165.521 186.366 165.521 185.834C165.521 185.26 166.165 184.84 166.935 184.84C167.957 184.84 168.699 185.33 168.713 186.03H170.127C170.127 184.616 168.783 183.594 166.949 183.594C165.339 183.594 164.093 184.546 164.093 185.848C164.093 187.542 165.353 187.752 167.019 188.004C167.733 188.102 168.839 188.284 168.839 189.026C168.853 189.614 168.167 190.048 167.215 190.048C166.151 190.048 165.381 189.432 165.381 188.592H163.981C163.981 190.16 165.339 191.294 167.215 191.294C169.021 191.294 170.309 190.272 170.309 188.858ZM177.63 188.858C177.63 187.248 175.88 186.954 174.522 186.73C173.374 186.534 172.842 186.366 172.842 185.834C172.842 185.26 173.486 184.84 174.256 184.84C175.278 184.84 176.02 185.33 176.034 186.03H177.448C177.448 184.616 176.104 183.594 174.27 183.594C172.66 183.594 171.414 184.546 171.414 185.848C171.414 187.542 172.674 187.752 174.34 188.004C175.054 188.102 176.16 188.284 176.16 189.026C176.174 189.614 175.488 190.048 174.536 190.048C173.472 190.048 172.702 189.432 172.702 188.592H171.302C171.302 190.16 172.66 191.294 174.536 191.294C176.342 191.294 177.63 190.272 177.63 188.858ZM179.042 183.888V191H180.554V183.888H179.042ZM179.798 182.74C180.344 182.74 180.736 182.348 180.736 181.802C180.736 181.27 180.344 180.892 179.798 180.892C179.238 180.892 178.846 181.27 178.846 181.802C178.846 182.348 179.238 182.74 179.798 182.74ZM185.77 183.608C183.488 183.608 181.906 185.19 181.906 187.444C181.906 189.698 183.488 191.28 185.77 191.28C188.038 191.28 189.634 189.698 189.634 187.444C189.634 185.19 188.038 183.608 185.77 183.608ZM185.77 189.922C184.398 189.922 183.432 188.886 183.432 187.444C183.432 186.002 184.398 184.966 185.77 184.966C187.128 184.966 188.122 186.002 188.122 187.444C188.122 188.886 187.128 189.922 185.77 189.922ZM190.807 183.888V191H192.333V186.912C192.333 185.778 193.215 184.966 194.279 184.966C195.343 184.966 195.973 185.722 195.973 186.772V191H197.485V186.66C197.485 184.896 196.351 183.608 194.615 183.608C193.691 183.608 192.809 184.056 192.305 184.798V183.888H190.807ZM204.969 188.858C204.969 187.248 203.219 186.954 201.861 186.73C200.713 186.534 200.181 186.366 200.181 185.834C200.181 185.26 200.825 184.84 201.595 184.84C202.617 184.84 203.359 185.33 203.373 186.03H204.787C204.787 184.616 203.443 183.594 201.609 183.594C199.999 183.594 198.753 184.546 198.753 185.848C198.753 187.542 200.013 187.752 201.679 188.004C202.393 188.102 203.499 188.284 203.499 189.026C203.513 189.614 202.827 190.048 201.875 190.048C200.811 190.048 200.041 189.432 200.041 188.592H198.641C198.641 190.16 199.999 191.294 201.875 191.294C203.681 191.294 204.969 190.272 204.969 188.858ZM212.274 182.796C212.288 182.166 212.68 181.746 213.268 181.746C213.534 181.746 213.758 181.788 213.996 181.858V180.584C213.632 180.458 213.254 180.388 212.806 180.388C211.588 180.388 210.762 181.298 210.762 182.67V183.888H209.67V185.078H210.762V191H212.274V185.078H213.996V183.888H212.274V182.796ZM215.029 183.888V191H216.555V187.108C216.555 185.848 217.227 184.952 218.235 184.952C218.515 184.952 218.949 185.008 219.341 185.176V183.818C219.033 183.706 218.711 183.636 218.431 183.636C217.619 183.636 216.933 184.07 216.499 184.798V183.888H215.029ZM223.335 183.608C221.053 183.608 219.471 185.19 219.471 187.444C219.471 189.698 221.053 191.28 223.335 191.28C225.603 191.28 227.199 189.698 227.199 187.444C227.199 185.19 225.603 183.608 223.335 183.608ZM223.335 189.922C221.963 189.922 220.997 188.886 220.997 187.444C220.997 186.002 221.963 184.966 223.335 184.966C224.693 184.966 225.687 186.002 225.687 187.444C225.687 188.886 224.693 189.922 223.335 189.922ZM229.897 191V186.828C229.897 185.708 230.569 184.966 231.577 184.966C232.557 184.966 233.187 185.708 233.187 186.828V191H234.713V186.828C234.713 185.75 235.427 184.966 236.421 184.966C237.387 184.98 238.073 185.75 238.073 186.828V191H239.585V186.702C239.585 184.896 238.409 183.622 236.743 183.622C235.721 183.622 234.825 184.14 234.335 184.952C233.915 184.14 232.991 183.608 231.885 183.608C231.031 183.608 230.289 184.014 229.841 184.7V183.888H228.371V191H229.897Z" fill="black"/>
<path d="M248.906 182.544L250.866 187.892H246.96L248.906 182.544ZM246.596 189.152H251.216L251.874 191H253.652L250.124 181.088H247.688L244.146 191H245.938L246.596 189.152ZM257.535 183.608C255.365 183.608 253.783 185.218 253.783 187.444C253.783 189.67 255.365 191.28 257.549 191.28C259.299 191.28 260.797 190.146 261.091 188.592L259.635 188.41C259.383 189.32 258.557 189.978 257.549 189.978C256.275 189.978 255.309 188.914 255.295 187.444C255.295 185.974 256.289 184.91 257.549 184.91C258.529 184.91 259.397 185.568 259.621 186.492L261.077 186.31C260.825 184.742 259.341 183.608 257.535 183.608ZM263.8 191V186.828C263.8 185.708 264.472 184.966 265.48 184.966C266.46 184.966 267.09 185.708 267.09 186.828V191H268.616V186.828C268.616 185.75 269.33 184.966 270.324 184.966C271.29 184.98 271.976 185.75 271.976 186.828V191H273.488V186.702C273.488 184.896 272.312 183.622 270.646 183.622C269.624 183.622 268.728 184.14 268.238 184.952C267.818 184.14 266.894 183.608 265.788 183.608C264.934 183.608 264.192 184.014 263.744 184.7V183.888H262.274V191H263.8ZM276.104 186.786C276.3 185.652 277.14 184.882 278.288 184.882C279.464 184.882 280.36 185.666 280.528 186.786H276.104ZM274.522 187.36C274.522 189.642 276.118 191.28 278.344 191.28C279.968 191.28 281.438 190.272 281.844 188.872L280.416 188.662C280.15 189.446 279.268 190.006 278.316 190.006C277.154 190.006 276.272 189.166 276.09 187.906L282.082 187.92C282.096 187.752 282.11 187.542 282.11 187.374C282.11 185.176 280.542 183.608 278.33 183.608C276.118 183.608 274.522 185.176 274.522 187.36ZM287.372 181.088V191H289.052V181.088H287.372ZM290.844 183.888V191H292.37V186.912C292.37 185.778 293.252 184.966 294.316 184.966C295.38 184.966 296.01 185.722 296.01 186.772V191H297.522V186.66C297.522 184.896 296.388 183.608 294.652 183.608C293.728 183.608 292.846 184.056 292.342 184.798V183.888H290.844ZM305.007 188.858C305.007 187.248 303.257 186.954 301.899 186.73C300.751 186.534 300.219 186.366 300.219 185.834C300.219 185.26 300.863 184.84 301.633 184.84C302.655 184.84 303.397 185.33 303.411 186.03H304.825C304.825 184.616 303.481 183.594 301.647 183.594C300.037 183.594 298.791 184.546 298.791 185.848C298.791 187.542 300.051 187.752 301.717 188.004C302.431 188.102 303.537 188.284 303.537 189.026C303.551 189.614 302.865 190.048 301.913 190.048C300.849 190.048 300.079 189.432 300.079 188.592H298.679C298.679 190.16 300.037 191.294 301.913 191.294C303.719 191.294 305.007 190.272 305.007 188.858ZM312.761 191V183.888H311.249V187.976C311.249 189.11 310.353 189.922 309.303 189.922C308.225 189.922 307.609 189.166 307.609 188.116V183.888H306.083V188.228C306.083 189.992 307.217 191.28 308.967 191.28C309.877 191.28 310.773 190.832 311.263 190.09V191H312.761ZM314.281 183.888V191H315.807V187.108C315.807 185.848 316.479 184.952 317.487 184.952C317.767 184.952 318.201 185.008 318.593 185.176V183.818C318.285 183.706 317.963 183.636 317.683 183.636C316.871 183.636 316.185 184.07 315.751 184.798V183.888H314.281ZM322.6 189.922C321.242 189.922 320.248 188.872 320.248 187.444C320.248 186.002 321.242 184.966 322.6 184.966C323.958 184.966 324.938 186.002 324.938 187.444C324.938 188.886 323.958 189.922 322.6 189.922ZM324.952 184.952C324.35 184.112 323.412 183.608 322.306 183.608C320.22 183.608 318.736 185.218 318.736 187.444C318.736 189.67 320.22 191.28 322.306 191.28C323.412 191.28 324.35 190.776 324.952 189.936V191H326.478V183.888H324.952V184.952ZM327.992 183.888V191H329.518V186.912C329.518 185.778 330.4 184.966 331.464 184.966C332.528 184.966 333.158 185.722 333.158 186.772V191H334.67V186.66C334.67 184.896 333.536 183.608 331.8 183.608C330.876 183.608 329.994 184.056 329.49 184.798V183.888H327.992ZM339.467 183.608C337.297 183.608 335.715 185.218 335.715 187.444C335.715 189.67 337.297 191.28 339.481 191.28C341.231 191.28 342.729 190.146 343.023 188.592L341.567 188.41C341.315 189.32 340.489 189.978 339.481 189.978C338.207 189.978 337.241 188.914 337.227 187.444C337.227 185.974 338.221 184.91 339.481 184.91C340.461 184.91 341.329 185.568 341.553 186.492L343.009 186.31C342.757 184.742 341.273 183.608 339.467 183.608ZM345.451 186.786C345.647 185.652 346.487 184.882 347.635 184.882C348.811 184.882 349.707 185.666 349.875 186.786H345.451ZM343.869 187.36C343.869 189.642 345.465 191.28 347.691 191.28C349.315 191.28 350.785 190.272 351.191 188.872L349.763 188.662C349.497 189.446 348.615 190.006 347.663 190.006C346.501 190.006 345.619 189.166 345.437 187.906L351.429 187.92C351.443 187.752 351.457 187.542 351.457 187.374C351.457 185.176 349.889 183.608 347.677 183.608C345.465 183.608 343.869 185.176 343.869 187.36Z" fill="#18A0FB"/>
<path opacity="0.3" d="M78.764 208.456C78.764 206.548 77.048 206.26 75.464 206.044C74.24 205.876 73.256 205.72 73.256 204.748C73.256 203.968 74 203.392 75.152 203.392C76.364 203.392 77.24 204.112 77.24 205.12H78.572C78.572 203.428 77.132 202.204 75.14 202.204C73.16 202.204 71.828 203.32 71.828 204.892C71.828 206.848 73.46 207.136 75.056 207.352C76.256 207.52 77.336 207.664 77.336 208.636C77.336 209.488 76.628 210.112 75.416 210.112C74.048 210.112 73.088 209.32 73.088 208.228H71.72C71.72 210.004 73.256 211.3 75.38 211.3C77.456 211.3 78.764 210.112 78.764 208.456ZM85.4758 211V204.904H84.1798V208.408C84.1798 209.38 83.4118 210.076 82.5118 210.076C81.5878 210.076 81.0598 209.428 81.0598 208.528V204.904H79.7518V208.624C79.7518 210.136 80.7238 211.24 82.2238 211.24C83.0038 211.24 83.7718 210.856 84.1918 210.22V211H85.4758ZM89.9718 205.888C91.1358 205.888 91.9878 206.764 91.9878 207.952C91.9878 209.164 91.1238 210.016 89.9718 210.016C88.8078 210.016 87.9678 209.14 87.9678 207.952C87.9678 206.764 88.8078 205.888 89.9718 205.888ZM93.2838 207.952C93.2838 206.044 91.9998 204.664 90.2238 204.664C89.3118 204.664 88.5318 205.06 88.0158 205.732V202.144H86.7078V211H87.9798V210.148C88.5078 210.832 89.2878 211.24 90.2238 211.24C91.9878 211.24 93.2838 209.86 93.2838 207.952ZM95.5314 211V207.424C95.5314 206.464 96.1074 205.828 96.9714 205.828C97.8114 205.828 98.3514 206.464 98.3514 207.424V211H99.6594V207.424C99.6594 206.5 100.271 205.828 101.123 205.828C101.951 205.84 102.539 206.5 102.539 207.424V211H103.835V207.316C103.835 205.768 102.827 204.676 101.399 204.676C100.523 204.676 99.7554 205.12 99.3354 205.816C98.9754 205.12 98.1834 204.664 97.2354 204.664C96.5034 204.664 95.8674 205.012 95.4834 205.6V204.904H94.2234V211H95.5314ZM105.106 204.904V211H106.402V204.904H105.106ZM105.754 203.92C106.222 203.92 106.558 203.584 106.558 203.116C106.558 202.66 106.222 202.336 105.754 202.336C105.274 202.336 104.938 202.66 104.938 203.116C104.938 203.584 105.274 203.92 105.754 203.92ZM113.022 209.164C113.022 207.784 111.522 207.532 110.358 207.34C109.374 207.172 108.918 207.028 108.918 206.572C108.918 206.08 109.47 205.72 110.13 205.72C111.006 205.72 111.642 206.14 111.654 206.74H112.866C112.866 205.528 111.714 204.652 110.142 204.652C108.762 204.652 107.694 205.468 107.694 206.584C107.694 208.036 108.774 208.216 110.202 208.432C110.814 208.516 111.762 208.672 111.762 209.308C111.774 209.812 111.186 210.184 110.37 210.184C109.458 210.184 108.798 209.656 108.798 208.936H107.598C107.598 210.28 108.762 211.252 110.37 211.252C111.918 211.252 113.022 210.376 113.022 209.164ZM119.225 209.164C119.225 207.784 117.725 207.532 116.561 207.34C115.577 207.172 115.121 207.028 115.121 206.572C115.121 206.08 115.673 205.72 116.333 205.72C117.209 205.72 117.845 206.14 117.857 206.74H119.069C119.069 205.528 117.917 204.652 116.345 204.652C114.965 204.652 113.897 205.468 113.897 206.584C113.897 208.036 114.977 208.216 116.405 208.432C117.017 208.516 117.965 208.672 117.965 209.308C117.977 209.812 117.389 210.184 116.573 210.184C115.661 210.184 115.001 209.656 115.001 208.936H113.801C113.801 210.28 114.965 211.252 116.573 211.252C118.121 211.252 119.225 210.376 119.225 209.164ZM120.364 204.904V211H121.66V204.904H120.364ZM121.012 203.92C121.48 203.92 121.816 203.584 121.816 203.116C121.816 202.66 121.48 202.336 121.012 202.336C120.532 202.336 120.196 202.66 120.196 203.116C120.196 203.584 120.532 203.92 121.012 203.92ZM126.06 204.664C124.104 204.664 122.748 206.02 122.748 207.952C122.748 209.884 124.104 211.24 126.06 211.24C128.004 211.24 129.372 209.884 129.372 207.952C129.372 206.02 128.004 204.664 126.06 204.664ZM126.06 210.076C124.884 210.076 124.056 209.188 124.056 207.952C124.056 206.716 124.884 205.828 126.06 205.828C127.224 205.828 128.076 206.716 128.076 207.952C128.076 209.188 127.224 210.076 126.06 210.076ZM130.305 204.904V211H131.613V207.496C131.613 206.524 132.369 205.828 133.281 205.828C134.193 205.828 134.733 206.476 134.733 207.376V211H136.029V207.28C136.029 205.768 135.057 204.664 133.569 204.664C132.777 204.664 132.021 205.048 131.589 205.684V204.904H130.305ZM140.572 211H143.464C146.416 211 148.384 209.308 148.384 206.752C148.384 204.196 146.416 202.504 143.464 202.504H140.572V211ZM146.944 206.752C146.944 208.624 145.54 209.8 143.464 209.8H142V203.704H143.464C145.54 203.704 146.944 204.88 146.944 206.752ZM149.419 204.904V211H150.727V207.664C150.727 206.584 151.303 205.816 152.167 205.816C152.407 205.816 152.779 205.864 153.115 206.008V204.844C152.851 204.748 152.575 204.688 152.335 204.688C151.639 204.688 151.051 205.06 150.679 205.684V204.904H149.419ZM156.466 204.664C154.51 204.664 153.154 206.02 153.154 207.952C153.154 209.884 154.51 211.24 156.466 211.24C158.41 211.24 159.778 209.884 159.778 207.952C159.778 206.02 158.41 204.664 156.466 204.664ZM156.466 210.076C155.29 210.076 154.462 209.188 154.462 207.952C154.462 206.716 155.29 205.828 156.466 205.828C157.63 205.828 158.482 206.716 158.482 207.952C158.482 209.188 157.63 210.076 156.466 210.076ZM163.976 210.016C162.812 210.016 161.972 209.14 161.972 207.952C161.972 206.764 162.812 205.888 163.976 205.888C165.128 205.888 165.992 206.74 165.992 207.952C165.992 209.14 165.14 210.016 163.976 210.016ZM167.288 207.952C167.288 206.044 165.992 204.664 164.228 204.664C163.292 204.664 162.512 205.072 161.984 205.756V204.904H160.712V213.76H162.02V210.172C162.536 210.844 163.316 211.24 164.228 211.24C166.004 211.24 167.288 209.86 167.288 207.952Z" fill="black"/>
<circle cx="40" cy="195" r="20" fill="#307388"/>
<path d="M40.1359 188.231C40.3502 188.28 40.5434 188.36 40.7291 188.477C40.917 188.594 41.0616 188.718 41.3583 189.015L43.9296 191.586C44.2267 191.883 44.3502 192.027 44.4679 192.215C44.5828 192.398 44.6658 192.598 44.7133 192.808C44.7629 193.024 44.7777 193.213 44.7777 193.634V197.261C44.7777 198.306 44.6801 198.812 44.3977 199.34C44.1461 199.814 43.7583 200.202 43.2841 200.453C42.7569 200.736 42.2502 200.833 41.2052 200.833H37.7952C36.7502 200.833 36.2436 200.736 35.7163 200.453C35.2422 200.202 34.8543 199.814 34.6027 199.34C34.3193 198.812 34.2222 198.305 34.2222 197.26V191.368C34.2222 190.69 34.3446 190.142 34.6022 189.66C34.8538 189.186 35.2416 188.798 35.7158 188.547C36.1971 188.289 36.7455 188.167 37.4237 188.167H39.3105C39.7311 188.167 39.9201 188.181 40.1359 188.231V188.231ZM39.4081 189.223L37.4237 189.222C36.9107 189.222 36.5328 189.307 36.214 189.477C35.9235 189.63 35.686 189.868 35.5326 190.158C35.3622 190.478 35.2777 190.856 35.2777 191.369V197.261C35.2777 198.147 35.3437 198.489 35.5326 198.842C35.6904 199.138 35.919 199.366 36.2135 199.523C36.5671 199.712 36.9091 199.778 37.7947 199.778H41.2052C42.0908 199.778 42.4333 199.712 42.7859 199.523C43.0764 199.37 43.3139 199.133 43.4673 198.843C43.6562 198.489 43.7222 198.147 43.7222 197.261V193.634C43.7222 193.562 43.7222 193.499 43.7211 193.444H40.8194C40.4695 193.444 40.1338 193.305 39.8864 193.058C39.639 192.811 39.4999 192.475 39.4999 192.125L39.5005 189.223L39.4081 189.223V189.223ZM40.612 189.761L40.5555 189.705V192.125C40.5555 192.187 40.5771 192.247 40.6167 192.294C40.6562 192.341 40.7111 192.374 40.7719 192.385L40.8194 192.389L43.2403 192.39L43.1833 192.332L40.612 189.762V189.761Z" fill="white"/>
<g opacity="0.6">
<rect y="15" width="463" height="102" rx="10" fill="white"/>
<path opacity="0.3" d="M22.52 33.304L25.304 40H26.408L29.192 33.292V40H30.62V31.504H28.616L25.844 38.188L23.096 31.504H21.092V40H22.52V33.304ZM35.083 33.664C33.127 33.664 31.771 35.02 31.771 36.952C31.771 38.884 33.127 40.24 35.083 40.24C37.027 40.24 38.395 38.884 38.395 36.952C38.395 35.02 37.027 33.664 35.083 33.664ZM35.083 39.076C33.907 39.076 33.079 38.188 33.079 36.952C33.079 35.716 33.907 34.828 35.083 34.828C36.247 34.828 37.099 35.716 37.099 36.952C37.099 38.188 36.247 39.076 35.083 39.076ZM39.3288 33.904V40H40.6368V36.496C40.6368 35.524 41.3928 34.828 42.3048 34.828C43.2168 34.828 43.7568 35.476 43.7568 36.376V40H45.0528V36.28C45.0528 34.768 44.0808 33.664 42.5928 33.664C41.8008 33.664 41.0448 34.048 40.6128 34.684V33.904H39.3288ZM46.6328 40.168C46.6328 40.588 46.3328 41.104 45.9008 41.416L46.5488 41.764C47.1248 41.368 47.5448 40.516 47.5448 39.688C47.5448 39.028 47.1968 38.596 46.6808 38.596C46.2248 38.596 45.8888 38.92 45.8888 39.376C45.8888 39.844 46.1888 40.168 46.6328 40.168ZM53.3841 40H54.8121V31.504H53.6241L51.2961 33.244V34.816L53.3841 33.256V40ZM60.1758 32.692L58.0998 34.972L58.4838 35.92C58.6758 35.836 58.9758 35.776 59.2158 35.776C60.2358 35.776 60.9798 36.484 60.9798 37.444C60.9798 38.392 60.2238 39.076 59.1798 39.076C58.2078 39.076 57.4278 38.236 57.2718 37.072L56.0118 37.288C56.1438 39.028 57.4998 40.3 59.2278 40.3C61.0518 40.3 62.3598 39.124 62.3598 37.504C62.3598 36.052 61.3758 34.96 59.9598 34.78L62.0718 32.404V31.504H56.4798V32.692H60.1758ZM70.2673 32.752L71.9473 37.336H68.5993L70.2673 32.752ZM68.2873 38.416H72.2473L72.8113 40H74.3353L71.3113 31.504H69.2233L66.1873 40H67.7233L68.2873 38.416ZM78.2921 39.016C77.1281 39.016 76.2881 38.14 76.2881 36.952C76.2881 35.764 77.1281 34.888 78.2921 34.888C79.4441 34.888 80.3081 35.74 80.3081 36.952C80.3081 38.14 79.4561 39.016 78.2921 39.016ZM81.6041 36.952C81.6041 35.044 80.3081 33.664 78.5441 33.664C77.6081 33.664 76.8281 34.072 76.3001 34.756V33.904H75.0281V42.76H76.3361V39.172C76.8521 39.844 77.6321 40.24 78.5441 40.24C80.3201 40.24 81.6041 38.86 81.6041 36.952ZM82.5437 33.904V40H83.8517V36.664C83.8517 35.584 84.4277 34.816 85.2917 34.816C85.5317 34.816 85.9037 34.864 86.2397 35.008V33.844C85.9757 33.748 85.6997 33.688 85.4597 33.688C84.7637 33.688 84.1757 34.06 83.8037 34.684V33.904H82.5437ZM86.5664 40.168C86.5664 40.588 86.2664 41.104 85.8344 41.416L86.4824 41.764C87.0584 41.368 87.4784 40.516 87.4784 39.688C87.4784 39.028 87.1304 38.596 86.6144 38.596C86.1584 38.596 85.8224 38.92 85.8224 39.376C85.8224 39.844 86.1224 40.168 86.5664 40.168ZM95.2977 40.3C97.5297 40.3 99.0297 38.392 99.0297 35.752C99.0297 33.112 97.5297 31.204 95.2977 31.204C93.0657 31.204 91.5657 33.112 91.5657 35.752C91.5657 38.392 93.0657 40.3 95.2977 40.3ZM95.2977 32.464C96.6897 32.464 97.5897 33.844 97.5897 35.752C97.5897 37.66 96.6897 39.052 95.2977 39.052C93.9057 39.052 93.0057 37.66 93.0057 35.752C93.0057 33.844 93.9057 32.464 95.2977 32.464ZM103.46 36.112C104.492 36.112 105.248 36.736 105.248 37.588C105.248 38.452 104.504 39.064 103.46 39.064C102.428 39.064 101.684 38.452 101.684 37.588C101.684 36.736 102.428 36.112 103.46 36.112ZM103.46 32.404C104.372 32.404 105.02 32.932 105.02 33.676C105.02 34.432 104.372 34.984 103.46 34.984C102.56 34.984 101.9 34.432 101.9 33.676C101.9 32.932 102.56 32.404 103.46 32.404ZM103.46 31.192C101.744 31.192 100.496 32.152 100.496 33.508C100.496 34.42 101.06 35.248 101.84 35.476C100.844 35.704 100.136 36.676 100.136 37.744C100.136 39.22 101.528 40.276 103.46 40.276C105.392 40.276 106.784 39.232 106.784 37.744C106.784 36.676 106.064 35.704 105.08 35.476C105.86 35.248 106.424 34.42 106.424 33.508C106.424 32.128 105.176 31.192 103.46 31.192ZM108.474 40.168C108.954 40.168 109.278 39.832 109.278 39.364C109.278 38.908 108.954 38.584 108.474 38.584C108.006 38.584 107.67 38.908 107.67 39.364C107.67 39.832 108.006 40.168 108.474 40.168ZM108.474 35.668C108.954 35.668 109.278 35.344 109.278 34.876C109.278 34.42 108.954 34.084 108.474 34.084C108.006 34.084 107.67 34.42 107.67 34.876C107.67 35.344 108.006 35.668 108.474 35.668ZM113.055 35.584C114.315 35.584 115.047 36.34 115.047 37.384C115.047 38.368 114.303 39.076 113.259 39.076C112.239 39.076 111.447 38.236 111.351 37.072L110.091 37.276C110.223 39.028 111.543 40.3 113.307 40.3C115.131 40.3 116.439 39.076 116.439 37.384C116.439 35.692 115.227 34.468 113.307 34.468H112.047L112.239 32.692H115.755V31.504H111.123L110.691 35.584H113.055ZM121.212 40.3C123.444 40.3 124.944 38.392 124.944 35.752C124.944 33.112 123.444 31.204 121.212 31.204C118.98 31.204 117.48 33.112 117.48 35.752C117.48 38.392 118.98 40.3 121.212 40.3ZM121.212 32.464C122.604 32.464 123.504 33.844 123.504 35.752C123.504 37.66 122.604 39.052 121.212 39.052C119.82 39.052 118.92 37.66 118.92 35.752C118.92 33.844 119.82 32.464 121.212 32.464ZM132.589 32.692C133.885 32.692 134.809 33.424 134.809 34.456C134.821 35.476 133.885 36.208 132.589 36.208H130.933V32.692H132.589ZM132.817 37.408C134.821 37.408 136.249 36.172 136.249 34.456C136.249 32.74 134.821 31.504 132.829 31.504H129.541V40H130.933V37.408H132.817ZM138.836 33.304L141.62 40H142.724L145.508 33.292V40H146.936V31.504H144.932L142.16 38.188L139.412 31.504H137.408V40H138.836V33.304Z" fill="black"/>
<rect x="241" y="67" width="156" height="12" rx="6" fill="#EBEBEB"/>
<path d="M306.646 77V76.0483L309.171 73.5732C309.413 73.3293 309.614 73.1127 309.775 72.9233C309.936 72.7339 310.057 72.5504 310.137 72.3729C310.218 72.1953 310.258 72.0059 310.258 71.8047C310.258 71.575 310.206 71.3786 310.102 71.2152C309.997 71.0495 309.854 70.9216 309.672 70.8317C309.49 70.7417 309.282 70.6967 309.05 70.6967C308.811 70.6967 308.602 70.7464 308.422 70.8459C308.242 70.9429 308.102 71.0814 308.003 71.2614C307.906 71.4413 307.857 71.6555 307.857 71.9041H306.604C306.604 71.4425 306.709 71.0412 306.92 70.7003C307.13 70.3594 307.42 70.0954 307.79 69.9084C308.161 69.7214 308.588 69.6278 309.068 69.6278C309.556 69.6278 309.984 69.719 310.354 69.9013C310.723 70.0836 311.009 70.3333 311.213 70.6506C311.419 70.9678 311.522 71.33 311.522 71.7372C311.522 72.0095 311.47 72.277 311.366 72.5398C311.262 72.8026 311.078 73.0937 310.815 73.4134C310.555 73.733 310.189 74.12 309.718 74.5746L308.464 75.8494V75.8991H311.632V77H306.646ZM315.515 69.7273V77H314.198V71.0092H314.155L312.454 72.0959V70.8885L314.262 69.7273H315.515ZM320.95 75.6364V75.2528C320.95 74.9711 321.01 74.7119 321.128 74.4751C321.249 74.2384 321.424 74.0478 321.654 73.9034C321.883 73.759 322.161 73.6868 322.488 73.6868C322.824 73.6868 323.106 73.759 323.333 73.9034C323.561 74.0455 323.732 74.2348 323.848 74.4716C323.967 74.7083 324.026 74.9687 324.026 75.2528V75.6364C324.026 75.9181 323.967 76.1773 323.848 76.4141C323.73 76.6508 323.556 76.8414 323.326 76.9858C323.099 77.1302 322.82 77.2024 322.488 77.2024C322.157 77.2024 321.876 77.1302 321.646 76.9858C321.417 76.8414 321.243 76.6508 321.124 76.4141C321.008 76.1773 320.95 75.9181 320.95 75.6364ZM321.877 75.2528V75.6364C321.877 75.8234 321.922 75.995 322.012 76.1513C322.102 76.3075 322.261 76.3857 322.488 76.3857C322.718 76.3857 322.875 76.3087 322.96 76.1548C323.048 75.9986 323.092 75.8258 323.092 75.6364V75.2528C323.092 75.0634 323.05 74.8906 322.967 74.7344C322.885 74.5758 322.725 74.4964 322.488 74.4964C322.266 74.4964 322.108 74.5758 322.016 74.7344C321.923 74.8906 321.877 75.0634 321.877 75.2528ZM317.254 71.4744V71.0909C317.254 70.8068 317.314 70.5464 317.435 70.3097C317.556 70.0729 317.731 69.8835 317.96 69.7415C318.19 69.5971 318.468 69.5249 318.795 69.5249C319.129 69.5249 319.409 69.5971 319.637 69.7415C319.866 69.8835 320.039 70.0729 320.155 70.3097C320.271 70.5464 320.329 70.8068 320.329 71.0909V71.4744C320.329 71.7585 320.27 72.0189 320.151 72.2557C320.035 72.4901 319.863 72.6783 319.633 72.8203C319.403 72.9624 319.124 73.0334 318.795 73.0334C318.461 73.0334 318.179 72.9624 317.95 72.8203C317.722 72.6783 317.55 72.4889 317.431 72.2521C317.313 72.0154 317.254 71.7562 317.254 71.4744ZM318.188 71.0909V71.4744C318.188 71.6638 318.231 71.8366 318.319 71.9929C318.409 72.1468 318.568 72.2237 318.795 72.2237C319.022 72.2237 319.178 72.1468 319.264 71.9929C319.351 71.8366 319.395 71.6638 319.395 71.4744V71.0909C319.395 70.9015 319.354 70.7287 319.271 70.5724C319.188 70.4138 319.029 70.3345 318.795 70.3345C318.57 70.3345 318.413 70.4138 318.323 70.5724C318.233 70.7311 318.188 70.9039 318.188 71.0909ZM317.659 77L322.659 69.7273H323.546L318.546 77H317.659Z" fill="#EBEBEB"/>
<path d="M329.5 75.5L327.335 71.75H331.665L329.5 75.5Z" fill="#EBEBEB"/>
<path d="M73.982 77H75.648V67.088H74.262L71.546 69.118V70.952L73.982 69.132V77ZM83.655 74.858C83.655 73.248 81.905 72.954 80.547 72.73C79.399 72.534 78.867 72.366 78.867 71.834C78.867 71.26 79.511 70.84 80.281 70.84C81.303 70.84 82.045 71.33 82.059 72.03H83.473C83.473 70.616 82.129 69.594 80.295 69.594C78.685 69.594 77.439 70.546 77.439 71.848C77.439 73.542 78.699 73.752 80.365 74.004C81.079 74.102 82.185 74.284 82.185 75.026C82.199 75.614 81.513 76.048 80.561 76.048C79.497 76.048 78.727 75.432 78.727 74.592H77.327C77.327 76.16 78.685 77.294 80.561 77.294C82.367 77.294 83.655 76.272 83.655 74.858ZM85.0635 74.998C85.0635 76.356 85.8895 77.28 87.1635 77.28C87.5555 77.28 88.0595 77.21 88.4235 77.084V75.866C88.1575 75.95 87.8215 75.992 87.6255 75.992C86.9815 75.992 86.5895 75.544 86.5895 74.9V71.078H88.3255V69.888H86.5895V68.166H85.3435L85.1475 69.888H83.9715V71.078H85.0635V74.998ZM95.3599 69.188L98.6079 77H99.8959L103.144 69.174V77H104.81V67.088H102.472L99.2379 74.886L96.0319 67.088H93.6939V77H95.3599V69.188ZM107.832 72.786C108.028 71.652 108.868 70.882 110.016 70.882C111.192 70.882 112.088 71.666 112.256 72.786H107.832ZM106.25 73.36C106.25 75.642 107.846 77.28 110.072 77.28C111.696 77.28 113.166 76.272 113.572 74.872L112.144 74.662C111.878 75.446 110.996 76.006 110.044 76.006C108.882 76.006 108 75.166 107.818 73.906L113.81 73.92C113.824 73.752 113.838 73.542 113.838 73.374C113.838 71.176 112.27 69.608 110.058 69.608C107.846 69.608 106.25 71.176 106.25 73.36ZM116.26 72.786C116.456 71.652 117.296 70.882 118.444 70.882C119.62 70.882 120.516 71.666 120.684 72.786H116.26ZM114.678 73.36C114.678 75.642 116.274 77.28 118.5 77.28C120.124 77.28 121.594 76.272 122 74.872L120.572 74.662C120.306 75.446 119.424 76.006 118.472 76.006C117.31 76.006 116.428 75.166 116.246 73.906L122.238 73.92C122.252 73.752 122.266 73.542 122.266 73.374C122.266 71.176 120.698 69.608 118.486 69.608C116.274 69.608 114.678 71.176 114.678 73.36ZM124.058 74.998C124.058 76.356 124.884 77.28 126.158 77.28C126.55 77.28 127.054 77.21 127.418 77.084V75.866C127.152 75.95 126.816 75.992 126.62 75.992C125.976 75.992 125.584 75.544 125.584 74.9V71.078H127.32V69.888H125.584V68.166H124.338L124.142 69.888H122.966V71.078H124.058V74.998ZM128.798 69.888V77H130.31V69.888H128.798ZM129.554 68.74C130.1 68.74 130.492 68.348 130.492 67.802C130.492 67.27 130.1 66.892 129.554 66.892C128.994 66.892 128.602 67.27 128.602 67.802C128.602 68.348 128.994 68.74 129.554 68.74ZM132.012 69.888V77H133.538V72.912C133.538 71.778 134.42 70.966 135.484 70.966C136.548 70.966 137.178 71.722 137.178 72.772V77H138.69V72.66C138.69 70.896 137.556 69.608 135.82 69.608C134.896 69.608 134.014 70.056 133.51 70.798V69.888H132.012ZM143.599 75.838C142.241 75.838 141.247 74.83 141.247 73.444C141.247 72.002 142.241 70.966 143.599 70.966C144.957 70.966 145.937 72.002 145.937 73.444C145.937 74.83 144.957 75.838 143.599 75.838ZM143.627 79.212C142.591 79.212 141.667 78.498 141.429 77.518L140.029 77.686C140.281 79.324 141.821 80.5 143.683 80.5C145.853 80.5 147.407 79.17 147.407 76.874V69.888H145.895V70.854C145.293 70.098 144.425 69.636 143.319 69.636C141.247 69.636 139.735 71.232 139.735 73.444C139.735 75.6 141.247 77.14 143.319 77.14C144.383 77.14 145.279 76.706 145.881 75.95V76.86C145.881 78.358 144.943 79.212 143.627 79.212ZM160.792 74.032C160.792 71.806 158.79 71.47 156.942 71.218C155.514 71.022 154.366 70.84 154.366 69.706C154.366 68.796 155.234 68.124 156.578 68.124C157.992 68.124 159.014 68.964 159.014 70.14H160.568C160.568 68.166 158.888 66.738 156.564 66.738C154.254 66.738 152.7 68.04 152.7 69.874C152.7 72.156 154.604 72.492 156.466 72.744C157.866 72.94 159.126 73.108 159.126 74.242C159.126 75.236 158.3 75.964 156.886 75.964C155.29 75.964 154.17 75.04 154.17 73.766H152.574C152.574 75.838 154.366 77.35 156.844 77.35C159.266 77.35 160.792 75.964 160.792 74.032ZM165.584 69.608C163.414 69.608 161.832 71.218 161.832 73.444C161.832 75.67 163.414 77.28 165.598 77.28C167.348 77.28 168.846 76.146 169.14 74.592L167.684 74.41C167.432 75.32 166.606 75.978 165.598 75.978C164.324 75.978 163.358 74.914 163.344 73.444C163.344 71.974 164.338 70.91 165.598 70.91C166.578 70.91 167.446 71.568 167.67 72.492L169.126 72.31C168.874 70.742 167.39 69.608 165.584 69.608ZM170.322 66.668V77H171.848V72.912C171.848 71.778 172.73 70.966 173.794 70.966C174.858 70.966 175.488 71.722 175.488 72.772V77H177V72.646C177 70.882 175.88 69.608 174.116 69.608C173.22 69.608 172.324 70.028 171.848 70.742V66.668H170.322ZM179.627 72.786C179.823 71.652 180.663 70.882 181.811 70.882C182.987 70.882 183.883 71.666 184.051 72.786H179.627ZM178.045 73.36C178.045 75.642 179.641 77.28 181.867 77.28C183.491 77.28 184.961 76.272 185.367 74.872L183.939 74.662C183.673 75.446 182.791 76.006 181.839 76.006C180.677 76.006 179.795 75.166 179.613 73.906L185.605 73.92C185.619 73.752 185.633 73.542 185.633 73.374C185.633 71.176 184.065 69.608 181.853 69.608C179.641 69.608 178.045 71.176 178.045 73.36ZM190.337 71.036C191.695 71.036 192.675 72.058 192.675 73.444C192.675 74.83 191.695 75.852 190.337 75.852C188.993 75.852 187.985 74.858 187.985 73.444C187.985 72.058 188.979 71.036 190.337 71.036ZM186.473 73.444C186.473 75.67 187.985 77.28 190.043 77.28C191.135 77.28 192.045 76.804 192.661 76.006V77H194.145V66.668H192.619V70.854C192.017 70.07 191.107 69.608 190.043 69.608C187.971 69.608 186.473 71.218 186.473 73.444ZM202.198 77V69.888H200.686V73.976C200.686 75.11 199.79 75.922 198.74 75.922C197.662 75.922 197.046 75.166 197.046 74.116V69.888H195.52V74.228C195.52 75.992 196.654 77.28 198.404 77.28C199.314 77.28 200.21 76.832 200.7 76.09V77H202.198ZM203.719 66.668V77H205.231V66.668H203.719ZM207.992 72.786C208.188 71.652 209.028 70.882 210.176 70.882C211.352 70.882 212.248 71.666 212.416 72.786H207.992ZM206.41 73.36C206.41 75.642 208.006 77.28 210.232 77.28C211.856 77.28 213.326 76.272 213.732 74.872L212.304 74.662C212.038 75.446 211.156 76.006 210.204 76.006C209.042 76.006 208.16 75.166 207.978 73.906L213.97 73.92C213.984 73.752 213.998 73.542 213.998 73.374C213.998 71.176 212.43 69.608 210.218 69.608C208.006 69.608 206.41 71.176 206.41 73.36ZM218.702 71.036C220.06 71.036 221.04 72.058 221.04 73.444C221.04 74.83 220.06 75.852 218.702 75.852C217.358 75.852 216.35 74.858 216.35 73.444C216.35 72.058 217.344 71.036 218.702 71.036ZM214.838 73.444C214.838 75.67 216.35 77.28 218.408 77.28C219.5 77.28 220.41 76.804 221.026 76.006V77H222.51V66.668H220.984V70.854C220.382 70.07 219.472 69.608 218.408 69.608C216.336 69.608 214.838 71.218 214.838 73.444Z" fill="black"/>
<path opacity="0.3" d="M73.52 90.304L76.304 97H77.408L80.192 90.292V97H81.62V88.504H79.616L76.844 95.188L74.096 88.504H72.092V97H73.52V90.304ZM84.139 93.388C84.307 92.416 85.027 91.756 86.011 91.756C87.019 91.756 87.787 92.428 87.931 93.388H84.139ZM82.783 93.88C82.783 95.836 84.151 97.24 86.059 97.24C87.451 97.24 88.711 96.376 89.059 95.176L87.835 94.996C87.607 95.668 86.851 96.148 86.035 96.148C85.039 96.148 84.283 95.428 84.127 94.348L89.263 94.36C89.275 94.216 89.287 94.036 89.287 93.892C89.287 92.008 87.943 90.664 86.047 90.664C84.151 90.664 82.783 92.008 82.783 93.88ZM91.2914 93.388C91.4594 92.416 92.1794 91.756 93.1634 91.756C94.1714 91.756 94.9394 92.428 95.0834 93.388H91.2914ZM89.9354 93.88C89.9354 95.836 91.3034 97.24 93.2114 97.24C94.6034 97.24 95.8634 96.376 96.2114 95.176L94.9874 94.996C94.7594 95.668 94.0034 96.148 93.1874 96.148C92.1914 96.148 91.4354 95.428 91.2794 94.348L96.4154 94.36C96.4274 94.216 96.4394 94.036 96.4394 93.892C96.4394 92.008 95.0954 90.664 93.1994 90.664C91.3034 90.664 89.9354 92.008 89.9354 93.88ZM97.9037 95.284C97.9037 96.448 98.6117 97.24 99.7037 97.24C100.04 97.24 100.472 97.18 100.784 97.072V96.028C100.556 96.1 100.268 96.136 100.1 96.136C99.5477 96.136 99.2117 95.752 99.2117 95.2V91.924H100.7V90.904H99.2117V89.428H98.1437L97.9757 90.904H96.9677V91.924H97.9037V95.284ZM101.895 90.904V97H103.191V90.904H101.895ZM102.543 89.92C103.011 89.92 103.347 89.584 103.347 89.116C103.347 88.66 103.011 88.336 102.543 88.336C102.063 88.336 101.727 88.66 101.727 89.116C101.727 89.584 102.063 89.92 102.543 89.92ZM104.579 90.904V97H105.887V93.496C105.887 92.524 106.643 91.828 107.555 91.828C108.467 91.828 109.007 92.476 109.007 93.376V97H110.303V93.28C110.303 91.768 109.331 90.664 107.843 90.664C107.051 90.664 106.295 91.048 105.863 91.684V90.904H104.579ZM114.439 96.004C113.275 96.004 112.423 95.14 112.423 93.952C112.423 92.716 113.275 91.828 114.439 91.828C115.603 91.828 116.443 92.716 116.443 93.952C116.443 95.14 115.603 96.004 114.439 96.004ZM114.463 98.896C113.575 98.896 112.783 98.284 112.579 97.444L111.379 97.588C111.595 98.992 112.915 100 114.511 100C116.371 100 117.703 98.86 117.703 96.892V90.904H116.407V91.732C115.891 91.084 115.147 90.688 114.199 90.688C112.423 90.688 111.127 92.056 111.127 93.952C111.127 95.8 112.423 97.12 114.199 97.12C115.111 97.12 115.879 96.748 116.395 96.1V96.88C116.395 98.164 115.591 98.896 114.463 98.896ZM129.034 94.456C129.034 92.548 127.318 92.26 125.734 92.044C124.51 91.876 123.526 91.72 123.526 90.748C123.526 89.968 124.27 89.392 125.422 89.392C126.634 89.392 127.51 90.112 127.51 91.12H128.842C128.842 89.428 127.402 88.204 125.41 88.204C123.43 88.204 122.098 89.32 122.098 90.892C122.098 92.848 123.73 93.136 125.326 93.352C126.526 93.52 127.606 93.664 127.606 94.636C127.606 95.488 126.898 96.112 125.686 96.112C124.318 96.112 123.358 95.32 123.358 94.228H121.99C121.99 96.004 123.526 97.3 125.65 97.3C127.726 97.3 129.034 96.112 129.034 94.456ZM133.069 90.664C131.209 90.664 129.853 92.044 129.853 93.952C129.853 95.86 131.209 97.24 133.081 97.24C134.581 97.24 135.865 96.268 136.117 94.936L134.869 94.78C134.653 95.56 133.945 96.124 133.081 96.124C131.989 96.124 131.161 95.212 131.149 93.952C131.149 92.692 132.001 91.78 133.081 91.78C133.921 91.78 134.665 92.344 134.857 93.136L136.105 92.98C135.889 91.636 134.617 90.664 133.069 90.664ZM137.059 88.144V97H138.367V93.496C138.367 92.524 139.123 91.828 140.035 91.828C140.947 91.828 141.487 92.476 141.487 93.376V97H142.783V93.268C142.783 91.756 141.823 90.664 140.311 90.664C139.543 90.664 138.775 91.024 138.367 91.636V88.144H137.059ZM144.963 93.388C145.131 92.416 145.851 91.756 146.835 91.756C147.843 91.756 148.611 92.428 148.755 93.388H144.963ZM143.607 93.88C143.607 95.836 144.975 97.24 146.883 97.24C148.275 97.24 149.535 96.376 149.883 95.176L148.659 94.996C148.431 95.668 147.675 96.148 146.859 96.148C145.863 96.148 145.107 95.428 144.951 94.348L150.087 94.36C150.099 94.216 150.111 94.036 150.111 93.892C150.111 92.008 148.767 90.664 146.871 90.664C144.975 90.664 143.607 92.008 143.607 93.88ZM154.072 91.888C155.236 91.888 156.076 92.764 156.076 93.952C156.076 95.14 155.236 96.016 154.072 96.016C152.92 96.016 152.056 95.164 152.056 93.952C152.056 92.764 152.908 91.888 154.072 91.888ZM150.76 93.952C150.76 95.86 152.056 97.24 153.82 97.24C154.756 97.24 155.536 96.832 156.064 96.148V97H157.336V88.144H156.028V91.732C155.512 91.06 154.732 90.664 153.82 90.664C152.044 90.664 150.76 92.044 150.76 93.952ZM164.167 97V90.904H162.871V94.408C162.871 95.38 162.103 96.076 161.203 96.076C160.279 96.076 159.751 95.428 159.751 94.528V90.904H158.443V94.624C158.443 96.136 159.415 97.24 160.915 97.24C161.695 97.24 162.463 96.856 162.883 96.22V97H164.167ZM165.399 88.144V97H166.695V88.144H165.399ZM168.991 93.388C169.159 92.416 169.879 91.756 170.863 91.756C171.871 91.756 172.639 92.428 172.783 93.388H168.991ZM167.635 93.88C167.635 95.836 169.003 97.24 170.911 97.24C172.303 97.24 173.563 96.376 173.911 95.176L172.687 94.996C172.459 95.668 171.703 96.148 170.887 96.148C169.891 96.148 169.135 95.428 168.979 94.348L174.115 94.36C174.127 94.216 174.139 94.036 174.139 93.892C174.139 92.008 172.795 90.664 170.899 90.664C169.003 90.664 167.635 92.008 167.635 93.88ZM178.099 91.888C179.263 91.888 180.103 92.764 180.103 93.952C180.103 95.14 179.263 96.016 178.099 96.016C176.947 96.016 176.083 95.164 176.083 93.952C176.083 92.764 176.935 91.888 178.099 91.888ZM174.787 93.952C174.787 95.86 176.083 97.24 177.847 97.24C178.783 97.24 179.563 96.832 180.091 96.148V97H181.363V88.144H180.055V91.732C179.539 91.06 178.759 90.664 177.847 90.664C176.071 90.664 174.787 92.044 174.787 93.952Z" fill="black"/>
<circle cx="40" cy="81" r="20" fill="#505ECE"/>
<path d="M40.1359 74.231C40.3502 74.2801 40.5434 74.3603 40.7291 74.477C40.917 74.5941 41.0616 74.7176 41.3583 75.0153L43.9296 77.5856C44.2267 77.8832 44.3502 78.0273 44.4679 78.2152C44.5828 78.3976 44.6658 78.5982 44.7133 78.8084C44.7629 79.0243 44.7777 79.2132 44.7777 79.6339V83.2608C44.7777 84.3058 44.6801 84.8124 44.3977 85.3397C44.1461 85.8138 43.7583 86.2017 43.2841 86.4533C42.7569 86.7357 42.2502 86.8333 41.2052 86.8333H37.7952C36.7502 86.8333 36.2436 86.7357 35.7163 86.4533C35.2422 86.2017 34.8543 85.8138 34.6027 85.3397C34.3193 84.8119 34.2222 84.3052 34.2222 83.2602V77.3681C34.2222 76.6899 34.3446 76.1416 34.6022 75.6602C34.8538 75.1861 35.2416 74.7982 35.7158 74.5466C36.1971 74.2885 36.7455 74.1666 37.4237 74.1666H39.3105C39.7311 74.1666 39.9201 74.1814 40.1359 74.231V74.231ZM39.4081 75.2227L37.4237 75.2222C36.9107 75.2222 36.5328 75.3066 36.214 75.4771C35.9235 75.6303 35.686 75.8676 35.5326 76.1579C35.3622 76.4778 35.2777 76.8557 35.2777 77.3687V83.2613C35.2777 84.1469 35.3437 84.4894 35.5326 84.842C35.6904 85.1375 35.919 85.3655 36.2135 85.5233C36.5671 85.7123 36.9091 85.7783 37.7947 85.7783H41.2052C42.0908 85.7783 42.4333 85.7123 42.7859 85.5233C43.0764 85.3702 43.3139 85.1329 43.4673 84.8425C43.6562 84.4889 43.7222 84.1469 43.7222 83.2613V79.6344C43.7222 79.5621 43.7222 79.4993 43.7211 79.4444H40.8194C40.4695 79.4444 40.1338 79.3054 39.8864 79.0579C39.639 78.8105 39.4999 78.4749 39.4999 78.125L39.5005 75.2232L39.4081 75.2227V75.2227ZM40.612 75.761L40.5555 75.7051V78.125C40.5555 78.1867 40.5771 78.2465 40.6167 78.294C40.6562 78.3414 40.7111 78.3735 40.7719 78.3846L40.8194 78.3888L43.2403 78.3899L43.1833 78.3318L40.612 75.7616V75.761Z" fill="white"/>
</g>
<rect x="438" width="67" height="67" rx="12" fill="#505ECE"/>
<path d="M481.167 44.375V41.9583C481.167 40.6765 480.657 39.4471 479.751 38.5407C478.845 37.6342 477.615 37.125 476.333 37.125H466.667C465.385 37.125 464.155 37.6342 463.249 38.5407C462.342 39.4471 461.833 40.6765 461.833 41.9583V44.375" stroke="white" stroke-width="2" stroke-linecap="round" stroke-linejoin="round"/>
<path d="M471.5 32.2917C474.169 32.2917 476.333 30.1277 476.333 27.4583C476.333 24.789 474.169 22.625 471.5 22.625C468.831 22.625 466.667 24.789 466.667 27.4583C466.667 30.1277 468.831 32.2917 471.5 32.2917Z" stroke="white" stroke-width="2" stroke-linecap="round" stroke-linejoin="round"/>
</svg>
