<svg width="731" height="370" viewBox="0 0 731 370" fill="none" xmlns="http://www.w3.org/2000/svg">
<path opacity="0.2" d="M583.5 154H652V309.5H533" stroke="black" stroke-width="2" stroke-dasharray="14 14"/>
<rect x="617" y="266" width="67" height="67" rx="12" fill="#307388"/>
<path d="M661.2 294V293.215C661.2 291.934 661.112 291.476 660.86 291.007C660.665 290.637 660.363 290.335 659.993 290.14C659.524 289.888 659.066 289.8 657.785 289.8H644.215C642.934 289.8 642.476 289.888 642.007 290.14C641.63 290.341 641.341 290.63 641.14 291.007C640.888 291.476 640.8 291.934 640.8 293.215V294H661.2ZM661.2 296.4H640.8V306.785C640.8 308.066 640.888 308.524 641.14 308.993C641.341 309.37 641.63 309.659 642.007 309.86C642.476 310.112 642.934 310.2 644.215 310.2H657.785C659.066 310.2 659.524 310.112 659.993 309.86C660.37 309.659 660.659 309.37 660.86 308.993C661.112 308.524 661.2 308.066 661.2 306.785V296.4ZM644.215 287.4H657.785C659.429 287.4 660.26 287.561 661.124 288.023C661.92 288.449 662.552 289.08 662.977 289.876C663.439 290.74 663.6 291.571 663.6 293.215V306.785C663.6 308.429 663.439 309.26 662.977 310.124C662.558 310.913 661.913 311.559 661.124 311.977C660.26 312.439 659.429 312.6 657.785 312.6H644.215C642.571 312.6 641.74 312.439 640.876 311.977C640.087 311.559 639.441 310.913 639.023 310.124C638.561 309.26 638.4 308.429 638.4 306.785V293.215C638.4 291.571 638.561 290.74 639.023 289.876C639.442 289.087 640.087 288.442 640.876 288.024C641.74 287.561 642.571 287.4 644.215 287.4Z" fill="white"/>
<g opacity="0.6">
<rect width="30" height="16" rx="8" transform="matrix(-1 0 0 1 310 255)" fill="#F1F4FA"/>
<rect x="114" y="244" width="463" height="102" rx="10" fill="white"/>
<rect x="134" y="251" width="133" height="20" rx="10" fill="#505ECE"/>
<path d="M167.15 261.09C167.15 262.31 166.43 263.21 165.36 263.21C164.26 263.2 163.56 262.19 163.56 261.09V256.92H162.35V261.11C162.35 262.94 163.6 264.25 165.36 264.25C167.11 264.25 168.36 262.94 168.36 261.11V256.92H167.15V261.09ZM172.155 263.18C171.185 263.18 170.485 262.45 170.485 261.46C170.485 260.47 171.185 259.74 172.155 259.74C173.115 259.74 173.835 260.45 173.835 261.46C173.835 262.45 173.125 263.18 172.155 263.18ZM174.915 261.46C174.915 259.87 173.835 258.72 172.365 258.72C171.585 258.72 170.935 259.06 170.495 259.63V258.92H169.435V266.3H170.525V263.31C170.955 263.87 171.605 264.2 172.365 264.2C173.845 264.2 174.915 263.05 174.915 261.46ZM178.135 259.74C179.105 259.74 179.805 260.47 179.805 261.46C179.805 262.45 179.105 263.18 178.135 263.18C177.175 263.18 176.455 262.47 176.455 261.46C176.455 260.47 177.165 259.74 178.135 259.74ZM175.375 261.46C175.375 263.05 176.455 264.2 177.925 264.2C178.705 264.2 179.355 263.86 179.795 263.29V264H180.855V256.62H179.765V259.61C179.335 259.05 178.685 258.72 177.925 258.72C176.445 258.72 175.375 259.87 175.375 261.46ZM184.314 263.23C183.344 263.23 182.634 262.48 182.634 261.46C182.634 260.43 183.344 259.69 184.314 259.69C185.284 259.69 185.984 260.43 185.984 261.46C185.984 262.49 185.284 263.23 184.314 263.23ZM185.994 259.68C185.564 259.08 184.894 258.72 184.104 258.72C182.614 258.72 181.554 259.87 181.554 261.46C181.554 263.05 182.614 264.2 184.104 264.2C184.894 264.2 185.564 263.84 185.994 263.24V264H187.084V258.92H185.994V259.68ZM188.463 262.57C188.463 263.54 189.053 264.2 189.963 264.2C190.243 264.2 190.603 264.15 190.863 264.06V263.19C190.673 263.25 190.433 263.28 190.293 263.28C189.833 263.28 189.553 262.96 189.553 262.5V259.77H190.793V258.92H189.553V257.69H188.663L188.523 258.92H187.683V259.77H188.463V262.57ZM194.086 263.23C193.116 263.23 192.406 262.48 192.406 261.46C192.406 260.43 193.116 259.69 194.086 259.69C195.056 259.69 195.756 260.43 195.756 261.46C195.756 262.49 195.056 263.23 194.086 263.23ZM195.766 259.68C195.336 259.08 194.666 258.72 193.876 258.72C192.386 258.72 191.326 259.87 191.326 261.46C191.326 263.05 192.386 264.2 193.876 264.2C194.666 264.2 195.336 263.84 195.766 263.24V264H196.856V258.92H195.766V259.68ZM198.234 262.57C198.234 263.54 198.824 264.2 199.734 264.2C200.014 264.2 200.374 264.15 200.634 264.06V263.19C200.444 263.25 200.204 263.28 200.064 263.28C199.604 263.28 199.324 262.96 199.324 262.5V259.77H200.564V258.92H199.324V257.69H198.434L198.294 258.92H197.454V259.77H198.234V262.57ZM201.477 258.92V264H202.557V258.92H201.477ZM202.017 258.1C202.407 258.1 202.687 257.82 202.687 257.43C202.687 257.05 202.407 256.78 202.017 256.78C201.617 256.78 201.337 257.05 201.337 257.43C201.337 257.82 201.617 258.1 202.017 258.1ZM206.14 258.72C204.51 258.72 203.38 259.85 203.38 261.46C203.38 263.07 204.51 264.2 206.14 264.2C207.76 264.2 208.9 263.07 208.9 261.46C208.9 259.85 207.76 258.72 206.14 258.72ZM206.14 263.23C205.16 263.23 204.47 262.49 204.47 261.46C204.47 260.43 205.16 259.69 206.14 259.69C207.11 259.69 207.82 260.43 207.82 261.46C207.82 262.49 207.11 263.23 206.14 263.23ZM209.595 258.92V264H210.685V261.08C210.685 260.27 211.315 259.69 212.075 259.69C212.835 259.69 213.285 260.23 213.285 260.98V264H214.365V260.9C214.365 259.64 213.555 258.72 212.315 258.72C211.655 258.72 211.025 259.04 210.665 259.57V258.92H209.595ZM220.744 257.96L222.144 261.78H219.354L220.744 257.96ZM219.094 262.68H222.394L222.864 264H224.134L221.614 256.92H219.874L217.344 264H218.624L219.094 262.68ZM224.628 256.62V264H225.708V256.62H224.628ZM227.538 260.99C227.678 260.18 228.278 259.63 229.098 259.63C229.938 259.63 230.578 260.19 230.698 260.99H227.538ZM226.408 261.4C226.408 263.03 227.548 264.2 229.138 264.2C230.298 264.2 231.348 263.48 231.638 262.48L230.618 262.33C230.428 262.89 229.798 263.29 229.118 263.29C228.288 263.29 227.658 262.69 227.528 261.79L231.808 261.8C231.818 261.68 231.828 261.53 231.828 261.41C231.828 259.84 230.708 258.72 229.128 258.72C227.548 258.72 226.408 259.84 226.408 261.4ZM232.525 258.92V264H233.615V261.22C233.615 260.32 234.095 259.68 234.815 259.68C235.015 259.68 235.325 259.72 235.605 259.84V258.87C235.385 258.79 235.155 258.74 234.955 258.74C234.375 258.74 233.885 259.05 233.575 259.57V258.92H232.525ZM236.547 262.57C236.547 263.54 237.137 264.2 238.047 264.2C238.327 264.2 238.687 264.15 238.947 264.06V263.19C238.757 263.25 238.517 263.28 238.377 263.28C237.917 263.28 237.637 262.96 237.637 262.5V259.77H238.877V258.92H237.637V257.69H236.747L236.607 258.92H235.767V259.77H236.547V262.57Z" fill="white"/>
<path d="M188.948 304H190.628V300.472L194.17 294.088H192.308L189.788 298.918L187.198 294.088H185.378L188.948 300.472V304ZM197.293 296.608C195.011 296.608 193.429 298.19 193.429 300.444C193.429 302.698 195.011 304.28 197.293 304.28C199.561 304.28 201.157 302.698 201.157 300.444C201.157 298.19 199.561 296.608 197.293 296.608ZM197.293 302.922C195.921 302.922 194.955 301.886 194.955 300.444C194.955 299.002 195.921 297.966 197.293 297.966C198.651 297.966 199.645 299.002 199.645 300.444C199.645 301.886 198.651 302.922 197.293 302.922ZM208.868 304V296.888H207.356V300.976C207.356 302.11 206.46 302.922 205.41 302.922C204.332 302.922 203.716 302.166 203.716 301.116V296.888H202.19V301.228C202.19 302.992 203.324 304.28 205.074 304.28C205.984 304.28 206.88 303.832 207.37 303.09V304H208.868ZM217.625 296.608C215.455 296.608 213.873 298.218 213.873 300.444C213.873 302.67 215.455 304.28 217.639 304.28C219.389 304.28 220.887 303.146 221.181 301.592L219.725 301.41C219.473 302.32 218.647 302.978 217.639 302.978C216.365 302.978 215.399 301.914 215.385 300.444C215.385 298.974 216.379 297.91 217.639 297.91C218.619 297.91 219.487 298.568 219.711 299.492L221.167 299.31C220.915 297.742 219.431 296.608 217.625 296.608ZM225.891 302.922C224.533 302.922 223.539 301.872 223.539 300.444C223.539 299.002 224.533 297.966 225.891 297.966C227.249 297.966 228.229 299.002 228.229 300.444C228.229 301.886 227.249 302.922 225.891 302.922ZM228.243 297.952C227.641 297.112 226.703 296.608 225.597 296.608C223.511 296.608 222.027 298.218 222.027 300.444C222.027 302.67 223.511 304.28 225.597 304.28C226.703 304.28 227.641 303.776 228.243 302.936V304H229.769V296.888H228.243V297.952ZM231.283 293.668V304H232.795V293.668H231.283ZM234.311 293.668V304H235.823V293.668H234.311ZM238.584 299.786C238.78 298.652 239.62 297.882 240.768 297.882C241.944 297.882 242.84 298.666 243.008 299.786H238.584ZM237.002 300.36C237.002 302.642 238.598 304.28 240.824 304.28C242.448 304.28 243.918 303.272 244.324 301.872L242.896 301.662C242.63 302.446 241.748 303.006 240.796 303.006C239.634 303.006 238.752 302.166 238.57 300.906L244.562 300.92C244.576 300.752 244.59 300.542 244.59 300.374C244.59 298.176 243.022 296.608 240.81 296.608C238.598 296.608 237.002 298.176 237.002 300.36ZM249.294 298.036C250.652 298.036 251.632 299.058 251.632 300.444C251.632 301.83 250.652 302.852 249.294 302.852C247.95 302.852 246.942 301.858 246.942 300.444C246.942 299.058 247.936 298.036 249.294 298.036ZM245.43 300.444C245.43 302.67 246.942 304.28 249 304.28C250.092 304.28 251.002 303.804 251.618 303.006V304H253.102V293.668H251.576V297.854C250.974 297.07 250.064 296.608 249 296.608C246.928 296.608 245.43 298.218 245.43 300.444ZM261.308 300.906C261.308 302.082 260.538 302.852 259.446 302.852C259.054 302.852 258.452 302.768 257.976 302.628V304C258.522 304.168 259.278 304.28 259.852 304.28C261.672 304.28 262.988 302.922 262.988 300.976V294.088H261.308V300.906ZM268.274 296.608C265.992 296.608 264.41 298.19 264.41 300.444C264.41 302.698 265.992 304.28 268.274 304.28C270.542 304.28 272.138 302.698 272.138 300.444C272.138 298.19 270.542 296.608 268.274 296.608ZM268.274 302.922C266.902 302.922 265.936 301.886 265.936 300.444C265.936 299.002 266.902 297.966 268.274 297.966C269.632 297.966 270.626 299.002 270.626 300.444C270.626 301.886 269.632 302.922 268.274 302.922ZM273.311 293.668V304H274.837V299.912C274.837 298.778 275.719 297.966 276.783 297.966C277.847 297.966 278.477 298.722 278.477 299.772V304H279.989V299.646C279.989 297.882 278.869 296.608 277.105 296.608C276.209 296.608 275.313 297.028 274.837 297.742V293.668H273.311ZM281.369 296.888V304H282.895V299.912C282.895 298.778 283.777 297.966 284.841 297.966C285.905 297.966 286.535 298.722 286.535 299.772V304H288.047V299.66C288.047 297.896 286.913 296.608 285.177 296.608C284.253 296.608 283.371 297.056 282.867 297.798V296.888H281.369ZM290.03 304.196C290.59 304.196 290.968 303.804 290.968 303.258C290.968 302.726 290.59 302.348 290.03 302.348C289.484 302.348 289.092 302.726 289.092 303.258C289.092 303.804 289.484 304.196 290.03 304.196Z" fill="black"/>
<path opacity="0.3" d="M187.52 319.304L190.304 326H191.408L194.192 319.292V326H195.62V317.504H193.616L190.844 324.188L188.096 317.504H186.092V326H187.52V319.304ZM200.083 319.664C198.127 319.664 196.771 321.02 196.771 322.952C196.771 324.884 198.127 326.24 200.083 326.24C202.027 326.24 203.395 324.884 203.395 322.952C203.395 321.02 202.027 319.664 200.083 319.664ZM200.083 325.076C198.907 325.076 198.079 324.188 198.079 322.952C198.079 321.716 198.907 320.828 200.083 320.828C201.247 320.828 202.099 321.716 202.099 322.952C202.099 324.188 201.247 325.076 200.083 325.076ZM204.329 319.904V326H205.637V322.496C205.637 321.524 206.393 320.828 207.305 320.828C208.217 320.828 208.757 321.476 208.757 322.376V326H210.053V322.28C210.053 320.768 209.081 319.664 207.593 319.664C206.801 319.664 206.045 320.048 205.613 320.684V319.904H204.329ZM211.633 326.168C211.633 326.588 211.333 327.104 210.901 327.416L211.549 327.764C212.125 327.368 212.545 326.516 212.545 325.688C212.545 325.028 212.197 324.596 211.681 324.596C211.225 324.596 210.889 324.92 210.889 325.376C210.889 325.844 211.189 326.168 211.633 326.168ZM218.384 326H219.812V317.504H218.624L216.296 319.244V320.816L218.384 319.256V326ZM225.176 318.692L223.1 320.972L223.484 321.92C223.676 321.836 223.976 321.776 224.216 321.776C225.236 321.776 225.98 322.484 225.98 323.444C225.98 324.392 225.224 325.076 224.18 325.076C223.208 325.076 222.428 324.236 222.272 323.072L221.012 323.288C221.144 325.028 222.5 326.3 224.228 326.3C226.052 326.3 227.36 325.124 227.36 323.504C227.36 322.052 226.376 320.96 224.96 320.78L227.072 318.404V317.504H221.48V318.692H225.176ZM235.267 318.752L236.947 323.336H233.599L235.267 318.752ZM233.287 324.416H237.247L237.811 326H239.335L236.311 317.504H234.223L231.187 326H232.723L233.287 324.416ZM243.292 325.016C242.128 325.016 241.288 324.14 241.288 322.952C241.288 321.764 242.128 320.888 243.292 320.888C244.444 320.888 245.308 321.74 245.308 322.952C245.308 324.14 244.456 325.016 243.292 325.016ZM246.604 322.952C246.604 321.044 245.308 319.664 243.544 319.664C242.608 319.664 241.828 320.072 241.3 320.756V319.904H240.028V328.76H241.336V325.172C241.852 325.844 242.632 326.24 243.544 326.24C245.32 326.24 246.604 324.86 246.604 322.952ZM247.544 319.904V326H248.852V322.664C248.852 321.584 249.428 320.816 250.292 320.816C250.532 320.816 250.904 320.864 251.24 321.008V319.844C250.976 319.748 250.7 319.688 250.46 319.688C249.764 319.688 249.176 320.06 248.804 320.684V319.904H247.544ZM251.566 326.168C251.566 326.588 251.266 327.104 250.834 327.416L251.482 327.764C252.058 327.368 252.478 326.516 252.478 325.688C252.478 325.028 252.13 324.596 251.614 324.596C251.158 324.596 250.822 324.92 250.822 325.376C250.822 325.844 251.122 326.168 251.566 326.168ZM260.298 326.3C262.53 326.3 264.03 324.392 264.03 321.752C264.03 319.112 262.53 317.204 260.298 317.204C258.066 317.204 256.566 319.112 256.566 321.752C256.566 324.392 258.066 326.3 260.298 326.3ZM260.298 318.464C261.69 318.464 262.59 319.844 262.59 321.752C262.59 323.66 261.69 325.052 260.298 325.052C258.906 325.052 258.006 323.66 258.006 321.752C258.006 319.844 258.906 318.464 260.298 318.464ZM268.46 322.112C269.492 322.112 270.248 322.736 270.248 323.588C270.248 324.452 269.504 325.064 268.46 325.064C267.428 325.064 266.684 324.452 266.684 323.588C266.684 322.736 267.428 322.112 268.46 322.112ZM268.46 318.404C269.372 318.404 270.02 318.932 270.02 319.676C270.02 320.432 269.372 320.984 268.46 320.984C267.56 320.984 266.9 320.432 266.9 319.676C266.9 318.932 267.56 318.404 268.46 318.404ZM268.46 317.192C266.744 317.192 265.496 318.152 265.496 319.508C265.496 320.42 266.06 321.248 266.84 321.476C265.844 321.704 265.136 322.676 265.136 323.744C265.136 325.22 266.528 326.276 268.46 326.276C270.392 326.276 271.784 325.232 271.784 323.744C271.784 322.676 271.064 321.704 270.08 321.476C270.86 321.248 271.424 320.42 271.424 319.508C271.424 318.128 270.176 317.192 268.46 317.192ZM273.474 326.168C273.954 326.168 274.278 325.832 274.278 325.364C274.278 324.908 273.954 324.584 273.474 324.584C273.006 324.584 272.67 324.908 272.67 325.364C272.67 325.832 273.006 326.168 273.474 326.168ZM273.474 321.668C273.954 321.668 274.278 321.344 274.278 320.876C274.278 320.42 273.954 320.084 273.474 320.084C273.006 320.084 272.67 320.42 272.67 320.876C272.67 321.344 273.006 321.668 273.474 321.668ZM278.055 321.584C279.315 321.584 280.047 322.34 280.047 323.384C280.047 324.368 279.303 325.076 278.259 325.076C277.239 325.076 276.447 324.236 276.351 323.072L275.091 323.276C275.223 325.028 276.543 326.3 278.307 326.3C280.131 326.3 281.439 325.076 281.439 323.384C281.439 321.692 280.227 320.468 278.307 320.468H277.047L277.239 318.692H280.755V317.504H276.123L275.691 321.584H278.055ZM286.212 326.3C288.444 326.3 289.944 324.392 289.944 321.752C289.944 319.112 288.444 317.204 286.212 317.204C283.98 317.204 282.48 319.112 282.48 321.752C282.48 324.392 283.98 326.3 286.212 326.3ZM286.212 318.464C287.604 318.464 288.504 319.844 288.504 321.752C288.504 323.66 287.604 325.052 286.212 325.052C284.82 325.052 283.92 323.66 283.92 321.752C283.92 319.844 284.82 318.464 286.212 318.464ZM297.589 318.692C298.885 318.692 299.809 319.424 299.809 320.456C299.821 321.476 298.885 322.208 297.589 322.208H295.933V318.692H297.589ZM297.817 323.408C299.821 323.408 301.249 322.172 301.249 320.456C301.249 318.74 299.821 317.504 297.829 317.504H294.541V326H295.933V323.408H297.817ZM303.836 319.304L306.62 326H307.724L310.508 319.292V326H311.936V317.504H309.932L307.16 324.188L304.412 317.504H302.408V326H303.836V319.304Z" fill="black"/>
<circle cx="154" cy="310" r="20" fill="#307388"/>
<g clip-path="url(#clip0_3026_1272)">
<path d="M159.833 312.87V314.62C159.834 314.782 159.801 314.943 159.736 315.092C159.671 315.241 159.575 315.375 159.455 315.484C159.336 315.594 159.194 315.678 159.04 315.73C158.887 315.782 158.723 315.801 158.562 315.787C156.767 315.592 155.042 314.978 153.528 313.996C152.118 313.1 150.923 311.905 150.028 310.496C149.042 308.974 148.428 307.241 148.237 305.438C148.222 305.277 148.241 305.114 148.293 304.961C148.345 304.807 148.428 304.666 148.537 304.547C148.646 304.427 148.779 304.332 148.927 304.266C149.075 304.201 149.236 304.167 149.398 304.167H151.148C151.431 304.164 151.705 304.264 151.92 304.449C152.134 304.633 152.275 304.89 152.314 305.17C152.388 305.73 152.525 306.28 152.723 306.809C152.801 307.018 152.818 307.245 152.771 307.463C152.725 307.681 152.617 307.881 152.46 308.04L151.719 308.781C152.55 310.241 153.759 311.45 155.219 312.281L155.96 311.54C156.119 311.383 156.319 311.275 156.537 311.229C156.755 311.182 156.982 311.199 157.191 311.278C157.72 311.475 158.27 311.612 158.83 311.686C159.113 311.726 159.372 311.869 159.557 312.087C159.742 312.305 159.84 312.584 159.833 312.87Z" stroke="white" stroke-linecap="round" stroke-linejoin="round"/>
</g>
</g>
<g filter="url(#filter0_d_3026_1272)">
<rect x="134" y="130" width="463" height="102" rx="10" fill="white"/>
<rect x="502" y="200" width="71" height="20" rx="10" fill="#ADCC81" fill-opacity="0.15"/>
<path d="M513.82 211.81C512.56 211.81 511.66 210.83 511.66 209.44C511.66 208.05 512.55 207.07 513.82 207.07C514.74 207.07 515.54 207.7 515.74 208.58L517.32 208.4C517.06 206.79 515.58 205.63 513.78 205.63C511.58 205.63 509.98 207.23 509.98 209.44C509.98 211.65 511.58 213.25 513.78 213.25C515.6 213.25 517.08 212.12 517.32 210.55L515.75 210.34C515.53 211.19 514.72 211.81 513.82 211.81ZM520.788 207.32L521.908 210.62H519.668L520.788 207.32ZM519.338 211.82H522.238L522.628 213H524.388L522.008 205.88H519.568L517.178 213H518.948L519.338 211.82ZM529.536 213V211.56H526.556V205.88H524.876V213H529.536ZM534.866 213V211.56H531.886V205.88H530.206V213H534.866ZM539.943 205.88H538.093V213H539.683V207.92L542.553 213H544.403V205.88H542.803V210.97L539.943 205.88ZM549.123 213.25C551.453 213.25 553.063 211.7 553.063 209.44C553.063 207.19 551.453 205.63 549.123 205.63C546.783 205.63 545.183 207.19 545.183 209.44C545.183 211.7 546.783 213.25 549.123 213.25ZM549.123 207.07C550.453 207.07 551.383 208.05 551.383 209.44C551.383 210.83 550.453 211.81 549.123 211.81C547.793 211.8 546.863 210.83 546.863 209.44C546.863 208.05 547.793 207.07 549.123 207.07ZM559.637 205.88H557.777L556.347 211.62L554.827 205.88H553.117L555.057 213H557.487L558.697 207.97L559.907 213H562.327L564.267 205.88H562.557L561.057 211.62L559.637 205.88Z" fill="#ADCC81"/>
<rect x="154" y="139" width="133" height="20" rx="10" fill="#FF5A5F"/>
<path d="M173.91 144.92V152H175.11V144.92H173.91ZM176.247 146.92V152H177.337V149.08C177.337 148.27 177.967 147.69 178.727 147.69C179.487 147.69 179.937 148.23 179.937 148.98V152H181.017V148.9C181.017 147.64 180.207 146.72 178.967 146.72C178.307 146.72 177.677 147.04 177.317 147.57V146.92H176.247ZM182.301 150.57C182.301 151.54 182.891 152.2 183.801 152.2C184.081 152.2 184.441 152.15 184.701 152.06V151.19C184.511 151.25 184.271 151.28 184.131 151.28C183.671 151.28 183.391 150.96 183.391 150.5V147.77H184.631V146.92H183.391V145.69H182.501L182.361 146.92H181.521V147.77H182.301V150.57ZM186.294 148.99C186.434 148.18 187.034 147.63 187.854 147.63C188.694 147.63 189.334 148.19 189.454 148.99H186.294ZM185.164 149.4C185.164 151.03 186.304 152.2 187.894 152.2C189.054 152.2 190.104 151.48 190.394 150.48L189.374 150.33C189.184 150.89 188.554 151.29 187.874 151.29C187.044 151.29 186.414 150.69 186.284 149.79L190.564 149.8C190.574 149.68 190.584 149.53 190.584 149.41C190.584 147.84 189.464 146.72 187.884 146.72C186.304 146.72 185.164 147.84 185.164 149.4ZM191.281 144.62V152H192.361V144.62H191.281ZM193.3 144.62V152H194.38V144.62H193.3ZM195.46 146.92V152H196.54V146.92H195.46ZM196 146.1C196.39 146.1 196.67 145.82 196.67 145.43C196.67 145.05 196.39 144.78 196 144.78C195.6 144.78 195.32 145.05 195.32 145.43C195.32 145.82 195.6 146.1 196 146.1ZM200.133 151.17C199.163 151.17 198.453 150.45 198.453 149.46C198.453 148.43 199.163 147.69 200.133 147.69C201.103 147.69 201.803 148.43 201.803 149.46C201.803 150.45 201.103 151.17 200.133 151.17ZM200.153 153.58C199.413 153.58 198.753 153.07 198.583 152.37L197.583 152.49C197.763 153.66 198.863 154.5 200.193 154.5C201.743 154.5 202.853 153.55 202.853 151.91V146.92H201.773V147.61C201.343 147.07 200.723 146.74 199.933 146.74C198.453 146.74 197.373 147.88 197.373 149.46C197.373 151 198.453 152.1 199.933 152.1C200.693 152.1 201.333 151.79 201.763 151.25V151.9C201.763 152.97 201.093 153.58 200.153 153.58ZM204.682 148.99C204.822 148.18 205.422 147.63 206.242 147.63C207.082 147.63 207.722 148.19 207.842 148.99H204.682ZM203.552 149.4C203.552 151.03 204.692 152.2 206.282 152.2C207.442 152.2 208.492 151.48 208.782 150.48L207.762 150.33C207.572 150.89 206.942 151.29 206.262 151.29C205.432 151.29 204.802 150.69 204.672 149.79L208.952 149.8C208.962 149.68 208.972 149.53 208.972 149.41C208.972 147.84 207.852 146.72 206.272 146.72C204.692 146.72 203.552 147.84 203.552 149.4ZM209.669 146.92V152H210.759V149.08C210.759 148.27 211.389 147.69 212.149 147.69C212.909 147.69 213.359 148.23 213.359 148.98V152H214.439V148.9C214.439 147.64 213.629 146.72 212.389 146.72C211.729 146.72 211.099 147.04 210.739 147.57V146.92H209.669ZM215.723 150.57C215.723 151.54 216.313 152.2 217.223 152.2C217.502 152.2 217.863 152.15 218.123 152.06V151.19C217.933 151.25 217.693 151.28 217.553 151.28C217.093 151.28 216.813 150.96 216.813 150.5V147.77H218.053V146.92H216.813V145.69H215.923L215.783 146.92H214.943V147.77H215.723V150.57ZM224.361 145.96L225.761 149.78H222.971L224.361 145.96ZM222.711 150.68H226.011L226.481 152H227.751L225.231 144.92H223.491L220.961 152H222.241L222.711 150.68ZM228.245 144.62V152H229.325V144.62H228.245ZM230.265 144.62V152H231.345V144.62H230.265ZM234.794 146.72C233.164 146.72 232.034 147.85 232.034 149.46C232.034 151.07 233.164 152.2 234.794 152.2C236.414 152.2 237.554 151.07 237.554 149.46C237.554 147.85 236.414 146.72 234.794 146.72ZM234.794 151.23C233.814 151.23 233.124 150.49 233.124 149.46C233.124 148.43 233.814 147.69 234.794 147.69C235.764 147.69 236.474 148.43 236.474 149.46C236.474 150.49 235.764 151.23 234.794 151.23ZM240.689 146.72C239.139 146.72 238.009 147.87 238.009 149.46C238.009 151.05 239.139 152.2 240.699 152.2C241.949 152.2 243.019 151.39 243.229 150.28L242.189 150.15C242.009 150.8 241.419 151.27 240.699 151.27C239.789 151.27 239.099 150.51 239.089 149.46C239.089 148.41 239.799 147.65 240.699 147.65C241.399 147.65 242.019 148.12 242.179 148.78L243.219 148.65C243.039 147.53 241.979 146.72 240.689 146.72ZM246.451 151.23C245.481 151.23 244.771 150.48 244.771 149.46C244.771 148.43 245.481 147.69 246.451 147.69C247.421 147.69 248.121 148.43 248.121 149.46C248.121 150.49 247.421 151.23 246.451 151.23ZM248.131 147.68C247.701 147.08 247.031 146.72 246.241 146.72C244.751 146.72 243.691 147.87 243.691 149.46C243.691 151.05 244.751 152.2 246.241 152.2C247.031 152.2 247.701 151.84 248.131 151.24V152H249.221V146.92H248.131V147.68ZM250.599 150.57C250.599 151.54 251.189 152.2 252.099 152.2C252.379 152.2 252.739 152.15 252.999 152.06V151.19C252.809 151.25 252.569 151.28 252.429 151.28C251.969 151.28 251.689 150.96 251.689 150.5V147.77H252.929V146.92H251.689V145.69H250.799L250.659 146.92H249.819V147.77H250.599V150.57ZM253.842 146.92V152H254.922V146.92H253.842ZM254.382 146.1C254.772 146.1 255.052 145.82 255.052 145.43C255.052 145.05 254.772 144.78 254.382 144.78C253.982 144.78 253.702 145.05 253.702 145.43C253.702 145.82 253.982 146.1 254.382 146.1ZM258.505 146.72C256.875 146.72 255.745 147.85 255.745 149.46C255.745 151.07 256.875 152.2 258.505 152.2C260.125 152.2 261.265 151.07 261.265 149.46C261.265 147.85 260.125 146.72 258.505 146.72ZM258.505 151.23C257.525 151.23 256.835 150.49 256.835 149.46C256.835 148.43 257.525 147.69 258.505 147.69C259.475 147.69 260.185 148.43 260.185 149.46C260.185 150.49 259.475 151.23 258.505 151.23ZM261.96 146.92V152H263.05V149.08C263.05 148.27 263.68 147.69 264.44 147.69C265.2 147.69 265.65 148.23 265.65 148.98V152H266.73V148.9C266.73 147.64 265.92 146.72 264.68 146.72C264.02 146.72 263.39 147.04 263.03 147.57V146.92H261.96Z" fill="white"/>
<rect width="30" height="16" rx="8" transform="matrix(-1 0 0 1 330 141)" fill="#F1F4FA"/>
<path d="M208.948 190H210.628V186.472L214.17 180.088H212.308L209.788 184.918L207.198 180.088H205.378L208.948 186.472V190ZM217.293 182.608C215.011 182.608 213.429 184.19 213.429 186.444C213.429 188.698 215.011 190.28 217.293 190.28C219.561 190.28 221.157 188.698 221.157 186.444C221.157 184.19 219.561 182.608 217.293 182.608ZM217.293 188.922C215.921 188.922 214.955 187.886 214.955 186.444C214.955 185.002 215.921 183.966 217.293 183.966C218.651 183.966 219.645 185.002 219.645 186.444C219.645 187.886 218.651 188.922 217.293 188.922ZM228.868 190V182.888H227.356V186.976C227.356 188.11 226.46 188.922 225.41 188.922C224.332 188.922 223.716 188.166 223.716 187.116V182.888H222.19V187.228C222.19 188.992 223.324 190.28 225.074 190.28C225.984 190.28 226.88 189.832 227.37 189.09V190H228.868ZM230.389 182.888V190H231.915V186.108C231.915 184.848 232.587 183.952 233.595 183.952C233.875 183.952 234.309 184.008 234.701 184.176V182.818C234.393 182.706 234.071 182.636 233.791 182.636C232.979 182.636 232.293 183.07 231.859 183.798V182.888H230.389ZM244.408 188.894C242.364 188.894 240.908 187.284 240.894 185.044C240.894 182.804 242.35 181.208 244.408 181.208C245.892 181.208 247.208 182.216 247.544 183.616L249.154 183.42C248.706 181.292 246.704 179.738 244.394 179.738C241.384 179.738 239.214 181.964 239.214 185.044C239.2 188.124 241.384 190.35 244.394 190.35C246.704 190.35 248.706 188.866 249.154 186.822L247.558 186.556C247.18 187.914 245.864 188.894 244.408 188.894ZM253.991 188.922C252.633 188.922 251.639 187.872 251.639 186.444C251.639 185.002 252.633 183.966 253.991 183.966C255.349 183.966 256.329 185.002 256.329 186.444C256.329 187.886 255.349 188.922 253.991 188.922ZM256.343 183.952C255.741 183.112 254.803 182.608 253.697 182.608C251.611 182.608 250.127 184.218 250.127 186.444C250.127 188.67 251.611 190.28 253.697 190.28C254.803 190.28 255.741 189.776 256.343 188.936V190H257.869V182.888H256.343V183.952ZM259.383 179.668V190H260.895V179.668H259.383ZM263.656 185.786C263.852 184.652 264.692 183.882 265.84 183.882C267.016 183.882 267.912 184.666 268.08 185.786H263.656ZM262.074 186.36C262.074 188.642 263.67 190.28 265.896 190.28C267.52 190.28 268.99 189.272 269.396 187.872L267.968 187.662C267.702 188.446 266.82 189.006 265.868 189.006C264.706 189.006 263.824 188.166 263.642 186.906L269.634 186.92C269.648 186.752 269.662 186.542 269.662 186.374C269.662 184.176 268.094 182.608 265.882 182.608C263.67 182.608 262.074 184.176 262.074 186.36ZM270.838 182.888V190H272.364V185.912C272.364 184.778 273.246 183.966 274.31 183.966C275.374 183.966 276.004 184.722 276.004 185.772V190H277.516V185.66C277.516 183.896 276.382 182.608 274.646 182.608C273.722 182.608 272.84 183.056 272.336 183.798V182.888H270.838ZM282.425 184.036C283.783 184.036 284.763 185.058 284.763 186.444C284.763 187.83 283.783 188.852 282.425 188.852C281.081 188.852 280.073 187.858 280.073 186.444C280.073 185.058 281.067 184.036 282.425 184.036ZM278.561 186.444C278.561 188.67 280.073 190.28 282.131 190.28C283.223 190.28 284.133 189.804 284.749 189.006V190H286.233V179.668H284.707V183.854C284.105 183.07 283.195 182.608 282.131 182.608C280.059 182.608 278.561 184.218 278.561 186.444ZM288.994 185.786C289.19 184.652 290.03 183.882 291.178 183.882C292.354 183.882 293.25 184.666 293.418 185.786H288.994ZM287.412 186.36C287.412 188.642 289.008 190.28 291.234 190.28C292.858 190.28 294.328 189.272 294.734 187.872L293.306 187.662C293.04 188.446 292.158 189.006 291.206 189.006C290.044 189.006 289.162 188.166 288.98 186.906L294.972 186.92C294.986 186.752 295 186.542 295 186.374C295 184.176 293.432 182.608 291.22 182.608C289.008 182.608 287.412 184.176 287.412 186.36ZM296.176 182.888V190H297.702V186.108C297.702 184.848 298.374 183.952 299.382 183.952C299.662 183.952 300.096 184.008 300.488 184.176V182.818C300.18 182.706 299.858 182.636 299.578 182.636C298.766 182.636 298.08 183.07 297.646 183.798V182.888H296.176ZM305.407 182.888V190H306.919V182.888H305.407ZM306.163 181.74C306.709 181.74 307.101 181.348 307.101 180.802C307.101 180.27 306.709 179.892 306.163 179.892C305.603 179.892 305.211 180.27 305.211 180.802C305.211 181.348 305.603 181.74 306.163 181.74ZM314.725 187.858C314.725 186.248 312.975 185.954 311.617 185.73C310.469 185.534 309.937 185.366 309.937 184.834C309.937 184.26 310.581 183.84 311.351 183.84C312.373 183.84 313.115 184.33 313.129 185.03H314.543C314.543 183.616 313.199 182.594 311.365 182.594C309.755 182.594 308.509 183.546 308.509 184.848C308.509 186.542 309.769 186.752 311.435 187.004C312.149 187.102 313.255 187.284 313.255 188.026C313.269 188.614 312.583 189.048 311.631 189.048C310.567 189.048 309.797 188.432 309.797 187.592H308.397C308.397 189.16 309.755 190.294 311.631 190.294C313.437 190.294 314.725 189.272 314.725 187.858ZM322.03 181.796C322.044 181.166 322.436 180.746 323.024 180.746C323.29 180.746 323.514 180.788 323.752 180.858V179.584C323.388 179.458 323.01 179.388 322.562 179.388C321.344 179.388 320.518 180.298 320.518 181.67V182.888H319.426V184.078H320.518V190H322.03V184.078H323.752V182.888H322.03V181.796ZM324.785 182.888V190H326.311V186.108C326.311 184.848 326.983 183.952 327.991 183.952C328.271 183.952 328.705 184.008 329.097 184.176V182.818C328.789 182.706 328.467 182.636 328.187 182.636C327.375 182.636 326.689 183.07 326.255 183.798V182.888H324.785ZM330.822 185.786C331.018 184.652 331.858 183.882 333.006 183.882C334.182 183.882 335.078 184.666 335.246 185.786H330.822ZM329.24 186.36C329.24 188.642 330.836 190.28 333.062 190.28C334.686 190.28 336.156 189.272 336.562 187.872L335.134 187.662C334.868 188.446 333.986 189.006 333.034 189.006C331.872 189.006 330.99 188.166 330.808 186.906L336.8 186.92C336.814 186.752 336.828 186.542 336.828 186.374C336.828 184.176 335.26 182.608 333.048 182.608C330.836 182.608 329.24 184.176 329.24 186.36ZM339.25 185.786C339.446 184.652 340.286 183.882 341.434 183.882C342.61 183.882 343.506 184.666 343.674 185.786H339.25ZM337.668 186.36C337.668 188.642 339.264 190.28 341.49 190.28C343.114 190.28 344.584 189.272 344.99 187.872L343.562 187.662C343.296 188.446 342.414 189.006 341.462 189.006C340.3 189.006 339.418 188.166 339.236 186.906L345.228 186.92C345.242 186.752 345.256 186.542 345.256 186.374C345.256 184.176 343.688 182.608 341.476 182.608C339.264 182.608 337.668 184.176 337.668 186.36ZM354.06 184.036C355.418 184.036 356.412 185.058 356.412 186.444C356.412 187.858 355.404 188.852 354.06 188.852C352.702 188.852 351.722 187.83 351.722 186.444C351.722 185.058 352.702 184.036 354.06 184.036ZM357.924 186.444C357.924 184.218 356.426 182.608 354.354 182.608C353.29 182.608 352.38 183.07 351.778 183.854V179.668H350.252V190H351.736V189.006C352.352 189.804 353.262 190.28 354.354 190.28C356.412 190.28 357.924 188.67 357.924 186.444ZM360.35 185.786C360.546 184.652 361.386 183.882 362.534 183.882C363.71 183.882 364.606 184.666 364.774 185.786H360.35ZM358.768 186.36C358.768 188.642 360.364 190.28 362.59 190.28C364.214 190.28 365.684 189.272 366.09 187.872L364.662 187.662C364.396 188.446 363.514 189.006 362.562 189.006C361.4 189.006 360.518 188.166 360.336 186.906L366.328 186.92C366.342 186.752 366.356 186.542 366.356 186.374C366.356 184.176 364.788 182.608 362.576 182.608C360.364 182.608 358.768 184.176 358.768 186.36ZM368.147 187.998C368.147 189.356 368.973 190.28 370.247 190.28C370.639 190.28 371.143 190.21 371.507 190.084V188.866C371.241 188.95 370.905 188.992 370.709 188.992C370.065 188.992 369.673 188.544 369.673 187.9V184.078H371.409V182.888H369.673V181.166H368.427L368.231 182.888H367.055V184.078H368.147V187.998ZM376.5 190L377.942 184.652L379.356 190H381.358L383.682 182.888H382.114L380.364 188.53L378.74 182.888H377.13L375.562 188.502L373.784 182.888H372.202L374.498 190H376.5ZM385.934 185.786C386.13 184.652 386.97 183.882 388.118 183.882C389.294 183.882 390.19 184.666 390.358 185.786H385.934ZM384.352 186.36C384.352 188.642 385.948 190.28 388.174 190.28C389.798 190.28 391.268 189.272 391.674 187.872L390.246 187.662C389.98 188.446 389.098 189.006 388.146 189.006C386.984 189.006 386.102 188.166 385.92 186.906L391.912 186.92C391.926 186.752 391.94 186.542 391.94 186.374C391.94 184.176 390.372 182.608 388.16 182.608C385.948 182.608 384.352 184.176 384.352 186.36ZM394.361 185.786C394.557 184.652 395.397 183.882 396.545 183.882C397.721 183.882 398.617 184.666 398.785 185.786H394.361ZM392.779 186.36C392.779 188.642 394.375 190.28 396.601 190.28C398.225 190.28 399.695 189.272 400.101 187.872L398.673 187.662C398.407 188.446 397.525 189.006 396.573 189.006C395.411 189.006 394.529 188.166 394.347 186.906L400.339 186.92C400.353 186.752 400.367 186.542 400.367 186.374C400.367 184.176 398.799 182.608 396.587 182.608C394.375 182.608 392.779 184.176 392.779 186.36ZM401.543 182.888V190H403.069V185.912C403.069 184.778 403.951 183.966 405.015 183.966C406.079 183.966 406.709 184.722 406.709 185.772V190H408.221V185.66C408.221 183.896 407.087 182.608 405.351 182.608C404.427 182.608 403.545 183.056 403.041 183.798V182.888H401.543ZM414.85 186.262L417.636 181.642V186.262H414.85ZM417.636 187.648V190H419.33V187.648H420.52V186.262H419.33V180.088H416.978L412.932 186.64V187.648H417.636ZM421.486 184.988V186.304H427.226V184.988H421.486ZM431.708 184.848C433.178 184.848 434.032 185.73 434.032 186.948C434.032 188.096 433.164 188.922 431.946 188.922C430.756 188.922 429.832 187.942 429.72 186.584L428.25 186.822C428.404 188.866 429.944 190.35 432.002 190.35C434.13 190.35 435.656 188.922 435.656 186.948C435.656 184.974 434.242 183.546 432.002 183.546H430.532L430.756 181.474H434.858V180.088H429.454L428.95 184.848H431.708ZM440.846 181.474C442.358 181.474 443.436 182.328 443.436 183.532C443.45 184.722 442.358 185.576 440.846 185.576H438.914V181.474H440.846ZM441.112 186.976C443.45 186.976 445.116 185.534 445.116 183.532C445.116 181.53 443.45 180.088 441.126 180.088H437.29V190H438.914V186.976H441.112ZM448.217 182.188L451.465 190H452.753L456.001 182.174V190H457.667V180.088H455.329L452.095 187.886L448.889 180.088H446.551V190H448.217V182.188ZM460.046 190.196C460.606 190.196 460.984 189.804 460.984 189.258C460.984 188.726 460.606 188.348 460.046 188.348C459.5 188.348 459.108 188.726 459.108 189.258C459.108 189.804 459.5 190.196 460.046 190.196ZM214.03 200.088H211.818L209.718 208.796L207.366 200.088H205.63L208.374 210H210.978L212.896 201.978L214.828 210H217.418L220.148 200.088H218.426L216.088 208.796L214.03 200.088ZM221.299 199.668V210H222.825V205.912C222.825 204.778 223.707 203.966 224.771 203.966C225.835 203.966 226.465 204.722 226.465 205.772V210H227.977V205.646C227.977 203.882 226.857 202.608 225.093 202.608C224.197 202.608 223.301 203.028 222.825 203.742V199.668H221.299ZM229.358 212.926C229.722 213.08 230.198 213.164 230.604 213.164C232.116 213.164 232.746 211.806 233.362 210.168L236.148 202.888H234.552L232.62 208.138L230.394 202.888H228.728L231.934 210.028C231.57 210.91 231.276 211.89 230.296 211.89C230.016 211.89 229.666 211.806 229.358 211.694V212.926ZM244.368 204.036C245.726 204.036 246.706 205.058 246.706 206.444C246.706 207.83 245.726 208.852 244.368 208.852C243.024 208.852 242.016 207.858 242.016 206.444C242.016 205.058 243.01 204.036 244.368 204.036ZM240.504 206.444C240.504 208.67 242.016 210.28 244.074 210.28C245.166 210.28 246.076 209.804 246.692 209.006V210H248.176V199.668H246.65V203.854C246.048 203.07 245.138 202.608 244.074 202.608C242.002 202.608 240.504 204.218 240.504 206.444ZM253.206 202.608C250.924 202.608 249.342 204.19 249.342 206.444C249.342 208.698 250.924 210.28 253.206 210.28C255.474 210.28 257.07 208.698 257.07 206.444C257.07 204.19 255.474 202.608 253.206 202.608ZM253.206 208.922C251.834 208.922 250.868 207.886 250.868 206.444C250.868 205.002 251.834 203.966 253.206 203.966C254.564 203.966 255.558 205.002 255.558 206.444C255.558 207.886 254.564 208.922 253.206 208.922ZM258.242 202.888V210H259.768V205.912C259.768 204.778 260.65 203.966 261.714 203.966C262.778 203.966 263.408 204.722 263.408 205.772V210H264.92V205.66C264.92 203.896 263.786 202.608 262.05 202.608C261.126 202.608 260.244 203.056 259.74 203.798V202.888H258.242ZM266.423 201.628C266.423 202.118 266.073 202.72 265.569 203.084L266.325 203.476C266.997 203.028 267.487 202.02 267.487 201.068C267.487 200.298 267.081 199.794 266.479 199.794C265.947 199.794 265.555 200.172 265.555 200.704C265.555 201.25 265.905 201.628 266.423 201.628ZM269.288 207.998C269.288 209.356 270.114 210.28 271.388 210.28C271.78 210.28 272.284 210.21 272.648 210.084V208.866C272.382 208.95 272.046 208.992 271.85 208.992C271.206 208.992 270.814 208.544 270.814 207.9V204.078H272.55V202.888H270.814V201.166H269.568L269.372 202.888H268.196V204.078H269.288V207.998ZM277.653 212.926C278.017 213.08 278.493 213.164 278.899 213.164C280.411 213.164 281.041 211.806 281.657 210.168L284.443 202.888H282.847L280.915 208.138L278.689 202.888H277.023L280.229 210.028C279.865 210.91 279.571 211.89 278.591 211.89C278.311 211.89 277.961 211.806 277.653 211.694V212.926ZM288.473 202.608C286.191 202.608 284.609 204.19 284.609 206.444C284.609 208.698 286.191 210.28 288.473 210.28C290.741 210.28 292.337 208.698 292.337 206.444C292.337 204.19 290.741 202.608 288.473 202.608ZM288.473 208.922C287.101 208.922 286.135 207.886 286.135 206.444C286.135 205.002 287.101 203.966 288.473 203.966C289.831 203.966 290.825 205.002 290.825 206.444C290.825 207.886 289.831 208.922 288.473 208.922ZM300.048 210V202.888H298.536V206.976C298.536 208.11 297.64 208.922 296.59 208.922C295.512 208.922 294.896 208.166 294.896 207.116V202.888H293.37V207.228C293.37 208.992 294.504 210.28 296.254 210.28C297.164 210.28 298.06 209.832 298.55 209.09V210H300.048ZM308.805 202.608C306.635 202.608 305.053 204.218 305.053 206.444C305.053 208.67 306.635 210.28 308.819 210.28C310.569 210.28 312.067 209.146 312.361 207.592L310.905 207.41C310.653 208.32 309.827 208.978 308.819 208.978C307.545 208.978 306.579 207.914 306.565 206.444C306.565 204.974 307.559 203.91 308.819 203.91C309.799 203.91 310.667 204.568 310.891 205.492L312.347 205.31C312.095 203.742 310.611 202.608 308.805 202.608ZM317.071 208.922C315.713 208.922 314.719 207.872 314.719 206.444C314.719 205.002 315.713 203.966 317.071 203.966C318.429 203.966 319.409 205.002 319.409 206.444C319.409 207.886 318.429 208.922 317.071 208.922ZM319.423 203.952C318.821 203.112 317.883 202.608 316.777 202.608C314.691 202.608 313.207 204.218 313.207 206.444C313.207 208.67 314.691 210.28 316.777 210.28C317.883 210.28 318.821 209.776 319.423 208.936V210H320.949V202.888H319.423V203.952ZM322.463 199.668V210H323.975V199.668H322.463ZM325.49 199.668V210H327.002V199.668H325.49ZM335.208 206.906C335.208 208.082 334.438 208.852 333.346 208.852C332.954 208.852 332.352 208.768 331.876 208.628V210C332.422 210.168 333.178 210.28 333.752 210.28C335.572 210.28 336.888 208.922 336.888 206.976V200.088H335.208V206.906ZM342.174 202.608C339.892 202.608 338.31 204.19 338.31 206.444C338.31 208.698 339.892 210.28 342.174 210.28C344.442 210.28 346.038 208.698 346.038 206.444C346.038 204.19 344.442 202.608 342.174 202.608ZM342.174 208.922C340.802 208.922 339.836 207.886 339.836 206.444C339.836 205.002 340.802 203.966 342.174 203.966C343.532 203.966 344.526 205.002 344.526 206.444C344.526 207.886 343.532 208.922 342.174 208.922ZM347.211 199.668V210H348.737V205.912C348.737 204.778 349.619 203.966 350.683 203.966C351.747 203.966 352.377 204.722 352.377 205.772V210H353.889V205.646C353.889 203.882 352.769 202.608 351.005 202.608C350.109 202.608 349.213 203.028 348.737 203.742V199.668H347.211ZM355.27 202.888V210H356.796V205.912C356.796 204.778 357.678 203.966 358.742 203.966C359.806 203.966 360.436 204.722 360.436 205.772V210H361.948V205.66C361.948 203.896 360.814 202.608 359.078 202.608C358.154 202.608 357.272 203.056 356.768 203.798V202.888H355.27ZM370.425 210.21C370.985 210.21 371.377 209.818 371.377 209.272C371.377 208.74 370.985 208.362 370.425 208.362C369.879 208.362 369.487 208.74 369.487 209.272C369.487 209.818 369.879 210.21 370.425 210.21ZM371.167 207.312C371.167 206.22 371.517 205.744 372.287 205.254C373.267 204.624 374.009 204.008 374.009 202.72C374.009 200.984 372.525 199.738 370.607 199.738C368.619 199.738 367.149 201.082 366.939 202.944L368.479 203.238C368.619 202.034 369.431 201.138 370.565 201.138C371.573 201.138 372.343 201.852 372.343 202.79C372.343 203.546 371.755 203.98 371.111 204.428C370.215 205.058 369.697 205.758 369.697 207.312H371.167Z" fill="black"/>
<circle cx="174" cy="196" r="20" fill="#307388"/>
<g clip-path="url(#clip1_3026_1272)">
<path d="M179.833 198.87V200.62C179.834 200.782 179.801 200.943 179.736 201.092C179.671 201.241 179.575 201.375 179.455 201.484C179.336 201.594 179.194 201.678 179.04 201.73C178.887 201.782 178.723 201.801 178.562 201.787C176.767 201.592 175.042 200.978 173.528 199.996C172.118 199.1 170.923 197.905 170.028 196.496C169.042 194.974 168.428 193.241 168.237 191.438C168.222 191.277 168.241 191.114 168.293 190.961C168.345 190.807 168.428 190.666 168.537 190.547C168.646 190.427 168.779 190.332 168.927 190.266C169.075 190.201 169.236 190.167 169.398 190.167H171.148C171.431 190.164 171.705 190.264 171.92 190.449C172.134 190.633 172.275 190.89 172.314 191.17C172.388 191.73 172.525 192.28 172.723 192.809C172.801 193.018 172.818 193.245 172.771 193.463C172.725 193.681 172.617 193.881 172.46 194.04L171.719 194.781C172.55 196.241 173.759 197.45 175.219 198.281L175.96 197.54C176.119 197.383 176.319 197.275 176.537 197.229C176.755 197.182 176.982 197.199 177.191 197.278C177.72 197.475 178.27 197.612 178.83 197.686C179.113 197.726 179.372 197.869 179.557 198.087C179.742 198.305 179.84 198.584 179.833 198.87Z" stroke="white" stroke-linecap="round" stroke-linejoin="round"/>
</g>
</g>
<defs>
<filter id="filter0_d_3026_1272" x="0" y="0" width="731" height="370" filterUnits="userSpaceOnUse" color-interpolation-filters="sRGB">
<feFlood flood-opacity="0" result="BackgroundImageFix"/>
<feColorMatrix in="SourceAlpha" type="matrix" values="0 0 0 0 0 0 0 0 0 0 0 0 0 0 0 0 0 0 127 0" result="hardAlpha"/>
<feOffset dy="4"/>
<feGaussianBlur stdDeviation="67"/>
<feComposite in2="hardAlpha" operator="out"/>
<feColorMatrix type="matrix" values="0 0 0 0 0 0 0 0 0 0 0 0 0 0 0 0 0 0 0.1 0"/>
<feBlend mode="normal" in2="BackgroundImageFix" result="effect1_dropShadow_3026_1272"/>
<feBlend mode="normal" in="SourceGraphic" in2="effect1_dropShadow_3026_1272" result="shape"/>
</filter>
<clipPath id="clip0_3026_1272">
<rect width="14" height="14" fill="white" transform="translate(147 303)"/>
</clipPath>
<clipPath id="clip1_3026_1272">
<rect width="14" height="14" fill="white" transform="translate(167 189)"/>
</clipPath>
</defs>
</svg>
