<svg width="736" height="148" viewBox="0 0 736 148" fill="none" xmlns="http://www.w3.org/2000/svg">
<path d="M103.219 60L97.6754 50.208H95.2994V60H90.2594V34.872H99.6914C101.635 34.872 103.291 35.22 104.659 35.916C106.027 36.588 107.047 37.512 107.719 38.688C108.415 39.84 108.763 41.136 108.763 42.576C108.763 44.232 108.283 45.732 107.323 47.076C106.363 48.396 104.935 49.308 103.039 49.812L109.051 60H103.219ZM95.2994 46.428H99.5114C100.879 46.428 101.899 46.104 102.571 45.456C103.243 44.784 103.579 43.86 103.579 42.684C103.579 41.532 103.243 40.644 102.571 40.02C101.899 39.372 100.879 39.048 99.5114 39.048H95.2994V46.428ZM130.862 49.596C130.862 50.316 130.814 50.964 130.718 51.54H116.138C116.258 52.98 116.762 54.108 117.65 54.924C118.538 55.74 119.63 56.148 120.926 56.148C122.798 56.148 124.13 55.344 124.922 53.736H130.358C129.782 55.656 128.678 57.24 127.046 58.488C125.414 59.712 123.41 60.324 121.034 60.324C119.114 60.324 117.386 59.904 115.85 59.064C114.338 58.2 113.15 56.988 112.286 55.428C111.446 53.868 111.026 52.068 111.026 50.028C111.026 47.964 111.446 46.152 112.286 44.592C113.126 43.032 114.302 41.832 115.814 40.992C117.326 40.152 119.066 39.732 121.034 39.732C122.93 39.732 124.622 40.14 126.11 40.956C127.622 41.772 128.786 42.936 129.602 44.448C130.442 45.936 130.862 47.652 130.862 49.596ZM125.642 48.156C125.618 46.86 125.15 45.828 124.238 45.06C123.326 44.268 122.21 43.872 120.89 43.872C119.642 43.872 118.586 44.256 117.722 45.024C116.882 45.768 116.366 46.812 116.174 48.156H125.642ZM132.245 50.028C132.245 47.964 132.665 46.164 133.505 44.628C134.345 43.068 135.509 41.868 136.997 41.028C138.485 40.164 140.189 39.732 142.109 39.732C144.581 39.732 146.621 40.356 148.229 41.604C149.861 42.828 150.953 44.556 151.505 46.788H146.069C145.781 45.924 145.289 45.252 144.593 44.772C143.921 44.268 143.081 44.016 142.073 44.016C140.633 44.016 139.493 44.544 138.653 45.6C137.813 46.632 137.393 48.108 137.393 50.028C137.393 51.924 137.813 53.4 138.653 54.456C139.493 55.488 140.633 56.004 142.073 56.004C144.113 56.004 145.445 55.092 146.069 53.268H151.505C150.953 55.428 149.861 57.144 148.229 58.416C146.597 59.688 144.557 60.324 142.109 60.324C140.189 60.324 138.485 59.904 136.997 59.064C135.509 58.2 134.345 57 133.505 55.464C132.665 53.904 132.245 52.092 132.245 50.028ZM163.053 60.324C161.133 60.324 159.405 59.904 157.869 59.064C156.333 58.2 155.121 56.988 154.233 55.428C153.369 53.868 152.937 52.068 152.937 50.028C152.937 47.988 153.381 46.188 154.269 44.628C155.181 43.068 156.417 41.868 157.977 41.028C159.537 40.164 161.277 39.732 163.197 39.732C165.117 39.732 166.857 40.164 168.417 41.028C169.977 41.868 171.201 43.068 172.089 44.628C173.001 46.188 173.457 47.988 173.457 50.028C173.457 52.068 172.989 53.868 172.053 55.428C171.141 56.988 169.893 58.2 168.309 59.064C166.749 59.904 164.997 60.324 163.053 60.324ZM163.053 55.932C163.965 55.932 164.817 55.716 165.609 55.284C166.425 54.828 167.073 54.156 167.553 53.268C168.033 52.38 168.273 51.3 168.273 50.028C168.273 48.132 167.769 46.68 166.761 45.672C165.777 44.64 164.565 44.124 163.125 44.124C161.685 44.124 160.473 44.64 159.489 45.672C158.529 46.68 158.049 48.132 158.049 50.028C158.049 51.924 158.517 53.388 159.453 54.42C160.413 55.428 161.613 55.932 163.053 55.932ZM183.966 39.732C185.454 39.732 186.762 40.032 187.89 40.632C189.018 41.208 189.906 41.964 190.554 42.9V40.056H195.63V60.144C195.63 61.992 195.258 63.636 194.514 65.076C193.77 66.54 192.654 67.692 191.166 68.532C189.678 69.396 187.878 69.828 185.766 69.828C182.934 69.828 180.606 69.168 178.782 67.848C176.982 66.528 175.962 64.728 175.722 62.448H180.726C180.99 63.36 181.554 64.08 182.418 64.608C183.306 65.16 184.374 65.436 185.622 65.436C187.086 65.436 188.274 64.992 189.186 64.104C190.098 63.24 190.554 61.92 190.554 60.144V57.048C189.906 57.984 189.006 58.764 187.854 59.388C186.726 60.012 185.43 60.324 183.966 60.324C182.286 60.324 180.75 59.892 179.358 59.028C177.966 58.164 176.862 56.952 176.046 55.392C175.254 53.808 174.858 51.996 174.858 49.956C174.858 47.94 175.254 46.152 176.046 44.592C176.862 43.032 177.954 41.832 179.322 40.992C180.714 40.152 182.262 39.732 183.966 39.732ZM190.554 50.028C190.554 48.804 190.314 47.76 189.834 46.896C189.354 46.008 188.706 45.336 187.89 44.88C187.074 44.4 186.198 44.16 185.262 44.16C184.326 44.16 183.462 44.388 182.67 44.844C181.878 45.3 181.23 45.972 180.726 46.86C180.246 47.724 180.006 48.756 180.006 49.956C180.006 51.156 180.246 52.212 180.726 53.124C181.23 54.012 181.878 54.696 182.67 55.176C183.486 55.656 184.35 55.896 185.262 55.896C186.198 55.896 187.074 55.668 187.89 55.212C188.706 54.732 189.354 54.06 189.834 53.196C190.314 52.308 190.554 51.252 190.554 50.028ZM210.604 39.768C212.98 39.768 214.9 40.524 216.364 42.036C217.828 43.524 218.56 45.612 218.56 48.3V60H213.52V48.984C213.52 47.4 213.124 46.188 212.332 45.348C211.54 44.484 210.46 44.052 209.092 44.052C207.7 44.052 206.596 44.484 205.78 45.348C204.988 46.188 204.592 47.4 204.592 48.984V60H199.552V40.056H204.592V42.54C205.264 41.676 206.116 41.004 207.148 40.524C208.204 40.02 209.356 39.768 210.604 39.768ZM224.909 37.68C224.021 37.68 223.277 37.404 222.677 36.852C222.101 36.276 221.813 35.568 221.813 34.728C221.813 33.888 222.101 33.192 222.677 32.64C223.277 32.064 224.021 31.776 224.909 31.776C225.797 31.776 226.529 32.064 227.105 32.64C227.705 33.192 228.005 33.888 228.005 34.728C228.005 35.568 227.705 36.276 227.105 36.852C226.529 37.404 225.797 37.68 224.909 37.68ZM227.393 40.056V60H222.353V40.056H227.393ZM239.005 60.324C237.373 60.324 235.909 60.036 234.613 59.46C233.317 58.86 232.285 58.056 231.517 57.048C230.773 56.04 230.365 54.924 230.293 53.7H235.369C235.465 54.468 235.837 55.104 236.485 55.608C237.157 56.112 237.985 56.364 238.969 56.364C239.929 56.364 240.673 56.172 241.201 55.788C241.753 55.404 242.029 54.912 242.029 54.312C242.029 53.664 241.693 53.184 241.021 52.872C240.373 52.536 239.329 52.176 237.889 51.792C236.401 51.432 235.177 51.06 234.217 50.676C233.281 50.292 232.465 49.704 231.769 48.912C231.097 48.12 230.761 47.052 230.761 45.708C230.761 44.604 231.073 43.596 231.697 42.684C232.345 41.772 233.257 41.052 234.433 40.524C235.633 39.996 237.037 39.732 238.645 39.732C241.021 39.732 242.917 40.332 244.333 41.532C245.749 42.708 246.529 44.304 246.673 46.32H241.849C241.777 45.528 241.441 44.904 240.841 44.448C240.265 43.968 239.485 43.728 238.501 43.728C237.589 43.728 236.881 43.896 236.377 44.232C235.897 44.568 235.657 45.036 235.657 45.636C235.657 46.308 235.993 46.824 236.665 47.184C237.337 47.52 238.381 47.868 239.797 48.228C241.237 48.588 242.425 48.96 243.361 49.344C244.297 49.728 245.101 50.328 245.773 51.144C246.469 51.936 246.829 52.992 246.853 54.312C246.853 55.464 246.529 56.496 245.881 57.408C245.257 58.32 244.345 59.04 243.145 59.568C241.969 60.072 240.589 60.324 239.005 60.324ZM268.53 49.596C268.53 50.316 268.482 50.964 268.386 51.54H253.806C253.926 52.98 254.43 54.108 255.318 54.924C256.206 55.74 257.298 56.148 258.594 56.148C260.466 56.148 261.798 55.344 262.59 53.736H268.026C267.45 55.656 266.346 57.24 264.714 58.488C263.082 59.712 261.078 60.324 258.702 60.324C256.782 60.324 255.054 59.904 253.518 59.064C252.006 58.2 250.818 56.988 249.954 55.428C249.114 53.868 248.694 52.068 248.694 50.028C248.694 47.964 249.114 46.152 249.954 44.592C250.794 43.032 251.97 41.832 253.482 40.992C254.994 40.152 256.734 39.732 258.702 39.732C260.598 39.732 262.29 40.14 263.778 40.956C265.29 41.772 266.454 42.936 267.27 44.448C268.11 45.936 268.53 47.652 268.53 49.596ZM263.31 48.156C263.286 46.86 262.818 45.828 261.906 45.06C260.994 44.268 259.878 43.872 258.558 43.872C257.31 43.872 256.254 44.256 255.39 45.024C254.55 45.768 254.034 46.812 253.842 48.156H263.31ZM269.913 49.956C269.913 47.94 270.309 46.152 271.101 44.592C271.917 43.032 273.021 41.832 274.413 40.992C275.805 40.152 277.353 39.732 279.057 39.732C280.353 39.732 281.589 40.02 282.765 40.596C283.941 41.148 284.877 41.892 285.573 42.828V33.36H290.685V60H285.573V57.048C284.949 58.032 284.073 58.824 282.945 59.424C281.817 60.024 280.509 60.324 279.021 60.324C277.341 60.324 275.805 59.892 274.413 59.028C273.021 58.164 271.917 56.952 271.101 55.392C270.309 53.808 269.913 51.996 269.913 49.956ZM285.609 50.028C285.609 48.804 285.369 47.76 284.889 46.896C284.409 46.008 283.761 45.336 282.945 44.88C282.129 44.4 281.253 44.16 280.317 44.16C279.381 44.16 278.517 44.388 277.725 44.844C276.933 45.3 276.285 45.972 275.781 46.86C275.301 47.724 275.061 48.756 275.061 49.956C275.061 51.156 275.301 52.212 275.781 53.124C276.285 54.012 276.933 54.696 277.725 55.176C278.541 55.656 279.405 55.896 280.317 55.896C281.253 55.896 282.129 55.668 282.945 55.212C283.761 54.732 284.409 54.06 284.889 53.196C285.369 52.308 285.609 51.252 285.609 50.028ZM311.329 44.196H307.837V60H302.725V44.196H300.457V40.056H302.725V39.048C302.725 36.6 303.421 34.8 304.813 33.648C306.205 32.496 308.305 31.956 311.113 32.028V36.276C309.889 36.252 309.037 36.456 308.557 36.888C308.077 37.32 307.837 38.1 307.837 39.228V40.056H311.329V44.196ZM322.451 60.324C320.531 60.324 318.803 59.904 317.267 59.064C315.731 58.2 314.519 56.988 313.631 55.428C312.767 53.868 312.335 52.068 312.335 50.028C312.335 47.988 312.779 46.188 313.667 44.628C314.579 43.068 315.815 41.868 317.375 41.028C318.935 40.164 320.675 39.732 322.595 39.732C324.515 39.732 326.255 40.164 327.815 41.028C329.375 41.868 330.599 43.068 331.487 44.628C332.399 46.188 332.855 47.988 332.855 50.028C332.855 52.068 332.387 53.868 331.451 55.428C330.539 56.988 329.291 58.2 327.707 59.064C326.147 59.904 324.395 60.324 322.451 60.324ZM322.451 55.932C323.363 55.932 324.215 55.716 325.007 55.284C325.823 54.828 326.471 54.156 326.951 53.268C327.431 52.38 327.671 51.3 327.671 50.028C327.671 48.132 327.167 46.68 326.159 45.672C325.175 44.64 323.963 44.124 322.523 44.124C321.083 44.124 319.871 44.64 318.887 45.672C317.927 46.68 317.447 48.132 317.447 50.028C317.447 51.924 317.915 53.388 318.851 54.42C319.811 55.428 321.011 55.932 322.451 55.932ZM340.592 43.152C341.24 42.096 342.08 41.268 343.112 40.668C344.168 40.068 345.368 39.768 346.712 39.768V45.06H345.38C343.796 45.06 342.596 45.432 341.78 46.176C340.988 46.92 340.592 48.216 340.592 50.064V60H335.552V40.056H340.592V43.152ZM354.908 50.136C355.268 48.12 355.988 46.356 357.068 44.844C358.148 43.308 359.48 42.132 361.064 41.316C362.648 40.476 364.34 40.056 366.14 40.056C367.868 40.056 369.344 40.476 370.568 41.316C371.816 42.156 372.656 43.248 373.088 44.592L375.068 33.36H377.588L372.872 60H370.352L371.144 55.608C370.28 56.976 369.092 58.104 367.58 58.992C366.068 59.856 364.388 60.288 362.54 60.288C360.164 60.288 358.256 59.58 356.816 58.164C355.4 56.724 354.692 54.792 354.692 52.368C354.692 51.672 354.764 50.928 354.908 50.136ZM372.08 50.172C372.2 49.5 372.26 48.9 372.26 48.372C372.26 46.5 371.696 45.012 370.568 43.908C369.44 42.804 367.976 42.252 366.176 42.252C364.784 42.252 363.476 42.564 362.252 43.188C361.052 43.812 360.032 44.724 359.192 45.924C358.352 47.1 357.788 48.504 357.5 50.136C357.38 50.856 357.32 51.468 357.32 51.972C357.32 53.868 357.872 55.368 358.976 56.472C360.104 57.552 361.568 58.092 363.368 58.092C364.712 58.092 365.996 57.768 367.22 57.12C368.468 56.472 369.512 55.548 370.352 54.348C371.216 53.148 371.792 51.756 372.08 50.172ZM382.917 44.268C383.709 42.9 384.741 41.844 386.013 41.1C387.285 40.356 388.761 39.984 390.441 39.984L389.973 42.612H389.253C387.525 42.612 386.037 43.056 384.789 43.944C383.541 44.832 382.677 46.296 382.197 48.336L380.145 60H377.625L381.081 40.344H383.601L382.917 44.268ZM395.068 36.636C394.612 36.636 394.24 36.504 393.952 36.24C393.664 35.952 393.52 35.58 393.52 35.124C393.52 34.5 393.736 33.984 394.168 33.576C394.6 33.144 395.116 32.928 395.716 32.928C396.172 32.928 396.532 33.06 396.796 33.324C397.084 33.588 397.228 33.936 397.228 34.368C397.228 34.992 397.012 35.532 396.58 35.988C396.148 36.42 395.644 36.636 395.068 36.636ZM395.644 40.344L392.188 60H389.668L393.124 40.344H395.644ZM404.346 57.444L413.958 40.344H416.694L405.318 60H402.402L398.01 40.344H400.71L404.346 57.444ZM420.982 36.636C420.526 36.636 420.154 36.504 419.866 36.24C419.578 35.952 419.434 35.58 419.434 35.124C419.434 34.5 419.65 33.984 420.082 33.576C420.514 33.144 421.03 32.928 421.63 32.928C422.086 32.928 422.446 33.06 422.71 33.324C422.998 33.588 423.142 33.936 423.142 34.368C423.142 34.992 422.926 35.532 422.494 35.988C422.062 36.42 421.558 36.636 420.982 36.636ZM421.558 40.344L418.102 60H415.582L419.038 40.344H421.558ZM435.589 39.984C437.605 39.984 439.213 40.536 440.413 41.64C441.637 42.72 442.249 44.304 442.249 46.392C442.249 47.16 442.189 47.856 442.069 48.48L440.017 60H437.533L439.513 48.768C439.609 48.216 439.657 47.628 439.657 47.004C439.657 45.42 439.225 44.22 438.361 43.404C437.497 42.588 436.285 42.18 434.725 42.18C432.829 42.18 431.209 42.78 429.865 43.98C428.521 45.18 427.645 46.944 427.237 49.272V49.164L425.329 60H422.809L426.265 40.344H428.785L428.173 43.728C429.013 42.528 430.081 41.604 431.377 40.956C432.673 40.308 434.077 39.984 435.589 39.984ZM456.362 40.056C458.21 40.056 459.734 40.488 460.934 41.352C462.158 42.216 462.95 43.308 463.31 44.628L464.066 40.344H466.586L463.058 60.504C462.746 62.304 462.074 63.9 461.042 65.292C460.034 66.684 458.762 67.752 457.226 68.496C455.69 69.264 454.034 69.648 452.258 69.648C449.738 69.648 447.746 69.048 446.282 67.848C444.842 66.648 444.098 65.016 444.05 62.952H446.534C446.726 64.32 447.35 65.412 448.406 66.228C449.462 67.044 450.878 67.452 452.654 67.452C454.598 67.452 456.302 66.828 457.766 65.58C459.23 64.356 460.154 62.664 460.538 60.504L461.366 55.644C460.55 56.988 459.374 58.104 457.838 58.992C456.326 59.856 454.646 60.288 452.798 60.288C450.422 60.288 448.514 59.58 447.074 58.164C445.658 56.724 444.95 54.792 444.95 52.368C444.95 51.672 445.022 50.928 445.166 50.136C445.526 48.12 446.246 46.356 447.326 44.844C448.406 43.308 449.726 42.132 451.286 41.316C452.87 40.476 454.562 40.056 456.362 40.056ZM462.338 50.172C462.458 49.5 462.518 48.9 462.518 48.372C462.518 46.5 461.954 45.012 460.826 43.908C459.698 42.804 458.234 42.252 456.434 42.252C455.042 42.252 453.734 42.564 452.51 43.188C451.31 43.812 450.29 44.724 449.45 45.924C448.61 47.1 448.046 48.504 447.758 50.136C447.638 50.856 447.578 51.468 447.578 51.972C447.578 53.868 448.13 55.368 449.234 56.472C450.362 57.552 451.826 58.092 453.626 58.092C454.97 58.092 456.254 57.768 457.478 57.12C458.726 56.472 459.77 55.548 460.61 54.348C461.474 53.148 462.05 51.756 462.338 50.172ZM482.9 36.636C482.444 36.636 482.072 36.504 481.784 36.24C481.496 35.952 481.352 35.58 481.352 35.124C481.352 34.5 481.568 33.984 482 33.576C482.432 33.144 482.948 32.928 483.548 32.928C484.004 32.928 484.364 33.06 484.628 33.324C484.916 33.588 485.06 33.936 485.06 34.368C485.06 34.992 484.844 35.532 484.412 35.988C483.98 36.42 483.476 36.636 482.9 36.636ZM483.476 40.344L480.02 60H477.5L480.956 40.344H483.476ZM497.506 39.984C499.522 39.984 501.13 40.536 502.33 41.64C503.554 42.72 504.166 44.304 504.166 46.392C504.166 47.16 504.106 47.856 503.986 48.48L501.934 60H499.45L501.43 48.768C501.526 48.216 501.574 47.628 501.574 47.004C501.574 45.42 501.142 44.22 500.278 43.404C499.414 42.588 498.202 42.18 496.642 42.18C494.746 42.18 493.126 42.78 491.782 43.98C490.438 45.18 489.562 46.944 489.154 49.272V49.164L487.246 60H484.726L488.182 40.344H490.702L490.09 43.728C490.93 42.528 491.998 41.604 493.294 40.956C494.59 40.308 495.994 39.984 497.506 39.984ZM519.288 39.984C521.304 39.984 522.912 40.536 524.112 41.64C525.336 42.72 525.948 44.304 525.948 46.392C525.948 47.16 525.888 47.856 525.768 48.48L523.716 60H521.232L523.212 48.768C523.308 48.216 523.356 47.628 523.356 47.004C523.356 45.42 522.924 44.22 522.06 43.404C521.196 42.588 519.984 42.18 518.424 42.18C516.528 42.18 514.908 42.78 513.564 43.98C512.22 45.18 511.344 46.944 510.936 49.272V49.164L509.028 60H506.508L509.964 40.344H512.484L511.872 43.728C512.712 42.528 513.78 41.604 515.076 40.956C516.372 40.308 517.776 39.984 519.288 39.984ZM536.929 60.288C535.297 60.288 533.857 59.964 532.609 59.316C531.361 58.644 530.389 57.708 529.693 56.508C529.021 55.284 528.685 53.856 528.685 52.224C528.685 50.016 529.189 47.988 530.197 46.14C531.205 44.268 532.609 42.792 534.409 41.712C536.209 40.608 538.213 40.056 540.421 40.056C542.053 40.056 543.493 40.392 544.741 41.064C545.989 41.712 546.961 42.648 547.657 43.872C548.353 45.072 548.701 46.488 548.701 48.12C548.701 50.352 548.185 52.392 547.153 54.24C546.121 56.088 544.705 57.564 542.905 58.668C541.129 59.748 539.137 60.288 536.929 60.288ZM537.217 58.164C538.921 58.164 540.445 57.708 541.789 56.796C543.157 55.884 544.213 54.672 544.957 53.16C545.725 51.648 546.109 50.016 546.109 48.264C546.109 46.296 545.533 44.796 544.381 43.764C543.253 42.732 541.813 42.216 540.061 42.216C538.357 42.216 536.833 42.672 535.489 43.584C534.169 44.496 533.137 45.708 532.393 47.22C531.649 48.732 531.277 50.364 531.277 52.116C531.277 54.06 531.841 55.56 532.969 56.616C534.097 57.648 535.513 58.164 537.217 58.164ZM557.839 57.444L567.451 40.344H570.187L558.811 60H555.895L551.503 40.344H554.203L557.839 57.444ZM569.65 50.136C570.01 48.12 570.73 46.356 571.81 44.844C572.89 43.308 574.21 42.132 575.77 41.316C577.354 40.476 579.046 40.056 580.846 40.056C582.718 40.056 584.254 40.488 585.454 41.352C586.654 42.216 587.434 43.32 587.794 44.664L588.55 40.344H591.07L587.614 60H585.094L585.85 55.644C585.034 56.988 583.858 58.104 582.322 58.992C580.81 59.856 579.118 60.288 577.246 60.288C575.686 60.288 574.318 59.964 573.142 59.316C571.966 58.668 571.054 57.756 570.406 56.58C569.758 55.38 569.434 53.976 569.434 52.368C569.434 51.672 569.506 50.928 569.65 50.136ZM586.822 50.172C586.942 49.5 587.002 48.9 587.002 48.372C587.002 46.5 586.438 45.012 585.31 43.908C584.182 42.804 582.718 42.252 580.918 42.252C579.526 42.252 578.218 42.564 576.994 43.188C575.794 43.812 574.774 44.724 573.934 45.924C573.094 47.1 572.53 48.504 572.242 50.136C572.122 50.856 572.062 51.468 572.062 51.972C572.062 53.868 572.614 55.368 573.718 56.472C574.846 57.552 576.31 58.092 578.11 58.092C579.454 58.092 580.738 57.768 581.962 57.12C583.21 56.472 584.254 55.548 585.094 54.348C585.958 53.148 586.534 51.756 586.822 50.172ZM596.543 54.672C596.471 55.104 596.435 55.476 596.435 55.788C596.435 56.556 596.639 57.096 597.047 57.408C597.479 57.696 598.175 57.84 599.135 57.84H601.439L601.043 60H598.343C596.855 60 595.739 59.712 594.995 59.136C594.251 58.56 593.879 57.612 593.879 56.292C593.879 55.764 593.927 55.224 594.023 54.672L596.183 42.468H593.447L593.843 40.344H596.579L597.443 35.412H599.963L599.099 40.344H604.535L604.139 42.468H598.703L596.543 54.672ZM609.599 36.636C609.143 36.636 608.771 36.504 608.483 36.24C608.195 35.952 608.051 35.58 608.051 35.124C608.051 34.5 608.267 33.984 608.699 33.576C609.131 33.144 609.647 32.928 610.247 32.928C610.703 32.928 611.063 33.06 611.327 33.324C611.615 33.588 611.759 33.936 611.759 34.368C611.759 34.992 611.543 35.532 611.111 35.988C610.679 36.42 610.175 36.636 609.599 36.636ZM610.175 40.344L606.719 60H604.199L607.655 40.344H610.175ZM620.066 60.288C618.434 60.288 616.994 59.964 615.746 59.316C614.498 58.644 613.526 57.708 612.83 56.508C612.158 55.284 611.822 53.856 611.822 52.224C611.822 50.016 612.326 47.988 613.334 46.14C614.342 44.268 615.746 42.792 617.546 41.712C619.346 40.608 621.35 40.056 623.558 40.056C625.19 40.056 626.63 40.392 627.878 41.064C629.126 41.712 630.098 42.648 630.794 43.872C631.49 45.072 631.838 46.488 631.838 48.12C631.838 50.352 631.322 52.392 630.29 54.24C629.258 56.088 627.842 57.564 626.042 58.668C624.266 59.748 622.274 60.288 620.066 60.288ZM620.354 58.164C622.058 58.164 623.582 57.708 624.926 56.796C626.294 55.884 627.35 54.672 628.094 53.16C628.862 51.648 629.246 50.016 629.246 48.264C629.246 46.296 628.67 44.796 627.518 43.764C626.39 42.732 624.95 42.216 623.198 42.216C621.494 42.216 619.97 42.672 618.626 43.584C617.306 44.496 616.274 45.708 615.53 47.22C614.786 48.732 614.414 50.364 614.414 52.116C614.414 54.06 614.978 55.56 616.106 56.616C617.234 57.648 618.65 58.164 620.354 58.164ZM646.303 39.984C648.319 39.984 649.927 40.536 651.127 41.64C652.351 42.72 652.963 44.304 652.963 46.392C652.963 47.16 652.903 47.856 652.783 48.48L650.731 60H648.247L650.227 48.768C650.323 48.216 650.371 47.628 650.371 47.004C650.371 45.42 649.939 44.22 649.075 43.404C648.211 42.588 646.999 42.18 645.439 42.18C643.543 42.18 641.923 42.78 640.579 43.98C639.235 45.18 638.359 46.944 637.951 49.272V49.164L636.043 60H633.523L636.979 40.344H639.499L638.887 43.728C639.727 42.528 640.795 41.604 642.091 40.956C643.387 40.308 644.791 39.984 646.303 39.984ZM196.216 91.68C195.328 91.68 194.584 91.404 193.984 90.852C193.408 90.276 193.12 89.568 193.12 88.728C193.12 87.888 193.408 87.192 193.984 86.64C194.584 86.064 195.328 85.776 196.216 85.776C197.104 85.776 197.836 86.064 198.412 86.64C199.012 87.192 199.312 87.888 199.312 88.728C199.312 89.568 199.012 90.276 198.412 90.852C197.836 91.404 197.104 91.68 196.216 91.68ZM198.7 94.056V114H193.66V94.056H198.7ZM213.731 93.768C216.107 93.768 218.027 94.524 219.491 96.036C220.955 97.524 221.687 99.612 221.687 102.3V114H216.647V102.984C216.647 101.4 216.251 100.188 215.459 99.348C214.667 98.484 213.587 98.052 212.219 98.052C210.827 98.052 209.723 98.484 208.907 99.348C208.115 100.188 207.719 101.4 207.719 102.984V114H202.679V94.056H207.719V96.54C208.391 95.676 209.243 95.004 210.275 94.524C211.331 94.02 212.483 93.768 213.731 93.768ZM239.682 114.252C238.17 114.252 236.838 114 235.686 113.496C234.558 112.992 233.682 112.284 233.058 111.372C232.434 110.46 232.122 109.416 232.122 108.24C232.122 107.928 232.134 107.688 232.158 107.52H234.642C234.594 108.288 234.726 109.032 235.038 109.752C235.374 110.448 235.938 111.036 236.73 111.516C237.546 111.972 238.59 112.2 239.862 112.2C241.638 112.2 243.054 111.756 244.11 110.868C245.166 109.98 245.694 108.78 245.694 107.268C245.694 106.356 245.442 105.6 244.938 105C244.458 104.376 243.858 103.872 243.138 103.488C242.418 103.08 241.434 102.624 240.186 102.12C238.722 101.544 237.558 101.016 236.694 100.536C235.83 100.032 235.11 99.348 234.534 98.484C233.982 97.62 233.754 96.516 233.85 95.172C233.898 93.876 234.282 92.736 235.002 91.752C235.746 90.744 236.742 89.964 237.99 89.412C239.262 88.836 240.702 88.548 242.31 88.548C243.894 88.548 245.25 88.824 246.378 89.376C247.53 89.904 248.382 90.636 248.934 91.572C249.51 92.508 249.762 93.54 249.69 94.668H247.062C247.11 94.02 246.954 93.384 246.594 92.76C246.258 92.136 245.706 91.632 244.938 91.248C244.194 90.84 243.27 90.636 242.166 90.636C240.462 90.636 239.07 91.056 237.99 91.896C236.91 92.712 236.37 93.828 236.37 95.244C236.37 96.084 236.61 96.792 237.09 97.368C237.57 97.944 238.158 98.424 238.854 98.808C239.55 99.192 240.51 99.636 241.734 100.14C243.15 100.716 244.29 101.256 245.154 101.76C246.042 102.264 246.786 102.936 247.386 103.776C248.01 104.616 248.322 105.672 248.322 106.944C248.322 107.256 248.31 107.496 248.286 107.664C248.19 108.888 247.782 110.004 247.062 111.012C246.342 112.02 245.346 112.812 244.074 113.388C242.826 113.964 241.362 114.252 239.682 114.252ZM251.621 104.136C251.981 102.12 252.701 100.356 253.781 98.844C254.861 97.308 256.181 96.132 257.741 95.316C259.325 94.476 261.017 94.056 262.817 94.056C264.689 94.056 266.225 94.488 267.425 95.352C268.625 96.216 269.405 97.32 269.765 98.664L270.521 94.344H273.041L269.585 114H267.065L267.821 109.644C267.005 110.988 265.829 112.104 264.293 112.992C262.781 113.856 261.089 114.288 259.217 114.288C257.657 114.288 256.289 113.964 255.113 113.316C253.937 112.668 253.025 111.756 252.377 110.58C251.729 109.38 251.405 107.976 251.405 106.368C251.405 105.672 251.477 104.928 251.621 104.136ZM268.793 104.172C268.913 103.5 268.973 102.9 268.973 102.372C268.973 100.5 268.409 99.012 267.281 97.908C266.153 96.804 264.689 96.252 262.889 96.252C261.497 96.252 260.189 96.564 258.965 97.188C257.765 97.812 256.745 98.724 255.905 99.924C255.065 101.1 254.501 102.504 254.213 104.136C254.093 104.856 254.033 105.468 254.033 105.972C254.033 107.868 254.585 109.368 255.689 110.472C256.817 111.552 258.281 112.092 260.081 112.092C261.425 112.092 262.709 111.768 263.933 111.12C265.181 110.472 266.225 109.548 267.065 108.348C267.929 107.148 268.505 105.756 268.793 104.172ZM281.574 87.36L276.858 114H274.338L279.054 87.36H281.574ZM293.588 94.056C295.244 94.056 296.66 94.38 297.836 95.028C299.012 95.652 299.9 96.516 300.5 97.62C301.124 98.724 301.436 99.984 301.436 101.4C301.436 102.048 301.388 102.624 301.292 103.128C301.148 103.848 301.004 104.496 300.86 105.072H284.552C284.48 105.528 284.444 105.96 284.444 106.368C284.444 108.216 284.996 109.644 286.1 110.652C287.228 111.66 288.656 112.164 290.384 112.164C292.04 112.164 293.492 111.768 294.74 110.976C295.988 110.184 296.9 109.116 297.476 107.772H300.176C299.36 109.692 298.052 111.264 296.252 112.488C294.476 113.688 292.4 114.288 290.024 114.288C287.576 114.288 285.608 113.592 284.12 112.2C282.656 110.784 281.924 108.864 281.924 106.44C281.924 105.72 281.996 104.964 282.14 104.172C282.5 102.132 283.22 100.344 284.3 98.808C285.404 97.272 286.76 96.096 288.368 95.28C289.976 94.464 291.716 94.056 293.588 94.056ZM298.7 103.2C298.82 102.528 298.88 101.964 298.88 101.508C298.88 99.804 298.34 98.496 297.26 97.584C296.18 96.672 294.8 96.216 293.12 96.216C291.896 96.216 290.72 96.48 289.592 97.008C288.464 97.536 287.48 98.328 286.64 99.384C285.8 100.44 285.224 101.712 284.912 103.2H298.7ZM309.511 114.288C307.519 114.288 305.899 113.832 304.651 112.92C303.403 111.984 302.779 110.712 302.779 109.104C302.779 108.816 302.791 108.6 302.815 108.456H305.263C305.167 109.608 305.503 110.532 306.271 111.228C307.039 111.924 308.167 112.272 309.655 112.272C311.167 112.272 312.379 111.96 313.291 111.336C314.203 110.688 314.659 109.836 314.659 108.78C314.659 108.156 314.467 107.628 314.083 107.196C313.699 106.764 313.219 106.416 312.643 106.152C312.091 105.864 311.311 105.54 310.303 105.18C309.055 104.724 308.047 104.304 307.279 103.92C306.535 103.512 305.887 102.96 305.335 102.264C304.807 101.544 304.543 100.644 304.543 99.564C304.543 98.484 304.855 97.524 305.479 96.684C306.103 95.844 306.955 95.196 308.035 94.74C309.139 94.284 310.387 94.056 311.779 94.056C313.723 94.056 315.307 94.536 316.531 95.496C317.779 96.456 318.403 97.728 318.403 99.312C318.403 99.648 318.391 99.9 318.367 100.068H315.991C316.015 99.972 316.027 99.816 316.027 99.6C316.027 98.544 315.607 97.692 314.767 97.044C313.951 96.396 312.895 96.072 311.599 96.072C310.303 96.072 309.223 96.384 308.359 97.008C307.519 97.608 307.099 98.424 307.099 99.456C307.099 100.152 307.303 100.74 307.711 101.22C308.119 101.676 308.623 102.048 309.223 102.336C309.823 102.624 310.627 102.96 311.635 103.344C312.835 103.8 313.795 104.22 314.515 104.604C315.259 104.988 315.883 105.516 316.387 106.188C316.891 106.86 317.143 107.7 317.143 108.708C317.143 110.412 316.435 111.768 315.019 112.776C313.603 113.784 311.767 114.288 309.511 114.288ZM336.516 90.816L334.86 100.32H344.4L344.076 102.336H334.5L332.808 111.984H343.428L343.068 114H329.928L334.356 88.8H347.532L347.136 90.816H336.516ZM359.813 93.984C361.829 93.984 363.437 94.536 364.637 95.64C365.861 96.72 366.473 98.304 366.473 100.392C366.473 101.16 366.413 101.856 366.293 102.48L364.241 114H361.757L363.737 102.768C363.833 102.216 363.881 101.628 363.881 101.004C363.881 99.42 363.449 98.22 362.585 97.404C361.721 96.588 360.509 96.18 358.949 96.18C357.053 96.18 355.433 96.78 354.089 97.98C352.745 99.18 351.869 100.944 351.461 103.272V103.164L349.553 114H347.033L350.489 94.344H353.009L352.397 97.728C353.237 96.528 354.305 95.604 355.601 94.956C356.897 94.308 358.301 93.984 359.813 93.984ZM380.586 94.056C382.434 94.056 383.958 94.488 385.158 95.352C386.382 96.216 387.174 97.308 387.534 98.628L388.29 94.344H390.81L387.282 114.504C386.97 116.304 386.298 117.9 385.266 119.292C384.258 120.684 382.986 121.752 381.45 122.496C379.914 123.264 378.258 123.648 376.482 123.648C373.962 123.648 371.97 123.048 370.506 121.848C369.066 120.648 368.322 119.016 368.274 116.952H370.758C370.95 118.32 371.574 119.412 372.63 120.228C373.686 121.044 375.102 121.452 376.878 121.452C378.822 121.452 380.526 120.828 381.99 119.58C383.454 118.356 384.378 116.664 384.762 114.504L385.59 109.644C384.774 110.988 383.598 112.104 382.062 112.992C380.55 113.856 378.87 114.288 377.022 114.288C374.646 114.288 372.738 113.58 371.298 112.164C369.882 110.724 369.174 108.792 369.174 106.368C369.174 105.672 369.246 104.928 369.39 104.136C369.75 102.12 370.47 100.356 371.55 98.844C372.63 97.308 373.95 96.132 375.51 95.316C377.094 94.476 378.786 94.056 380.586 94.056ZM386.562 104.172C386.682 103.5 386.742 102.9 386.742 102.372C386.742 100.5 386.178 99.012 385.05 97.908C383.922 96.804 382.458 96.252 380.658 96.252C379.266 96.252 377.958 96.564 376.734 97.188C375.534 97.812 374.514 98.724 373.674 99.924C372.834 101.1 372.27 102.504 371.982 104.136C371.862 104.856 371.802 105.468 371.802 105.972C371.802 107.868 372.354 109.368 373.458 110.472C374.586 111.552 376.05 112.092 377.85 112.092C379.194 112.092 380.478 111.768 381.702 111.12C382.95 110.472 383.994 109.548 384.834 108.348C385.698 107.148 386.274 105.756 386.562 104.172ZM392.683 104.136C393.043 102.12 393.763 100.356 394.843 98.844C395.923 97.308 397.243 96.132 398.803 95.316C400.387 94.476 402.079 94.056 403.879 94.056C405.751 94.056 407.287 94.488 408.487 95.352C409.687 96.216 410.467 97.32 410.827 98.664L411.583 94.344H414.103L410.647 114H408.127L408.883 109.644C408.067 110.988 406.891 112.104 405.355 112.992C403.843 113.856 402.151 114.288 400.279 114.288C398.719 114.288 397.351 113.964 396.175 113.316C394.999 112.668 394.087 111.756 393.439 110.58C392.791 109.38 392.467 107.976 392.467 106.368C392.467 105.672 392.539 104.928 392.683 104.136ZM409.855 104.172C409.975 103.5 410.035 102.9 410.035 102.372C410.035 100.5 409.471 99.012 408.343 97.908C407.215 96.804 405.751 96.252 403.951 96.252C402.559 96.252 401.251 96.564 400.027 97.188C398.827 97.812 397.807 98.724 396.967 99.924C396.127 101.1 395.563 102.504 395.275 104.136C395.155 104.856 395.095 105.468 395.095 105.972C395.095 107.868 395.647 109.368 396.751 110.472C397.879 111.552 399.343 112.092 401.143 112.092C402.487 112.092 403.771 111.768 404.995 111.12C406.243 110.472 407.287 109.548 408.127 108.348C408.991 107.148 409.567 105.756 409.855 104.172ZM427.172 94.056C429.02 94.056 430.544 94.488 431.744 95.352C432.968 96.216 433.76 97.308 434.12 98.628L434.876 94.344H437.396L433.868 114.504C433.556 116.304 432.884 117.9 431.852 119.292C430.844 120.684 429.572 121.752 428.036 122.496C426.5 123.264 424.844 123.648 423.068 123.648C420.548 123.648 418.556 123.048 417.092 121.848C415.652 120.648 414.908 119.016 414.86 116.952H417.344C417.536 118.32 418.16 119.412 419.216 120.228C420.272 121.044 421.688 121.452 423.464 121.452C425.408 121.452 427.112 120.828 428.576 119.58C430.04 118.356 430.964 116.664 431.348 114.504L432.176 109.644C431.36 110.988 430.184 112.104 428.648 112.992C427.136 113.856 425.456 114.288 423.608 114.288C421.232 114.288 419.324 113.58 417.884 112.164C416.468 110.724 415.76 108.792 415.76 106.368C415.76 105.672 415.832 104.928 415.976 104.136C416.336 102.12 417.056 100.356 418.136 98.844C419.216 97.308 420.536 96.132 422.096 95.316C423.68 94.476 425.372 94.056 427.172 94.056ZM433.148 104.172C433.268 103.5 433.328 102.9 433.328 102.372C433.328 100.5 432.764 99.012 431.636 97.908C430.508 96.804 429.044 96.252 427.244 96.252C425.852 96.252 424.544 96.564 423.32 97.188C422.12 97.812 421.1 98.724 420.26 99.924C419.42 101.1 418.856 102.504 418.568 104.136C418.448 104.856 418.388 105.468 418.388 105.972C418.388 107.868 418.94 109.368 420.044 110.472C421.172 111.552 422.636 112.092 424.436 112.092C425.78 112.092 427.064 111.768 428.288 111.12C429.536 110.472 430.58 109.548 431.42 108.348C432.284 107.148 432.86 105.756 433.148 104.172ZM450.717 94.056C452.373 94.056 453.789 94.38 454.965 95.028C456.141 95.652 457.029 96.516 457.629 97.62C458.253 98.724 458.565 99.984 458.565 101.4C458.565 102.048 458.517 102.624 458.421 103.128C458.277 103.848 458.133 104.496 457.989 105.072H441.681C441.609 105.528 441.573 105.96 441.573 106.368C441.573 108.216 442.125 109.644 443.229 110.652C444.357 111.66 445.785 112.164 447.513 112.164C449.169 112.164 450.621 111.768 451.869 110.976C453.117 110.184 454.029 109.116 454.605 107.772H457.305C456.489 109.692 455.181 111.264 453.381 112.488C451.605 113.688 449.529 114.288 447.153 114.288C444.705 114.288 442.737 113.592 441.249 112.2C439.785 110.784 439.053 108.864 439.053 106.44C439.053 105.72 439.125 104.964 439.269 104.172C439.629 102.132 440.349 100.344 441.429 98.808C442.533 97.272 443.889 96.096 445.497 95.28C447.105 94.464 448.845 94.056 450.717 94.056ZM455.829 103.2C455.949 102.528 456.009 101.964 456.009 101.508C456.009 99.804 455.469 98.496 454.389 97.584C453.309 96.672 451.929 96.216 450.249 96.216C449.025 96.216 447.849 96.48 446.721 97.008C445.593 97.536 444.609 98.328 443.769 99.384C442.929 100.44 442.353 101.712 442.041 103.2H455.829ZM487.052 93.984C489.02 93.984 490.592 94.524 491.768 95.604C492.968 96.684 493.568 98.268 493.568 100.356C493.568 101.004 493.496 101.712 493.352 102.48L491.3 114H488.816L490.832 102.768C490.952 102.048 491.012 101.448 491.012 100.968C491.012 99.408 490.592 98.22 489.752 97.404C488.912 96.588 487.724 96.18 486.188 96.18C484.484 96.18 482.984 96.72 481.688 97.8C480.416 98.88 479.528 100.44 479.024 102.48L476.936 114H474.452L476.468 102.768C476.588 102.048 476.648 101.448 476.648 100.968C476.648 99.408 476.228 98.22 475.388 97.404C474.548 96.588 473.372 96.18 471.86 96.18C470.036 96.18 468.464 96.78 467.144 97.98C465.824 99.156 464.948 100.86 464.516 103.092L462.608 114H460.088L463.544 94.344H466.064L465.452 97.764C466.268 96.54 467.312 95.604 468.584 94.956C469.88 94.308 471.248 93.984 472.688 93.984C474.392 93.984 475.808 94.392 476.936 95.208C478.064 96.024 478.772 97.224 479.06 98.808C479.852 97.248 480.968 96.06 482.408 95.244C483.848 94.404 485.396 93.984 487.052 93.984ZM507.92 94.056C509.576 94.056 510.992 94.38 512.168 95.028C513.344 95.652 514.232 96.516 514.832 97.62C515.456 98.724 515.768 99.984 515.768 101.4C515.768 102.048 515.72 102.624 515.624 103.128C515.48 103.848 515.336 104.496 515.192 105.072H498.884C498.812 105.528 498.776 105.96 498.776 106.368C498.776 108.216 499.328 109.644 500.432 110.652C501.56 111.66 502.988 112.164 504.716 112.164C506.372 112.164 507.824 111.768 509.072 110.976C510.32 110.184 511.232 109.116 511.808 107.772H514.508C513.692 109.692 512.384 111.264 510.584 112.488C508.808 113.688 506.732 114.288 504.356 114.288C501.908 114.288 499.94 113.592 498.452 112.2C496.988 110.784 496.256 108.864 496.256 106.44C496.256 105.72 496.328 104.964 496.472 104.172C496.832 102.132 497.552 100.344 498.632 98.808C499.736 97.272 501.092 96.096 502.7 95.28C504.308 94.464 506.048 94.056 507.92 94.056ZM513.032 103.2C513.152 102.528 513.212 101.964 513.212 101.508C513.212 99.804 512.672 98.496 511.592 97.584C510.512 96.672 509.132 96.216 507.452 96.216C506.228 96.216 505.052 96.48 503.924 97.008C502.796 97.536 501.812 98.328 500.972 99.384C500.132 100.44 499.556 101.712 499.244 103.2H513.032ZM530.071 93.984C532.087 93.984 533.695 94.536 534.895 95.64C536.119 96.72 536.731 98.304 536.731 100.392C536.731 101.16 536.671 101.856 536.551 102.48L534.499 114H532.015L533.995 102.768C534.091 102.216 534.139 101.628 534.139 101.004C534.139 99.42 533.707 98.22 532.843 97.404C531.979 96.588 530.767 96.18 529.207 96.18C527.311 96.18 525.691 96.78 524.347 97.98C523.003 99.18 522.127 100.944 521.719 103.272V103.164L519.811 114H517.291L520.747 94.344H523.267L522.655 97.728C523.495 96.528 524.563 95.604 525.859 94.956C527.155 94.308 528.559 93.984 530.071 93.984ZM543.248 108.672C543.176 109.104 543.14 109.476 543.14 109.788C543.14 110.556 543.344 111.096 543.752 111.408C544.184 111.696 544.88 111.84 545.84 111.84H548.144L547.748 114H545.048C543.56 114 542.444 113.712 541.7 113.136C540.956 112.56 540.584 111.612 540.584 110.292C540.584 109.764 540.632 109.224 540.728 108.672L542.888 96.468H540.152L540.548 94.344H543.284L544.148 89.412H546.668L545.804 94.344H551.24L550.844 96.468H545.408L543.248 108.672Z" fill="#17171C"/>
<path d="M49.1206 129.257C45.7644 122.743 39.6313 117.277 33.1548 115.242C33.5806 122.246 41.7446 129.499 49.1206 129.257Z" fill="#17171C"/>
<path d="M49.1206 18.2867C41.7442 18.044 33.5806 25.2985 33.1548 32.3017C39.6322 30.2681 45.765 24.8002 49.1206 18.2867Z" fill="#17171C"/>
<path d="M14.0269 105.787C17.8948 114.441 26.2487 117.768 30.3895 114.238C25.5375 107.869 19.0692 103.666 14.0269 105.787Z" fill="#17171C"/>
<path d="M32.8511 112.327C37.0427 108.799 37.1786 101.85 34.6826 96.134C29.6909 98.2068 28.0151 105.871 32.8511 112.327Z" fill="#17171C"/>
<path d="M23.3025 102.395C19.9619 95.3046 14.4671 89.9129 9.11523 90.9508C11.1526 100.126 18.5317 104.973 23.3025 102.395Z" fill="#17171C"/>
<path d="M26.099 101.044C30.9214 98.4792 32.542 91.8217 31.2521 85.7715C25.9505 86.769 22.7887 93.8719 26.099 101.044Z" fill="#17171C"/>
<path d="M18.8654 89.5397C17.0363 81.9964 12.6928 75.5994 7.25 75.5193C7.45634 84.8897 13.6834 91.0715 18.8654 89.5397Z" fill="#17171C"/>
<path d="M21.8718 88.795C27.1034 87.2822 30.0361 81.1643 29.9498 74.9922C24.5579 74.8804 20.0858 81.173 21.8718 88.795Z" fill="#17171C"/>
<path d="M17.0781 76.136C16.7589 68.4017 13.7457 61.224 8.43135 60.0269C6.80745 69.2738 11.7044 76.5704 17.0781 76.136Z" fill="#17171C"/>
<path d="M20.1682 76.0245C25.5915 75.6167 29.6546 70.2529 30.7743 64.1713C25.5106 62.9522 19.9073 68.2215 20.1682 76.0245Z" fill="#17171C"/>
<path d="M17.9395 62.6503C19.1314 54.9934 17.624 47.28 12.658 45.01C9.20141 53.8094 12.5949 61.9725 17.9395 62.6503Z" fill="#17171C"/>
<path d="M20.9895 63.1754C26.3849 63.8892 31.4029 59.4597 33.727 53.6819C28.811 51.3981 22.253 55.4631 20.9895 63.1754Z" fill="#17171C"/>
<path d="M21.4505 49.55C24.1541 42.2366 24.3311 34.2678 19.9309 31.0051C14.6441 39.0359 16.3521 47.786 21.4505 49.55Z" fill="#17171C"/>
<path d="M24.3347 50.6939C29.4837 52.5048 35.2796 49.1643 38.8071 43.8999C34.4577 40.6327 27.1236 43.336 24.3347 50.6939Z" fill="#17171C"/>
<path d="M27.6111 37.3003C31.8258 30.5951 33.8639 22.6841 30.2502 18.5479C23.1323 25.4874 22.9783 34.5112 27.6111 37.3003Z" fill="#17171C"/>
<path d="M46.0149 35.1982C42.4512 31.0644 34.5176 32.2899 30.2043 39.0222C34.8868 41.8669 41.2811 39.7356 46.0149 35.1982Z" fill="#17171C"/>
<path d="M686.879 129.257C690.236 122.743 696.369 117.277 702.845 115.242C702.419 122.246 694.255 129.499 686.879 129.257Z" fill="#17171C"/>
<path d="M686.879 18.2867C694.256 18.044 702.419 25.2985 702.845 32.3017C696.368 30.2681 690.235 24.8002 686.879 18.2867Z" fill="#17171C"/>
<path d="M721.973 105.787C718.105 114.441 709.751 117.768 705.611 114.238C710.463 107.869 716.931 103.666 721.973 105.787Z" fill="#17171C"/>
<path d="M703.149 112.327C698.957 108.799 698.821 101.85 701.317 96.134C706.309 98.2068 707.985 105.871 703.149 112.327Z" fill="#17171C"/>
<path d="M712.697 102.395C716.038 95.3046 721.533 89.9129 726.885 90.9508C724.847 100.126 717.468 104.973 712.697 102.395Z" fill="#17171C"/>
<path d="M709.901 101.044C705.078 98.4792 703.458 91.8217 704.748 85.7715C710.049 86.769 713.211 93.8719 709.901 101.044Z" fill="#17171C"/>
<path d="M717.135 89.5397C718.964 81.9964 723.307 75.5994 728.75 75.5193C728.544 84.8897 722.317 91.0715 717.135 89.5397Z" fill="#17171C"/>
<path d="M714.128 88.795C708.897 87.2822 705.964 81.1643 706.05 74.9922C711.442 74.8804 715.914 81.173 714.128 88.795Z" fill="#17171C"/>
<path d="M718.922 76.136C719.241 68.4017 722.254 61.224 727.569 60.0269C729.193 69.2738 724.296 76.5704 718.922 76.136Z" fill="#17171C"/>
<path d="M715.832 76.0245C710.409 75.6167 706.346 70.2529 705.226 64.1713C710.49 62.9522 716.093 68.2215 715.832 76.0245Z" fill="#17171C"/>
<path d="M718.06 62.6503C716.868 54.9934 718.376 47.28 723.342 45.01C726.798 53.8094 723.405 61.9725 718.06 62.6503Z" fill="#17171C"/>
<path d="M715.011 63.1754C709.615 63.8892 704.597 59.4597 702.273 53.6819C707.189 51.3981 713.747 55.4631 715.011 63.1754Z" fill="#17171C"/>
<path d="M714.549 49.55C711.846 42.2366 711.669 34.2678 716.069 31.0051C721.356 39.0359 719.648 47.786 714.549 49.55Z" fill="#17171C"/>
<path d="M711.666 50.6939C706.517 52.5048 700.721 49.1643 697.193 43.8999C701.543 40.6327 708.877 43.336 711.666 50.6939Z" fill="#17171C"/>
<path d="M708.389 37.3003C704.174 30.5951 702.136 22.6841 705.75 18.5479C712.868 25.4874 713.022 34.5112 708.389 37.3003Z" fill="#17171C"/>
<path d="M689.985 35.1982C693.549 31.0644 701.483 32.2899 705.796 39.0222C701.113 41.8669 694.719 39.7356 689.985 35.1982Z" fill="#17171C"/>
</svg>
