<svg width="179" height="198" viewBox="0 0 179 198" fill="none" xmlns="http://www.w3.org/2000/svg">
<path d="M2.18084 168.35L32.7214 168.079L41.5842 176.764L38.5718 183.468L2.18515 168.351L2.18084 168.35ZM32.3378 169.031L6.83662 169.256L38.084 182.239L40.4482 176.98L32.3378 169.031Z" fill="#00000A"/>
<path d="M1.21497 168.561L46.1681 167.016L77.4511 184.481L1.21497 168.561Z" fill="#FF5A5F"/>
<path d="M36.9908 159.553L1.20942 168.561L36.7155 140.032L36.9908 159.553Z" fill="#FF5A5F"/>
<path d="M36.9904 159.551L33.0622 167.462L1.20909 168.56L36.9904 159.551Z" fill="#00000A"/>
<path d="M59.4074 157.787C54.7967 157.252 51.7145 156.233 51.6638 156.214L51.9797 155.277C52.0647 155.304 60.7132 158.159 70.6769 156.704C83.9901 154.761 93.227 146.461 98.1314 132.033C98.7539 130.201 99.6756 126.662 99.496 122.167C98.4219 122.078 97.3548 121.967 96.2804 121.843C76.2494 119.449 61.8499 110.536 56.7668 97.3879C54.6303 91.8635 56.1209 89.1975 57.744 87.9355C62.191 84.4838 73.4311 87.3038 83.3293 94.3586C87.6738 97.4545 99.5761 107.184 100.567 121.26C112.297 122.095 124.671 120.652 135.855 117.109C148.943 112.962 159.264 106.185 164.923 98.0288C171.655 88.3268 171.861 76.7086 165.522 64.4241C158.176 50.1932 146.378 38.1175 130.448 28.5292C117.683 20.8421 102.253 14.7283 84.5897 10.3567C54.4822 2.90211 27.9788 3.10376 27.7143 3.10395L27.7055 2.11549C27.9705 2.11096 54.5799 1.90836 84.8077 9.39012C102.574 13.7869 118.096 19.9379 130.948 27.6748C147.043 37.3615 158.97 49.5756 166.399 63.9704C172.918 76.5976 172.689 88.5702 165.735 98.5902C154.8 114.347 127.368 124.152 100.618 122.257C100.723 125.421 100.27 128.794 99.0598 132.352C92.7839 150.813 80.2166 156.321 70.7785 157.69C66.5864 158.297 62.6213 158.164 59.4026 157.791L59.4074 157.787ZM65.0347 87.5599C62.1726 87.228 59.8135 87.5759 58.3549 88.7116C56.4027 90.2264 56.1752 93.1007 57.6902 97.0277C62.6333 109.825 76.7462 118.51 96.3987 120.86C97.4035 120.977 98.4185 121.081 99.4399 121.169C98.884 113.76 95.2405 104.049 82.7606 95.1567C76.7467 90.871 70.1069 88.1437 65.0352 87.5555L65.0347 87.5599Z" fill="black" fill-opacity="0.61"/>
</svg>
