<svg width="50" height="50" viewBox="0 0 50 50" fill="none" xmlns="http://www.w3.org/2000/svg">
<rect width="50" height="50" rx="8" fill="#FFC75A"/>
<path d="M25 19.6666C31.6274 19.6666 37 17.8758 37 15.6666C37 13.4575 31.6274 11.6666 25 11.6666C18.3726 11.6666 13 13.4575 13 15.6666C13 17.8758 18.3726 19.6666 25 19.6666Z" stroke="white" stroke-width="2" stroke-linecap="round" stroke-linejoin="round"/>
<path d="M37 25C37 27.2133 31.6667 29 25 29C18.3333 29 13 27.2133 13 25" stroke="white" stroke-width="2" stroke-linecap="round" stroke-linejoin="round"/>
<path d="M13 15.6666V34.3333C13 36.5466 18.3333 38.3333 25 38.3333C31.6667 38.3333 37 36.5466 37 34.3333V15.6666" stroke="white" stroke-width="2" stroke-linecap="round" stroke-linejoin="round"/>
</svg>
