<svg width="303" height="272" viewBox="0 0 303 272" fill="none" xmlns="http://www.w3.org/2000/svg">
<g clip-path="url(#clip0_2935_6775)">
<path d="M303 154.634C303 158.048 302.852 161.428 302.566 164.768C301.959 171.819 300.73 178.697 298.934 185.344C298.445 187.147 297.917 188.93 297.345 190.699C282.486 236.678 239.994 270.265 189.403 271.921C188.555 271.955 187.711 271.97 186.857 271.98C186.388 271.99 185.924 271.99 185.456 271.99H0V170.277C0 96.8251 59.6407 37.2725 133.217 37.2725H185.456C250.371 37.2725 303 89.814 303 154.634Z" fill="#E4E2F6"/>
<path d="M215.508 120.647H60.1489C51.4523 120.647 44.4023 127.686 44.4023 136.37V228.652C44.4023 237.335 51.4523 244.374 60.1489 244.374H215.508C224.204 244.374 231.254 237.335 231.254 228.652V136.37C231.254 127.686 224.204 120.647 215.508 120.647Z" fill="#BBBBFC"/>
<path d="M194.304 11.9825C197.618 11.9825 200.304 9.3001 200.304 5.99123C200.304 2.68237 197.618 0 194.304 0C190.99 0 188.303 2.68237 188.303 5.99123C188.303 9.3001 190.99 11.9825 194.304 11.9825Z" fill="#E4E2F6"/>
<path d="M234.521 13.0225C237.835 13.0225 240.522 10.3401 240.522 7.03127C240.522 3.72241 237.835 1.04004 234.521 1.04004C231.207 1.04004 228.521 3.72241 228.521 7.03127C228.521 10.3401 231.207 13.0225 234.521 13.0225Z" fill="#505ECE"/>
<path d="M214.259 11.9825C217.573 11.9825 220.26 9.3001 220.26 5.99123C220.26 2.68237 217.573 0 214.259 0C210.945 0 208.259 2.68237 208.259 5.99123C208.259 9.3001 210.945 11.9825 214.259 11.9825Z" fill="#BBBBFC"/>
<path d="M243.576 29.7734H108.874C100.177 29.7734 93.1274 36.8124 93.1274 45.4955V174.475C93.1274 183.158 100.177 190.197 108.874 190.197H243.576C252.273 190.197 259.323 183.158 259.323 174.475V45.4955C259.323 36.8124 252.273 29.7734 243.576 29.7734Z" fill="#00000A"/>
<path d="M243.576 15.3623H108.869C100.173 15.3623 93.1226 22.4013 93.1226 31.0844V160.063C93.1226 168.746 100.173 175.785 108.869 175.785H243.576C252.273 175.785 259.323 168.746 259.323 160.063V31.0844C259.323 22.4013 252.273 15.3623 243.576 15.3623Z" fill="#505ECE"/>
<path d="M259.323 31.0844V42.1504H93.1226V31.0844C93.1226 22.403 100.174 15.3623 108.869 15.3623H243.576C252.271 15.3623 259.323 22.403 259.323 31.0844V31.0844Z" fill="#FF5A5F"/>
<path d="M51.1332 141.839C60.7101 141.839 68.4737 134.087 68.4737 124.525C68.4737 114.963 60.7101 107.212 51.1332 107.212C41.5563 107.212 33.7927 114.963 33.7927 124.525C33.7927 134.087 41.5563 141.839 51.1332 141.839Z" fill="#307288"/>
<path d="M67.2302 215.167H200.487" stroke="#00000A" stroke-width="6" stroke-miterlimit="10"/>
<path d="M71.321 221.665C75.3981 221.665 78.7033 218.365 78.7033 214.295C78.7033 210.224 75.3981 206.924 71.321 206.924C67.2439 206.924 63.9387 210.224 63.9387 214.295C63.9387 218.365 67.2439 221.665 71.321 221.665Z" fill="#505ECE"/>
<path d="M113.409 221.665C117.486 221.665 120.791 218.365 120.791 214.295C120.791 210.224 117.486 206.924 113.409 206.924C109.332 206.924 106.027 210.224 106.027 214.295C106.027 218.365 109.332 221.665 113.409 221.665Z" fill="#505ECE"/>
<path d="M199.598 222.445C203.676 222.445 206.981 219.145 206.981 215.074C206.981 211.003 203.676 207.703 199.598 207.703C195.521 207.703 192.216 211.003 192.216 215.074C192.216 219.145 195.521 222.445 199.598 222.445Z" fill="#505ECE"/>
<path d="M155.023 224.617C160.733 224.617 165.362 219.995 165.362 214.295C165.362 208.594 160.733 203.973 155.023 203.973C149.314 203.973 144.685 208.594 144.685 214.295C144.685 219.995 149.314 224.617 155.023 224.617Z" fill="white"/>
<path d="M93.4333 44.1953H258.963" stroke="#00000A" stroke-width="12" stroke-miterlimit="10"/>
<path d="M196.746 86.2076C196.746 86.2076 158.532 127.072 158.142 127.2C157.974 127.259 144.014 125.697 128.47 123.939C108.78 121.712 86.5349 119.159 86.5349 119.159L84.7288 57.1826C84.7288 57.1826 114.806 65.2284 134.046 70.387C143.012 72.7864 149.625 74.5651 149.753 74.6045C150.138 74.7326 175.187 64.5485 180.353 67.5145C185.515 70.4806 196.746 86.2125 196.746 86.2125V86.2076Z" fill="#FF8B7C"/>
<path d="M271.823 165.187L226.399 146.278L204.109 136.995L186.803 91.4894C186.803 91.4894 171.328 102.176 167.104 101.738C161.295 101.132 161.241 95.7414 161.241 95.7414C160.481 91.4647 171.234 83.2613 176.929 79.2458C179.045 77.7578 181.715 77.2848 184.222 77.95L224.381 88.2474L269.222 99.747L271.823 165.183V165.187Z" fill="#FFB7B0"/>
<path d="M196.49 139.434C197.057 141.192 195.912 142.252 195.296 143.459C194.753 144.518 193.075 145.183 191.999 145.405C190.045 145.814 188.012 145.469 186.729 144.326C183.778 143.296 182.924 141.508 182.924 141.508C182.924 141.508 182.115 142.587 180.644 143.454C178.483 144.72 174.881 145.523 170.272 141.769C166.181 138.433 154.777 129.003 154.777 129.003L154.13 122.948L186.926 91.75C186.926 91.75 207.543 132.161 208.052 138.266C208.274 140.946 201.943 144.627 196.48 139.434H196.49Z" fill="#FF8B7C"/>
<path d="M269.222 99.7516L271.823 165.187L226.399 146.277L224.381 88.252L269.222 99.7516Z" fill="white"/>
<path d="M134.046 70.387L128.47 123.939C124.359 123.47 120.14 122.993 116.034 122.525C100.461 120.756 86.5349 119.159 86.5349 119.159L84.7288 57.1826C84.7288 57.1826 104.162 62.3855 121.783 67.1007C126.081 68.2536 130.271 69.3769 134.046 70.387V70.387Z" fill="#00000A"/>
<path d="M189.033 122.992L197.487 142.464" stroke="#FF5A5F" stroke-width="12" stroke-miterlimit="10"/>
<path d="M186.734 144.331C183.783 143.302 182.401 142.986 180.649 143.459L171.308 128.358L175.468 126.116L186.734 144.331V144.331Z" fill="#FF5A5F"/>
<path d="M139.953 126.781C139.405 129.516 142.331 133.896 146.447 132.526C149.423 131.536 158.354 125.002 160.007 120.834C161.902 116.06 157.481 112.631 151.831 115.754C148.751 117.454 140.767 122.731 139.953 126.786V126.781Z" fill="#FFB7B0"/>
<path d="M164.898 144.952C164.834 147.346 169.388 149.031 172.29 147.41C174.387 146.238 177.402 142.163 178.113 138.424C178.927 134.142 176.04 131.92 171.95 134.659C169.694 136.167 164.997 141.404 164.898 144.952Z" fill="#FFB7B0"/>
<path d="M145.006 135.472C144.285 138.355 149.339 142.498 152.497 141.148C156.78 139.315 167.237 129.343 168.461 124.549C169.541 120.317 165.648 115.262 159.553 118.834C155.403 121.268 146.279 130.393 145.006 135.472Z" fill="#FFB7B0"/>
<path d="M155.216 140.429C154.579 143.036 159.169 146.746 162.011 145.509C165.87 143.829 173.77 135.404 175.458 131.265C177.639 125.914 173.119 121.293 167.641 124.55C163.911 126.772 156.336 135.833 155.216 140.424V140.429Z" fill="#FFB7B0"/>
<path d="M41.1553 125.259L47.3532 131.275L61.6984 117.858" stroke="white" stroke-width="12" stroke-miterlimit="10"/>
</g>
<defs>
<clipPath id="clip0_2935_6775">
<rect width="303" height="272" fill="white"/>
</clipPath>
</defs>
</svg>
