<svg width="285" height="255" viewBox="0 0 285 255" fill="none" xmlns="http://www.w3.org/2000/svg">
<g clip-path="url(#clip0_2935_6776)">
<path d="M285 144.321C285 147.541 284.863 150.727 284.593 153.881C284.027 160.534 282.867 167.017 281.179 173.286C280.717 174.986 280.223 176.67 279.684 178.338C277.287 185.779 274.12 192.872 270.277 199.532C270.096 199.851 269.909 200.17 269.722 200.484C251.09 232.112 217.181 253.652 178.152 254.934C177.355 254.962 176.558 254.978 175.755 254.989C175.316 255 174.881 255 174.442 255H0V159.076C0 89.8048 56.0929 33.6426 125.303 33.6426H174.442C235.499 33.6426 285 83.1952 285 144.321Z" fill="#FFF3D3"/>
<path d="M54.3391 203.742L34.509 255H0V180.512C27.6973 192.328 54.3391 203.742 54.3391 203.742Z" fill="#FFE3AC"/>
<path d="M270.277 199.531C270.096 199.85 269.909 200.169 269.722 200.483C251.09 232.111 217.181 253.651 178.152 254.934C177.355 254.961 176.558 254.978 175.755 254.989C175.316 255 174.881 255 174.442 255H171.159C178.24 222.755 212.749 198.287 254.257 198.287C259.738 198.287 265.093 198.711 270.277 199.531Z" fill="#FFE3AC"/>
<path d="M43.0635 50.3066L106.699 214.462L201.413 181.326L137.453 16.1855L43.0635 50.3066Z" fill="#00000A"/>
<path d="M49.1274 34.1211L43.0635 50.3066L54.6966 55.9421L62.3988 49.5416L49.1274 34.1211Z" fill="#00000A"/>
<path d="M207.428 166.341L201.325 181.205L189.566 179.956L192.512 163.061L207.428 166.341Z" fill="#00000A"/>
<path d="M207.428 166.34L112.708 199.476L49.1274 34.1211L79.4032 23.1748L107.337 13.0761L143.517 0L207.428 166.34Z" fill="#505ECE"/>
<path d="M162.046 165.811L149.964 169.709C147.585 170.476 146.278 173.028 147.045 175.409C147.811 177.79 150.36 179.098 152.739 178.331L164.821 174.433C167.2 173.666 168.507 171.114 167.74 168.733C166.974 166.352 164.424 165.044 162.046 165.811Z" fill="#394BB2"/>
<path d="M102.004 112.039C101.053 110.211 100.223 108.28 99.5245 106.254C93.0867 87.598 100.476 68.1159 116.023 62.7391C120.883 61.0606 125.963 60.956 130.85 62.1778" stroke="#394BB2" stroke-width="6" stroke-miterlimit="10"/>
<path d="M146.469 75.3691C149.817 79.2215 152.577 83.9159 154.419 89.2542C160.769 107.658 153.853 126.743 138.976 131.884C132.818 134.013 123.989 132.522 117.524 127.987" stroke="#394BB2" stroke-width="6" stroke-miterlimit="10"/>
<path d="M110.481 106.761C118.646 104.24 131.114 108.434 135.848 116.81C132.978 107.817 137.36 96.9043 145.887 91.4174C136.469 93.5087 126.062 90.2672 120.52 81.3682C123.055 91.3788 117.903 101.852 110.481 106.761V106.761Z" fill="#FFC759"/>
<path d="M134.308 70.4934C136.848 70.0036 140.455 71.6767 141.604 74.3513C141.038 71.5556 142.714 68.4187 145.458 67.0483C142.56 67.3675 139.537 66.0467 138.162 63.1904C138.597 66.2833 136.7 69.2607 134.308 70.4934V70.4934Z" fill="#FFC759"/>
<path d="M102.873 121.675C105.412 121.185 109.019 122.858 110.168 125.533C109.602 122.737 111.279 119.6 114.022 118.23C111.125 118.549 108.101 117.228 106.726 114.372C107.161 117.465 105.264 120.442 102.873 121.675Z" fill="#FFC759"/>
<path d="M84.384 67.2901C87.4023 66.7067 91.7014 68.699 93.0704 71.8799C92.3942 68.5504 94.3898 64.8136 97.6554 63.1846C94.2029 63.5643 90.6074 61.9958 88.9691 58.5947C89.4859 62.2765 87.2318 65.8207 84.384 67.2901V67.2901Z" fill="#FF8B7C"/>
<path d="M147.519 149.231C124.709 157.117 97.8477 139.264 87.5285 109.347C83.0479 96.3594 82.4212 83.2282 85.0161 71.8857" stroke="#394BB2" stroke-width="6" stroke-miterlimit="10"/>
<path d="M95.9785 57.5439C99.9368 53.4053 104.626 50.5436 110.141 48.6394C132.95 40.753 159.449 57.8631 167.52 87.1742C173.875 110.255 170.241 124.619 164.436 135.158" stroke="#394BB2" stroke-width="6" stroke-miterlimit="10"/>
<path d="M149.389 143.088C152.407 142.505 156.706 144.497 158.075 147.678C157.399 144.348 159.394 140.611 162.66 138.982C159.208 139.362 155.612 137.794 153.974 134.393C154.491 138.074 152.236 141.619 149.389 143.088V143.088Z" fill="#FF8B7C"/>
<path d="M240.898 15.3934L194.904 135.23L187.878 153.534L178.642 149.985L185.717 131.548L231.662 11.8438L240.898 15.3934Z" fill="#00000A"/>
<path d="M47.6208 138.344C51.9536 138.344 55.466 134.828 55.466 130.491C55.466 126.154 51.9536 122.638 47.6208 122.638C43.2881 122.638 39.7756 126.154 39.7756 130.491C39.7756 134.828 43.2881 138.344 47.6208 138.344Z" fill="#FFD68A"/>
<path d="M238.457 117.564C241.153 117.564 243.339 115.376 243.339 112.677C243.339 109.978 241.153 107.79 238.457 107.79C235.76 107.79 233.575 109.978 233.575 112.677C233.575 115.376 235.76 117.564 238.457 117.564Z" fill="#FFD68A"/>
<path d="M137.327 232.832C139.537 232.832 141.329 231.039 141.329 228.826C141.329 226.613 139.537 224.819 137.327 224.819C135.116 224.819 133.324 226.613 133.324 228.826C133.324 231.039 135.116 232.832 137.327 232.832Z" fill="#FFD68A"/>
<path d="M16.1853 48.3706L32.5519 47.792" stroke="#FF8B7C" stroke-width="10" stroke-miterlimit="10"/>
<path d="M14.7229 26.7578L33.2776 34.3415" stroke="#FF8B7C" stroke-width="10" stroke-miterlimit="10"/>
<path d="M33.459 10.71L41.6285 25.9764" stroke="#FF8B7C" stroke-width="10" stroke-miterlimit="10"/>
<path d="M109.173 20.4067C109.173 28.8379 102.455 35.6731 94.1644 35.6731C86.803 35.6731 80.684 30.2853 79.4031 23.1749L107.337 13.0762C108.508 15.25 109.173 17.7486 109.173 20.4067V20.4067Z" fill="#394BB2"/>
<path d="M97.1904 28.7292C98.9788 28.1709 99.9978 26.3352 99.4663 24.629C98.9347 22.9228 97.0541 21.9923 95.2656 22.5506C93.4772 23.1089 92.4582 24.9446 92.9897 26.6508C93.5212 28.3569 95.4019 29.2875 97.1904 28.7292Z" fill="white"/>
<path d="M194.904 135.23L187.878 153.534L178.642 149.984L185.717 131.548L194.904 135.23Z" fill="white"/>
</g>
<defs>
<clipPath id="clip0_2935_6776">
<rect width="285" height="255" fill="white"/>
</clipPath>
</defs>
</svg>
