<svg width="325" height="253" viewBox="0 0 325 253" fill="none" xmlns="http://www.w3.org/2000/svg">
<g clip-path="url(#clip0_2935_6777)">
<path d="M125.637 252.262H323.866V143.374C323.872 64.7316 260.123 0.982422 181.48 0.982422H125.643C56.2508 0.982422 0.000488281 57.2328 0.000488281 126.619C0.000488281 196.006 56.2508 252.256 125.637 252.256V252.262Z" fill="#FFF3D3"/>
<path d="M360.785 170.086H281.753V264.959H360.785V170.086Z" fill="#FFD68A"/>
<path d="M369.988 170.086H298.606V264.959H369.988V170.086Z" fill="#FFC759"/>
<path d="M350.842 183.439H309.962V195.86H350.842V183.439Z" fill="#FF8B7C"/>
<path d="M111.693 32.6992L43.1787 32.6992L43.1787 -54.9487L118.517 -54.9487L118.517 25.8694C118.517 29.6392 115.457 32.6934 111.693 32.6934V32.6992Z" fill="#FFD68A"/>
<path d="M111.693 32.6992L43.1787 32.6992V19.0453L111.693 19.0453C115.462 19.0453 118.517 22.1054 118.517 25.8694C118.517 29.6392 115.457 32.6934 111.693 32.6934V32.6992Z" fill="#FFC75B"/>
<path d="M256.487 68.3599H80.6968V206.196H256.487V68.3599Z" fill="#00000A"/>
<path d="M256.487 54.7534H80.6968V192.59H256.487V54.7534Z" fill="#505ECE"/>
<path d="M256.487 54.7534H80.6968V83.8065H256.487V54.7534Z" fill="#FF8B7C"/>
<path d="M100.657 49.272L100.878 67.929" stroke="#00000A" stroke-width="6.98111" stroke-miterlimit="10"/>
<path d="M129.844 49.272L130.065 67.929" stroke="#00000A" stroke-width="6.98111" stroke-miterlimit="10"/>
<path d="M210.784 48.9995L211.005 67.6507" stroke="#00000A" stroke-width="6.98111" stroke-miterlimit="10"/>
<path d="M241.524 49.272L241.739 67.929" stroke="#00000A" stroke-width="6.98111" stroke-miterlimit="10"/>
<path d="M183.808 49.272L184.023 67.929" stroke="#00000A" stroke-width="6.98111" stroke-miterlimit="10"/>
<path d="M157.378 49.272L157.599 67.929" stroke="#00000A" stroke-width="6.98111" stroke-miterlimit="10"/>
<path d="M137.308 114.953C117.185 114.953 101.628 114.924 100.389 114.825L100.599 112.073C103.385 112.288 189.265 112.166 234.281 112.073V114.831C230.796 114.837 175.739 114.953 137.302 114.953H137.308Z" fill="#394BB2"/>
<path d="M137.308 140.552C117.185 140.552 101.622 140.522 100.389 140.424L100.599 137.672C103.385 137.887 189.265 137.765 234.281 137.672V140.429C230.796 140.435 175.744 140.552 137.308 140.552V140.552Z" fill="#394BB2"/>
<path d="M137.308 167.254C117.185 167.254 101.628 167.225 100.389 167.126L100.599 164.374C103.385 164.589 189.265 164.467 234.281 164.374V167.132C230.796 167.137 175.739 167.254 137.302 167.254H137.308Z" fill="#394BB2"/>
<path d="M154.33 98.8394H151.573V181.153H154.33V98.8394Z" fill="#394BB2"/>
<path d="M126.045 98.8394H123.287V181.153H126.045V98.8394Z" fill="#394BB2"/>
<path d="M184.616 98.8394H181.859V181.153H184.616V98.8394Z" fill="#394BB2"/>
<path d="M215.997 98.8394H213.239V181.153H215.997V98.8394Z" fill="#394BB2"/>
<path d="M47.2749 122.61H-5.75244V179.239H47.2749V122.61Z" fill="#FFD68A"/>
<path d="M47.2749 158.87V116.657H-5.75244V169.19H36.1459L47.2749 158.87Z" fill="#FFC759"/>
<path d="M36.3838 169.015V159.044H47.1405L36.3838 169.015Z" fill="#FFE3AC"/>
<path d="M37.0073 126.315H2.39844V131.755H37.0073V126.315Z" fill="#FF8B7C"/>
<path d="M24.5693 136.794H2.39844V142.233H24.5693V136.794Z" fill="#FF8B7C"/>
<path d="M190.202 238.373H25.5815V251.806H190.202V238.373Z" fill="#FFD68A"/>
<path d="M207.794 244.854L199.295 248.216L190.185 251.823V238.367L199.295 241.73L207.794 244.854Z" fill="#FFE3AC"/>
<path d="M207.794 244.855L199.294 248.217V241.73L207.794 244.855Z" fill="#3A405A"/>
<path d="M190.144 244.831H25.4707V251.818H190.144V244.831Z" fill="#FFC759"/>
<path d="M36.9083 238.362H23.9409V251.789H36.9083V238.362Z" fill="#FF5A5F"/>
<path d="M38.3628 238.362H34.7559V251.789H38.3628V238.362Z" fill="#00000A"/>
<path d="M239.494 47.5229L199.847 112.721L200.266 114.495L277.221 114.809L239.494 47.5229Z" fill="#00000A"/>
<path d="M279.169 114.908C304.484 114.908 325.006 94.3857 325.006 69.0707C325.006 43.7557 304.484 23.2339 279.169 23.2339C253.854 23.2339 233.332 43.7557 233.332 69.0707C233.332 94.3857 253.854 114.908 279.169 114.908Z" fill="#505ECE"/>
<path d="M253.833 71.8335C253.833 71.8335 275.597 39.9357 306.576 70.9143C306 71.1471 281.7 99.9383 253.833 71.8335V71.8335Z" fill="white"/>
<path d="M279.395 80.1942C284.395 80.1942 288.448 76.1414 288.448 71.142C288.448 66.1426 284.395 62.0898 279.395 62.0898C274.396 62.0898 270.343 66.1426 270.343 71.142C270.343 76.1414 274.396 80.1942 279.395 80.1942Z" fill="#00000A"/>
<path d="M249.685 55.9985L256.247 63.4276" stroke="#00000A" stroke-width="5.8176" stroke-miterlimit="10"/>
<path d="M262.233 47.813L266.503 56.7604" stroke="#00000A" stroke-width="5.8176" stroke-miterlimit="10"/>
<path d="M308.478 55.0498L301.916 62.4789" stroke="#00000A" stroke-width="5.8176" stroke-miterlimit="10"/>
<path d="M295.928 46.8647L291.658 55.8064" stroke="#00000A" stroke-width="5.8176" stroke-miterlimit="10"/>
<path d="M278.686 44.1362L278.72 54.0436" stroke="#00000A" stroke-width="5.8176" stroke-miterlimit="10"/>
<path d="M169.594 107.056L207.257 114.124L173.585 132.985L169.594 107.056Z" fill="white"/>
<path d="M177.57 159.572L168.512 107.318" stroke="#00000A" stroke-width="6.98111" stroke-miterlimit="10"/>
<path d="M145.167 111.686L156.25 114.571" stroke="#FFC759" stroke-width="5.8176" stroke-miterlimit="10"/>
<path d="M149.973 97.7749L159.403 105.425" stroke="#FFC759" stroke-width="5.8176" stroke-miterlimit="10"/>
<path d="M166.804 94.6636L166.856 106.229" stroke="#FFC759" stroke-width="5.8176" stroke-miterlimit="10"/>
</g>
<defs>
<clipPath id="clip0_2935_6777">
<rect width="325" height="251.279" fill="white" transform="translate(0 0.983887)"/>
</clipPath>
</defs>
</svg>
