<svg width="276" height="289" viewBox="0 0 276 289" fill="none" xmlns="http://www.w3.org/2000/svg">
<g clip-path="url(#clip0_2955_3152)">
<path d="M0 181.966C0 185.079 0.133467 188.163 0.395458 191.212C0.944156 197.646 2.06627 203.917 3.70742 209.975C4.15231 211.62 4.6318 213.246 5.15578 214.862C18.6903 256.797 57.3958 287.43 103.481 288.937C104.253 288.967 105.024 288.981 105.8 288.991C106.225 289.001 106.65 289.001 107.075 289.001H276.005V196.232C276.005 129.239 221.679 74.9258 154.659 74.9258H107.075C47.9394 74.9258 0 122.849 0 181.966Z" fill="#FFF3D3"/>
<path d="M3.70752 209.975C4.15241 211.62 4.6319 213.246 5.15588 214.862C18.9129 257.498 58.7009 288.448 105.8 288.996C106.225 289.006 106.65 289.006 107.075 289.006H140.635C142.835 283.061 144.011 276.795 144.011 270.322C144.011 266.057 143.502 261.876 142.523 257.824C134.663 225.195 96.5709 200.438 50.7621 200.438C33.5992 200.438 17.5238 203.911 3.70752 209.98V209.975Z" fill="#FFD68A"/>
<path d="M162.879 289.001H276.005V204.366C227.359 215.258 186.468 246.652 162.879 289.001Z" fill="#FFD68A"/>
<path d="M88.3207 242.001C88.3207 242.001 144.58 240.524 147.091 190.856C147.091 190.856 125.939 179.07 104.302 198.466C82.6657 217.866 88.3207 241.996 88.3207 241.996V242.001Z" fill="#505ECE"/>
<path d="M218.204 134.22C218.204 134.22 220.631 190.426 171.238 196.376C171.238 196.376 158.01 176.096 175.87 153.176C193.73 130.252 218.204 134.22 218.204 134.22V134.22Z" fill="#505ECE"/>
<path d="M197.037 157.361C197.037 157.361 178.297 174.331 171.9 194.611" stroke="black" stroke-width="5.93187" stroke-miterlimit="10"/>
<path d="M109.947 219.289C109.947 219.289 125.582 199.424 145.375 191.641" stroke="black" stroke-width="5.93187" stroke-miterlimit="10"/>
<path d="M228.654 272.718L234.66 272.555C234.615 270.855 234.605 269.017 234.595 267.07C234.516 250.772 234.393 226.148 210.962 208.734C195.06 196.918 177.882 193.815 161.263 190.811C150.921 188.943 141.159 187.179 131.786 183.448C102.957 171.958 112.572 121.648 112.676 121.139L106.783 119.968C106.67 120.526 104.07 133.844 105.385 148.945C107.184 169.582 115.543 183.443 129.562 189.027C139.493 192.985 150.017 194.883 160.195 196.721C176.127 199.597 192.608 202.577 207.378 213.552C228.402 229.177 228.51 251.093 228.589 267.099C228.599 269.081 228.609 270.954 228.659 272.723L228.654 272.718Z" fill="black"/>
<path d="M18.9224 65.6701C23.6629 66.189 29.1202 71.1009 29.6936 76.4379C30.2127 71.1998 34.8791 66.5892 40.4649 65.6701C35.1757 64.6521 30.5637 60.684 29.6936 54.9023C28.7742 60.5852 23.8162 64.8004 18.9224 65.6701Z" fill="#FFD68A"/>
<path d="M163.779 49.8029C168.519 50.3218 173.977 55.2337 174.55 60.5707C175.069 55.3326 179.736 50.7221 185.321 49.8029C180.032 48.7849 175.42 44.8168 174.55 39.0352C173.631 44.718 168.673 48.9332 163.779 49.8029Z" fill="#FFD68A"/>
<path d="M104.89 16.076C111.969 16.8519 120.12 24.1852 120.97 32.1511C121.747 24.3334 128.712 17.4448 137.051 16.076C129.156 14.5589 122.266 8.63396 120.97 0.000976562C119.601 8.48571 112.191 14.7813 104.89 16.076Z" fill="#FFD68A"/>
<path d="M53.9155 87.6504L53.9748 87.7146L104.885 145.171L108.538 149.297L111.86 145.551L111.993 145.398L163.092 87.7294L163.106 87.6998L163.027 87.5911L142.854 59.9082L71.3602 61.0052L53.9155 87.6504Z" fill="#FF5A5E"/>
<path d="M89.3433 87.8975L104.885 145.171L108.538 149.297L111.993 145.403L125.117 88.0259L89.3433 87.8975Z" fill="#FF8B7C"/>
<path d="M53.9155 87.6504L53.9748 87.7146C62.5859 87.7245 157.273 87.8777 163.092 87.7245L163.111 87.6998L142.859 59.9082L71.3602 61.0052L53.9155 87.6454V87.6504Z" fill="#FF8B7C"/>
<path d="M71.355 61.0052L89.3038 87.853L107.332 60.4814L118.167 77.1396L125.187 87.9321L125.197 87.9419L125.335 87.7196L142.854 59.9082L107.421 60.4518L71.355 61.0052Z" fill="#FF5A5E"/>
<path d="M107.337 60.4814L125.157 87.9815L89.3042 87.8579L107.337 60.4814Z" fill="#FFD5CF"/>
<path d="M107.421 60.4518L118.168 77.1396L125.153 87.9815L125.187 87.9321L125.336 87.7196L142.854 59.9082L107.421 60.4518Z" fill="#FF5A5E"/>
<path d="M111.86 145.551L111.994 145.398L163.092 87.7292L163.107 87.6995L163.028 87.5908L125.153 87.9812L111.86 145.551Z" fill="#FF5A5E"/>
<path d="M103.476 288.937C104.247 288.966 105.018 288.981 105.795 288.991C106.22 289.001 106.645 289.001 107.07 289.001H276V284.544C257.809 261.362 226.686 246.083 191.352 246.083C179.112 246.083 167.387 247.911 156.522 251.272C134.065 258.205 115.32 271.661 103.471 288.937H103.476Z" fill="#FFC759"/>
</g>
<defs>
<clipPath id="clip0_2955_3152">
<rect width="276" height="289" fill="white"/>
</clipPath>
</defs>
</svg>
