<svg width="312" height="260" viewBox="0 0 312 260" fill="none" xmlns="http://www.w3.org/2000/svg">
<g clip-path="url(#clip0_2935_6779)">
<path d="M312 145.939C312 149.223 311.857 152.474 311.581 155.692C311.001 162.475 309.816 169.091 308.094 175.488C307.623 177.226 307.119 178.939 306.567 180.643C292.304 224.877 251.503 257.192 202.928 258.787C202.115 258.82 201.301 258.834 200.483 258.844C200.036 258.853 199.584 258.853 199.137 258.853H21.0854V160.994C21.0854 90.3242 78.3425 33.0293 148.987 33.0293H199.141C261.465 33.0293 312 83.5794 312 145.944V145.939Z" fill="#E4E2F6"/>
<path d="M116.95 110.863C107.535 100.834 100.984 88.1824 98.6953 73.8503C95.1605 51.7263 102.516 30.2306 116.979 14.2754" stroke="#307288" stroke-width="12" stroke-miterlimit="10"/>
<path d="M127.801 14.329C131.747 10.7389 132.629 5.27892 129.771 2.1339C126.912 -1.01113 121.396 -0.650282 117.45 2.93988C113.503 6.53003 112.621 11.99 115.48 15.135C118.338 18.28 123.854 17.9192 127.801 14.329Z" fill="#307288"/>
<path d="M101.294 33.4513C105.424 32.4532 107.756 27.439 106.504 22.2516C105.252 17.0643 100.888 13.6683 96.7584 14.6664C92.6285 15.6645 90.2958 20.6788 91.5482 25.8661C92.8006 31.0534 97.1638 34.4494 101.294 33.4513Z" fill="#307288"/>
<path d="M95.0571 57.288C98.1481 54.3716 97.6874 48.8601 94.028 44.9776C90.3686 41.0951 84.8962 40.3119 81.8051 43.2283C78.7141 46.1446 79.1748 51.6562 82.8342 55.5387C86.4936 59.4211 91.966 60.2043 95.0571 57.288Z" fill="#307288"/>
<path d="M98.0003 79.6626C98.8401 75.4956 95.2822 71.2626 90.0536 70.2078C84.825 69.153 79.9055 71.6758 79.0657 75.8428C78.2259 80.0097 81.7838 84.2428 87.0125 85.2976C92.2411 86.3524 97.1605 83.8295 98.0003 79.6626Z" fill="#307288"/>
<path d="M100.786 110.373C105.871 108.76 108.952 104.168 107.668 100.116C106.384 96.0638 101.221 94.0864 96.1364 95.6991C91.052 97.3118 87.971 101.904 89.255 105.956C90.539 110.008 95.7016 111.986 100.786 110.373Z" fill="#307288"/>
<path d="M201.53 4.42676C212.815 12.2901 221.845 23.3093 227.049 36.856C235.09 57.771 232.34 80.3234 221.492 98.9298" stroke="#307288" stroke-width="12" stroke-miterlimit="10"/>
<path d="M223.364 110.101C226.482 105.772 226.215 100.247 222.767 97.7625C219.32 95.2777 213.998 96.7735 210.88 101.103C207.762 105.433 208.029 110.958 211.477 113.442C214.924 115.927 220.246 114.431 223.364 110.101Z" fill="#307288"/>
<path d="M241.191 94.3721C245.025 92.54 246.269 87.1512 243.971 82.3358C241.672 77.5203 236.7 75.1018 232.866 76.9338C229.033 78.7658 227.788 84.1547 230.087 88.9701C232.386 93.7856 237.357 96.2041 241.191 94.3721Z" fill="#307288"/>
<path d="M249.928 63.3405C252.348 59.847 250.757 54.5503 246.373 51.51C241.99 48.4698 236.474 48.8372 234.053 52.3307C231.633 55.8242 233.224 61.1209 237.608 64.1611C241.992 67.2014 247.507 66.834 249.928 63.3405Z" fill="#307288"/>
<path d="M236.258 38.6409C241.592 38.5897 245.882 35.1023 245.842 30.8517C245.801 26.6011 241.444 23.1968 236.11 23.2481C230.777 23.2993 226.486 26.7866 226.527 31.0372C226.568 35.2878 230.925 38.6921 236.258 38.6409Z" fill="#307288"/>
<path d="M225.026 14.9245C229.667 12.2934 231.731 7.1625 229.636 3.46425C227.541 -0.233994 222.081 -1.09912 217.441 1.53194C212.8 4.163 210.736 9.29392 212.831 12.9922C214.926 16.6904 220.386 17.5555 225.026 14.9245Z" fill="#307288"/>
<path d="M163.703 18.9309C139.715 19.3545 120.614 39.2318 121.037 63.3217C121.17 70.79 123.164 77.7823 126.57 83.8702C127.074 84.7793 127.612 85.6647 128.183 86.531C130.761 90.4626 133.954 93.9421 137.627 96.8409C145.215 102.843 154.839 106.351 165.249 106.17C175.249 105.994 184.403 102.429 191.644 96.5934C195.25 93.6946 198.38 90.2246 200.897 86.331C201.359 85.6171 201.806 84.884 202.229 84.1415C205.969 77.5633 208.052 69.9094 207.91 61.7795C207.482 37.6896 187.69 18.5025 163.698 18.9309H163.703Z" fill="#FF5A5F"/>
<path d="M178.798 45.3909C178.822 46.8664 178.622 48.2896 178.218 49.6272C176.529 55.2248 171.381 59.3517 165.225 59.4611C158.717 59.5754 153.184 55.1772 151.614 49.1417C151.333 48.0992 151.181 47.0045 151.162 45.8811C151.029 38.2463 157.104 31.9489 164.74 31.8156C172.371 31.6824 178.67 37.756 178.808 45.3909H178.798Z" fill="#FFD5CF"/>
<path d="M201.972 84.1506C201.549 84.8931 201.102 85.6262 200.64 86.3401C198.119 90.2337 194.993 93.7037 191.387 96.6025C184.141 102.438 174.992 106.003 164.992 106.179C154.582 106.365 144.958 102.852 137.37 96.85C133.697 93.9465 130.504 90.4717 127.926 86.5401C127.36 85.6738 126.822 84.7884 126.313 83.8793C131.232 78.2816 140.01 72.0652 147.527 69.5234C147.555 69.5139 147.584 69.4996 147.617 69.4949C151.105 68.3096 154.83 67.4909 158.736 67.0816C160.287 66.9197 161.861 66.8245 163.465 66.796C165.729 66.7579 167.97 66.8579 170.14 67.0863C173.094 67.4005 175.948 67.9526 178.67 68.719C179.493 68.9475 180.335 69.2378 181.196 69.5758C188.385 72.3889 196.715 78.6672 201.977 84.1553L201.972 84.1506Z" fill="#394BB2"/>
<path d="M178.798 45.3907C178.822 46.8663 178.622 48.2895 178.218 49.6271L165.372 37.3084L151.609 49.1368C151.328 48.0944 151.176 46.9996 151.157 45.8762C151.024 38.2414 157.099 31.944 164.735 31.8107C172.366 31.6775 178.665 37.7511 178.803 45.386L178.798 45.3907Z" fill="#00000A"/>
<path d="M181.453 69.5668L176.891 83.6895L164.716 76.5877L153.835 84.2702L147.874 69.4859C152.741 67.8342 158.093 66.887 163.722 66.7871C169.074 66.6919 174.203 67.3773 178.927 68.7053C179.75 68.9338 180.592 69.2241 181.453 69.5621V69.5668Z" fill="#00000A"/>
<path d="M170.14 67.0816L164.635 76.6728C164.635 76.6728 160.915 70.6229 158.736 67.0816C160.287 66.9197 161.862 66.8245 163.465 66.796C165.729 66.7579 167.97 66.8579 170.14 67.0863V67.0816Z" fill="#FFD5CF"/>
<path d="M158.108 204.31V259.258L86.0117 260C86.1592 258.801 86.1687 246.835 86.1354 234.306C86.1021 219.694 86.0117 204.31 86.0117 204.31H158.108Z" fill="#505ECE"/>
<path d="M246.622 135.158C236.793 146.025 218.842 165.697 206.773 178.916C199.103 187.312 187.609 191.11 176.453 188.926L161.985 186.098L158.212 185.361L158.184 192.001L158.112 207.846L86.0165 207.637C86.0165 207.637 84.9746 185.984 87.2629 173.494C89.5561 161.009 94.1328 151.223 108.072 140.399C117.573 133.021 132.046 129.836 140.134 130.407C157.798 131.659 169.036 134.363 182.561 136.448C193.028 138.314 195.987 143.235 196.815 146.12C197.191 147.429 197.129 148.309 197.129 148.309L203.49 143.821L203.571 143.764L203.59 143.745L234.747 121.744C236.303 120.645 238.12 120.093 239.942 120.093C241.564 120.093 243.187 120.531 244.633 121.411C249.462 124.353 250.428 130.964 246.631 135.163L246.622 135.158Z" fill="#FF8B7C"/>
<path d="M161.99 186.079L161.985 186.098L158.212 185.36L158.184 192.005L140.115 186.698L142.008 180.21L161.99 186.079Z" fill="#FF5A5F"/>
<path d="M203.647 143.997C203.623 143.916 203.604 143.839 203.566 143.758L203.585 143.739C203.609 143.83 203.623 143.92 203.647 143.992V143.997Z" fill="#FF5A5F"/>
<path d="M203.775 145.829L203.585 145.981C203.461 150.437 202.048 153.911 199.384 156.329C196.768 158.705 193.114 159.899 188.47 159.899C186.853 159.899 185.112 159.752 183.251 159.461L145.962 153.612L147.008 146.933L184.298 152.783C189.284 153.573 192.433 153.14 194.784 152.079C196.829 151.151 197.129 148.314 197.129 148.314L203.49 143.825H203.547C203.585 144.496 203.604 145.153 203.585 145.796L203.775 145.834V145.829Z" fill="#FF5A5F"/>
<path d="M158.108 204.31V229.028H86.1354C86.1021 216.985 86.0117 204.31 86.0117 204.31H158.108V204.31Z" fill="#00000A"/>
<path d="M241.669 185.522C231.331 185.522 222.943 193.943 222.943 204.324C222.943 207.542 223.752 210.574 225.175 213.22C225.384 213.615 225.608 214.001 225.845 214.382C226.036 214.691 226.24 214.991 226.454 215.281C227.415 216.633 228.553 217.847 229.832 218.899C233.058 221.541 237.173 223.126 241.664 223.126C246.155 223.126 249.947 221.664 253.116 219.204C254.614 218.042 255.932 216.652 257.012 215.096C257.074 215.015 257.131 214.934 257.183 214.853C257.388 214.548 257.583 214.239 257.773 213.92C259.434 211.116 260.39 207.832 260.39 204.329C260.39 193.947 252.007 185.527 241.664 185.527L241.669 185.522Z" fill="#BBBBFC"/>
<path d="M247.982 196.975C247.982 197.679 247.873 198.355 247.668 198.993C246.817 201.654 244.319 203.582 241.379 203.582C238.272 203.582 235.665 201.43 234.966 198.536C234.842 198.036 234.775 197.513 234.775 196.975C234.775 193.329 237.735 190.373 241.379 190.373C245.023 190.373 247.982 193.329 247.982 196.975Z" fill="#505ECE"/>
<path d="M257.012 215.096C255.932 216.652 254.619 218.042 253.116 219.203C249.947 221.664 245.979 223.126 241.664 223.126C237.349 223.126 233.058 221.541 229.832 218.899C228.552 217.847 227.415 216.633 226.454 215.281C229.171 209.917 235.008 206.204 241.778 206.204C248.548 206.204 254.253 209.826 257.007 215.096H257.012Z" fill="#505ECE"/>
<path d="M31.043 120.045C13.9016 120.045 0 134.01 0 151.222C0 156.558 1.33687 161.585 3.69661 165.973C4.04867 166.63 4.415 167.268 4.80988 167.901C5.12864 168.41 5.46642 168.91 5.82324 169.396C7.41702 171.633 9.30576 173.651 11.4276 175.393C16.7751 179.777 23.6022 182.404 31.043 182.404C38.4838 182.404 44.7733 179.982 50.0256 175.898C52.5138 173.97 54.6928 171.671 56.4816 169.086C56.5815 168.953 56.6814 168.82 56.7671 168.686C57.1048 168.182 57.4284 167.668 57.7424 167.135C60.497 162.484 62.0812 157.039 62.0812 151.227C62.0812 134.015 48.1844 120.05 31.0382 120.05L31.043 120.045Z" fill="#BBBBFC"/>
<path d="M41.5145 139.041C41.5145 140.208 41.3337 141.331 40.9959 142.392C39.5781 146.8 35.4438 149.999 30.5674 149.999C25.4149 149.999 21.0903 146.434 19.9295 141.631C19.7249 140.803 19.6155 139.931 19.6155 139.041C19.6155 132.992 24.5205 128.089 30.5626 128.089C36.6047 128.089 41.5097 132.992 41.5097 139.041H41.5145Z" fill="#505ECE"/>
<path d="M56.4863 169.081C54.6974 171.666 52.5137 173.965 50.0303 175.893C44.7779 179.977 38.1982 182.399 31.0476 182.399C23.8971 182.399 16.7798 179.772 11.4323 175.388C9.31041 173.646 7.42166 171.633 5.82788 169.391C10.3285 160.494 20.0101 154.34 31.2379 154.34C42.4658 154.34 51.9238 160.347 56.4863 169.081V169.081Z" fill="#505ECE"/>
<path d="M98.8381 221.959C101.303 221.959 103.301 219.96 103.301 217.494C103.301 215.028 101.303 213.029 98.8381 213.029C96.3735 213.029 94.3755 215.028 94.3755 217.494C94.3755 219.96 96.3735 221.959 98.8381 221.959Z" fill="#505ECE"/>
</g>
<defs>
<clipPath id="clip0_2935_6779">
<rect width="312" height="260" fill="white"/>
</clipPath>
</defs>
</svg>
