<svg width="543" height="537" viewBox="0 0 543 537" fill="none" xmlns="http://www.w3.org/2000/svg">
<g clip-path="url(#clip0_3304_2080)">
<rect width="543" height="537" rx="16" fill="#E5E2F6"/>
<path opacity="0.1" d="M-124 173C-211.08 218.594 -54.9999 139 -55.4999 184C-68.8332 245.333 -89.2999 403.6 -64.4999 546C-33.4999 724 -44.4999 582 11.0001 597.5C66.5001 613 146 597.5 246.5 597.5C347 597.5 412 600.5 491 597.5C554.2 595.1 581.333 553.166 587 532.5C607.167 425.666 639.4 225.299 607 278.499C566.5 344.999 493.635 292.224 469.5 222.5C438 131.499 418.373 -19.9899 246.5 35.4989C-55.4999 132.999 -7.50015 112.002 -124 173Z" fill="#505ECE"/>
<path d="M0 81.1094H454.492C462.324 81.1094 466.24 81.1094 469.232 82.6336C471.863 83.9743 474.002 86.1136 475.343 88.745C476.867 91.7364 476.867 95.6524 476.867 103.484V537H0V81.1094Z" fill="white"/>
<path d="M85.4893 221.773L89.9699 209.271H91.9165L96.3971 221.773H94.6351L93.6114 218.837H88.275L87.2513 221.773H85.4893ZM88.7952 217.326H93.0912L90.7083 210.463H91.1781L88.7952 217.326ZM97.4522 221.773V212.728H98.9793V214.574L98.7612 214.289C98.9849 213.718 99.3429 213.282 99.8352 212.98C100.327 212.678 100.881 212.527 101.496 212.527C102.201 212.527 102.833 212.723 103.393 213.114C103.963 213.506 104.355 214.02 104.567 214.658L104.131 214.675C104.366 213.97 104.763 213.439 105.323 213.081C105.882 212.712 106.503 212.527 107.185 212.527C107.812 212.527 108.377 212.672 108.88 212.963C109.395 213.254 109.803 213.657 110.105 214.172C110.407 214.686 110.558 215.268 110.558 215.917V221.773H108.981V216.42C108.981 215.917 108.891 215.492 108.712 215.145C108.533 214.798 108.287 214.53 107.974 214.339C107.672 214.138 107.314 214.037 106.9 214.037C106.497 214.037 106.134 214.138 105.809 214.339C105.496 214.53 105.244 214.804 105.054 215.162C104.875 215.508 104.786 215.928 104.786 216.42V221.773H103.208V216.42C103.208 215.917 103.119 215.492 102.94 215.145C102.761 214.798 102.515 214.53 102.201 214.339C101.899 214.138 101.541 214.037 101.127 214.037C100.725 214.037 100.361 214.138 100.037 214.339C99.7233 214.53 99.4716 214.804 99.2814 215.162C99.1024 215.508 99.0129 215.928 99.0129 216.42V221.773H97.4522ZM116.735 221.975C115.863 221.975 115.074 221.773 114.369 221.371C113.664 220.957 113.105 220.392 112.691 219.676C112.277 218.96 112.07 218.149 112.07 217.242C112.07 216.336 112.272 215.531 112.674 214.826C113.088 214.121 113.648 213.562 114.352 213.148C115.057 212.734 115.852 212.527 116.735 212.527C117.608 212.527 118.397 212.734 119.101 213.148C119.806 213.551 120.36 214.104 120.763 214.809C121.177 215.514 121.384 216.325 121.384 217.242C121.384 218.16 121.171 218.977 120.746 219.693C120.321 220.397 119.756 220.957 119.051 221.371C118.358 221.773 117.586 221.975 116.735 221.975ZM116.735 220.464C117.295 220.464 117.798 220.325 118.246 220.045C118.704 219.765 119.062 219.379 119.32 218.887C119.588 218.395 119.722 217.847 119.722 217.242C119.722 216.627 119.588 216.085 119.32 215.615C119.062 215.134 118.704 214.753 118.246 214.474C117.798 214.183 117.295 214.037 116.735 214.037C116.165 214.037 115.65 214.183 115.191 214.474C114.744 214.753 114.386 215.134 114.117 215.615C113.849 216.085 113.715 216.627 113.715 217.242C113.715 217.847 113.849 218.395 114.117 218.887C114.386 219.379 114.744 219.765 115.191 220.045C115.65 220.325 116.165 220.464 116.735 220.464ZM126.289 221.975C125.64 221.975 125.053 221.824 124.527 221.522C124.012 221.22 123.609 220.8 123.319 220.263C123.039 219.715 122.899 219.088 122.899 218.384V212.728H124.46V218.216C124.46 218.663 124.549 219.055 124.728 219.39C124.918 219.726 125.176 219.989 125.5 220.179C125.836 220.369 126.216 220.464 126.641 220.464C127.066 220.464 127.441 220.369 127.766 220.179C128.101 219.989 128.359 219.715 128.538 219.357C128.728 218.999 128.823 218.574 128.823 218.082V212.728H130.4V221.773H128.873V220.011L129.125 220.162C128.912 220.733 128.549 221.18 128.034 221.505C127.531 221.818 126.949 221.975 126.289 221.975ZM132.482 221.773V212.728H134.01V214.49L133.758 214.339C133.982 213.769 134.34 213.327 134.832 213.014C135.335 212.689 135.923 212.527 136.594 212.527C137.243 212.527 137.819 212.672 138.322 212.963C138.837 213.254 139.24 213.657 139.531 214.172C139.833 214.686 139.984 215.268 139.984 215.917V221.773H138.406V216.42C138.406 215.917 138.317 215.492 138.138 215.145C137.959 214.798 137.701 214.53 137.366 214.339C137.041 214.138 136.667 214.037 136.241 214.037C135.816 214.037 135.436 214.138 135.1 214.339C134.776 214.53 134.519 214.804 134.328 215.162C134.138 215.508 134.043 215.928 134.043 216.42V221.773H132.482ZM145.556 221.874C144.673 221.874 143.99 221.622 143.509 221.119C143.039 220.616 142.804 219.905 142.804 218.988V214.222H141.16V212.728H141.495C141.898 212.728 142.217 212.605 142.452 212.359C142.687 212.113 142.804 211.789 142.804 211.386V210.647H144.365V212.728H146.395V214.222H144.365V218.937C144.365 219.239 144.41 219.502 144.499 219.726C144.6 219.95 144.762 220.129 144.986 220.263C145.21 220.386 145.506 220.448 145.875 220.448C145.953 220.448 146.049 220.442 146.16 220.431C146.284 220.42 146.395 220.409 146.496 220.397V221.773C146.351 221.807 146.188 221.829 146.009 221.841C145.83 221.863 145.679 221.874 145.556 221.874Z" fill="#90A3BF"/>
<path d="M176.216 213.141L171.657 217.7C171.119 218.238 170.238 218.238 169.7 217.7L165.141 213.141" stroke="#90A3BF" stroke-width="2.09766" stroke-miterlimit="10" stroke-linecap="round" stroke-linejoin="round"/>
<path d="M296.564 221.975C295.77 221.975 295.042 221.829 294.382 221.538C293.722 221.236 293.163 220.828 292.704 220.313C292.245 219.799 291.915 219.223 291.714 218.585L293.14 217.998C293.443 218.803 293.89 219.424 294.483 219.86C295.087 220.285 295.792 220.498 296.597 220.498C297.09 220.498 297.52 220.42 297.89 220.263C298.259 220.106 298.544 219.888 298.745 219.609C298.958 219.318 299.064 218.982 299.064 218.602C299.064 218.076 298.913 217.662 298.611 217.36C298.32 217.047 297.89 216.812 297.319 216.655L295.02 215.95C294.114 215.671 293.42 215.229 292.939 214.625C292.458 214.02 292.218 213.327 292.218 212.544C292.218 211.861 292.38 211.263 292.704 210.748C293.04 210.222 293.498 209.814 294.08 209.523C294.673 209.221 295.344 209.07 296.094 209.07C296.844 209.07 297.52 209.204 298.125 209.473C298.74 209.741 299.26 210.105 299.685 210.564C300.11 211.011 300.424 211.526 300.625 212.107L299.215 212.695C298.947 211.99 298.544 211.459 298.007 211.101C297.47 210.731 296.838 210.547 296.111 210.547C295.663 210.547 295.266 210.625 294.919 210.782C294.584 210.927 294.321 211.145 294.131 211.436C293.952 211.716 293.862 212.051 293.862 212.443C293.862 212.902 294.008 213.31 294.298 213.668C294.589 214.026 295.031 214.3 295.624 214.49L297.722 215.111C298.706 215.413 299.45 215.844 299.954 216.403C300.457 216.963 300.709 217.656 300.709 218.484C300.709 219.167 300.53 219.771 300.172 220.297C299.825 220.822 299.338 221.236 298.712 221.538C298.097 221.829 297.381 221.975 296.564 221.975ZM306.272 221.874C305.388 221.874 304.705 221.622 304.224 221.119C303.754 220.616 303.519 219.905 303.519 218.988V214.222H301.875V212.728H302.21C302.613 212.728 302.932 212.605 303.167 212.359C303.402 212.113 303.519 211.789 303.519 211.386V210.647H305.08V212.728H307.111V214.222H305.08V218.937C305.08 219.239 305.125 219.502 305.214 219.726C305.315 219.95 305.477 220.129 305.701 220.263C305.925 220.386 306.221 220.448 306.59 220.448C306.669 220.448 306.764 220.442 306.876 220.431C306.999 220.42 307.111 220.409 307.211 220.397V221.773C307.066 221.807 306.904 221.829 306.725 221.841C306.546 221.863 306.395 221.874 306.272 221.874ZM311.451 221.975C310.858 221.975 310.332 221.869 309.874 221.656C309.426 221.432 309.074 221.13 308.816 220.75C308.559 220.358 308.43 219.911 308.43 219.407C308.43 218.926 308.531 218.495 308.732 218.115C308.945 217.724 309.269 217.394 309.706 217.125C310.153 216.857 310.713 216.666 311.384 216.554L314.74 216.001V217.31L311.736 217.813C311.155 217.914 310.729 218.098 310.461 218.367C310.204 218.635 310.075 218.965 310.075 219.357C310.075 219.726 310.22 220.034 310.511 220.28C310.813 220.526 311.188 220.649 311.636 220.649C312.206 220.649 312.698 220.532 313.112 220.297C313.538 220.051 313.868 219.721 314.102 219.307C314.349 218.893 314.472 218.434 314.472 217.931V215.631C314.472 215.139 314.287 214.742 313.918 214.44C313.56 214.127 313.084 213.97 312.491 213.97C311.977 213.97 311.518 214.104 311.115 214.373C310.724 214.63 310.433 214.977 310.243 215.413L308.884 214.709C309.051 214.295 309.32 213.925 309.689 213.601C310.058 213.265 310.489 213.002 310.981 212.812C311.473 212.622 311.988 212.527 312.525 212.527C313.219 212.527 313.828 212.661 314.354 212.93C314.88 213.187 315.288 213.551 315.579 214.02C315.881 214.479 316.032 215.016 316.032 215.631V221.773H314.505V220.062L314.791 220.162C314.6 220.52 314.343 220.834 314.019 221.102C313.694 221.371 313.314 221.583 312.877 221.74C312.441 221.897 311.966 221.975 311.451 221.975ZM321.628 221.874C320.744 221.874 320.061 221.622 319.58 221.119C319.111 220.616 318.876 219.905 318.876 218.988V214.222H317.231V212.728H317.567C317.969 212.728 318.288 212.605 318.523 212.359C318.758 212.113 318.876 211.789 318.876 211.386V210.647H320.436V212.728H322.467V214.222H320.436V218.937C320.436 219.239 320.481 219.502 320.57 219.726C320.671 219.95 320.833 220.129 321.057 220.263C321.281 220.386 321.577 220.448 321.947 220.448C322.025 220.448 322.12 220.442 322.232 220.431C322.355 220.42 322.467 220.409 322.567 220.397V221.773C322.422 221.807 322.26 221.829 322.081 221.841C321.902 221.863 321.751 221.874 321.628 221.874ZM327.476 221.975C326.827 221.975 326.239 221.824 325.714 221.522C325.199 221.22 324.796 220.8 324.505 220.263C324.226 219.715 324.086 219.088 324.086 218.384V212.728H325.647V218.216C325.647 218.663 325.736 219.055 325.915 219.39C326.105 219.726 326.363 219.989 326.687 220.179C327.023 220.369 327.403 220.464 327.828 220.464C328.253 220.464 328.628 220.369 328.952 220.179C329.288 219.989 329.545 219.715 329.724 219.357C329.915 218.999 330.01 218.574 330.01 218.082V212.728H331.587V221.773H330.06V220.011L330.312 220.162C330.099 220.733 329.736 221.18 329.221 221.505C328.718 221.818 328.136 221.975 327.476 221.975ZM336.908 221.975C336.002 221.975 335.213 221.751 334.542 221.304C333.871 220.856 333.395 220.252 333.116 219.491L334.357 218.887C334.615 219.424 334.967 219.849 335.415 220.162C335.862 220.476 336.36 220.632 336.908 220.632C337.4 220.632 337.809 220.515 338.133 220.28C338.458 220.045 338.62 219.737 338.62 219.357C338.62 219.088 338.541 218.876 338.385 218.719C338.239 218.551 338.06 218.423 337.848 218.333C337.635 218.233 337.439 218.16 337.26 218.115L335.901 217.729C335.085 217.494 334.486 217.159 334.106 216.722C333.736 216.286 333.552 215.777 333.552 215.195C333.552 214.658 333.686 214.194 333.955 213.802C334.234 213.4 334.609 213.086 335.079 212.863C335.56 212.639 336.097 212.527 336.69 212.527C337.484 212.527 338.195 212.728 338.821 213.131C339.459 213.534 339.912 214.099 340.18 214.826L338.905 215.413C338.704 214.943 338.402 214.574 337.999 214.306C337.596 214.026 337.143 213.886 336.64 213.886C336.181 213.886 335.817 214.004 335.549 214.239C335.28 214.462 335.146 214.748 335.146 215.094C335.146 215.352 335.213 215.564 335.347 215.732C335.482 215.889 335.644 216.012 335.834 216.101C336.024 216.18 336.209 216.247 336.388 216.303L337.865 216.739C338.603 216.952 339.174 217.282 339.576 217.729C339.99 218.177 340.197 218.714 340.197 219.34C340.197 219.844 340.057 220.297 339.778 220.699C339.498 221.102 339.112 221.415 338.62 221.639C338.128 221.863 337.557 221.975 336.908 221.975Z" fill="#90A3BF"/>
<path d="M369.787 213.141L365.228 217.7C364.689 218.238 363.808 218.238 363.27 217.7L358.711 213.141" stroke="#90A3BF" stroke-width="2.09766" stroke-miterlimit="10" stroke-linecap="round" stroke-linejoin="round"/>
<path d="M-538.398 190.188H476.867V187.391H-538.398V190.188ZM476.867 236.336H-538.398V239.133H476.867V236.336Z" fill="#F3F5F7" mask="url(#path-4-inside-1_3304_2080)"/>
<g clip-path="url(#clip1_3304_2080)">
<path d="M91.9221 304.719C91.0084 304.719 90.1601 304.55 89.3769 304.21C88.5938 303.858 87.9282 303.381 87.38 302.781C86.8318 302.181 86.4272 301.489 86.1661 300.706L88.1239 299.884C88.4763 300.784 88.9919 301.476 89.6706 301.959C90.3493 302.442 91.1324 302.683 92.02 302.683C92.5421 302.683 92.9989 302.605 93.3905 302.448C93.782 302.279 94.0822 302.044 94.291 301.743C94.5129 301.443 94.6239 301.097 94.6239 300.706C94.6239 300.171 94.4738 299.746 94.1736 299.433C93.8734 299.12 93.4296 298.872 92.8423 298.689L90.1013 297.828C89.005 297.488 88.1696 296.973 87.5953 296.281C87.021 295.576 86.7339 294.754 86.7339 293.814C86.7339 292.992 86.9362 292.274 87.3408 291.661C87.7454 291.034 88.3001 290.545 89.005 290.192C89.7228 289.84 90.5386 289.664 91.4522 289.664C92.3267 289.664 93.1229 289.82 93.8408 290.134C94.5586 290.434 95.1721 290.851 95.6811 291.387C96.2032 291.922 96.5817 292.542 96.8166 293.247L94.898 294.088C94.6108 293.318 94.1605 292.724 93.5471 292.307C92.9467 291.889 92.2484 291.68 91.4522 291.68C90.9693 291.68 90.5451 291.765 90.1796 291.935C89.8142 292.091 89.527 292.326 89.3182 292.64C89.1224 292.94 89.0245 293.292 89.0245 293.697C89.0245 294.167 89.1746 294.584 89.4748 294.95C89.775 295.315 90.2318 295.589 90.8453 295.772L93.3905 296.575C94.5521 296.927 95.4266 297.436 96.0139 298.102C96.6013 298.755 96.8949 299.57 96.8949 300.549C96.8949 301.358 96.6796 302.076 96.2489 302.703C95.8312 303.329 95.2504 303.825 94.5064 304.191C93.7624 304.543 92.901 304.719 91.9221 304.719ZM91.0215 306.442V287.941H92.5878V306.442H91.0215ZM98.5681 304.484V302.82L102.562 298.552C103.345 297.717 103.959 297.045 104.402 296.536C104.859 296.014 105.186 295.557 105.381 295.165C105.59 294.774 105.695 294.362 105.695 293.932C105.695 293.227 105.479 292.685 105.048 292.307C104.618 291.915 104.063 291.719 103.384 291.719C102.68 291.719 102.073 291.922 101.564 292.326C101.055 292.718 100.702 293.292 100.506 294.049L98.4702 293.462C98.6268 292.692 98.9401 292.026 99.41 291.465C99.8798 290.891 100.454 290.447 101.133 290.134C101.825 289.82 102.569 289.664 103.365 289.664C104.291 289.664 105.101 289.84 105.792 290.192C106.484 290.532 107.019 291.008 107.398 291.622C107.789 292.235 107.985 292.946 107.985 293.756C107.985 294.291 107.881 294.813 107.672 295.322C107.476 295.818 107.169 296.346 106.752 296.908C106.334 297.456 105.799 298.076 105.146 298.768L101.622 302.527H108.259V304.484H98.5681ZM110.759 307.362V306.286C111.189 306.181 111.522 305.979 111.757 305.679C111.992 305.391 112.136 304.993 112.188 304.484H111.15V301.939H113.402V303.603C113.402 304.648 113.18 305.489 112.736 306.129C112.292 306.768 111.633 307.18 110.759 307.362ZM121.96 304.719C120.798 304.719 119.78 304.406 118.905 303.78C118.031 303.14 117.346 302.259 116.85 301.137C116.367 300.001 116.125 298.683 116.125 297.182C116.125 295.668 116.367 294.349 116.85 293.227C117.346 292.104 118.024 291.23 118.886 290.603C119.76 289.977 120.778 289.664 121.94 289.664C123.102 289.664 124.113 289.977 124.975 290.603C125.849 291.23 126.528 292.111 127.011 293.247C127.507 294.369 127.755 295.681 127.755 297.182C127.755 298.683 127.513 300.001 127.03 301.137C126.547 302.259 125.869 303.14 124.994 303.78C124.133 304.406 123.121 304.719 121.96 304.719ZM121.96 302.605C122.678 302.605 123.298 302.383 123.82 301.939C124.342 301.495 124.746 300.869 125.033 300.06C125.321 299.25 125.464 298.291 125.464 297.182C125.464 296.072 125.321 295.113 125.033 294.304C124.746 293.495 124.342 292.868 123.82 292.424C123.298 291.98 122.671 291.759 121.94 291.759C121.222 291.759 120.602 291.98 120.08 292.424C119.558 292.868 119.153 293.495 118.866 294.304C118.579 295.113 118.436 296.072 118.436 297.182C118.436 298.278 118.579 299.237 118.866 300.06C119.153 300.869 119.558 301.495 120.08 301.939C120.615 302.383 121.242 302.605 121.96 302.605ZM135.583 304.719C134.421 304.719 133.403 304.406 132.528 303.78C131.654 303.14 130.969 302.259 130.473 301.137C129.99 300.001 129.748 298.683 129.748 297.182C129.748 295.668 129.99 294.349 130.473 293.227C130.969 292.104 131.647 291.23 132.509 290.603C133.383 289.977 134.401 289.664 135.563 289.664C136.725 289.664 137.736 289.977 138.598 290.603C139.472 291.23 140.151 292.111 140.634 293.247C141.13 294.369 141.378 295.681 141.378 297.182C141.378 298.683 141.136 300.001 140.653 301.137C140.17 302.259 139.492 303.14 138.617 303.78C137.756 304.406 136.744 304.719 135.583 304.719ZM135.583 302.605C136.3 302.605 136.92 302.383 137.442 301.939C137.965 301.495 138.369 300.869 138.656 300.06C138.943 299.25 139.087 298.291 139.087 297.182C139.087 296.072 138.943 295.113 138.656 294.304C138.369 293.495 137.965 292.868 137.442 292.424C136.92 291.98 136.294 291.759 135.563 291.759C134.845 291.759 134.225 291.98 133.703 292.424C133.181 292.868 132.776 293.495 132.489 294.304C132.202 295.113 132.058 296.072 132.058 297.182C132.058 298.278 132.202 299.237 132.489 300.06C132.776 300.869 133.181 301.495 133.703 301.939C134.238 302.383 134.865 302.605 135.583 302.605ZM149.205 304.719C148.044 304.719 147.026 304.406 146.151 303.78C145.277 303.14 144.591 302.259 144.096 301.137C143.613 300.001 143.371 298.683 143.371 297.182C143.371 295.668 143.613 294.349 144.096 293.227C144.591 292.104 145.27 291.23 146.132 290.603C147.006 289.977 148.024 289.664 149.186 289.664C150.347 289.664 151.359 289.977 152.22 290.603C153.095 291.23 153.774 292.111 154.257 293.247C154.753 294.369 155.001 295.681 155.001 297.182C155.001 298.683 154.759 300.001 154.276 301.137C153.793 302.259 153.114 303.14 152.24 303.78C151.379 304.406 150.367 304.719 149.205 304.719ZM149.205 302.605C149.923 302.605 150.543 302.383 151.065 301.939C151.587 301.495 151.992 300.869 152.279 300.06C152.566 299.25 152.71 298.291 152.71 297.182C152.71 296.072 152.566 295.113 152.279 294.304C151.992 293.495 151.587 292.868 151.065 292.424C150.543 291.98 149.917 291.759 149.186 291.759C148.468 291.759 147.848 291.98 147.326 292.424C146.804 292.868 146.399 293.495 146.112 294.304C145.825 295.113 145.681 296.072 145.681 297.182C145.681 298.278 145.825 299.237 146.112 300.06C146.399 300.869 146.804 301.495 147.326 301.939C147.861 302.383 148.488 302.605 149.205 302.605ZM158.071 304.484V301.939H160.322V304.484H158.071ZM169.224 304.719C168.062 304.719 167.044 304.406 166.17 303.78C165.295 303.14 164.61 302.259 164.114 301.137C163.631 300.001 163.39 298.683 163.39 297.182C163.39 295.668 163.631 294.349 164.114 293.227C164.61 292.104 165.289 291.23 166.15 290.603C167.025 289.977 168.043 289.664 169.204 289.664C170.366 289.664 171.378 289.977 172.239 290.603C173.114 291.23 173.792 292.111 174.275 293.247C174.771 294.369 175.019 295.681 175.019 297.182C175.019 298.683 174.778 300.001 174.295 301.137C173.812 302.259 173.133 303.14 172.259 303.78C171.397 304.406 170.386 304.719 169.224 304.719ZM169.224 302.605C169.942 302.605 170.562 302.383 171.084 301.939C171.606 301.495 172.011 300.869 172.298 300.06C172.585 299.25 172.729 298.291 172.729 297.182C172.729 296.072 172.585 295.113 172.298 294.304C172.011 293.495 171.606 292.868 171.084 292.424C170.562 291.98 169.935 291.759 169.204 291.759C168.487 291.759 167.867 291.98 167.345 292.424C166.822 292.868 166.418 293.495 166.131 294.304C165.844 295.113 165.7 296.072 165.7 297.182C165.7 298.278 165.844 299.237 166.131 300.06C166.418 300.869 166.822 301.495 167.345 301.939C167.88 302.383 168.506 302.605 169.224 302.605ZM182.847 304.719C181.685 304.719 180.667 304.406 179.793 303.78C178.918 303.14 178.233 302.259 177.737 301.137C177.254 300.001 177.013 298.683 177.013 297.182C177.013 295.668 177.254 294.349 177.737 293.227C178.233 292.104 178.912 291.23 179.773 290.603C180.648 289.977 181.666 289.664 182.827 289.664C183.989 289.664 185 289.977 185.862 290.603C186.736 291.23 187.415 292.111 187.898 293.247C188.394 294.369 188.642 295.681 188.642 297.182C188.642 298.683 188.401 300.001 187.918 301.137C187.435 302.259 186.756 303.14 185.881 303.78C185.02 304.406 184.009 304.719 182.847 304.719ZM182.847 302.605C183.565 302.605 184.185 302.383 184.707 301.939C185.229 301.495 185.634 300.869 185.921 300.06C186.208 299.25 186.351 298.291 186.351 297.182C186.351 296.072 186.208 295.113 185.921 294.304C185.634 293.495 185.229 292.868 184.707 292.424C184.185 291.98 183.558 291.759 182.827 291.759C182.109 291.759 181.489 291.98 180.967 292.424C180.445 292.868 180.041 293.495 179.754 294.304C179.466 295.113 179.323 296.072 179.323 297.182C179.323 298.278 179.466 299.237 179.754 300.06C180.041 300.869 180.445 301.495 180.967 301.939C181.503 302.383 182.129 302.605 182.847 302.605Z" fill="#1A202C"/>
<rect x="285.281" y="292.273" width="22.375" height="22.375" rx="11.1875" fill="#BCE455" fill-opacity="0.3"/>
<circle cx="296.469" cy="303.461" r="5.59375" fill="#7FB519"/>
<path d="M325.959 310.873C325.075 310.873 324.253 310.711 323.492 310.387C322.743 310.062 322.088 309.615 321.529 309.044C320.981 308.462 320.55 307.78 320.237 306.997C319.923 306.214 319.767 305.352 319.767 304.412C319.767 303.484 319.918 302.628 320.22 301.845C320.533 301.051 320.969 300.368 321.529 299.798C322.088 299.216 322.743 298.768 323.492 298.455C324.242 298.131 325.064 297.968 325.959 297.968C326.843 297.968 327.632 298.119 328.325 298.422C329.03 298.724 329.623 299.121 330.104 299.613C330.585 300.094 330.932 300.62 331.144 301.19L329.366 302.03C329.097 301.358 328.666 300.816 328.073 300.402C327.492 299.977 326.787 299.764 325.959 299.764C325.131 299.764 324.398 299.96 323.761 300.351C323.123 300.743 322.625 301.286 322.267 301.979C321.92 302.673 321.747 303.484 321.747 304.412C321.747 305.341 321.92 306.158 322.267 306.863C322.625 307.556 323.123 308.099 323.761 308.49C324.398 308.871 325.131 309.061 325.959 309.061C326.787 309.061 327.492 308.854 328.073 308.44C328.666 308.026 329.097 307.483 329.366 306.812L331.144 307.651C330.932 308.211 330.585 308.736 330.104 309.229C329.623 309.721 329.03 310.118 328.325 310.42C327.632 310.722 326.843 310.873 325.959 310.873ZM336.877 310.873C336.004 310.873 335.204 310.666 334.477 310.252C333.761 309.838 333.19 309.273 332.765 308.557C332.34 307.841 332.127 307.03 332.127 306.124C332.127 305.207 332.34 304.396 332.765 303.691C333.19 302.975 333.761 302.415 334.477 302.013C335.193 301.599 335.993 301.392 336.877 301.392C337.772 301.392 338.571 301.599 339.276 302.013C339.992 302.415 340.557 302.975 340.971 303.691C341.396 304.396 341.609 305.207 341.609 306.124C341.609 307.042 341.396 307.858 340.971 308.574C340.546 309.29 339.975 309.855 339.259 310.269C338.543 310.672 337.749 310.873 336.877 310.873ZM336.877 309.111C337.414 309.111 337.889 308.983 338.303 308.725C338.717 308.468 339.041 308.116 339.276 307.668C339.522 307.209 339.645 306.695 339.645 306.124C339.645 305.554 339.522 305.045 339.276 304.597C339.041 304.15 338.717 303.797 338.303 303.54C337.889 303.283 337.414 303.154 336.877 303.154C336.351 303.154 335.875 303.283 335.45 303.54C335.036 303.797 334.706 304.15 334.46 304.597C334.225 305.045 334.108 305.554 334.108 306.124C334.108 306.695 334.225 307.209 334.46 307.668C334.706 308.116 335.036 308.468 335.45 308.725C335.875 308.983 336.351 309.111 336.877 309.111ZM343.125 310.672V301.593H344.937V303.557L344.702 303.255C344.892 302.639 345.239 302.175 345.742 301.862C346.246 301.548 346.822 301.392 347.471 301.392C348.198 301.392 348.841 301.588 349.401 301.979C349.971 302.36 350.352 302.869 350.542 303.506L350.005 303.557C350.273 302.829 350.682 302.287 351.23 301.929C351.789 301.571 352.427 301.392 353.143 301.392C353.769 301.392 354.334 301.537 354.838 301.828C355.352 302.119 355.761 302.522 356.063 303.036C356.365 303.551 356.516 304.138 356.516 304.798V310.672H354.62V305.319C354.62 304.86 354.536 304.474 354.368 304.161C354.211 303.836 353.988 303.59 353.697 303.422C353.417 303.243 353.087 303.154 352.707 303.154C352.326 303.154 351.991 303.243 351.7 303.422C351.409 303.59 351.18 303.836 351.012 304.161C350.844 304.485 350.76 304.871 350.76 305.319V310.672H348.88V305.319C348.88 304.86 348.797 304.474 348.629 304.161C348.472 303.836 348.248 303.59 347.958 303.422C347.678 303.243 347.342 303.154 346.951 303.154C346.57 303.154 346.235 303.243 345.944 303.422C345.653 303.59 345.424 303.836 345.256 304.161C345.099 304.485 345.021 304.871 345.021 305.319V310.672H343.125ZM358.21 314.028V301.593H360.022V303.473L359.804 303.036C360.14 302.522 360.587 302.119 361.147 301.828C361.706 301.537 362.344 301.392 363.06 301.392C363.921 301.392 364.693 301.599 365.376 302.013C366.069 302.427 366.612 302.992 367.003 303.708C367.406 304.424 367.607 305.229 367.607 306.124C367.607 307.019 367.406 307.825 367.003 308.541C366.612 309.257 366.075 309.827 365.392 310.252C364.71 310.666 363.932 310.873 363.06 310.873C362.355 310.873 361.712 310.728 361.13 310.437C360.559 310.146 360.117 309.727 359.804 309.178L360.106 308.826V314.028H358.21ZM362.875 309.111C363.412 309.111 363.888 308.983 364.302 308.725C364.715 308.468 365.04 308.116 365.275 307.668C365.521 307.209 365.644 306.695 365.644 306.124C365.644 305.554 365.521 305.045 365.275 304.597C365.04 304.15 364.715 303.797 364.302 303.54C363.888 303.283 363.412 303.154 362.875 303.154C362.349 303.154 361.874 303.283 361.449 303.54C361.035 303.797 360.705 304.15 360.459 304.597C360.224 305.045 360.106 305.554 360.106 306.124C360.106 306.695 360.224 307.209 360.459 307.668C360.705 308.116 361.035 308.468 361.449 308.725C361.874 308.983 362.349 309.111 362.875 309.111ZM369.116 310.672V297.968H371.013V310.672H369.116ZM377.157 310.873C376.25 310.873 375.445 310.666 374.74 310.252C374.047 309.827 373.504 309.257 373.112 308.541C372.721 307.813 372.525 307.002 372.525 306.107C372.525 305.19 372.721 304.379 373.112 303.674C373.515 302.969 374.052 302.415 374.723 302.013C375.395 301.599 376.155 301.392 377.006 301.392C377.688 301.392 378.298 301.509 378.835 301.744C379.372 301.979 379.825 302.304 380.194 302.718C380.563 303.12 380.843 303.585 381.033 304.11C381.234 304.636 381.335 305.196 381.335 305.789C381.335 305.934 381.33 306.085 381.318 306.242C381.307 306.398 381.285 306.544 381.251 306.678H374.019V305.168H380.177L379.271 305.856C379.383 305.307 379.344 304.821 379.154 304.396C378.975 303.959 378.695 303.618 378.315 303.372C377.945 303.115 377.509 302.986 377.006 302.986C376.502 302.986 376.055 303.115 375.663 303.372C375.272 303.618 374.969 303.976 374.757 304.446C374.544 304.905 374.46 305.464 374.505 306.124C374.449 306.739 374.533 307.276 374.757 307.735C374.992 308.194 375.316 308.552 375.73 308.809C376.155 309.066 376.636 309.195 377.173 309.195C377.722 309.195 378.186 309.072 378.566 308.826C378.958 308.58 379.265 308.261 379.489 307.869L381.033 308.625C380.854 309.05 380.574 309.436 380.194 309.782C379.825 310.118 379.377 310.387 378.852 310.588C378.337 310.778 377.772 310.873 377.157 310.873ZM386.777 310.773C385.826 310.773 385.088 310.504 384.562 309.967C384.036 309.43 383.773 308.675 383.773 307.702V303.305H382.179V301.593H382.431C382.856 301.593 383.186 301.47 383.421 301.224C383.656 300.978 383.773 300.642 383.773 300.217V299.512H385.669V301.593H387.734V303.305H385.669V307.618C385.669 307.931 385.72 308.199 385.82 308.423C385.921 308.636 386.083 308.804 386.307 308.927C386.531 309.038 386.822 309.094 387.18 309.094C387.269 309.094 387.37 309.089 387.482 309.078C387.594 309.066 387.7 309.055 387.801 309.044V310.672C387.644 310.694 387.471 310.717 387.28 310.739C387.09 310.761 386.922 310.773 386.777 310.773ZM393.414 310.873C392.508 310.873 391.702 310.666 390.998 310.252C390.304 309.827 389.761 309.257 389.37 308.541C388.978 307.813 388.782 307.002 388.782 306.107C388.782 305.19 388.978 304.379 389.37 303.674C389.773 302.969 390.31 302.415 390.981 302.013C391.652 301.599 392.413 301.392 393.263 301.392C393.946 301.392 394.555 301.509 395.092 301.744C395.629 301.979 396.082 302.304 396.452 302.718C396.821 303.12 397.1 303.585 397.291 304.11C397.492 304.636 397.593 305.196 397.593 305.789C397.593 305.934 397.587 306.085 397.576 306.242C397.565 306.398 397.542 306.544 397.509 306.678H390.276V305.168H396.435L395.529 305.856C395.64 305.307 395.601 304.821 395.411 304.396C395.232 303.959 394.952 303.618 394.572 303.372C394.203 303.115 393.767 302.986 393.263 302.986C392.76 302.986 392.312 303.115 391.921 303.372C391.529 303.618 391.227 303.976 391.014 304.446C390.802 304.905 390.718 305.464 390.763 306.124C390.707 306.739 390.791 307.276 391.014 307.735C391.249 308.194 391.574 308.552 391.988 308.809C392.413 309.066 392.894 309.195 393.431 309.195C393.979 309.195 394.443 309.072 394.824 308.826C395.215 308.58 395.523 308.261 395.747 307.869L397.291 308.625C397.112 309.05 396.832 309.436 396.452 309.782C396.082 310.118 395.635 310.387 395.109 310.588C394.594 310.778 394.029 310.873 393.414 310.873ZM403.303 310.873C402.43 310.873 401.647 310.666 400.954 310.252C400.271 309.827 399.729 309.257 399.326 308.541C398.934 307.825 398.738 307.019 398.738 306.124C398.738 305.229 398.94 304.424 399.343 303.708C399.745 302.992 400.288 302.427 400.97 302.013C401.653 301.599 402.425 301.392 403.286 301.392C404.013 301.392 404.657 301.537 405.216 301.828C405.775 302.119 406.217 302.522 406.542 303.036L406.256 303.473V297.968H408.136V310.672H406.34V308.826L406.559 309.178C406.245 309.727 405.798 310.146 405.216 310.437C404.634 310.728 403.997 310.873 403.303 310.873ZM403.488 309.111C404.013 309.111 404.483 308.983 404.897 308.725C405.322 308.468 405.652 308.116 405.887 307.668C406.133 307.209 406.256 306.695 406.256 306.124C406.256 305.554 406.133 305.045 405.887 304.597C405.652 304.15 405.322 303.797 404.897 303.54C404.483 303.283 404.013 303.154 403.488 303.154C402.962 303.154 402.486 303.283 402.061 303.54C401.636 303.797 401.306 304.15 401.071 304.597C400.836 305.045 400.719 305.554 400.719 306.124C400.719 306.695 400.836 307.209 401.071 307.668C401.306 308.116 401.63 308.468 402.044 308.725C402.47 308.983 402.951 309.111 403.488 309.111Z" fill="#1A202C"/>
</g>
<path d="M-509.031 341.219H420.93" stroke="#F3F5F7" stroke-width="1.39844"/>
<g clip-path="url(#clip2_3304_2080)">
<path d="M91.9221 394.219C91.0084 394.219 90.1601 394.05 89.3769 393.71C88.5938 393.358 87.9282 392.881 87.38 392.281C86.8318 391.681 86.4272 390.989 86.1661 390.206L88.1239 389.384C88.4763 390.284 88.9919 390.976 89.6706 391.459C90.3493 391.942 91.1324 392.183 92.02 392.183C92.5421 392.183 92.9989 392.105 93.3905 391.948C93.782 391.779 94.0822 391.544 94.291 391.243C94.5129 390.943 94.6239 390.597 94.6239 390.206C94.6239 389.671 94.4738 389.246 94.1736 388.933C93.8734 388.62 93.4296 388.372 92.8423 388.189L90.1013 387.328C89.005 386.988 88.1696 386.473 87.5953 385.781C87.021 385.076 86.7339 384.254 86.7339 383.314C86.7339 382.492 86.9362 381.774 87.3408 381.161C87.7454 380.534 88.3001 380.045 89.005 379.692C89.7228 379.34 90.5386 379.164 91.4522 379.164C92.3267 379.164 93.1229 379.32 93.8408 379.634C94.5586 379.934 95.1721 380.351 95.6811 380.887C96.2032 381.422 96.5817 382.042 96.8166 382.747L94.898 383.588C94.6108 382.818 94.1605 382.224 93.5471 381.807C92.9467 381.389 92.2484 381.18 91.4522 381.18C90.9693 381.18 90.5451 381.265 90.1796 381.435C89.8142 381.591 89.527 381.826 89.3182 382.14C89.1224 382.44 89.0245 382.792 89.0245 383.197C89.0245 383.667 89.1746 384.084 89.4748 384.45C89.775 384.815 90.2318 385.089 90.8453 385.272L93.3905 386.075C94.5521 386.427 95.4266 386.936 96.0139 387.602C96.6013 388.255 96.8949 389.07 96.8949 390.049C96.8949 390.858 96.6796 391.576 96.2489 392.203C95.8312 392.829 95.2504 393.325 94.5064 393.691C93.7624 394.043 92.901 394.219 91.9221 394.219ZM91.0215 395.942V377.441H92.5878V395.942H91.0215ZM98.5681 393.984V392.32L102.562 388.052C103.345 387.217 103.959 386.545 104.402 386.036C104.859 385.514 105.186 385.057 105.381 384.665C105.59 384.274 105.695 383.862 105.695 383.432C105.695 382.727 105.479 382.185 105.048 381.807C104.618 381.415 104.063 381.219 103.384 381.219C102.68 381.219 102.073 381.422 101.564 381.826C101.055 382.218 100.702 382.792 100.506 383.549L98.4702 382.962C98.6268 382.192 98.9401 381.526 99.41 380.965C99.8798 380.391 100.454 379.947 101.133 379.634C101.825 379.32 102.569 379.164 103.365 379.164C104.291 379.164 105.101 379.34 105.792 379.692C106.484 380.032 107.019 380.508 107.398 381.122C107.789 381.735 107.985 382.446 107.985 383.256C107.985 383.791 107.881 384.313 107.672 384.822C107.476 385.318 107.169 385.846 106.752 386.408C106.334 386.956 105.799 387.576 105.146 388.268L101.622 392.027H108.259V393.984H98.5681ZM110.759 396.862V395.786C111.189 395.681 111.522 395.479 111.757 395.179C111.992 394.891 112.136 394.493 112.188 393.984H111.15V391.439H113.402V393.103C113.402 394.148 113.18 394.989 112.736 395.629C112.292 396.268 111.633 396.68 110.759 396.862ZM121.96 394.219C120.798 394.219 119.78 393.906 118.905 393.28C118.031 392.64 117.346 391.759 116.85 390.637C116.367 389.501 116.125 388.183 116.125 386.682C116.125 385.168 116.367 383.849 116.85 382.727C117.346 381.604 118.024 380.73 118.886 380.103C119.76 379.477 120.778 379.164 121.94 379.164C123.102 379.164 124.113 379.477 124.975 380.103C125.849 380.73 126.528 381.611 127.011 382.747C127.507 383.869 127.755 385.181 127.755 386.682C127.755 388.183 127.513 389.501 127.03 390.637C126.547 391.759 125.869 392.64 124.994 393.28C124.133 393.906 123.121 394.219 121.96 394.219ZM121.96 392.105C122.678 392.105 123.298 391.883 123.82 391.439C124.342 390.995 124.746 390.369 125.033 389.56C125.321 388.75 125.464 387.791 125.464 386.682C125.464 385.572 125.321 384.613 125.033 383.804C124.746 382.995 124.342 382.368 123.82 381.924C123.298 381.48 122.671 381.259 121.94 381.259C121.222 381.259 120.602 381.48 120.08 381.924C119.558 382.368 119.153 382.995 118.866 383.804C118.579 384.613 118.436 385.572 118.436 386.682C118.436 387.778 118.579 388.737 118.866 389.56C119.153 390.369 119.558 390.995 120.08 391.439C120.615 391.883 121.242 392.105 121.96 392.105ZM135.583 394.219C134.421 394.219 133.403 393.906 132.528 393.28C131.654 392.64 130.969 391.759 130.473 390.637C129.99 389.501 129.748 388.183 129.748 386.682C129.748 385.168 129.99 383.849 130.473 382.727C130.969 381.604 131.647 380.73 132.509 380.103C133.383 379.477 134.401 379.164 135.563 379.164C136.725 379.164 137.736 379.477 138.598 380.103C139.472 380.73 140.151 381.611 140.634 382.747C141.13 383.869 141.378 385.181 141.378 386.682C141.378 388.183 141.136 389.501 140.653 390.637C140.17 391.759 139.492 392.64 138.617 393.28C137.756 393.906 136.744 394.219 135.583 394.219ZM135.583 392.105C136.3 392.105 136.92 391.883 137.442 391.439C137.965 390.995 138.369 390.369 138.656 389.56C138.943 388.75 139.087 387.791 139.087 386.682C139.087 385.572 138.943 384.613 138.656 383.804C138.369 382.995 137.965 382.368 137.442 381.924C136.92 381.48 136.294 381.259 135.563 381.259C134.845 381.259 134.225 381.48 133.703 381.924C133.181 382.368 132.776 382.995 132.489 383.804C132.202 384.613 132.058 385.572 132.058 386.682C132.058 387.778 132.202 388.737 132.489 389.56C132.776 390.369 133.181 390.995 133.703 391.439C134.238 391.883 134.865 392.105 135.583 392.105ZM149.205 394.219C148.044 394.219 147.026 393.906 146.151 393.28C145.277 392.64 144.591 391.759 144.096 390.637C143.613 389.501 143.371 388.183 143.371 386.682C143.371 385.168 143.613 383.849 144.096 382.727C144.591 381.604 145.27 380.73 146.132 380.103C147.006 379.477 148.024 379.164 149.186 379.164C150.347 379.164 151.359 379.477 152.22 380.103C153.095 380.73 153.774 381.611 154.257 382.747C154.753 383.869 155.001 385.181 155.001 386.682C155.001 388.183 154.759 389.501 154.276 390.637C153.793 391.759 153.114 392.64 152.24 393.28C151.379 393.906 150.367 394.219 149.205 394.219ZM149.205 392.105C149.923 392.105 150.543 391.883 151.065 391.439C151.587 390.995 151.992 390.369 152.279 389.56C152.566 388.75 152.71 387.791 152.71 386.682C152.71 385.572 152.566 384.613 152.279 383.804C151.992 382.995 151.587 382.368 151.065 381.924C150.543 381.48 149.917 381.259 149.186 381.259C148.468 381.259 147.848 381.48 147.326 381.924C146.804 382.368 146.399 382.995 146.112 383.804C145.825 384.613 145.681 385.572 145.681 386.682C145.681 387.778 145.825 388.737 146.112 389.56C146.399 390.369 146.804 390.995 147.326 391.439C147.861 391.883 148.488 392.105 149.205 392.105ZM158.071 393.984V391.439H160.322V393.984H158.071ZM169.224 394.219C168.062 394.219 167.044 393.906 166.17 393.28C165.295 392.64 164.61 391.759 164.114 390.637C163.631 389.501 163.39 388.183 163.39 386.682C163.39 385.168 163.631 383.849 164.114 382.727C164.61 381.604 165.289 380.73 166.15 380.103C167.025 379.477 168.043 379.164 169.204 379.164C170.366 379.164 171.378 379.477 172.239 380.103C173.114 380.73 173.792 381.611 174.275 382.747C174.771 383.869 175.019 385.181 175.019 386.682C175.019 388.183 174.778 389.501 174.295 390.637C173.812 391.759 173.133 392.64 172.259 393.28C171.397 393.906 170.386 394.219 169.224 394.219ZM169.224 392.105C169.942 392.105 170.562 391.883 171.084 391.439C171.606 390.995 172.011 390.369 172.298 389.56C172.585 388.75 172.729 387.791 172.729 386.682C172.729 385.572 172.585 384.613 172.298 383.804C172.011 382.995 171.606 382.368 171.084 381.924C170.562 381.48 169.935 381.259 169.204 381.259C168.487 381.259 167.867 381.48 167.345 381.924C166.822 382.368 166.418 382.995 166.131 383.804C165.844 384.613 165.7 385.572 165.7 386.682C165.7 387.778 165.844 388.737 166.131 389.56C166.418 390.369 166.822 390.995 167.345 391.439C167.88 391.883 168.506 392.105 169.224 392.105ZM182.847 394.219C181.685 394.219 180.667 393.906 179.793 393.28C178.918 392.64 178.233 391.759 177.737 390.637C177.254 389.501 177.013 388.183 177.013 386.682C177.013 385.168 177.254 383.849 177.737 382.727C178.233 381.604 178.912 380.73 179.773 380.103C180.648 379.477 181.666 379.164 182.827 379.164C183.989 379.164 185 379.477 185.862 380.103C186.736 380.73 187.415 381.611 187.898 382.747C188.394 383.869 188.642 385.181 188.642 386.682C188.642 388.183 188.401 389.501 187.918 390.637C187.435 391.759 186.756 392.64 185.881 393.28C185.02 393.906 184.009 394.219 182.847 394.219ZM182.847 392.105C183.565 392.105 184.185 391.883 184.707 391.439C185.229 390.995 185.634 390.369 185.921 389.56C186.208 388.75 186.351 387.791 186.351 386.682C186.351 385.572 186.208 384.613 185.921 383.804C185.634 382.995 185.229 382.368 184.707 381.924C184.185 381.48 183.558 381.259 182.827 381.259C182.109 381.259 181.489 381.48 180.967 381.924C180.445 382.368 180.041 382.995 179.754 383.804C179.466 384.613 179.323 385.572 179.323 386.682C179.323 387.778 179.466 388.737 179.754 389.56C180.041 390.369 180.445 390.995 180.967 391.439C181.503 391.883 182.129 392.105 182.847 392.105Z" fill="#1A202C"/>
<rect x="285.281" y="381.773" width="22.375" height="22.375" rx="11.1875" fill="#DBA32A" fill-opacity="0.14"/>
<circle cx="296.469" cy="392.961" r="5.59375" fill="#DBA32A"/>
<path d="M320.136 400.172V387.67H324.684C325.523 387.67 326.261 387.826 326.899 388.14C327.548 388.442 328.051 388.889 328.409 389.482C328.767 390.064 328.946 390.763 328.946 391.58C328.946 392.385 328.761 393.079 328.392 393.661C328.034 394.242 327.536 394.69 326.899 395.003C326.261 395.316 325.523 395.473 324.684 395.473H322.116V400.172H320.136ZM322.116 393.711H324.734C325.181 393.711 325.573 393.622 325.909 393.443C326.244 393.264 326.507 393.017 326.697 392.704C326.888 392.38 326.983 391.999 326.983 391.563C326.983 391.127 326.888 390.752 326.697 390.439C326.507 390.114 326.244 389.868 325.909 389.7C325.573 389.521 325.181 389.432 324.734 389.432H322.116V393.711ZM334.399 400.373C333.493 400.373 332.687 400.166 331.983 399.752C331.289 399.327 330.746 398.757 330.355 398.041C329.963 397.313 329.768 396.502 329.768 395.607C329.768 394.69 329.963 393.879 330.355 393.174C330.758 392.469 331.295 391.915 331.966 391.513C332.637 391.099 333.398 390.892 334.248 390.892C334.931 390.892 335.54 391.009 336.077 391.244C336.614 391.479 337.067 391.804 337.437 392.218C337.806 392.62 338.085 393.085 338.276 393.61C338.477 394.136 338.578 394.696 338.578 395.289C338.578 395.434 338.572 395.585 338.561 395.742C338.55 395.898 338.527 396.044 338.494 396.178H331.261V394.668H337.42L336.514 395.356C336.625 394.807 336.586 394.321 336.396 393.896C336.217 393.459 335.937 393.118 335.557 392.872C335.188 392.615 334.752 392.486 334.248 392.486C333.745 392.486 333.297 392.615 332.906 392.872C332.514 393.118 332.212 393.476 331.999 393.946C331.787 394.405 331.703 394.964 331.748 395.624C331.692 396.239 331.776 396.776 331.999 397.235C332.234 397.694 332.559 398.052 332.973 398.309C333.398 398.566 333.879 398.695 334.416 398.695C334.964 398.695 335.428 398.572 335.809 398.326C336.2 398.08 336.508 397.761 336.732 397.369L338.276 398.125C338.097 398.55 337.817 398.936 337.437 399.282C337.067 399.618 336.62 399.887 336.094 400.088C335.579 400.278 335.014 400.373 334.399 400.373ZM340.093 400.172V391.093H341.905V392.872L341.687 392.637C341.911 392.067 342.269 391.636 342.761 391.345C343.253 391.043 343.824 390.892 344.473 390.892C345.144 390.892 345.737 391.037 346.251 391.328C346.766 391.619 347.169 392.022 347.46 392.536C347.751 393.051 347.896 393.644 347.896 394.315V400.172H346.017V394.819C346.017 394.36 345.933 393.974 345.765 393.661C345.597 393.336 345.356 393.09 345.043 392.922C344.741 392.743 344.394 392.654 344.003 392.654C343.611 392.654 343.259 392.743 342.946 392.922C342.643 393.09 342.409 393.336 342.241 393.661C342.073 393.985 341.989 394.371 341.989 394.819V400.172H340.093ZM353.785 400.373C352.913 400.373 352.129 400.166 351.436 399.752C350.753 399.327 350.211 398.757 349.808 398.041C349.416 397.325 349.221 396.519 349.221 395.624C349.221 394.729 349.422 393.924 349.825 393.208C350.228 392.492 350.77 391.927 351.453 391.513C352.135 391.099 352.907 390.892 353.768 390.892C354.496 390.892 355.139 391.037 355.698 391.328C356.258 391.619 356.7 392.022 357.024 392.536L356.739 392.973V387.468H358.618V400.172H356.823V398.326L357.041 398.678C356.728 399.227 356.28 399.646 355.698 399.937C355.117 400.228 354.479 400.373 353.785 400.373ZM353.97 398.611C354.496 398.611 354.965 398.483 355.379 398.225C355.805 397.968 356.135 397.616 356.37 397.168C356.616 396.709 356.739 396.195 356.739 395.624C356.739 395.054 356.616 394.545 356.37 394.097C356.135 393.65 355.805 393.297 355.379 393.04C354.965 392.783 354.496 392.654 353.97 392.654C353.444 392.654 352.969 392.783 352.543 393.04C352.118 393.297 351.788 393.65 351.553 394.097C351.318 394.545 351.201 395.054 351.201 395.624C351.201 396.195 351.318 396.709 351.553 397.168C351.788 397.616 352.113 397.968 352.527 398.225C352.952 398.483 353.433 398.611 353.97 398.611ZM360.496 400.172V391.093H362.393V400.172H360.496ZM360.496 389.851V387.67H362.393V389.851H360.496ZM364.274 400.172V391.093H366.087V392.872L365.868 392.637C366.092 392.067 366.45 391.636 366.942 391.345C367.435 391.043 368.005 390.892 368.654 390.892C369.325 390.892 369.918 391.037 370.433 391.328C370.947 391.619 371.35 392.022 371.641 392.536C371.932 393.051 372.077 393.644 372.077 394.315V400.172H370.198V394.819C370.198 394.36 370.114 393.974 369.946 393.661C369.778 393.336 369.538 393.09 369.225 392.922C368.923 392.743 368.576 392.654 368.184 392.654C367.793 392.654 367.44 392.743 367.127 392.922C366.825 393.09 366.59 393.336 366.422 393.661C366.254 393.985 366.17 394.371 366.17 394.819V400.172H364.274ZM378.151 403.864C377.491 403.864 376.881 403.757 376.322 403.545C375.763 403.332 375.282 403.036 374.879 402.656C374.476 402.286 374.174 401.85 373.973 401.347L375.718 400.625C375.875 401.05 376.16 401.403 376.574 401.682C376.999 401.962 377.519 402.102 378.134 402.102C378.615 402.102 379.046 402.007 379.427 401.816C379.807 401.637 380.109 401.369 380.333 401.011C380.556 400.664 380.668 400.245 380.668 399.752V397.705L381.004 398.091C380.691 398.673 380.254 399.115 379.695 399.417C379.147 399.719 378.526 399.87 377.832 399.87C376.993 399.87 376.238 399.674 375.567 399.282C374.896 398.891 374.364 398.354 373.973 397.671C373.592 396.989 373.402 396.223 373.402 395.372C373.402 394.511 373.592 393.745 373.973 393.073C374.364 392.402 374.89 391.871 375.55 391.479C376.21 391.088 376.965 390.892 377.816 390.892C378.509 390.892 379.124 391.043 379.661 391.345C380.21 391.636 380.657 392.061 381.004 392.62L380.752 393.09V391.093H382.548V399.752C382.548 400.535 382.358 401.235 381.977 401.85C381.608 402.477 381.093 402.969 380.433 403.327C379.773 403.685 379.013 403.864 378.151 403.864ZM378.05 398.108C378.554 398.108 379.001 397.99 379.393 397.755C379.785 397.509 380.092 397.185 380.316 396.782C380.551 396.368 380.668 395.904 380.668 395.389C380.668 394.875 380.551 394.41 380.316 393.996C380.081 393.582 379.768 393.258 379.376 393.023C378.985 392.777 378.543 392.654 378.05 392.654C377.536 392.654 377.077 392.777 376.674 393.023C376.272 393.258 375.953 393.582 375.718 393.996C375.494 394.399 375.382 394.863 375.382 395.389C375.382 395.893 375.494 396.351 375.718 396.765C375.953 397.179 376.272 397.509 376.674 397.755C377.077 397.99 377.536 398.108 378.05 398.108Z" fill="#1A202C"/>
</g>
<path d="M-509.031 430.719H420.93" stroke="#F3F5F7" stroke-width="1.39844"/>
<g clip-path="url(#clip3_3304_2080)">
<path d="M91.9221 483.719C91.0084 483.719 90.1601 483.55 89.3769 483.21C88.5938 482.858 87.9282 482.381 87.38 481.781C86.8318 481.181 86.4272 480.489 86.1661 479.706L88.1239 478.884C88.4763 479.784 88.9919 480.476 89.6706 480.959C90.3493 481.442 91.1324 481.683 92.02 481.683C92.5421 481.683 92.9989 481.605 93.3905 481.448C93.782 481.279 94.0822 481.044 94.291 480.743C94.5129 480.443 94.6239 480.097 94.6239 479.706C94.6239 479.171 94.4738 478.746 94.1736 478.433C93.8734 478.12 93.4296 477.872 92.8423 477.689L90.1013 476.828C89.005 476.488 88.1696 475.973 87.5953 475.281C87.021 474.576 86.7339 473.754 86.7339 472.814C86.7339 471.992 86.9362 471.274 87.3408 470.661C87.7454 470.034 88.3001 469.545 89.005 469.192C89.7228 468.84 90.5386 468.664 91.4522 468.664C92.3267 468.664 93.1229 468.82 93.8408 469.134C94.5586 469.434 95.1721 469.851 95.6811 470.387C96.2032 470.922 96.5817 471.542 96.8166 472.247L94.898 473.088C94.6108 472.318 94.1605 471.724 93.5471 471.307C92.9467 470.889 92.2484 470.68 91.4522 470.68C90.9693 470.68 90.5451 470.765 90.1796 470.935C89.8142 471.091 89.527 471.326 89.3182 471.64C89.1224 471.94 89.0245 472.292 89.0245 472.697C89.0245 473.167 89.1746 473.584 89.4748 473.95C89.775 474.315 90.2318 474.589 90.8453 474.772L93.3905 475.575C94.5521 475.927 95.4266 476.436 96.0139 477.102C96.6013 477.755 96.8949 478.57 96.8949 479.549C96.8949 480.358 96.6796 481.076 96.2489 481.703C95.8312 482.329 95.2504 482.825 94.5064 483.191C93.7624 483.543 92.901 483.719 91.9221 483.719ZM91.0215 485.442V466.941H92.5878V485.442H91.0215ZM98.5681 483.484V481.82L102.562 477.552C103.345 476.717 103.959 476.045 104.402 475.536C104.859 475.014 105.186 474.557 105.381 474.165C105.59 473.774 105.695 473.362 105.695 472.932C105.695 472.227 105.479 471.685 105.048 471.307C104.618 470.915 104.063 470.719 103.384 470.719C102.68 470.719 102.073 470.922 101.564 471.326C101.055 471.718 100.702 472.292 100.506 473.049L98.4702 472.462C98.6268 471.692 98.9401 471.026 99.41 470.465C99.8798 469.891 100.454 469.447 101.133 469.134C101.825 468.82 102.569 468.664 103.365 468.664C104.291 468.664 105.101 468.84 105.792 469.192C106.484 469.532 107.019 470.008 107.398 470.622C107.789 471.235 107.985 471.946 107.985 472.756C107.985 473.291 107.881 473.813 107.672 474.322C107.476 474.818 107.169 475.346 106.752 475.908C106.334 476.456 105.799 477.076 105.146 477.768L101.622 481.527H108.259V483.484H98.5681ZM110.759 486.362V485.286C111.189 485.181 111.522 484.979 111.757 484.679C111.992 484.391 112.136 483.993 112.188 483.484H111.15V480.939H113.402V482.603C113.402 483.648 113.18 484.489 112.736 485.129C112.292 485.768 111.633 486.18 110.759 486.362ZM121.96 483.719C120.798 483.719 119.78 483.406 118.905 482.78C118.031 482.14 117.346 481.259 116.85 480.137C116.367 479.001 116.125 477.683 116.125 476.182C116.125 474.668 116.367 473.349 116.85 472.227C117.346 471.104 118.024 470.23 118.886 469.603C119.76 468.977 120.778 468.664 121.94 468.664C123.102 468.664 124.113 468.977 124.975 469.603C125.849 470.23 126.528 471.111 127.011 472.247C127.507 473.369 127.755 474.681 127.755 476.182C127.755 477.683 127.513 479.001 127.03 480.137C126.547 481.259 125.869 482.14 124.994 482.78C124.133 483.406 123.121 483.719 121.96 483.719ZM121.96 481.605C122.678 481.605 123.298 481.383 123.82 480.939C124.342 480.495 124.746 479.869 125.033 479.06C125.321 478.25 125.464 477.291 125.464 476.182C125.464 475.072 125.321 474.113 125.033 473.304C124.746 472.495 124.342 471.868 123.82 471.424C123.298 470.98 122.671 470.759 121.94 470.759C121.222 470.759 120.602 470.98 120.08 471.424C119.558 471.868 119.153 472.495 118.866 473.304C118.579 474.113 118.436 475.072 118.436 476.182C118.436 477.278 118.579 478.237 118.866 479.06C119.153 479.869 119.558 480.495 120.08 480.939C120.615 481.383 121.242 481.605 121.96 481.605ZM135.583 483.719C134.421 483.719 133.403 483.406 132.528 482.78C131.654 482.14 130.969 481.259 130.473 480.137C129.99 479.001 129.748 477.683 129.748 476.182C129.748 474.668 129.99 473.349 130.473 472.227C130.969 471.104 131.647 470.23 132.509 469.603C133.383 468.977 134.401 468.664 135.563 468.664C136.725 468.664 137.736 468.977 138.598 469.603C139.472 470.23 140.151 471.111 140.634 472.247C141.13 473.369 141.378 474.681 141.378 476.182C141.378 477.683 141.136 479.001 140.653 480.137C140.17 481.259 139.492 482.14 138.617 482.78C137.756 483.406 136.744 483.719 135.583 483.719ZM135.583 481.605C136.3 481.605 136.92 481.383 137.442 480.939C137.965 480.495 138.369 479.869 138.656 479.06C138.943 478.25 139.087 477.291 139.087 476.182C139.087 475.072 138.943 474.113 138.656 473.304C138.369 472.495 137.965 471.868 137.442 471.424C136.92 470.98 136.294 470.759 135.563 470.759C134.845 470.759 134.225 470.98 133.703 471.424C133.181 471.868 132.776 472.495 132.489 473.304C132.202 474.113 132.058 475.072 132.058 476.182C132.058 477.278 132.202 478.237 132.489 479.06C132.776 479.869 133.181 480.495 133.703 480.939C134.238 481.383 134.865 481.605 135.583 481.605ZM149.205 483.719C148.044 483.719 147.026 483.406 146.151 482.78C145.277 482.14 144.591 481.259 144.096 480.137C143.613 479.001 143.371 477.683 143.371 476.182C143.371 474.668 143.613 473.349 144.096 472.227C144.591 471.104 145.27 470.23 146.132 469.603C147.006 468.977 148.024 468.664 149.186 468.664C150.347 468.664 151.359 468.977 152.22 469.603C153.095 470.23 153.774 471.111 154.257 472.247C154.753 473.369 155.001 474.681 155.001 476.182C155.001 477.683 154.759 479.001 154.276 480.137C153.793 481.259 153.114 482.14 152.24 482.78C151.379 483.406 150.367 483.719 149.205 483.719ZM149.205 481.605C149.923 481.605 150.543 481.383 151.065 480.939C151.587 480.495 151.992 479.869 152.279 479.06C152.566 478.25 152.71 477.291 152.71 476.182C152.71 475.072 152.566 474.113 152.279 473.304C151.992 472.495 151.587 471.868 151.065 471.424C150.543 470.98 149.917 470.759 149.186 470.759C148.468 470.759 147.848 470.98 147.326 471.424C146.804 471.868 146.399 472.495 146.112 473.304C145.825 474.113 145.681 475.072 145.681 476.182C145.681 477.278 145.825 478.237 146.112 479.06C146.399 479.869 146.804 480.495 147.326 480.939C147.861 481.383 148.488 481.605 149.205 481.605ZM158.071 483.484V480.939H160.322V483.484H158.071ZM169.224 483.719C168.062 483.719 167.044 483.406 166.17 482.78C165.295 482.14 164.61 481.259 164.114 480.137C163.631 479.001 163.39 477.683 163.39 476.182C163.39 474.668 163.631 473.349 164.114 472.227C164.61 471.104 165.289 470.23 166.15 469.603C167.025 468.977 168.043 468.664 169.204 468.664C170.366 468.664 171.378 468.977 172.239 469.603C173.114 470.23 173.792 471.111 174.275 472.247C174.771 473.369 175.019 474.681 175.019 476.182C175.019 477.683 174.778 479.001 174.295 480.137C173.812 481.259 173.133 482.14 172.259 482.78C171.397 483.406 170.386 483.719 169.224 483.719ZM169.224 481.605C169.942 481.605 170.562 481.383 171.084 480.939C171.606 480.495 172.011 479.869 172.298 479.06C172.585 478.25 172.729 477.291 172.729 476.182C172.729 475.072 172.585 474.113 172.298 473.304C172.011 472.495 171.606 471.868 171.084 471.424C170.562 470.98 169.935 470.759 169.204 470.759C168.487 470.759 167.867 470.98 167.345 471.424C166.822 471.868 166.418 472.495 166.131 473.304C165.844 474.113 165.7 475.072 165.7 476.182C165.7 477.278 165.844 478.237 166.131 479.06C166.418 479.869 166.822 480.495 167.345 480.939C167.88 481.383 168.506 481.605 169.224 481.605ZM182.847 483.719C181.685 483.719 180.667 483.406 179.793 482.78C178.918 482.14 178.233 481.259 177.737 480.137C177.254 479.001 177.013 477.683 177.013 476.182C177.013 474.668 177.254 473.349 177.737 472.227C178.233 471.104 178.912 470.23 179.773 469.603C180.648 468.977 181.666 468.664 182.827 468.664C183.989 468.664 185 468.977 185.862 469.603C186.736 470.23 187.415 471.111 187.898 472.247C188.394 473.369 188.642 474.681 188.642 476.182C188.642 477.683 188.401 479.001 187.918 480.137C187.435 481.259 186.756 482.14 185.881 482.78C185.02 483.406 184.009 483.719 182.847 483.719ZM182.847 481.605C183.565 481.605 184.185 481.383 184.707 480.939C185.229 480.495 185.634 479.869 185.921 479.06C186.208 478.25 186.351 477.291 186.351 476.182C186.351 475.072 186.208 474.113 185.921 473.304C185.634 472.495 185.229 471.868 184.707 471.424C184.185 470.98 183.558 470.759 182.827 470.759C182.109 470.759 181.489 470.98 180.967 471.424C180.445 471.868 180.041 472.495 179.754 473.304C179.466 474.113 179.323 475.072 179.323 476.182C179.323 477.278 179.466 478.237 179.754 479.06C180.041 479.869 180.445 480.495 180.967 480.939C181.503 481.383 182.129 481.605 182.847 481.605Z" fill="#1A202C"/>
<rect x="285.281" y="471.273" width="22.375" height="22.375" rx="11.1875" fill="#DB2719" fill-opacity="0.3"/>
<circle cx="296.469" cy="482.461" r="5.59375" fill="#DB2719"/>
<path d="M326.211 489.873C325.305 489.873 324.46 489.711 323.677 489.387C322.905 489.062 322.222 488.609 321.629 488.027C321.048 487.446 320.589 486.763 320.253 485.98C319.929 485.197 319.767 484.341 319.767 483.412C319.767 482.484 319.929 481.628 320.253 480.845C320.589 480.051 321.048 479.368 321.629 478.798C322.211 478.216 322.894 477.768 323.677 477.455C324.46 477.131 325.305 476.968 326.211 476.968C327.128 476.968 327.973 477.131 328.745 477.455C329.528 477.768 330.21 478.216 330.792 478.798C331.385 479.379 331.844 480.062 332.168 480.845C332.493 481.628 332.655 482.484 332.655 483.412C332.655 484.341 332.487 485.197 332.151 485.98C331.827 486.763 331.374 487.446 330.792 488.027C330.21 488.609 329.528 489.062 328.745 489.387C327.962 489.711 327.117 489.873 326.211 489.873ZM326.211 488.061C326.86 488.061 327.453 487.943 327.99 487.708C328.538 487.474 329.013 487.149 329.416 486.735C329.819 486.31 330.132 485.818 330.356 485.258C330.579 484.688 330.691 484.073 330.691 483.412C330.691 482.752 330.579 482.143 330.356 481.583C330.132 481.024 329.819 480.532 329.416 480.107C329.013 479.681 328.538 479.351 327.99 479.116C327.453 478.882 326.86 478.764 326.211 478.764C325.562 478.764 324.963 478.882 324.415 479.116C323.878 479.351 323.408 479.681 323.006 480.107C322.603 480.532 322.29 481.024 322.066 481.583C321.853 482.143 321.747 482.752 321.747 483.412C321.747 484.073 321.853 484.688 322.066 485.258C322.29 485.818 322.603 486.31 323.006 486.735C323.408 487.149 323.884 487.474 324.432 487.708C324.98 487.943 325.573 488.061 326.211 488.061ZM334.348 489.672V480.593H336.161V482.372L335.943 482.137C336.166 481.567 336.524 481.136 337.017 480.845C337.509 480.543 338.079 480.392 338.728 480.392C339.4 480.392 339.993 480.537 340.507 480.828C341.022 481.119 341.425 481.522 341.715 482.036C342.006 482.551 342.152 483.144 342.152 483.815V489.672H340.272V484.319C340.272 483.86 340.188 483.474 340.021 483.161C339.853 482.836 339.612 482.59 339.299 482.422C338.997 482.243 338.65 482.154 338.258 482.154C337.867 482.154 337.515 482.243 337.201 482.422C336.899 482.59 336.664 482.836 336.496 483.161C336.329 483.485 336.245 483.871 336.245 484.319V489.672H334.348ZM346.628 489.672V477.17H348.608V482.674H354.398V477.17H356.361V489.672H354.398V484.436H348.608V489.672H346.628ZM362.811 489.873C361.939 489.873 361.139 489.666 360.412 489.252C359.696 488.838 359.125 488.273 358.7 487.557C358.275 486.841 358.062 486.03 358.062 485.124C358.062 484.207 358.275 483.396 358.7 482.691C359.125 481.975 359.696 481.415 360.412 481.013C361.128 480.599 361.928 480.392 362.811 480.392C363.706 480.392 364.506 480.599 365.211 481.013C365.927 481.415 366.492 481.975 366.906 482.691C367.331 483.396 367.544 484.207 367.544 485.124C367.544 486.042 367.331 486.858 366.906 487.574C366.481 488.29 365.91 488.855 365.194 489.269C364.478 489.672 363.684 489.873 362.811 489.873ZM362.811 488.111C363.348 488.111 363.824 487.983 364.238 487.725C364.652 487.468 364.976 487.116 365.211 486.668C365.457 486.209 365.58 485.695 365.58 485.124C365.58 484.554 365.457 484.045 365.211 483.597C364.976 483.15 364.652 482.797 364.238 482.54C363.824 482.283 363.348 482.154 362.811 482.154C362.286 482.154 361.81 482.283 361.385 482.54C360.971 482.797 360.641 483.15 360.395 483.597C360.16 484.045 360.043 484.554 360.043 485.124C360.043 485.695 360.16 486.209 360.395 486.668C360.641 487.116 360.971 487.468 361.385 487.725C361.81 487.983 362.286 488.111 362.811 488.111ZM369.059 489.672V476.968H370.956V489.672H369.059ZM377.032 489.873C376.16 489.873 375.377 489.666 374.683 489.252C374.001 488.827 373.458 488.257 373.055 487.541C372.664 486.825 372.468 486.019 372.468 485.124C372.468 484.229 372.669 483.424 373.072 482.708C373.475 481.992 374.017 481.427 374.7 481.013C375.382 480.599 376.154 480.392 377.016 480.392C377.743 480.392 378.386 480.537 378.946 480.828C379.505 481.119 379.947 481.522 380.271 482.036L379.986 482.473V476.968H381.865V489.672H380.07V487.826L380.288 488.178C379.975 488.727 379.527 489.146 378.946 489.437C378.364 489.728 377.726 489.873 377.032 489.873ZM377.217 488.111C377.743 488.111 378.213 487.983 378.627 487.725C379.052 487.468 379.382 487.116 379.617 486.668C379.863 486.209 379.986 485.695 379.986 485.124C379.986 484.554 379.863 484.045 379.617 483.597C379.382 483.15 379.052 482.797 378.627 482.54C378.213 482.283 377.743 482.154 377.217 482.154C376.691 482.154 376.216 482.283 375.791 482.54C375.366 482.797 375.036 483.15 374.801 483.597C374.566 484.045 374.448 484.554 374.448 485.124C374.448 485.695 374.566 486.209 374.801 486.668C375.036 487.116 375.36 487.468 375.774 487.725C376.199 487.983 376.68 488.111 377.217 488.111Z" fill="#1A202C"/>
</g>
<path d="M-509.031 520.219H420.93" stroke="#F3F5F7" stroke-width="1.39844"/>
<path d="M261.508 120.965V124.111" stroke="#292D32" stroke-width="2.09766" stroke-miterlimit="10" stroke-linecap="round" stroke-linejoin="round"/>
<path d="M269.898 120.965V124.111" stroke="#292D32" stroke-width="2.09766" stroke-miterlimit="10" stroke-linecap="round" stroke-linejoin="round"/>
<path d="M256.789 128.401H274.619" stroke="#292D32" stroke-width="2.09766" stroke-miterlimit="10" stroke-linecap="round" stroke-linejoin="round"/>
<path d="M275.143 127.782V136.697C275.143 139.844 273.569 141.941 269.898 141.941H261.508C257.837 141.941 256.264 139.844 256.264 136.697V127.782C256.264 124.636 257.837 122.538 261.508 122.538H269.898C273.569 122.538 275.143 124.636 275.143 127.782Z" stroke="#292D32" stroke-width="2.09766" stroke-miterlimit="10" stroke-linecap="round" stroke-linejoin="round"/>
<path d="M269.579 133.236H269.589" stroke="#292D32" stroke-width="2.79688" stroke-linecap="round" stroke-linejoin="round"/>
<path d="M269.579 136.383H269.589" stroke="#292D32" stroke-width="2.79688" stroke-linecap="round" stroke-linejoin="round"/>
<path d="M265.698 133.236H265.708" stroke="#292D32" stroke-width="2.79688" stroke-linecap="round" stroke-linejoin="round"/>
<path d="M265.698 136.383H265.708" stroke="#292D32" stroke-width="2.79688" stroke-linecap="round" stroke-linejoin="round"/>
<path d="M261.816 133.236H261.825" stroke="#292D32" stroke-width="2.79688" stroke-linecap="round" stroke-linejoin="round"/>
<path d="M261.816 136.383H261.825" stroke="#292D32" stroke-width="2.79688" stroke-linecap="round" stroke-linejoin="round"/>
<path d="M292.43 137.953V127.129H290.03V125.451H294.393V137.953H292.43ZM299.049 137.953V136.107H299.77C300.33 136.107 300.777 135.945 301.113 135.621C301.448 135.285 301.616 134.837 301.616 134.278V125.451H303.58V134.211C303.58 134.972 303.423 135.632 303.11 136.191C302.808 136.75 302.366 137.187 301.784 137.5C301.213 137.802 300.542 137.953 299.77 137.953H299.049ZM308.34 138.155C307.724 138.155 307.182 138.048 306.712 137.836C306.253 137.612 305.895 137.31 305.638 136.929C305.381 136.538 305.252 136.079 305.252 135.553C305.252 135.061 305.358 134.619 305.571 134.228C305.794 133.836 306.136 133.506 306.594 133.238C307.053 132.969 307.629 132.779 308.323 132.667L311.478 132.147V133.64L308.692 134.127C308.189 134.216 307.819 134.379 307.584 134.614C307.35 134.837 307.232 135.128 307.232 135.486C307.232 135.833 307.361 136.118 307.618 136.342C307.887 136.555 308.228 136.661 308.642 136.661C309.156 136.661 309.604 136.549 309.984 136.325C310.376 136.102 310.678 135.805 310.89 135.436C311.103 135.056 311.209 134.636 311.209 134.177V131.845C311.209 131.397 311.041 131.034 310.706 130.754C310.381 130.463 309.945 130.318 309.397 130.318C308.893 130.318 308.451 130.452 308.071 130.72C307.702 130.978 307.428 131.313 307.249 131.727L305.671 130.939C305.839 130.491 306.113 130.099 306.494 129.764C306.874 129.417 307.316 129.149 307.819 128.958C308.334 128.768 308.877 128.673 309.447 128.673C310.163 128.673 310.795 128.807 311.343 129.076C311.903 129.344 312.334 129.719 312.636 130.2C312.949 130.67 313.105 131.218 313.105 131.845V137.953H311.293V136.309L311.679 136.359C311.467 136.728 311.192 137.047 310.857 137.315C310.532 137.584 310.158 137.791 309.732 137.936C309.319 138.082 308.854 138.155 308.34 138.155ZM314.987 137.953V128.874H316.799V130.653L316.581 130.418C316.805 129.848 317.163 129.417 317.655 129.126C318.148 128.824 318.718 128.673 319.367 128.673C320.038 128.673 320.631 128.819 321.146 129.109C321.66 129.4 322.063 129.803 322.354 130.318C322.645 130.832 322.79 131.425 322.79 132.096V137.953H320.911V132.6C320.911 132.141 320.827 131.755 320.659 131.442C320.491 131.118 320.251 130.871 319.938 130.704C319.635 130.525 319.289 130.435 318.897 130.435C318.506 130.435 318.153 130.525 317.84 130.704C317.538 130.871 317.303 131.118 317.135 131.442C316.967 131.766 316.883 132.152 316.883 132.6V137.953H314.987ZM327.367 134.244V132.566H334.08V134.244H327.367ZM340.695 137.953V127.129H338.295V125.451H342.659V137.953H340.695ZM347.868 137.953V125.451H356.006V127.213H349.848V130.972H355.335V132.734H349.848V137.953H347.868ZM361.164 138.155C360.258 138.155 359.452 137.948 358.747 137.534C358.054 137.108 357.511 136.538 357.12 135.822C356.728 135.095 356.532 134.284 356.532 133.389C356.532 132.471 356.728 131.66 357.12 130.955C357.522 130.251 358.059 129.697 358.731 129.294C359.402 128.88 360.163 128.673 361.013 128.673C361.695 128.673 362.305 128.791 362.842 129.025C363.379 129.26 363.832 129.585 364.201 129.999C364.571 130.402 364.85 130.866 365.04 131.392C365.242 131.917 365.342 132.477 365.342 133.07C365.342 133.215 365.337 133.366 365.326 133.523C365.315 133.68 365.292 133.825 365.259 133.959H358.026V132.449H364.185L363.278 133.137C363.39 132.589 363.351 132.102 363.161 131.677C362.982 131.241 362.702 130.899 362.322 130.653C361.953 130.396 361.516 130.267 361.013 130.267C360.509 130.267 360.062 130.396 359.67 130.653C359.279 130.899 358.977 131.257 358.764 131.727C358.552 132.186 358.468 132.745 358.513 133.405C358.457 134.021 358.54 134.558 358.764 135.016C358.999 135.475 359.324 135.833 359.738 136.09C360.163 136.348 360.644 136.476 361.181 136.476C361.729 136.476 362.193 136.353 362.574 136.107C362.965 135.861 363.273 135.542 363.497 135.151L365.04 135.906C364.861 136.331 364.582 136.717 364.201 137.064C363.832 137.399 363.385 137.668 362.859 137.869C362.344 138.059 361.779 138.155 361.164 138.155ZM371.707 138.155C371.003 138.155 370.359 138.009 369.777 137.718C369.207 137.427 368.765 137.008 368.452 136.46L368.67 136.107V137.953H366.858V125.25H368.754V130.754L368.452 130.318C368.787 129.803 369.235 129.4 369.794 129.109C370.354 128.819 370.991 128.673 371.707 128.673C372.569 128.673 373.341 128.88 374.023 129.294C374.717 129.708 375.259 130.273 375.651 130.989C376.054 131.705 376.255 132.51 376.255 133.405C376.255 134.3 376.054 135.106 375.651 135.822C375.259 136.538 374.722 137.108 374.04 137.534C373.357 137.948 372.58 138.155 371.707 138.155ZM371.523 136.392C372.06 136.392 372.535 136.264 372.949 136.006C373.363 135.749 373.688 135.397 373.922 134.949C374.169 134.491 374.292 133.976 374.292 133.405C374.292 132.835 374.169 132.326 373.922 131.878C373.688 131.431 373.363 131.078 372.949 130.821C372.535 130.564 372.06 130.435 371.523 130.435C370.997 130.435 370.521 130.564 370.096 130.821C369.682 131.078 369.352 131.431 369.106 131.878C368.871 132.326 368.754 132.835 368.754 133.405C368.754 133.976 368.871 134.491 369.106 134.949C369.352 135.397 369.682 135.749 370.096 136.006C370.521 136.264 370.997 136.392 371.523 136.392ZM380.093 137.953V136.527L383.517 132.868C384.188 132.152 384.714 131.576 385.094 131.14C385.486 130.692 385.765 130.301 385.933 129.965C386.112 129.63 386.202 129.277 386.202 128.908C386.202 128.304 386.017 127.84 385.648 127.515C385.279 127.18 384.803 127.012 384.222 127.012C383.617 127.012 383.097 127.185 382.661 127.532C382.225 127.868 381.922 128.36 381.755 129.009L380.009 128.505C380.144 127.845 380.412 127.275 380.815 126.794C381.218 126.301 381.71 125.921 382.292 125.652C382.885 125.384 383.522 125.25 384.205 125.25C384.999 125.25 385.693 125.401 386.286 125.703C386.879 125.994 387.337 126.402 387.662 126.928C387.997 127.454 388.165 128.063 388.165 128.757C388.165 129.216 388.076 129.663 387.897 130.099C387.729 130.525 387.466 130.978 387.108 131.459C386.75 131.929 386.291 132.46 385.732 133.053L382.711 136.275H388.4V137.953H380.093ZM394.973 138.155C393.977 138.155 393.104 137.886 392.355 137.349C391.605 136.801 391.018 136.046 390.593 135.084C390.179 134.11 389.972 132.98 389.972 131.694C389.972 130.396 390.179 129.266 390.593 128.304C391.018 127.342 391.6 126.592 392.338 126.055C393.087 125.518 393.96 125.25 394.956 125.25C395.951 125.25 396.818 125.518 397.557 126.055C398.306 126.592 398.888 127.347 399.302 128.321C399.727 129.283 399.94 130.407 399.94 131.694C399.94 132.98 399.733 134.11 399.319 135.084C398.905 136.046 398.323 136.801 397.574 137.349C396.835 137.886 395.968 138.155 394.973 138.155ZM394.973 136.342C395.588 136.342 396.119 136.152 396.567 135.772C397.014 135.391 397.361 134.854 397.607 134.161C397.853 133.467 397.976 132.645 397.976 131.694C397.976 130.743 397.853 129.92 397.607 129.227C397.361 128.533 397.014 127.996 396.567 127.616C396.119 127.235 395.582 127.045 394.956 127.045C394.34 127.045 393.809 127.235 393.362 127.616C392.914 127.996 392.567 128.533 392.321 129.227C392.075 129.92 391.952 130.743 391.952 131.694C391.952 132.633 392.075 133.456 392.321 134.161C392.567 134.854 392.914 135.391 393.362 135.772C393.82 136.152 394.357 136.342 394.973 136.342ZM401.464 137.953V136.527L404.887 132.868C405.558 132.152 406.084 131.576 406.465 131.14C406.856 130.692 407.136 130.301 407.304 129.965C407.483 129.63 407.572 129.277 407.572 128.908C407.572 128.304 407.388 127.84 407.018 127.515C406.649 127.18 406.174 127.012 405.592 127.012C404.988 127.012 404.468 127.185 404.031 127.532C403.595 127.868 403.293 128.36 403.125 129.009L401.38 128.505C401.514 127.845 401.783 127.275 402.185 126.794C402.588 126.301 403.08 125.921 403.662 125.652C404.255 125.384 404.893 125.25 405.575 125.25C406.37 125.25 407.063 125.401 407.656 125.703C408.249 125.994 408.708 126.402 409.032 126.928C409.368 127.454 409.536 128.063 409.536 128.757C409.536 129.216 409.446 129.663 409.267 130.099C409.099 130.525 408.836 130.978 408.478 131.459C408.12 131.929 407.662 132.46 407.102 133.053L404.082 136.275H409.771V137.953H401.464ZM411.158 137.953V136.527L414.581 132.868C415.252 132.152 415.778 131.576 416.158 131.14C416.55 130.692 416.83 130.301 416.998 129.965C417.177 129.63 417.266 129.277 417.266 128.908C417.266 128.304 417.081 127.84 416.712 127.515C416.343 127.18 415.868 127.012 415.286 127.012C414.682 127.012 414.162 127.185 413.725 127.532C413.289 127.868 412.987 128.36 412.819 129.009L411.074 128.505C411.208 127.845 411.477 127.275 411.879 126.794C412.282 126.301 412.774 125.921 413.356 125.652C413.949 125.384 414.587 125.25 415.269 125.25C416.063 125.25 416.757 125.401 417.35 125.703C417.943 125.994 418.402 126.402 418.726 126.928C419.062 127.454 419.229 128.063 419.229 128.757C419.229 129.216 419.14 129.663 418.961 130.099C418.793 130.525 418.53 130.978 418.172 131.459C417.814 131.929 417.356 132.46 416.796 133.053L413.776 136.275H419.464V137.953H411.158Z" fill="#1A202C"/>
<rect x="231.441" y="108.379" width="210.711" height="46.1484" rx="7.69141" stroke="#C3D4E9" stroke-width="1.39844"/>
<path d="M472.911 135.847C501.495 135.847 524.667 112.675 524.667 84.0905C524.667 55.5062 501.495 32.334 472.911 32.334C444.326 32.334 421.154 55.5062 421.154 84.0905C421.154 112.675 444.326 135.847 472.911 135.847Z" fill="white"/>
<path d="M472.91 135.999C465.903 135.999 459.104 134.626 452.704 131.919C446.523 129.305 440.971 125.562 436.204 120.795C431.436 116.027 427.694 110.476 425.079 104.294C422.373 97.8943 421 91.096 421 84.0885C421 77.0811 422.373 70.2827 425.079 63.8827C427.694 57.7015 431.437 52.1499 436.204 47.3824C440.971 42.6148 446.523 38.8722 452.704 36.2578C459.104 33.5506 465.903 32.1777 472.91 32.1777C479.918 32.1777 486.716 33.5506 493.116 36.257C499.297 38.8715 504.849 42.6148 509.616 47.3816C514.384 52.1492 518.126 57.7007 520.741 63.882C523.448 70.282 524.82 77.0803 524.82 84.0878C524.82 91.0953 523.447 97.8936 520.741 104.294C518.126 110.475 514.383 116.026 509.616 120.794C504.849 125.562 499.298 129.304 493.116 131.919C486.716 134.626 479.918 135.998 472.91 135.998V135.999ZM472.91 32.4863C465.943 32.4863 459.186 33.851 452.824 36.5411C446.679 39.14 441.161 42.861 436.422 47.5997C431.683 52.3391 427.962 57.8572 425.363 64.0021C422.673 70.3643 421.308 77.1218 421.308 84.0885C421.308 91.0552 422.673 97.8127 425.363 104.174C427.961 110.319 431.683 115.837 436.421 120.577C441.161 125.316 446.679 129.036 452.824 131.635C459.185 134.326 465.943 135.69 472.909 135.69C479.875 135.69 486.634 134.325 492.995 131.635C499.14 129.036 504.658 125.315 509.397 120.577C514.137 115.837 517.857 110.319 520.456 104.174C523.147 97.8127 524.511 91.0545 524.511 84.0885C524.511 77.1226 523.146 70.3643 520.456 64.0029C517.857 57.858 514.136 52.3398 509.397 47.6004C504.658 42.861 499.14 39.1407 492.995 36.5418C486.634 33.851 479.875 32.487 472.909 32.487L472.91 32.4863Z" fill="#3A405A"/>
<path d="M472.909 130.33C498.448 130.33 519.151 109.627 519.151 84.089C519.151 58.5506 498.448 37.8477 472.909 37.8477C447.371 37.8477 426.668 58.5506 426.668 84.089C426.668 109.627 447.371 130.33 472.909 130.33Z" fill="#FF8B7C"/>
<path d="M508.13 34.8262H503.375L472.561 79.461L452.637 57.0242H447.882L448.445 60.7467L436.049 71.7556L471.058 116.735H475.705L526.024 47.9415L508.13 34.8262Z" fill="#3A405A"/>
<path d="M471.028 116.494L431.297 71.7536L447.886 57.0222L469.374 81.2198L503.379 34.8242L521.273 47.9395L471.028 116.494Z" fill="white"/>
<path d="M471.033 116.739L470.907 116.596L431.074 71.7413L447.893 56.8052L447.996 56.9201L469.357 80.9746L503.34 34.6094L521.482 47.9064L521.391 48.031L471.033 116.74L471.033 116.739ZM431.51 71.7672L471.01 116.249L521.052 47.9724L503.407 35.0396L469.38 81.4648L447.868 57.2405L431.51 71.7672V71.7672Z" fill="#3A405A"/>
</g>
<defs>
<clipPath id="clip0_3304_2080">
<rect width="543" height="537" rx="16" fill="white"/>
</clipPath>
<clipPath id="clip1_3304_2080">
<rect width="907.586" height="50.3438" fill="white" transform="translate(-497.844 271.297)"/>
</clipPath>
<clipPath id="clip2_3304_2080">
<rect width="907.586" height="50.3438" fill="white" transform="translate(-497.844 360.797)"/>
</clipPath>
<clipPath id="clip3_3304_2080">
<rect width="907.586" height="50.3438" fill="white" transform="translate(-497.844 450.297)"/>
</clipPath>
</defs>
</svg>
