<svg width="236" height="128" viewBox="0 0 236 128" fill="none" xmlns="http://www.w3.org/2000/svg">
<path d="M19.5653 -3.09944e-06L229.026 -3.09944e-06C232.316 -3.09944e-06 235.001 2.94543 235.001 6.55409V121.446C235.001 125.055 232.316 128 229.026 128L19.5653 128C16.2752 128 13.5898 125.055 13.5898 121.446L13.5898 6.55409C13.5898 2.94543 16.2752 -3.09944e-06 19.5653 -3.09944e-06Z" fill="#3A405A"/>
<path d="M222.864 48.6723C224.948 48.6723 226.854 49.5179 228.225 50.9033C229.615 52.3066 230.487 54.2318 230.487 56.3728C230.487 60.6188 227.067 64.0732 222.864 64.0732C220.156 64.0732 217.787 62.6519 216.434 60.4929C215.686 59.3054 215.24 57.8841 215.24 56.3728C215.24 52.1087 218.642 48.6723 222.864 48.6723Z" fill="#464E70"/>
<path d="M228.225 50.9033C229.615 52.3066 230.487 54.2318 230.487 56.3728C230.487 60.6188 227.067 64.0732 222.864 64.0732C220.156 64.0732 217.787 62.6519 216.434 60.4929C219.675 59.7372 225.09 57.5062 228.225 50.9033Z" fill="#32374E"/>
<path opacity="0.4" d="M21.7501 40.5225V71.2164C21.7501 71.8641 21.2156 72.4038 20.5742 72.4038C19.9329 72.4038 19.3984 71.8641 19.3984 71.2164L19.3984 40.5225C19.3984 39.8748 19.9329 39.335 20.5742 39.335C21.2156 39.335 21.7501 39.8748 21.7501 40.5225Z" fill="#307388"/>
<path opacity="0.4" d="M21.7501 76.6668C21.7501 77.3325 21.2156 77.8542 20.5742 77.8542C19.9329 77.8542 19.3984 77.3145 19.3984 76.6668C19.3984 76.0191 19.9329 75.4793 20.5742 75.4793C21.2156 75.4614 21.7501 76.0011 21.7501 76.6668Z" fill="#307388"/>
<path d="M27.1816 5.71369L27.1816 119.428L211.219 119.428V5.71369L27.1816 5.71369Z" fill="#DCEAFF"/>
<path d="M179.019 23.4487V102.194L176.345 100.936L173.331 102.194L172.101 101.008L168.357 102.194L165.807 101.44L161.35 102.194L157.214 101.44L152.489 102.194L149.351 101.008L144.983 102.194L141.471 101.44L137.477 102.194L133.233 101.44L130.452 102.194L127.421 101.44L124.016 102.194V23.4487H179.019Z" fill="white"/>
<path d="M150.534 83.4857C153.818 83.4857 156.48 80.7968 156.48 77.4799C156.48 74.163 153.818 71.4741 150.534 71.4741C147.25 71.4741 144.588 74.163 144.588 77.4799C144.588 80.7968 147.25 83.4857 150.534 83.4857Z" fill="white"/>
<path d="M150.532 83.5033C149.727 83.5033 148.946 83.344 148.211 83.03C147.501 82.7266 146.863 82.2922 146.315 81.7391C145.767 81.1859 145.337 80.5417 145.037 79.8244C144.726 79.0817 144.568 78.2929 144.568 77.4797C144.568 76.6666 144.726 75.8777 145.037 75.1351C145.337 74.4178 145.767 73.7736 146.315 73.2204C146.863 72.6672 147.501 72.2329 148.211 71.9295C148.946 71.6154 149.727 71.4561 150.532 71.4561C151.337 71.4561 152.118 71.6154 152.854 71.9294C153.564 72.2328 154.201 72.6672 154.749 73.2203C155.297 73.7735 155.727 74.4177 156.027 75.135C156.338 75.8776 156.496 76.6665 156.496 77.4796C156.496 78.2928 156.338 79.0817 156.027 79.8243C155.727 80.5416 155.297 81.1858 154.749 81.739C154.201 82.2922 153.564 82.7265 152.854 83.0299C152.118 83.344 151.337 83.5032 150.532 83.5032V83.5033ZM150.532 71.4919C149.732 71.4919 148.955 71.6502 148.225 71.9624C147.519 72.2639 146.885 72.6957 146.34 73.2456C145.796 73.7956 145.368 74.4359 145.07 75.1489C144.761 75.8872 144.604 76.6713 144.604 77.4797C144.604 78.2881 144.761 79.0723 145.07 79.8105C145.368 80.5235 145.796 81.1638 146.34 81.7138C146.885 82.2637 147.519 82.6954 148.224 82.997C148.955 83.3093 149.732 83.4675 150.532 83.4675C151.332 83.4675 152.109 83.3092 152.84 82.997C153.546 82.6954 154.18 82.2637 154.724 81.7138C155.269 81.1638 155.696 80.5235 155.995 79.8105C156.304 79.0723 156.46 78.2881 156.46 77.4797C156.46 76.6714 156.304 75.8872 155.995 75.149C155.696 74.436 155.268 73.7956 154.724 73.2457C154.18 72.6957 153.546 72.264 152.84 71.9625C152.109 71.6502 151.332 71.4919 150.532 71.4919L150.532 71.4919Z" fill="#2C233D"/>
<path d="M150.535 82.8459C153.469 82.8459 155.848 80.4435 155.848 77.4801C155.848 74.5166 153.469 72.1143 150.535 72.1143C147.601 72.1143 145.223 74.5166 145.223 77.4801C145.223 80.4435 147.601 82.8459 150.535 82.8459Z" fill="#E5E2F6"/>
<path d="M154.582 71.7627H154.036L150.496 76.9421L148.207 74.3385H147.66L147.725 74.7705L146.301 76.048L150.323 81.2674H150.857L156.638 73.2846L154.582 71.7627Z" fill="#2C233D"/>
<path d="M150.318 81.2393L145.754 76.0477L147.66 74.3383L150.128 77.1462L154.035 71.7625L156.091 73.2843L150.318 81.2393Z" fill="white"/>
<path d="M150.319 81.2685L150.305 81.252L145.729 76.047L147.661 74.3139L147.673 74.3272L150.127 77.1185L154.031 71.7383L156.115 73.2813L156.105 73.2957L150.319 81.2686L150.319 81.2685ZM145.779 76.05L150.317 81.2117L156.066 73.2889L154.039 71.7882L150.129 77.1753L147.658 74.3644L145.779 76.05V76.05Z" fill="#2C233D"/>
<path d="M169.213 34.9699H132.431C132.074 34.9699 131.789 34.6823 131.789 34.3229C131.789 33.9634 132.074 33.6758 132.431 33.6758H169.213C169.569 33.6758 169.855 33.9634 169.855 34.3229C169.837 34.6823 169.551 34.9699 169.213 34.9699Z" fill="#E5E2F6"/>
<path d="M169.213 40.3806H132.431C132.074 40.3806 131.789 40.093 131.789 39.7335C131.789 39.374 132.074 39.0864 132.431 39.0864H169.213C169.569 39.0864 169.855 39.374 169.855 39.7335C169.837 40.093 169.551 40.3806 169.213 40.3806Z" fill="#E5E2F6"/>
<path d="M161.759 45.79H139.864C139.597 45.79 139.365 45.5743 139.365 45.2867V44.9991C139.365 44.7295 139.579 44.4958 139.864 44.4958H161.759C162.026 44.4958 162.258 44.7115 162.258 44.9991V45.2867C162.258 45.5743 162.044 45.79 161.759 45.79Z" fill="#E5E2F6"/>
<path d="M161.759 51.1999H139.864C139.597 51.1999 139.365 50.9842 139.365 50.6966V50.409C139.365 50.1394 139.579 49.9058 139.864 49.9058H161.759C162.026 49.9058 162.258 50.1215 162.258 50.409V50.6966C162.258 50.9842 162.044 51.1999 161.759 51.1999Z" fill="#E5E2F6"/>
<path d="M161.759 56.6108H139.864C139.597 56.6108 139.365 56.3951 139.365 56.1075V55.8199C139.365 55.5503 139.579 55.3167 139.864 55.3167H161.759C162.026 55.3167 162.258 55.5324 162.258 55.8199V56.1075C162.258 56.3951 162.044 56.6108 161.759 56.6108Z" fill="#E5E2F6"/>
<path d="M150.846 88.8231C144.553 88.8231 139.436 83.6645 139.436 77.3195C139.436 70.9746 144.553 65.8159 150.846 65.8159C157.14 65.8159 162.257 70.9746 162.257 77.3195C162.257 83.6645 157.14 88.8231 150.846 88.8231ZM150.846 66.7506C145.07 66.7506 140.363 71.4958 140.363 77.3195C140.363 83.1432 145.07 87.8884 150.846 87.8884C156.623 87.8884 161.33 83.1432 161.33 77.3195C161.348 71.4958 156.641 66.7506 150.846 66.7506Z" fill="#E5E2F6"/>
<path d="M27.1816 5.71369L27.1816 119.428H96.2665V5.71369H27.1816Z" fill="#E5E2F6"/>
<g clip-path="url(#clip0_3301_1205)">
<path d="M84.4592 28.4448H9.75808C4.36108 28.4448 0 33.1852 0 39.0296V73.4204C0 79.2647 4.36108 84.0052 9.75808 84.0052H16.9583C19.6313 84.0052 21.6519 86.6416 21.1788 89.4989L19.8359 97.5121C19.4906 99.5771 21.8054 100.889 23.1611 99.3953L35.9502 85.3948C36.7559 84.5117 37.8557 84.0182 38.994 84.0182H84.472C89.8562 84.0182 94.2301 79.2777 94.2301 73.4334V39.0296C94.2173 33.1852 89.8434 28.4448 84.4592 28.4448Z" fill="#42AF8F"/>
<path d="M18.2869 65.6531L19.1949 67.5362C19.2844 67.7181 19.4635 67.8479 19.6681 67.8869L21.7144 68.1856C22.2259 68.2635 22.4306 68.8999 22.0597 69.2636L20.5889 70.7182C20.4355 70.861 20.3715 71.0688 20.4099 71.2766L20.7552 73.3416C20.8447 73.8611 20.3076 74.2508 19.8472 74.017L18.0183 73.0429C17.8393 72.952 17.6219 72.952 17.43 73.0429L15.6012 74.017C15.1408 74.2637 14.6036 73.8611 14.6932 73.3416L15.0385 71.2766C15.0768 71.0688 15.0001 70.861 14.8594 70.7182L13.3887 69.2506C13.0178 68.8869 13.2224 68.2376 13.734 68.1726L15.7802 67.8739C15.9849 67.8479 16.1639 67.7181 16.2534 67.5233L17.1614 65.6401C17.4044 65.1725 18.0567 65.1725 18.2869 65.6531Z" fill="#C7E3E4"/>
<path d="M32.6756 65.6534L33.5836 67.5366C33.6731 67.7184 33.8522 67.8483 34.0568 67.8872L36.103 68.1859C36.6146 68.2638 36.8192 68.9002 36.4483 69.2639L34.9776 70.7315C34.8241 70.8743 34.7602 71.0821 34.7986 71.2899L35.1439 73.3549C35.2334 73.8744 34.6962 74.2641 34.2358 74.0303L32.407 73.0562C32.2279 72.9653 32.0105 72.9653 31.8187 73.0562L29.9899 74.0303C29.5294 74.277 28.9923 73.8744 29.0818 73.3549L29.4271 71.2899C29.4655 71.0821 29.3888 70.8743 29.2481 70.7315L27.7773 69.2639C27.4065 68.9002 27.6111 68.2509 28.1226 68.1859L30.1689 67.8872C30.3735 67.8612 30.5526 67.7314 30.6421 67.5366L31.5501 65.6534C31.7803 65.1728 32.4454 65.1728 32.6756 65.6534Z" fill="#C7E3E4"/>
<path d="M47.0642 65.6534L47.9723 67.5366C48.0618 67.7184 48.2408 67.8483 48.4455 67.8872L50.4917 68.1859C51.0033 68.2638 51.2079 68.9002 50.837 69.2639L49.3663 70.7315C49.2128 70.8743 49.1489 71.0821 49.1872 71.2899L49.5325 73.3549C49.6221 73.8744 49.0849 74.2641 48.6245 74.0303L46.7957 73.0562C46.6166 72.9653 46.3992 72.9653 46.2074 73.0562L44.3785 74.0303C43.9181 74.277 43.381 73.8744 43.4705 73.3549L43.8158 71.2899C43.8542 71.0821 43.7774 70.8743 43.6368 70.7315L42.166 69.2639C41.7951 68.9002 41.9997 68.2509 42.5113 68.1859L44.5576 67.8872C44.7622 67.8612 44.9412 67.7314 45.0308 67.5366L45.9388 65.6534C46.169 65.1728 46.834 65.1728 47.0642 65.6534Z" fill="#C7E3E4"/>
<path d="M61.4529 65.6534L62.3609 67.5366C62.4505 67.7184 62.6295 67.8483 62.8341 67.8872L64.8804 68.1859C65.3919 68.2638 65.5966 68.9002 65.2257 69.2639L63.7549 70.7315C63.6015 70.8743 63.5375 71.0821 63.5759 71.2899L63.9212 73.3549C64.0107 73.8744 63.4736 74.2641 63.0132 74.0303L61.1843 73.0562C61.0053 72.9653 60.7879 72.9653 60.596 73.0562L58.7672 74.0303C58.3068 74.277 57.7696 73.8744 57.8592 73.3549L58.2045 71.2899C58.2428 71.0821 58.1661 70.8743 58.0254 70.7315L56.5547 69.2639C56.1838 68.9002 56.3884 68.2509 56.9 68.1859L58.9462 67.8872C59.1509 67.8612 59.3299 67.7314 59.4194 67.5366L60.3275 65.6534C60.5577 65.1728 61.2227 65.1728 61.4529 65.6534Z" fill="#C7E3E4"/>
<path d="M75.8377 65.6534L76.7457 67.5366C76.8352 67.7184 77.0143 67.8483 77.2189 67.8872L79.2651 68.1859C79.7767 68.2638 79.9813 68.9002 79.6105 69.2639L78.1397 70.7315C77.9862 70.8743 77.9223 71.0821 77.9607 71.2899L78.306 73.3549C78.3955 73.8744 77.8583 74.2641 77.3979 74.0303L75.5691 73.0562C75.3901 72.9653 75.1726 72.9653 74.9808 73.0562L73.152 74.0303C72.6915 74.277 72.1544 73.8744 72.2439 73.3549L72.5892 71.2899C72.6276 71.0821 72.5509 70.8743 72.4102 70.7315L70.9394 69.2639C70.5686 68.9002 70.7732 68.2509 71.2848 68.1859L73.331 67.8872C73.5356 67.8612 73.7147 67.7314 73.8042 67.5366L74.7122 65.6534C74.9424 65.1728 75.6075 65.1728 75.8377 65.6534Z" fill="#C7E3E4"/>
<path d="M18.3502 59.913C24.1279 59.913 28.8116 55.1566 28.8116 49.2893C28.8116 43.4219 24.1279 38.6655 18.3502 38.6655C12.5724 38.6655 7.88867 43.4219 7.88867 49.2893C7.88867 55.1566 12.5724 59.913 18.3502 59.913Z" fill="#C7E3E4"/>
<path d="M21.045 45.2883C21.3957 43.7805 20.4763 42.2696 18.9915 41.9136C17.5067 41.5577 16.0188 42.4914 15.6681 43.9992C15.3175 45.5069 16.2369 47.0178 17.7216 47.3738C19.2064 47.7298 20.6943 46.796 21.045 45.2883Z" fill="#307388"/>
<path d="M24.2455 54.2377H12.4668C11.8401 54.2377 11.3925 53.7052 11.546 53.1598C12.3005 50.3804 15.063 48.3154 18.3625 48.3154C21.6621 48.3154 24.4246 50.3804 25.1791 53.1598C25.3198 53.7052 24.8594 54.2377 24.2455 54.2377Z" fill="#307388"/>
<path d="M82.3901 44.6662H38.677C38.2294 44.6662 37.8457 44.2895 37.8457 43.822C37.8457 43.3674 38.2166 42.9778 38.677 42.9778H82.3901C82.8378 42.9778 83.2214 43.3544 83.2214 43.822C83.2214 44.2895 82.8505 44.6662 82.3901 44.6662Z" fill="#C7E3E4"/>
<path d="M62.9752 50.2247H38.612C38.1899 50.2247 37.8574 49.874 37.8574 49.4584V49.3156C37.8574 48.887 38.2027 48.5493 38.612 48.5493H62.988C63.41 48.5493 63.7426 48.9 63.7426 49.3156V49.4584C63.7298 49.874 63.3972 50.2247 62.9752 50.2247Z" fill="#C7E3E4"/>
<path d="M55.5458 55.6017H38.677C38.2294 55.6017 37.8457 55.2251 37.8457 54.7575C37.8457 54.303 38.2166 53.9133 38.677 53.9133H55.5458C55.9934 53.9133 56.3771 54.29 56.3771 54.7575C56.3643 55.2251 55.9934 55.6017 55.5458 55.6017Z" fill="#C7E3E4"/>
<path d="M77.3007 50.2247H67.095C66.6473 50.2247 66.2637 49.8481 66.2637 49.3806C66.2637 48.926 66.6346 48.5364 67.095 48.5364H77.3007C77.7483 48.5364 78.132 48.913 78.132 49.3806C78.1192 49.8481 77.7483 50.2247 77.3007 50.2247Z" fill="#C7E3E4"/>
</g>
<path d="M183.865 11.2573C183.918 11.1315 183.989 11.0237 184.079 10.9338C184.132 10.8619 184.203 10.79 184.275 10.7361L184.578 10.4305L184.649 10.4845C186.218 9.71156 189.427 10.5384 192.69 12.6773C196.63 15.2656 199.162 18.8425 198.431 20.7298L198.538 20.8197L198.092 21.2511C198.075 21.2691 198.057 21.287 198.021 21.323L198.003 21.341C197.896 21.4488 197.772 21.5387 197.629 21.6106C196.096 22.4194 192.833 21.6106 189.534 19.4537C185.558 16.7755 183.009 13.1267 183.865 11.2573Z" fill="#E5E2F6"/>
<path d="M193.171 12.192C189.16 9.54976 185.201 8.92066 184.328 10.79C183.454 12.6593 186.004 16.3081 190.015 18.9504C194.027 21.5926 197.985 22.2217 198.859 20.3524C199.732 18.483 197.183 14.8342 193.171 12.192Z" fill="#505ECE"/>
<path d="M190.248 18.4279C188.572 17.3135 187.128 15.9834 186.165 14.6712C185.203 13.3232 184.864 12.1368 185.22 11.346C185.399 10.9326 185.755 10.663 186.255 10.5192C187.734 10.0878 190.355 10.9146 192.94 12.6222C194.616 13.7366 196.061 15.0667 197.023 16.3788C197.986 17.7269 198.325 18.9132 197.968 19.7041C197.79 20.1175 197.433 20.3871 196.934 20.5309C196.667 20.6028 196.382 20.6387 196.043 20.6387C194.527 20.6207 192.388 19.8299 190.248 18.4279ZM186.344 10.7888C185.934 10.9146 185.648 11.1303 185.506 11.4538C185.203 12.1369 185.523 13.2333 186.415 14.4735C187.342 15.7677 188.768 17.0798 190.409 18.1583C192.459 19.5243 194.599 20.3152 196.061 20.3152C196.346 20.3152 196.613 20.2792 196.845 20.2073C197.255 20.0815 197.54 19.8658 197.683 19.5423C197.986 18.8593 197.665 17.7628 196.774 16.5226C195.847 15.2284 194.42 13.9163 192.78 12.8379C190.73 11.4718 188.59 10.6809 187.128 10.6809C186.843 10.6809 186.575 10.7169 186.344 10.7888Z" fill="#C7E3E4"/>
<path d="M193.53 16.6315C193.619 16.6494 193.69 16.6494 193.762 16.6315C193.833 16.6135 193.869 16.5775 193.904 16.5056C193.94 16.4517 193.94 16.3618 193.94 16.272C193.94 16.1821 193.904 16.0922 193.869 15.9844C193.833 15.8765 193.762 15.7867 193.672 15.6788C193.583 15.571 193.458 15.4811 193.316 15.3733C193.173 15.2654 192.995 15.1755 192.781 15.0857L192.692 14.151C193.048 14.3128 193.351 14.4745 193.619 14.6723C193.886 14.87 194.1 15.0497 194.279 15.2654C194.457 15.4631 194.6 15.6788 194.706 15.8765C194.813 16.0743 194.885 16.272 194.92 16.4697L195.794 16.8651L195.848 17.3684L194.974 16.973C194.974 17.1527 194.92 17.2965 194.849 17.4223C194.778 17.5482 194.671 17.6201 194.528 17.656C194.386 17.692 194.225 17.7099 194.011 17.674C193.815 17.638 193.583 17.5661 193.316 17.4583C193.031 17.3325 192.781 17.1887 192.567 17.0269C192.353 16.8651 192.157 16.6854 191.996 16.5056C191.818 16.3079 191.676 16.1102 191.533 15.8765C191.39 15.6608 191.265 15.4092 191.123 15.1576C191.034 14.9958 190.962 14.852 190.891 14.7442C190.82 14.6363 190.731 14.5285 190.659 14.4386C190.57 14.3487 190.499 14.2768 190.41 14.2229C190.32 14.169 190.214 14.1151 190.107 14.0611C190 14.0072 189.893 13.9713 189.803 13.9533C189.714 13.9353 189.625 13.9353 189.572 13.9353C189.5 13.9533 189.465 13.9892 189.429 14.0432C189.393 14.0971 189.376 14.169 189.393 14.2588C189.411 14.4386 189.518 14.6183 189.696 14.7981C189.875 14.9778 190.16 15.1576 190.499 15.3014L190.588 16.236C190.285 16.1102 190.017 15.9664 189.786 15.8046C189.554 15.6429 189.322 15.4631 189.144 15.2834C188.965 15.1036 188.805 14.9059 188.68 14.7082C188.555 14.5105 188.466 14.3128 188.413 14.1151L187.45 13.6837L187.396 13.1624L188.341 13.5758C188.341 13.3961 188.395 13.2523 188.466 13.1265C188.555 13.0186 188.662 12.9287 188.805 12.8928C188.948 12.8568 189.126 12.8389 189.322 12.8748C189.518 12.9108 189.75 12.9827 190 13.0905C190.285 13.2163 190.534 13.3601 190.748 13.5219C190.962 13.6837 191.158 13.8634 191.319 14.0432C191.479 14.2409 191.64 14.4386 191.783 14.6723C191.925 14.8879 192.05 15.1396 192.175 15.3912C192.246 15.535 192.317 15.6788 192.389 15.7867C192.46 15.8945 192.531 16.0024 192.62 16.0922C192.71 16.1821 192.799 16.254 192.888 16.3259C192.977 16.3978 193.102 16.4517 193.227 16.5056C193.334 16.5775 193.423 16.6135 193.53 16.6315Z" fill="#C7E3E4"/>
<path d="M104.494 21.6284C104.547 21.5026 104.619 21.3948 104.708 21.3049C104.761 21.233 104.833 21.1611 104.904 21.1072L105.207 20.8016L105.296 20.8555C106.847 20.0827 110.074 20.9095 113.337 23.0484C117.277 25.6367 119.809 29.2136 119.078 31.1009L119.185 31.1908L118.739 31.6222C118.722 31.6402 118.704 31.6581 118.668 31.6941L118.65 31.7121C118.543 31.8199 118.418 31.9098 118.276 31.9817C116.743 32.7905 113.48 31.9817 110.181 29.8248C106.17 27.1466 103.62 23.4978 104.494 21.6284Z" fill="#E5E2F6"/>
<path d="M119.354 30.9542C120.508 29.2851 118.249 25.6857 114.308 22.9147C110.367 20.1438 106.236 19.2505 105.081 20.9197C103.926 22.5888 106.185 26.1882 110.127 28.9592C114.068 31.7302 118.199 32.6234 119.354 30.9542Z" fill="#505ECE"/>
<path d="M110.873 28.7997C109.197 27.6853 107.753 26.3552 106.79 25.0431C105.828 23.695 105.489 22.5087 105.845 21.7178C106.024 21.3044 106.38 21.0348 106.879 20.891C108.359 20.4596 110.98 21.2864 113.565 22.994C115.241 24.1084 116.686 25.4385 117.648 26.7506C118.611 28.0987 118.95 29.285 118.593 30.0759C118.415 30.4893 118.058 30.7589 117.559 30.9027C117.292 30.9746 117.007 31.0105 116.668 31.0105C115.152 30.9926 112.995 30.2017 110.873 28.7997ZM106.969 21.1606C106.559 21.2864 106.273 21.5021 106.131 21.8257C105.828 22.5087 106.148 23.6051 107.04 24.8453C107.967 26.1395 109.393 27.4516 111.034 28.5301C113.084 29.8961 115.224 30.687 116.686 30.687C116.971 30.687 117.238 30.6511 117.47 30.5792C117.88 30.4533 118.165 30.2377 118.308 29.9141C118.611 29.2311 118.29 28.1346 117.399 26.8944C116.472 25.6003 115.045 24.2881 113.405 23.2097C111.355 21.8436 109.215 21.0527 107.753 21.0527C107.468 21.0527 107.2 21.0887 106.969 21.1606Z" fill="#C7E3E4"/>
<path d="M114.135 27.0023C114.224 27.0203 114.296 27.0203 114.367 27.0023C114.438 26.9843 114.474 26.9484 114.51 26.8765C114.545 26.8226 114.545 26.7327 114.545 26.6428C114.545 26.553 114.51 26.4631 114.474 26.3552C114.438 26.2474 114.367 26.1575 114.278 26.0497C114.189 25.9418 114.064 25.852 113.921 25.7441C113.779 25.6363 113.6 25.5464 113.386 25.4565L113.297 24.5219C113.654 24.6836 113.957 24.8454 114.224 25.0431C114.492 25.2408 114.706 25.4206 114.884 25.6363C115.062 25.834 115.205 26.0497 115.312 26.2474C115.419 26.4451 115.49 26.6428 115.526 26.8405L116.4 27.236L116.453 27.7393L115.579 27.3438C115.579 27.5236 115.526 27.6674 115.455 27.7932C115.383 27.901 115.276 27.9909 115.134 28.0269C114.991 28.0628 114.831 28.0808 114.617 28.0448C114.42 28.0089 114.189 27.937 113.921 27.8291C113.636 27.7033 113.386 27.5595 113.172 27.3978C112.958 27.236 112.762 27.0562 112.602 26.8765C112.424 26.6788 112.281 26.4811 112.138 26.2474C111.996 26.0317 111.871 25.7801 111.728 25.5284C111.639 25.3666 111.568 25.2229 111.496 25.115C111.425 25.0072 111.336 24.8993 111.265 24.8094C111.176 24.7196 111.104 24.6477 111.015 24.5937C110.926 24.5398 110.819 24.4859 110.712 24.432C110.605 24.3781 110.498 24.3421 110.409 24.3241C110.32 24.3062 110.231 24.3062 110.177 24.3062C110.106 24.3241 110.07 24.3601 110.034 24.414C109.999 24.4679 109.981 24.5398 109.999 24.6297C110.017 24.8094 110.124 24.9892 110.302 25.1689C110.48 25.3487 110.765 25.5284 111.104 25.6722L111.193 26.6069C110.89 26.4811 110.623 26.3373 110.391 26.1755C110.141 26.0137 109.928 25.834 109.749 25.6542C109.571 25.4745 109.41 25.2768 109.286 25.0791C109.161 24.8813 109.072 24.6836 109.018 24.4859L108.055 24.0545L108.002 23.5333L108.947 23.9467C108.947 23.7669 109 23.6231 109.072 23.4973C109.161 23.3895 109.268 23.2996 109.41 23.2636C109.553 23.2277 109.731 23.2097 109.928 23.2457C110.124 23.2816 110.355 23.3535 110.605 23.4614C110.89 23.5872 111.14 23.731 111.354 23.8928C111.568 24.0545 111.764 24.2343 111.924 24.414C112.085 24.6117 112.245 24.8094 112.388 25.0431C112.531 25.2588 112.655 25.5104 112.78 25.7621C112.852 25.9059 112.923 26.0497 112.994 26.1575C113.065 26.2654 113.137 26.3732 113.226 26.4631C113.315 26.553 113.404 26.6248 113.493 26.6967C113.583 26.7686 113.707 26.8226 113.832 26.8765C113.939 26.9484 114.046 26.9843 114.135 27.0023Z" fill="#C7E3E4"/>
<path d="M185.557 83.0296C185.611 82.9038 185.682 82.7779 185.771 82.6881C185.843 82.6162 185.914 82.5443 185.985 82.4724L186.306 82.1488L186.395 82.2028C188.036 81.3939 191.423 82.2567 194.864 84.5035C199.019 87.2356 201.675 90.9922 200.908 92.9874L201.033 93.0773L200.57 93.5446C200.552 93.5626 200.516 93.5985 200.498 93.6165L200.481 93.6345C200.356 93.7423 200.231 93.8322 200.088 93.922C198.466 94.7848 195.043 93.9221 191.566 91.6393C187.34 88.8353 184.648 84.9888 185.557 83.0296Z" fill="#E5E2F6"/>
<path d="M195.363 84.0002C191.138 81.2141 186.966 80.567 186.056 82.5263C185.147 84.4855 187.821 88.35 192.047 91.118C196.273 93.904 200.445 94.5511 201.354 92.5919C202.263 90.6327 199.589 86.7862 195.363 84.0002Z" fill="#505ECE"/>
<path d="M192.284 90.561C190.519 89.3927 188.986 87.9907 187.987 86.6067C186.971 85.1867 186.614 83.9464 186.989 83.1017C187.185 82.6703 187.542 82.3827 188.076 82.2209C189.628 81.7715 192.391 82.6343 195.119 84.4317C196.884 85.6001 198.417 87.0021 199.416 88.3861C200.432 89.8061 200.789 91.0463 200.414 91.8911C200.218 92.3225 199.862 92.6101 199.327 92.7718C199.059 92.8437 198.738 92.8977 198.4 92.8977C196.795 92.8977 194.531 92.0349 192.284 90.561ZM188.183 82.5265C187.755 82.6523 187.452 82.886 187.292 83.2275C186.971 83.9464 187.31 85.1148 188.255 86.4089C189.235 87.775 190.733 89.141 192.462 90.2914C194.62 91.7293 196.884 92.5562 198.417 92.5562C198.72 92.5562 199.006 92.5202 199.255 92.4483C199.683 92.3225 199.986 92.0888 200.147 91.7473C200.468 91.0283 200.129 89.86 199.184 88.5658C198.203 87.1998 196.706 85.8337 194.976 84.6834C192.819 83.2454 190.555 82.4186 189.021 82.4186C188.7 82.4186 188.415 82.4546 188.183 82.5265Z" fill="#C7E3E4"/>
<path d="M195.722 88.6741C195.811 88.6921 195.9 88.6921 195.972 88.6561C196.043 88.6381 196.079 88.5842 196.114 88.5303C196.15 88.4764 196.15 88.3865 196.15 88.2786C196.15 88.1888 196.114 88.0809 196.079 87.9911C196.043 87.8832 195.972 87.7754 195.865 87.6675C195.776 87.5597 195.651 87.4518 195.49 87.344C195.348 87.2361 195.152 87.1283 194.938 87.0384L194.848 86.0678C195.223 86.2296 195.544 86.4093 195.811 86.607C196.079 86.8048 196.31 87.0204 196.507 87.2182C196.703 87.4338 196.845 87.6496 196.952 87.8652C197.059 88.0809 197.148 88.2966 197.184 88.4944L198.111 88.9077L198.165 89.447L197.238 89.0336C197.238 89.2313 197.184 89.3751 197.113 89.5009C197.024 89.6267 196.917 89.7166 196.774 89.7526C196.631 89.8065 196.453 89.8065 196.239 89.7705C196.025 89.7346 195.793 89.6627 195.508 89.5369C195.205 89.411 194.938 89.2493 194.724 89.0875C194.492 88.9257 194.296 88.728 194.117 88.5303C193.939 88.3326 193.779 88.1169 193.636 87.8652C193.493 87.6316 193.351 87.3799 193.208 87.1103C193.119 86.9485 193.03 86.8047 192.959 86.6789C192.887 86.5531 192.798 86.4453 192.709 86.3554C192.62 86.2655 192.531 86.1936 192.441 86.1217C192.352 86.0498 192.245 85.9959 192.121 85.942C192.014 85.8881 191.907 85.8521 191.8 85.8341C191.71 85.8162 191.621 85.8162 191.55 85.8162C191.479 85.8341 191.425 85.8701 191.39 85.924C191.354 85.9779 191.336 86.0498 191.354 86.1577C191.372 86.3374 191.479 86.5351 191.675 86.7329C191.871 86.9306 192.156 87.1103 192.531 87.2721L192.62 88.2427C192.317 88.0989 192.031 87.9551 191.764 87.7754C191.514 87.6136 191.283 87.4159 191.086 87.2361C190.89 87.0384 190.73 86.8407 190.605 86.643C190.48 86.4273 190.373 86.2296 190.32 86.0139L189.303 85.5645L189.25 85.0253L190.248 85.4746C190.248 85.2769 190.302 85.1331 190.391 85.0073C190.48 84.8815 190.587 84.8096 190.748 84.7557C190.89 84.7017 191.086 84.7018 191.283 84.7377C191.496 84.7737 191.728 84.8455 191.996 84.9714C192.299 85.1152 192.566 85.2589 192.798 85.4207C193.03 85.5825 193.226 85.7802 193.404 85.9779C193.583 86.1757 193.743 86.3913 193.886 86.643C194.028 86.8766 194.171 87.1283 194.296 87.3979C194.367 87.5597 194.456 87.6855 194.527 87.8113C194.599 87.9371 194.688 88.045 194.777 88.1349C194.866 88.2247 194.955 88.3146 195.062 88.3685C195.169 88.4404 195.276 88.4943 195.419 88.5662C195.526 88.6202 195.633 88.6561 195.722 88.6741Z" fill="#C7E3E4"/>
<path d="M83.9427 62.2006C84.0319 62.0029 84.1567 61.8232 84.2815 61.6614C84.3885 61.5356 84.4955 61.4277 84.6203 61.3199L85.1195 60.8166L85.2443 60.9065C87.8117 59.6483 93.0892 60.9784 98.438 64.5013C104.91 68.7613 109.046 74.6209 107.852 77.7305L108.03 77.8743L107.317 78.5932C107.281 78.6292 107.246 78.6651 107.21 78.7011L107.192 78.7191C107.014 78.8808 106.8 79.0246 106.568 79.1505C104.036 80.4806 98.6876 79.1504 93.2853 75.5915C86.7063 71.2597 82.5164 65.2563 83.9427 62.2006Z" fill="#E5E2F6"/>
<path d="M99.2075 63.7103C92.6285 59.3785 86.1208 58.3539 84.7123 61.4096C83.2859 64.4832 87.4758 70.4686 94.0548 74.8005C100.634 79.1323 107.142 80.1568 108.55 77.1012C109.976 74.0456 105.804 68.0421 99.2075 63.7103Z" fill="#505ECE"/>
<path d="M98.3456 70.0132C98.4622 70.0353 98.5787 70.0353 98.672 69.9909C98.7652 69.9688 98.8119 69.9022 98.8585 69.8357C98.9051 69.7691 98.9051 69.6582 98.9051 69.5251C98.9051 69.4142 98.8585 69.281 98.8119 69.1701C98.7652 69.037 98.672 68.9039 98.5321 68.7708C98.4155 68.6377 98.2523 68.5046 98.0425 68.3715C97.856 68.2384 97.5996 68.1052 97.3198 67.9943L97.2032 66.7964C97.6928 66.996 98.1125 67.2179 98.4622 67.4619C98.8119 67.7059 99.1149 67.9721 99.3714 68.2162C99.6278 68.4824 99.8144 68.7486 99.9542 69.0148C100.094 69.2811 100.211 69.5473 100.257 69.7913L101.47 70.3015L101.54 70.9671L100.327 70.4568C100.327 70.7009 100.257 70.8783 100.164 71.0336C100.047 71.1889 99.9076 71.2999 99.7211 71.3442C99.5346 71.4108 99.3015 71.4108 99.0217 71.3664C98.7419 71.322 98.4388 71.2333 98.0658 71.078C97.6695 70.9227 97.3198 70.723 97.0401 70.5234C96.737 70.3237 96.4805 70.0797 96.2474 69.8357C96.0143 69.5916 95.8044 69.3254 95.6179 69.0148C95.4314 68.7264 95.2449 68.4158 95.0584 68.0831C94.9418 67.8834 94.8253 67.7059 94.732 67.5506C94.6388 67.3953 94.5222 67.2622 94.4056 67.1513C94.2891 67.0404 94.1725 66.9517 94.0559 66.8629C93.9394 66.7742 93.7995 66.7076 93.6363 66.6411C93.4964 66.5745 93.3565 66.5301 93.2166 66.508C93.1001 66.4858 92.9835 66.4858 92.8903 66.4858C92.797 66.508 92.7271 66.5523 92.6804 66.6189C92.6338 66.6854 92.6105 66.7742 92.6338 66.9073C92.6571 67.1291 92.797 67.3732 93.0534 67.6172C93.3099 67.8612 93.6829 68.0831 94.1725 68.2827L94.2891 69.4807C93.8927 69.3032 93.5197 69.1258 93.17 68.9039C92.8436 68.7043 92.5406 68.4602 92.2841 68.2384C92.0277 67.9943 91.8178 67.7503 91.6546 67.5063C91.4914 67.2401 91.3516 66.996 91.2816 66.7298L89.9528 66.1752L89.8828 65.5097L91.1884 66.0643C91.1884 65.8202 91.2583 65.6428 91.3749 65.4875C91.4914 65.3322 91.6313 65.2434 91.8411 65.1769C92.0277 65.1103 92.2841 65.1103 92.5405 65.1547C92.8203 65.1991 93.1234 65.2878 93.4731 65.4431C93.8694 65.6206 94.2191 65.798 94.5222 65.9977C94.8253 66.1974 95.0817 66.4414 95.3149 66.6855C95.548 66.9295 95.7578 67.1957 95.9443 67.5063C96.1308 67.7947 96.3173 68.1052 96.4805 68.438C96.5738 68.6377 96.6903 68.793 96.7836 68.9483C96.8768 69.1036 96.9934 69.2367 97.11 69.3476C97.2265 69.4585 97.3431 69.5694 97.483 69.636C97.6229 69.7247 97.7627 69.7913 97.9493 69.88C98.0891 69.9466 98.229 69.991 98.3456 70.0132Z" fill="#C7E3E4"/>
<path d="M94.4275 73.9553C91.6639 72.1399 89.2926 69.947 87.7415 67.7721C86.1547 65.5612 85.602 63.62 86.1903 62.3079C86.4934 61.6428 87.064 61.1755 87.8841 60.9418C90.3089 60.2408 94.6236 61.5889 98.8491 64.3749C101.613 66.1903 103.984 68.3832 105.535 70.5581C107.122 72.769 107.675 74.7102 107.086 76.0223C106.783 76.6874 106.213 77.1547 105.393 77.3884C104.965 77.5142 104.483 77.5681 103.948 77.5681C101.452 77.5681 97.9042 76.256 94.4275 73.9553ZM88.0089 61.4271C87.3314 61.6249 86.8679 62.0023 86.6182 62.5236C86.1012 63.638 86.6539 65.4534 88.1159 67.4845C89.6314 69.6055 91.967 71.7444 94.6771 73.5419C98.0468 75.7707 101.559 77.0828 103.948 77.0828C104.43 77.0828 104.875 77.0289 105.25 76.921C105.927 76.7233 106.391 76.3459 106.641 75.8246C107.158 74.7102 106.605 72.8948 105.143 70.8637C103.627 68.7427 101.292 66.6038 98.5817 64.8063C95.212 62.5775 91.6996 61.2654 89.3105 61.2654C88.8291 61.2654 88.3833 61.3193 88.0089 61.4271Z" fill="#C7E3E4"/>
<defs>
<clipPath id="clip0_3301_1205">
<rect width="94.2173" height="71.5739" fill="white" transform="translate(0 28.4448)"/>
</clipPath>
</defs>
</svg>
