<svg width="241" height="139" viewBox="0 0 241 139" fill="none" xmlns="http://www.w3.org/2000/svg">
<path d="M120.709 138.494C187.143 138.494 240.998 133.491 240.998 127.321C240.998 121.15 187.143 116.147 120.709 116.147C54.2752 116.147 0.419922 121.15 0.419922 127.321C0.419922 133.491 54.2752 138.494 120.709 138.494Z" fill="#EFF4F9"/>
<path d="M99.7125 65.1741L46.1317 80.3122C45.3403 80.5331 44.5257 80.0564 44.3394 79.2658L28.0813 12.7371C27.8951 11.9581 28.3723 11.1791 29.1404 10.9931L72.1191 0.517334L82.5816 5.575L100.69 63.3603C100.946 64.1276 100.492 64.9532 99.7125 65.1741Z" fill="#F7F5F1"/>
<path d="M37.6008 15.8653C37.5891 15.8653 37.5775 15.8653 37.5658 15.8653H37.3796C36.4252 15.9118 35.6338 15.6328 35.0868 15.0979C34.5747 14.598 34.2954 13.8655 34.307 13.0516L34.3535 8.43577C34.3535 8.28462 34.4816 8.16836 34.6329 8.16836C34.7842 8.16836 34.9006 8.29625 34.9006 8.4474L34.854 13.0632C34.8424 13.726 35.0635 14.3073 35.4709 14.7143C35.9131 15.1444 36.5882 15.377 37.3796 15.3305H37.5775C37.5891 15.3305 37.6008 15.3305 37.6008 15.3305C38.6832 15.3305 39.591 14.4585 39.6259 13.3655L39.8237 5.69184C39.8354 5.21514 39.4513 4.80821 38.9741 4.79658L37.2865 4.75007C37.2749 4.75007 37.2749 4.75007 37.2632 4.75007C36.786 4.75007 36.402 5.12213 36.3903 5.59883L36.2739 10.0403C36.2623 10.2728 36.3554 10.4937 36.5183 10.6681C36.6813 10.8425 36.9024 10.9355 37.1352 10.9355C37.368 10.9355 37.5891 10.8541 37.7637 10.6914C37.9383 10.5286 38.0314 10.3193 38.0314 10.0752L38.1012 7.23821C38.1012 7.08706 38.2409 6.98242 38.3805 6.97079C38.5318 6.97079 38.6482 7.09869 38.6482 7.24984L38.5784 10.0868C38.5668 10.4705 38.4155 10.8193 38.1361 11.0867C37.8568 11.3425 37.496 11.482 37.1236 11.482C36.7395 11.4704 36.3903 11.3192 36.1226 11.0402C35.8666 10.7611 35.7269 10.4007 35.7269 10.0286L35.8433 5.5872C35.8666 4.81983 36.4951 4.20361 37.2632 4.20361C37.2749 4.20361 37.2865 4.20361 37.2981 4.20361L38.9858 4.25012C39.7656 4.27337 40.394 4.92448 40.3708 5.70347L40.1729 13.3772C40.1264 14.7491 38.9741 15.8653 37.6008 15.8653Z" fill="#FF5A5F"/>
<path d="M68.5631 23.1419L41.377 29.6762C40.958 29.7809 40.5623 29.5483 40.5507 29.2111L40.5391 28.8042C40.5391 28.5368 40.7718 28.281 41.1093 28.1996L68.3071 22.0839C68.5515 22.0258 68.8075 22.0839 68.9704 22.2234C69.2963 22.5141 69.0752 23.0141 68.5631 23.1419Z" fill="#C7E3E4"/>
<path d="M59.1156 29.2826L41.9846 33.5496C41.717 33.6194 41.4377 33.3636 41.4144 33.0264L41.3795 32.6195C41.3562 32.3521 41.4959 32.1195 41.7053 32.073L58.8829 28.2129C59.0342 28.1781 59.2087 28.2478 59.3251 28.399C59.5462 28.7129 59.4415 29.2012 59.1156 29.2826Z" fill="#C7E3E4"/>
<path d="M66.4121 31.2469L42.9269 36.9441C42.5661 37.0371 42.2053 36.7929 42.1937 36.4557L42.1704 36.0488C42.1588 35.7814 42.3566 35.5372 42.6476 35.4675L66.1561 30.1773C66.3656 30.1307 66.5867 30.1889 66.738 30.34C67.0289 30.6423 66.8544 31.1423 66.4121 31.2469Z" fill="#C7E3E4"/>
<path d="M79.2719 24.7355L62.1409 29.0025C61.8732 29.0723 61.5939 28.8165 61.5707 28.4793L61.5357 28.0724C61.5125 27.805 61.6521 27.5724 61.8616 27.5259L79.0391 23.6658C79.1904 23.6309 79.365 23.7007 79.4814 23.8518C79.7025 24.1774 79.5977 24.6541 79.2719 24.7355Z" fill="#C7E3E4"/>
<path d="M68.029 13.8183L46.6734 19.0387C46.3359 19.1201 46.0101 18.8759 45.9984 18.5388L45.9752 18.1318C45.9635 17.8644 46.1381 17.6203 46.4058 17.5621L67.7962 12.7486C67.994 12.7021 68.1919 12.7719 68.3315 12.923C68.5876 13.2253 68.4363 13.7136 68.029 13.8183Z" fill="#C7E3E4"/>
<path d="M57.7302 19.4924L41.8329 23.4804C41.5885 23.5385 41.3208 23.2827 41.2859 22.9455L41.251 22.5386C41.2277 22.2712 41.3441 22.0503 41.5419 22.0038L57.4858 18.4111C57.6255 18.3762 57.7884 18.4576 57.8932 18.6087C58.1143 18.9459 58.0328 19.4226 57.7302 19.4924Z" fill="#C7E3E4"/>
<path d="M76.4939 15.272L60.5966 19.26C60.3522 19.3181 60.0845 19.0624 60.0496 18.7252L60.0147 18.3182C59.9914 18.0508 60.1078 17.8299 60.3056 17.7834L76.2495 14.2023C76.3892 14.1675 76.5521 14.2489 76.6568 14.4C76.8896 14.7256 76.7965 15.2023 76.4939 15.272Z" fill="#C7E3E4"/>
<path d="M51.5192 62.4417C50.0063 62.4417 48.6214 61.4302 48.2257 59.8955L44.7576 46.5363C44.2921 44.7225 45.386 42.8622 47.2015 42.3971L59.5377 39.1997C60.4222 38.9672 61.3299 39.0951 62.1097 39.5602C62.8894 40.0252 63.448 40.7577 63.6808 41.6414L67.1489 55.0006C67.3816 55.8842 67.2536 56.7911 66.7881 57.5701C66.3226 58.3491 65.5894 58.9072 64.7049 59.1397L52.3688 62.3371C52.0778 62.4069 51.7985 62.4417 51.5192 62.4417ZM60.3989 39.8857C60.1778 39.8857 59.9567 39.909 59.7355 39.9671L47.3994 43.1645C46.0145 43.5249 45.1765 44.9434 45.5373 46.3386L49.0054 59.6978C49.3662 61.0814 50.786 61.9185 52.1826 61.5581L64.5187 58.3607C65.1937 58.1863 65.7523 57.7561 66.1131 57.1632C66.4622 56.5586 66.567 55.861 66.3924 55.1866L62.9243 41.8274C62.7498 41.153 62.3192 40.595 61.7256 40.2345C61.3067 40.0136 60.8528 39.8857 60.3989 39.8857Z" fill="#C7E3E4"/>
<path d="M72.1191 0.506104L73.6204 6.58693C73.7717 7.19152 74.3769 7.56358 74.9821 7.41243L82.5816 5.56377L72.1191 0.506104Z" fill="#C7E3E4"/>
<path d="M26.5343 113.971L21.0762 104.007L21.1576 103.949L101.354 46.6057L101.424 46.6754L123.455 68.1967L178.234 26.7471L168.447 13.8413L168.726 13.8762L203.838 18.7246L203.826 18.8408L198.961 54.0817L198.798 53.8608L189.174 41.1759L120.08 93.4617L120.01 93.3687L96.8155 63.2436L26.5343 113.971ZM21.3671 104.077L26.6042 113.634L96.8505 62.9181L96.9203 63.0111L120.115 93.1362L189.209 40.8504L189.279 40.9434L198.798 53.5004L203.57 18.9222L168.959 14.1436L178.548 26.7936L178.455 26.8633L123.431 68.499L101.319 46.908L21.3671 104.077Z" fill="#00000A"/>
<path d="M204.817 24.0388L168.39 19.0044L178.469 32.3055L121.28 75.5921L97.3063 44.4671L9.54492 107.833L17.8777 124.75L93.5705 70.1159L117.789 101.566L189.711 47.1413L199.789 60.4424L204.817 24.0388Z" fill="#42AF8F"/>
<path d="M84.3795 63.5359C84.3446 63.5359 84.3097 63.5359 84.2748 63.5242L79.596 62.7569C79.2468 62.6987 79.014 62.3732 79.0606 62.0244C79.1188 61.6756 79.4563 61.443 79.7938 61.4896L84.4726 62.2569C84.8218 62.3151 85.0545 62.6406 85.008 62.9894C84.9614 63.315 84.6937 63.5359 84.3795 63.5359Z" fill="#00000A"/>
<path d="M147.292 73.9068C147.258 73.9068 147.223 73.9068 147.176 73.8951L142.183 72.9999C141.834 72.9417 141.601 72.6045 141.659 72.2557C141.717 71.9069 142.055 71.6744 142.404 71.7325L147.397 72.6278C147.746 72.6859 147.979 73.0231 147.921 73.3719C147.874 73.6858 147.595 73.9068 147.292 73.9068Z" fill="#00000A"/>
<path d="M125.819 35.4793L120.698 34.0143C118.836 33.4795 117.754 31.5378 118.289 29.6775L120.105 23.3409C120.64 21.4806 122.584 20.3993 124.446 20.9342L129.566 22.3991C131.428 22.934 132.511 24.8757 131.975 26.7359L130.16 33.0726C129.636 34.9445 127.693 36.0141 125.819 35.4793Z" fill="#2C233D"/>
<path d="M131.638 27.1425L120.186 23.8637C118.662 23.4335 117.777 21.8407 118.219 20.3176C118.65 18.7944 120.244 17.9108 121.769 18.3526L133.221 21.6314C134.745 22.0616 135.63 23.6545 135.187 25.1776C134.757 26.7007 133.162 27.5843 131.638 27.1425Z" fill="#FF5A5F"/>
<path d="M150.93 77.7736C156.838 57.1626 144.628 35.5903 123.657 29.5904C102.687 23.5905 80.8971 35.4352 74.9889 56.0462C69.0806 76.6572 81.2909 98.2296 102.261 104.229C123.232 110.229 145.021 98.3846 150.93 77.7736Z" fill="#80496A"/>
<path d="M147.432 76.7547C152.795 58.043 141.714 38.4603 122.682 33.0155C103.65 27.5707 83.8732 38.3257 78.5099 57.0374C73.1466 75.7491 84.2276 95.3318 103.26 100.777C122.292 106.221 142.069 95.4664 147.432 76.7547Z" fill="#EFF4F9"/>
<path d="M120.045 43.4066C119.987 43.4066 119.94 43.395 119.882 43.3834C119.579 43.2904 119.405 42.9765 119.498 42.6742L120.906 37.8723C120.999 37.57 121.313 37.384 121.616 37.4886C121.919 37.5816 122.093 37.8955 122 38.1978L120.592 42.9997C120.522 43.2439 120.289 43.4066 120.045 43.4066Z" fill="#00000A"/>
<path d="M104.836 96.4499C104.778 96.4499 104.731 96.4382 104.673 96.4266C104.37 96.3336 104.196 96.0197 104.289 95.7174L105.697 90.9155C105.79 90.6132 106.104 90.4272 106.407 90.5318C106.71 90.6248 106.884 90.9387 106.791 91.241L105.383 96.0429C105.313 96.2871 105.092 96.4499 104.836 96.4499Z" fill="#00000A"/>
<path d="M122.641 96.0665C122.397 96.0665 122.175 95.9154 122.106 95.6712L121.477 93.776C121.372 93.4738 121.535 93.1598 121.838 93.0552C122.14 92.9505 122.455 93.1133 122.559 93.4156L123.188 95.3108C123.293 95.6131 123.13 95.927 122.827 96.0317C122.757 96.0665 122.699 96.0665 122.641 96.0665Z" fill="#00000A"/>
<path d="M104.429 41.3867C104.184 41.3867 103.963 41.2356 103.893 40.9914L103.09 38.5846C102.986 38.2823 103.149 37.9684 103.451 37.8638C103.742 37.7591 104.068 37.9219 104.173 38.2242L104.976 40.631C105.081 40.9333 104.918 41.2472 104.615 41.3518C104.545 41.3751 104.487 41.3867 104.429 41.3867Z" fill="#00000A"/>
<path d="M134.978 88.2765C134.839 88.2765 134.699 88.23 134.583 88.1137L133.291 86.8813C133.058 86.6604 133.058 86.2999 133.268 86.079C133.489 85.8465 133.85 85.8465 134.071 86.0558L135.363 87.2882C135.595 87.5091 135.595 87.8696 135.386 88.0905C135.281 88.2184 135.13 88.2765 134.978 88.2765Z" fill="#00000A"/>
<path d="M92.757 48.1292C92.6173 48.1292 92.4777 48.0827 92.3613 47.9664L90.953 46.6293C90.7202 46.4084 90.7202 46.048 90.9297 45.8271C91.1509 45.5945 91.5117 45.5945 91.7328 45.8038L93.1411 47.1409C93.3738 47.3618 93.3739 47.7223 93.1644 47.9432C93.0596 48.0711 92.9083 48.1292 92.757 48.1292Z" fill="#00000A"/>
<path d="M90.7293 87.6016C90.5547 87.6016 90.3801 87.5202 90.2754 87.3691C90.0892 87.1133 90.1357 86.7645 90.3918 86.5668L92.382 85.0902C92.638 84.9042 92.9988 84.9507 93.1851 85.2065C93.3713 85.4623 93.3247 85.8111 93.0687 86.0087L91.0785 87.4853C90.9737 87.5667 90.8457 87.6016 90.7293 87.6016Z" fill="#00000A"/>
<path d="M133.826 49.0477C133.675 49.0477 133.512 48.9896 133.396 48.8617C133.186 48.6291 133.209 48.2687 133.442 48.0594L135.211 46.4782C135.444 46.2689 135.805 46.2921 136.014 46.5247C136.224 46.7572 136.2 47.1177 135.968 47.3269L134.199 48.9082C134.094 49.0012 133.954 49.0477 133.826 49.0477Z" fill="#00000A"/>
<path d="M84.1471 75.5682C83.891 75.5682 83.6699 75.4055 83.6001 75.1497C83.5186 74.8474 83.6932 74.5334 83.9958 74.4521L85.4506 74.0451C85.7649 73.9637 86.0675 74.1381 86.149 74.4404C86.2304 74.7427 86.0558 75.0566 85.7532 75.138L84.2984 75.545C84.2402 75.5566 84.1936 75.5682 84.1471 75.5682Z" fill="#00000A"/>
<path d="M140.008 60.1052C139.752 60.1052 139.531 59.9425 139.461 59.6867C139.38 59.3844 139.555 59.0705 139.857 58.9891L142.034 58.3845C142.348 58.3031 142.65 58.4775 142.732 58.7798C142.813 59.0821 142.639 59.396 142.336 59.4774L140.16 60.082C140.113 60.0936 140.055 60.1052 140.008 60.1052Z" fill="#00000A"/>
<path d="M113.984 68.2439C113.786 68.2439 113.589 68.1392 113.484 67.9416L101.741 46.3854C101.59 46.1064 101.695 45.7692 101.974 45.6181C102.253 45.4669 102.591 45.5716 102.742 45.8506L114.485 67.4067C114.636 67.6858 114.531 68.023 114.252 68.1741C114.17 68.2206 114.077 68.2439 113.984 68.2439Z" fill="#00000A"/>
<path d="M114.231 67.9063C113.906 67.9063 113.58 67.7784 113.347 67.511C112.905 67.0227 112.94 66.267 113.428 65.8251L128.371 52.245C128.86 51.8032 129.617 51.8381 130.059 52.3264C130.501 52.8147 130.466 53.5705 129.977 54.0123L115.034 67.5924C114.802 67.8017 114.522 67.9063 114.231 67.9063Z" fill="#FF5A5F"/>
<path d="M116.097 68.294C117.041 67.0029 116.758 65.1915 115.466 64.2483C114.174 63.3051 112.361 63.5871 111.416 64.8782C110.472 66.1694 110.755 67.9807 112.047 68.9239C113.34 69.8672 115.153 69.5852 116.097 68.294Z" fill="#2C233D"/>
<path d="M163.175 127.6C179.353 127.6 192.468 114.498 192.468 98.3357C192.468 82.1733 179.353 69.071 163.175 69.071C146.998 69.071 133.883 82.1733 133.883 98.3357C133.883 114.498 146.998 127.6 163.175 127.6Z" fill="#FF5A5F"/>
<path d="M163.174 121.846C176.171 121.846 186.706 111.32 186.706 98.3361C186.706 85.3522 176.171 74.8267 163.174 74.8267C150.178 74.8267 139.643 85.3522 139.643 98.3361C139.643 111.32 150.178 121.846 163.174 121.846Z" fill="#EFF4F9"/>
<path d="M175.234 110.377C181.892 103.725 181.892 92.9401 175.234 86.2883C168.575 79.6364 157.78 79.6364 151.122 86.2883C144.464 92.9401 144.464 103.725 151.122 110.377C157.78 117.029 168.575 117.029 175.234 110.377Z" fill="#FF5A5F"/>
<path d="M171.275 106.421C175.747 101.953 175.747 94.7096 171.275 90.2418C166.803 85.7739 159.552 85.7739 155.08 90.2418C150.608 94.7096 150.608 101.953 155.08 106.421C159.552 110.889 166.803 110.889 171.275 106.421Z" fill="#EFF4F9"/>
<path d="M163.174 103.916C166.259 103.916 168.76 101.417 168.76 98.3348C168.76 95.2525 166.259 92.7539 163.174 92.7539C160.089 92.7539 157.588 95.2525 157.588 98.3348C157.588 101.417 160.089 103.916 163.174 103.916Z" fill="#FF5A5F"/>
<path d="M118.306 86.6739L118.061 87.6912L161.503 98.1653L161.749 97.1481L118.306 86.6739Z" fill="#00000A"/>
<path d="M158.824 93.45L164.457 98.6471L156.229 99.0308L160.651 97.3101L158.824 93.45Z" fill="#00000A"/>
<path d="M121.398 84.6025L123.563 88.4858L120.223 89.974L118.232 89.6717L119.222 88.7997L117.301 89.3695L114.869 88.8114L117.895 86.8813L118.058 83.9746L119.431 84.242L120.095 85.5791L120.246 84.2071L121.398 84.6025Z" fill="#FF5A5F"/>
<path d="M119.046 84.1428L118.898 84.1777L119.67 87.4242L119.818 87.3893L119.046 84.1428Z" fill="#00000A"/>
<path d="M119.257 89.8693L119.164 89.7646L121.445 87.8462L121.538 87.9625L119.257 89.8693Z" fill="#00000A"/>
<path d="M117.916 86.8041L117.875 86.9497L123.531 88.5493L123.572 88.4038L117.916 86.8041Z" fill="#00000A"/>
<path d="M160.816 100.716L120.197 119.339L120.634 120.29L161.252 101.667L160.816 100.716Z" fill="#00000A"/>
<path d="M156.096 100.498L164.126 100.068L158.412 104.626L158.877 102.091L156.096 100.498Z" fill="#00000A"/>
<path d="M121.323 115.798L125.432 117.507L123.732 120.739L121.987 121.739L122.219 120.437L121.067 122.077L118.809 123.146L119.996 119.751L118.32 117.368L119.554 116.728L120.916 117.368L120.183 116.193L121.323 115.798Z" fill="#FF5A5F"/>
<path d="M121.734 119.078L119.104 116.997L119.197 116.88L121.815 118.962L121.734 119.078Z" fill="#00000A"/>
<path d="M122.919 121.263L122.768 121.228L123.373 118.322L123.524 118.345L122.919 121.263Z" fill="#00000A"/>
<path d="M120.021 119.821L119.963 119.681L125.398 117.437L125.456 117.577L120.021 119.821Z" fill="#00000A"/>
</svg>
