<svg width="156" height="162" viewBox="0 0 156 162" fill="none" xmlns="http://www.w3.org/2000/svg">
<path d="M121.33 101.329C121.33 67.8335 94.1691 40.6797 60.6733 40.6797V40.6797C27.1695 40.6797 0.00215435 67.8399 0.00215435 101.344V161.979H60.6804C94.1763 161.979 121.33 134.825 121.33 101.329V101.329Z" fill="#505ECE"/>
<path d="M155.839 100.848C154.884 103.687 150.03 105.622 147.954 106.332C146.716 120.549 141.443 131.499 132.116 134.446C129.182 135.369 125.917 135.895 122.476 136.002L123.987 148.147L125.254 158.358H78.4712L80.8103 117.204C75.557 111.194 71.3562 103.707 68.9683 94.6823C64.8553 79.1912 68.1984 65.538 75.0014 55.7066C75.1768 55.4537 78.0716 54.8411 82.3795 54.209C88.3638 53.3338 97.0772 52.4197 105.03 52.4197C118.393 52.4197 135.049 55.055 135.547 55.7163C140.78 62.5234 144.504 71.1685 146.385 80.9707C146.55 81.8362 146.706 82.692 146.843 83.5575C148.373 86.0761 153.11 93.8654 155.517 98.1928C156.063 99.1458 156.112 100.031 155.839 100.848Z" fill="#FF5A5F"/>
<path d="M123.977 148.147C123.977 148.147 106.843 140.98 98.5977 127.55C98.7731 127.677 110.352 135.991 122.467 135.991L123.977 148.147Z" fill="#CE3932"/>
<path d="M155.838 100.847C154.883 103.686 150.03 105.622 147.954 106.331C145.312 106.497 145.195 104.756 145.195 104.756C151.199 104.066 155.809 100.711 155.809 100.711L155.838 100.847Z" fill="#CE3932"/>
<path d="M101.238 158.348L101.199 158.368H78.4608L80.8 117.214C75.5467 111.204 71.3459 103.716 68.958 94.692C64.8548 79.1912 68.1978 65.538 75.0009 55.7066C75.1763 55.4537 78.071 54.8411 82.3789 54.209L99.6789 61.6677C99.6789 61.6677 96.024 72.7633 95.7511 85.269C95.7511 85.269 90.5855 78.1117 84.6499 83.5769C79.5719 88.2544 81.5895 107.275 95.7511 106.575C95.7511 106.575 91.141 111.953 90.5855 121.736C90.0397 131.509 95.6439 149.188 101.238 158.348Z" fill="#C0363A"/>
<path d="M135.555 55.7068C135.945 59.0326 121.997 61.7651 105.282 61.7651C88.5671 61.7651 75 59.052 75 55.7068C75.8674 53.7036 91.5885 51.6128 105.273 51.6128C118.635 51.6128 135.301 53.5771 135.555 55.7068Z" fill="#AD2121"/>
<path d="M126.231 89.5674C125.431 89.5091 118.804 89.441 119.496 87.4086C119.652 86.8737 120.217 86.5626 120.753 86.7181C131.572 89.8203 133.989 83.5771 135.977 84.9677C136.991 86.3292 134.925 87.3891 131.767 88.6728C130.402 89.1493 128.541 89.5674 126.231 89.5674Z" fill="#CE3932"/>
<path d="M117.547 16.4015V11.3739H114.652C114.428 10.4793 114.077 9.62353 113.629 8.83585L115.695 6.77426L112.128 3.20538L110.14 5.18917C109.243 4.62515 108.259 4.19728 107.206 3.93471V0.96875H102.157V3.94444C101.183 4.18755 100.267 4.57653 99.4187 5.0822L97.5473 3.20538L93.9801 6.76454L95.8514 8.63164C95.3446 9.46794 94.9645 10.3918 94.7111 11.3642H91.8164V16.4015H94.7111C94.9743 17.4517 95.4031 18.4339 95.9684 19.3286L93.9801 21.3124L97.5473 24.8715L99.6136 22.8099C100.403 23.2572 101.251 23.6073 102.157 23.831V26.8067H107.206V23.831C108.181 23.5879 109.097 23.1989 109.945 22.6932L112.128 24.8715L115.695 21.3124L113.512 19.1341C114.019 18.2978 114.399 17.3739 114.652 16.4015H117.547V16.4015ZM104.984 18.4825C98.9606 18.8423 98.3758 9.7305 104.38 9.30262C110.403 8.94282 110.988 18.0547 104.984 18.4825Z" fill="#FF8B7C"/>
<path d="M139.254 42.5894L138.825 37.6202L135.005 37.9411C134.8 37.1728 134.537 36.4338 134.205 35.7336L137.344 33.5553L134.488 29.4613L131.34 31.6493C130.784 31.095 130.18 30.5894 129.547 30.1323L131.174 26.6704L126.642 24.5505L125.034 28.0026C124.283 27.7984 123.504 27.6623 122.714 27.5942L122.393 23.7822L117.412 24.2101L117.734 28.0221C116.964 28.2263 116.223 28.4889 115.521 28.8195L113.338 25.6882L109.235 28.5375L111.428 31.6785C110.872 32.2328 110.365 32.8357 109.907 33.4678L106.438 31.8438L104.313 36.3657L107.773 37.9897C107.568 38.7385 107.432 39.5164 107.364 40.3041L103.543 40.625L103.972 45.5942L107.792 45.2733C107.997 46.0416 108.26 46.7806 108.592 47.4808L105.453 49.6591L108.309 53.7531L111.457 51.5651C112.013 52.1193 112.617 52.625 113.25 53.0821L111.623 56.544L116.155 58.6639L117.783 55.2117C118.533 55.4159 119.313 55.5521 120.102 55.6202L120.424 59.4322L125.404 59.0043L125.083 55.1923C125.853 54.9881 126.593 54.7255 127.295 54.3949L129.478 57.5262L133.582 54.6769L131.389 51.5359C131.944 50.9816 132.451 50.3787 132.909 49.7466L136.379 51.3706L138.504 46.8487L135.044 45.2247C135.248 44.4759 135.385 43.698 135.453 42.9103L139.254 42.5894ZM122.003 48.6088C112.753 49.2312 111.584 35.5294 120.804 34.5861C130.053 33.9638 131.223 47.6655 122.003 48.6088Z" fill="#307388"/>
<path d="M92.9647 49.2333C93.123 43.4662 88.5308 38.6625 82.7045 38.512C76.8782 38.3615 72.0202 42.9121 71.8619 48.6792C71.7751 51.6868 72.9875 54.4255 74.9916 56.3941L76.0839 60.4719C76.4825 61.9505 77.809 62.9788 79.3454 63.0296L84.7048 63.1694C86.2375 63.2069 87.6243 62.2389 88.102 60.7837L89.4186 56.7668C91.5187 54.9076 92.878 52.2409 92.9647 49.2333Z" fill="#F9B233"/>
<path d="M85.0609 65.0463L78.8691 64.885C78.5036 64.8742 78.2127 64.5697 78.224 64.208C78.2353 63.8462 78.5433 63.5579 78.9087 63.5687L85.1005 63.73C85.4659 63.7409 85.7569 64.0453 85.7456 64.4071C85.7209 64.7726 85.4263 65.0572 85.0609 65.0463Z" fill="#FFC75A"/>
<path d="M85.0025 66.9562L78.8203 66.7778C78.4548 66.767 78.1639 66.4625 78.1752 66.1008C78.1865 65.739 78.4944 65.4507 78.8599 65.4615L85.0517 65.6228C85.4171 65.6337 85.7081 65.9382 85.6967 66.2999C85.6759 66.6787 85.3641 66.9538 85.0025 66.9562Z" fill="#FFC75A"/>
<path d="M84.9534 68.8481L78.7617 68.6868C78.3962 68.676 78.1053 68.3715 78.1166 68.0097C78.1279 67.648 78.4359 67.3596 78.8013 67.3705L84.9931 67.5318C85.3585 67.5426 85.6495 67.8471 85.6382 68.2088C85.6134 68.5744 85.3189 68.8589 84.9534 68.8481Z" fill="#FFC75A"/>
<path d="M83.7194 70.7358L79.8791 70.6371C79.4256 70.6226 79.0714 70.2499 79.0865 69.801L79.0959 69.2819L84.5875 69.4275L84.5782 69.9466C84.5631 70.3956 84.1729 70.7503 83.7194 70.7358Z" fill="#FFC75A"/>
<path d="M77.445 52.3961C77.269 52.3888 77.1044 52.3208 76.9819 52.1979C76.733 51.9388 76.7424 51.5203 77.0045 51.2737L81.4953 47.0569C81.7573 46.8103 82.1802 46.8192 82.429 47.0783C82.6779 47.3374 82.6685 47.7559 82.4065 48.0025L77.9156 52.2193C77.7913 52.3407 77.621 52.4034 77.445 52.3961Z" fill="#FFC75A"/>
<path d="M80.1227 52.4688C79.9467 52.4615 79.7821 52.3936 79.6596 52.2707C79.4108 52.0116 79.4202 51.593 79.6822 51.3464L84.173 47.1297C84.4351 46.8831 84.8579 46.8919 85.1068 47.151C85.3556 47.4101 85.3462 47.8287 85.0842 48.0753L80.5934 52.292C80.469 52.4134 80.2988 52.4762 80.1227 52.4688Z" fill="#FFC75A"/>
<path d="M82.8024 52.537C82.6264 52.5296 82.4618 52.4617 82.3393 52.3388C82.0905 52.0797 82.0999 51.6611 82.3619 51.4145L86.8527 47.1978C87.1147 46.9512 87.5376 46.96 87.7864 47.2191C88.0353 47.4782 88.0259 47.8968 87.7639 48.1434L83.273 52.3601C83.1353 52.4853 82.9651 52.5481 82.8024 52.537Z" fill="#FFC75A"/>
<path d="M72.8019 40.3971C72.6259 40.3898 72.4613 40.3219 72.3388 40.199L68.9736 36.6813C68.7248 36.4222 68.7341 36.0036 68.9962 35.757C69.2582 35.5104 69.6811 35.5193 69.9299 35.7784L73.2951 39.2961C73.544 39.5552 73.5346 39.9737 73.2725 40.2203C73.1348 40.3455 72.9646 40.4083 72.8019 40.3971Z" fill="#F9B233"/>
<path d="M68.4436 50.0401L63.5508 49.9107C63.1854 49.8998 62.8944 49.5953 62.9057 49.2334C62.917 48.8716 63.2249 48.5833 63.5904 48.5941L68.4869 48.7368C68.8524 48.7476 69.1434 49.0522 69.1321 49.414C69.117 49.7626 68.809 50.0509 68.4436 50.0401Z" fill="#F9B233"/>
<path d="M68.6923 63.2343C68.5162 63.227 68.3516 63.159 68.2291 63.0361C67.9803 62.777 67.9897 62.3585 68.2517 62.1119L71.8187 58.7601C72.0808 58.5135 72.5036 58.5224 72.7525 58.7815C73.0013 59.0406 72.9919 59.4591 72.7299 59.7057L69.1724 63.0404C69.0386 63.1789 68.8645 63.2284 68.6923 63.2343Z" fill="#F9B233"/>
<path d="M95.3019 63.9284C95.1259 63.9211 94.9613 63.8531 94.8388 63.7302L91.4736 60.2125C91.2248 59.9534 91.2341 59.5349 91.4962 59.2883C91.7582 59.0417 92.1811 59.0505 92.4299 59.3096L95.7951 62.8273C96.044 63.0864 96.0346 63.505 95.7725 63.7516C95.6482 63.873 95.478 63.9357 95.3019 63.9284Z" fill="#F9B233"/>
<path d="M101.184 50.8987L96.2911 50.7693C95.9256 50.7585 95.6346 50.4539 95.6459 50.0921C95.6572 49.7303 95.9652 49.4419 96.3306 49.4527L101.223 49.5822C101.589 49.593 101.88 49.8976 101.868 50.2594C101.857 50.6212 101.549 50.9096 101.184 50.8987Z" fill="#F9B233"/>
<path d="M92.4873 40.921C92.3112 40.9137 92.1466 40.8457 92.0241 40.7228C91.7753 40.4637 91.7847 40.0452 92.0467 39.7986L95.6042 36.4639C95.8662 36.2173 96.2891 36.2261 96.5379 36.4852C96.7868 36.7443 96.7774 37.1629 96.5153 37.4095L92.9579 40.7442C92.8335 40.8656 92.6633 40.9283 92.4873 40.921Z" fill="#F9B233"/>
<path d="M82.7506 36.6331C82.3851 36.6223 82.0942 36.3178 82.1055 35.9561L82.2412 31.1132C82.2526 30.7514 82.5605 30.4631 82.9259 30.4739C83.2914 30.4848 83.5824 30.7893 83.571 31.151L83.4353 35.9939C83.424 36.3556 83.1122 36.6307 82.7506 36.6331Z" fill="#F9B233"/>
<path d="M82.0472 61.8595C81.6818 61.8487 81.3908 61.5442 81.4021 61.1825L81.5755 54.7657C81.5868 54.404 81.8947 54.1156 82.2602 54.1265C82.6256 54.1373 82.9166 54.4418 82.9053 54.8035L82.7319 61.2203C82.7206 61.582 82.4127 61.8704 82.0472 61.8595Z" fill="#FFC75A"/>
</svg>
