<svg width="200" height="154" viewBox="0 0 200 154" fill="none" xmlns="http://www.w3.org/2000/svg">
<rect x="82.8102" y="29.9379" width="65.9248" height="65.9248" stroke="#FF8B7C" stroke-width="1.0227" stroke-dasharray="2.05 2.05"/>
<rect x="145.52" y="91.2151" width="7.16846" height="7.16846" stroke="#505ECE" stroke-width="1.43369"/>
<rect x="80.2872" y="91.2151" width="7.16846" height="7.16846" stroke="#505ECE" stroke-width="1.43369"/>
<rect x="80.2872" y="25.9822" width="7.16846" height="7.16846" stroke="#505ECE" stroke-width="1.43369"/>
<rect x="145.52" y="25.9822" width="7.16846" height="7.16846" stroke="#505ECE" stroke-width="1.43369"/>
<path d="M19.3555 57.5232H103.943C156.994 57.5232 200.001 100.53 200.001 153.581H19.3555V57.5232Z" fill="#FFD5CF"/>
<g clip-path="url(#clip0_3202_1653)">
<path d="M8.8635 0.892283C8.8635 0.892283 -5.31931 0.197738 2.19658 43.1603C2.19658 43.1603 7.26544 57.7457 0.873188 67.1345H94.9591V0.892283H8.8635Z" fill="#AFCDFB"/>
<path d="M113.061 26.3174H14.8301V153.58H113.061V26.3174Z" fill="#9ABCEF"/>
<path d="M114.624 26.3174H18.041V153.58H114.624V26.3174Z" fill="#E9F3FE"/>
<path d="M114.622 26.3176C114.609 26.3176 114.609 26.3176 114.622 26.3176H18.0388C18.5756 19.0621 17.7641 13.791 16.4782 10.0082C14.0062 2.71551 9.73633 0.892334 9.73633 0.892334H100.813C108.592 0.892334 114.609 5.5433 116.257 11.7198C116.32 11.9554 116.37 12.1787 116.42 12.4143C117.98 19.4838 114.684 26.1812 114.622 26.3176Z" fill="#E9F3FE"/>
<path d="M114.622 26.3179C114.61 26.3179 114.61 26.3179 114.622 26.3179H18.0391C18.576 19.0624 17.7645 13.7913 16.4785 10.0085C26.354 11.8069 50.7869 15.6269 76.9552 14.982C93.8847 14.5603 107.256 13.4441 116.42 12.4146C117.98 19.4841 114.684 26.1815 114.622 26.3179Z" fill="#D8E8FD"/>
<path d="M89.1059 55.662H37.893C37.3686 55.662 36.9316 55.2403 36.9316 54.707V54.2233C36.9316 53.7024 37.3561 53.2683 37.893 53.2683H89.1059C89.6303 53.2683 90.0672 53.69 90.0672 54.2233V54.707C90.0672 55.2279 89.6303 55.662 89.1059 55.662Z" fill="#BBD5FC"/>
<path d="M69.2811 59.6806H37.6944C37.2824 59.6806 36.9453 59.3457 36.9453 58.9365V58.0435C36.9453 57.6342 37.2824 57.2993 37.6944 57.2993H69.2936C69.7056 57.2993 70.0427 57.6342 70.0427 58.0435V58.9365C70.0427 59.3333 69.7056 59.6806 69.2811 59.6806Z" fill="#BBD5FC"/>
<path d="M31.9994 59.2958V54.4216H31.3502C30.9632 54.4216 30.7634 54.2604 30.7634 53.9379C30.7634 53.7023 30.9133 53.541 31.2254 53.4418C31.3877 53.3922 31.6374 53.355 31.9745 53.3302C32.3241 53.3054 32.5987 53.293 32.7985 53.293C32.9982 53.293 33.1231 53.3302 33.1855 53.417C33.2354 53.5038 33.2604 53.7023 33.2604 54.0371V59.3082H33.9221C34.3591 59.3082 34.5713 59.4943 34.5713 59.8663C34.5713 60.2508 34.3591 60.4493 33.9221 60.4493H31.2379C31.0506 60.4493 30.8883 60.3996 30.7634 60.3004C30.6386 60.2012 30.5762 60.0524 30.5762 59.8787C30.5762 59.5067 30.8009 59.3082 31.2379 59.3082H31.9994V59.2958Z" fill="#BBD5FC"/>
<path d="M89.1059 80.7894H37.893C37.3686 80.7894 36.9316 80.3678 36.9316 79.8344V79.3507C36.9316 78.8298 37.3561 78.3958 37.893 78.3958H89.1059C89.6303 78.3958 90.0672 78.8174 90.0672 79.3507V79.8344C90.0672 80.3678 89.6303 80.7894 89.1059 80.7894Z" fill="#D2E4FD"/>
<path d="M69.2811 84.8078H37.6944C37.2824 84.8078 36.9453 84.4729 36.9453 84.0636V83.1707C36.9453 82.7614 37.2824 82.4265 37.6944 82.4265H69.2936C69.7056 82.4265 70.0427 82.7614 70.0427 83.1707V84.0636C70.0427 84.4729 69.7056 84.8078 69.2811 84.8078Z" fill="#D2E4FD"/>
<path d="M34.684 84.3242C34.684 84.6467 34.4593 84.8079 33.9974 84.8079H31.1508C30.7388 84.8079 30.5391 84.6466 30.5391 84.3118C30.5391 84.2126 30.589 84.0885 30.7014 83.9521C30.8637 83.7661 31.1009 83.4932 31.413 83.1211C31.8874 82.5258 32.2869 82.0173 32.5991 81.5832C32.7114 81.4344 32.8612 81.2235 33.0735 80.9259C33.2358 80.6282 33.3232 80.3802 33.3232 80.1817C33.3232 79.9585 33.2483 79.7724 33.1109 79.6236C32.9611 79.4748 32.7863 79.4004 32.5616 79.4004C32.3369 79.4004 32.1496 79.4748 31.9873 79.6112C31.8749 79.698 31.7875 79.8717 31.7251 80.1321C31.6502 80.4546 31.5878 80.653 31.5628 80.7026C31.4754 80.8887 31.3381 80.9755 31.1383 80.9755C30.9635 80.9755 30.8262 80.9135 30.7263 80.7894C30.6389 80.6778 30.589 80.5414 30.589 80.3554C30.589 80.1569 30.6265 79.9461 30.6889 79.7476C30.8262 79.3011 31.0759 78.9663 31.4255 78.7306C31.7626 78.5074 32.1746 78.3958 32.649 78.3958C33.1734 78.3958 33.6103 78.557 33.9724 78.867C34.3345 79.2019 34.5217 79.6236 34.5217 80.1445C34.5217 80.529 34.3969 80.9259 34.1347 81.3352C33.9849 81.5584 33.6977 81.9553 33.2358 82.5258C32.9986 82.8235 32.6365 83.2452 32.1371 83.8033H34.0099C34.4593 83.8157 34.684 83.9893 34.684 84.3242Z" fill="#D2E4FD"/>
<path d="M89.1059 101.763H37.893C37.3686 101.763 36.9316 101.341 36.9316 100.808V100.324C36.9316 99.8032 37.3561 99.3691 37.893 99.3691H89.1059C89.6303 99.3691 90.0672 99.7908 90.0672 100.324V100.808C90.0672 101.329 89.6303 101.763 89.1059 101.763Z" fill="#D2E4FD"/>
<path d="M69.2811 105.781H37.6944C37.2824 105.781 36.9453 105.446 36.9453 105.037V104.144C36.9453 103.735 37.2824 103.4 37.6944 103.4H69.2936C69.7056 103.4 70.0427 103.735 70.0427 104.144V105.037C70.0427 105.434 69.7056 105.781 69.2811 105.781Z" fill="#D2E4FD"/>
<path d="M34.6863 103.772C34.6863 104.38 34.474 104.876 34.037 105.248C33.625 105.595 33.1132 105.781 32.4889 105.781C32.002 105.781 31.59 105.67 31.2529 105.434C30.7036 105.074 30.4414 104.628 30.4414 104.119C30.4414 103.97 30.4913 103.846 30.5787 103.735C30.6786 103.623 30.791 103.574 30.9408 103.574C31.0906 103.574 31.2404 103.673 31.3778 103.884C31.6025 104.218 31.7273 104.417 31.7648 104.442C31.9646 104.653 32.2143 104.752 32.5139 104.752C32.9259 104.752 33.2255 104.603 33.4003 104.293C33.4877 104.144 33.5252 103.946 33.5252 103.71C33.5252 103.139 33.1881 102.817 32.5014 102.755C32.1144 102.718 31.9271 102.557 31.9271 102.271C31.9271 102.06 32.0395 101.912 32.2642 101.825C32.6762 101.676 32.8884 101.589 32.9009 101.589C33.1257 101.44 33.238 101.192 33.238 100.82C33.238 100.597 33.1756 100.436 33.0383 100.299C32.9134 100.175 32.7386 100.113 32.5139 100.113C32.2392 100.113 32.027 100.175 31.8772 100.312C31.7523 100.423 31.64 100.609 31.5526 100.882C31.4776 101.093 31.3403 101.192 31.1406 101.192C31.0032 101.192 30.8784 101.13 30.791 101.006C30.7036 100.882 30.6536 100.746 30.6536 100.597C30.6536 100.411 30.7036 100.237 30.8035 100.051C30.9658 99.7411 31.228 99.5055 31.565 99.3318C31.8772 99.1706 32.2267 99.0962 32.5888 99.0962C33.0882 99.0962 33.5127 99.245 33.8373 99.5551C34.1744 99.8528 34.3367 100.25 34.3367 100.746C34.3367 101.341 34.087 101.812 33.5876 102.16C34.3242 102.457 34.6863 102.991 34.6863 103.772Z" fill="#D2E4FD"/>
<path d="M83.1359 34.7638H51.2371C50.6877 34.7638 50.2383 34.3173 50.2383 33.7716V32.9778C50.2383 32.4321 50.6877 31.9856 51.2371 31.9856H83.1484C83.6977 31.9856 84.1472 32.4321 84.1472 32.9778V33.7716C84.1347 34.3297 83.6852 34.7638 83.1359 34.7638Z" fill="#BBD5FC"/>
<path d="M91.4627 39.0426H42.9091C42.2349 39.0426 41.6855 38.4969 41.6855 37.8271V37.4799C41.6855 36.8101 42.2349 36.2644 42.9091 36.2644H91.4502C92.1244 36.2644 92.6737 36.8101 92.6737 37.4799V37.8271C92.6737 38.4969 92.1244 39.0426 91.4627 39.0426Z" fill="#BBD5FC"/>
<path d="M63.4451 68.5364C52.9203 68.5364 42.9449 67.2217 35.4914 65.3489C27.9755 63.4513 23.918 60.3631 23.918 57.6097C23.918 55.1168 27.214 52.8347 33.4689 50.9867C27.4886 52.7479 24.28 55.34 24.28 57.6097C24.28 60.115 28.425 62.6079 35.6662 64.4311C43.0822 66.3039 52.9453 67.3333 63.4451 67.3333C73.9448 67.3333 83.8079 66.3039 91.2239 64.4311C98.4526 62.6079 102.61 60.1274 102.61 57.6097C102.61 54.9555 98.2404 51.644 91.2114 48.9899C83.2211 45.9637 73.358 44.8474 63.4575 44.8474C44.8676 44.8474 37.2144 47.0055 30.5724 49.7092C37.2393 46.9931 44.8052 43.9172 63.4575 43.9172C73.3955 43.9172 83.296 45.5916 91.3363 48.6302C98.5151 51.3464 102.972 54.7943 102.972 57.6221C102.972 60.3631 98.8272 62.918 91.3113 64.8156C83.8578 66.676 73.9573 68.5364 63.4451 68.5364Z" fill="#FF5A5F"/>
<path d="M92.724 125.898H33.3335C32.934 125.898 32.6094 125.576 32.6094 125.179C32.6094 124.782 32.934 124.459 33.3335 124.459H92.724C93.1235 124.459 93.4481 124.782 93.4481 125.179C93.4357 125.576 93.111 125.898 92.724 125.898Z" fill="#D2E4FD"/>
<path d="M92.724 128.775H33.3335C32.934 128.775 32.6094 128.453 32.6094 128.056C32.6094 127.659 32.934 127.337 33.3335 127.337H92.724C93.1235 127.337 93.4481 127.659 93.4481 128.056C93.4357 128.453 93.111 128.775 92.724 128.775Z" fill="#D2E4FD"/>
<path d="M92.724 131.963H33.3335C32.934 131.963 32.6094 131.64 32.6094 131.243C32.6094 130.846 32.934 130.524 33.3335 130.524H92.724C93.1235 130.524 93.4481 130.846 93.4481 131.243C93.4357 131.64 93.111 131.963 92.724 131.963Z" fill="#D2E4FD"/>
<path d="M84.921 135.138H33.2836C32.909 135.138 32.6094 134.84 32.6094 134.468V134.369C32.6094 133.997 32.909 133.699 33.2836 133.699H84.921C85.2955 133.699 85.5951 133.997 85.5951 134.369V134.468C85.5951 134.84 85.2955 135.138 84.921 135.138Z" fill="#D2E4FD"/>
</g>
<defs>
<clipPath id="clip0_3202_1653">
<rect width="116.846" height="152.688" fill="white" transform="translate(0 0.892334)"/>
</clipPath>
</defs>
</svg>
