<svg width="195" height="157" viewBox="0 0 195 157" fill="none" xmlns="http://www.w3.org/2000/svg">
<circle cx="72.001" cy="85.8648" r="70.9991" fill="#C7E3E4"/>
<mask id="mask0_3202_1693" style="mask-type:alpha" maskUnits="userSpaceOnUse" x="0" y="14" width="183" height="143">
<path d="M182.118 69.0571C182.118 108.269 111.209 156.864 71.9971 156.864C32.7854 156.864 0.998047 125.077 0.998047 85.865C0.998047 46.6533 32.7854 14.866 71.9971 14.866C111.209 14.866 182.118 29.8454 182.118 69.0571Z" fill="#FFC75A"/>
</mask>
<g mask="url(#mask0_3202_1693)">
<path d="M145.766 87.2572C145.766 87.2572 140.737 86.6926 137.296 85.9238L143.341 77.0934L145.767 87.2561L145.766 87.2572Z" fill="white"/>
<path d="M145.765 87.2579C147.723 87.4922 151.963 85.5085 151.64 80.1389C151.525 78.2291 146.94 72.0595 142.108 79.1715C138.177 84.9595 143.046 86.9337 145.765 87.2579Z" fill="white"/>
<path d="M142.833 86.5296C141.949 86.0614 141.194 85.4035 140.795 84.5255C140.127 83.0603 140.527 81.2305 141.984 79.0855C144.3 75.6782 146.479 75.4297 147.901 75.8203C150.157 76.4413 151.726 78.999 151.794 80.1306C151.971 83.084 150.79 84.8525 149.769 85.8154C148.42 87.0872 146.778 87.5323 145.75 87.4095C144.803 87.296 143.75 87.0146 142.834 86.5302L142.833 86.5296ZM148.661 76.4501C148.394 76.3089 148.113 76.1943 147.82 76.1136C145.919 75.5908 143.988 76.6784 142.236 79.2568C140.843 81.3085 140.452 83.0384 141.072 84.4002C141.572 85.4963 143.072 86.7831 145.786 87.1077C146.713 87.2191 148.29 86.7923 149.561 85.5942C150.536 84.6757 151.662 82.9842 151.491 80.1493C151.437 79.2386 150.33 77.3338 148.662 76.4506L148.661 76.4501Z" fill="#31313B"/>
<path d="M140.527 97.9441C142.48 97.6679 146.999 94.0518 145.31 88.9442C144.71 87.1271 139.869 83.4933 135.76 89.1561C131.651 94.8206 137.815 98.3264 140.526 97.9435L140.527 97.9441Z" fill="white"/>
<path d="M137.351 97.3673C136.375 96.851 135.468 96.0877 134.892 95.1302C134.137 93.8746 133.653 91.8047 135.64 89.0673C137.773 86.1271 139.998 85.7865 141.49 86.0191C143.565 86.3413 145.127 87.8968 145.458 88.8968C146.316 91.4911 145.553 93.5525 144.764 94.8239C143.868 96.2653 142.047 97.8835 140.551 98.0952C139.654 98.2218 138.459 97.9537 137.352 97.3679L137.351 97.3673ZM143.1 86.9063C142.519 86.5988 141.919 86.3927 141.444 86.3185C140.036 86.099 137.93 86.4295 135.887 89.2454C133.999 91.848 134.446 93.7971 135.154 94.9735C136.382 97.0145 139.101 97.9916 140.509 97.7928C141.616 97.6373 143.412 96.4235 144.506 94.6632C145.262 93.4457 145.991 91.4745 145.17 88.9909C144.883 88.1225 144.013 87.3885 143.101 86.9058L143.1 86.9063Z" fill="#31313B"/>
<path d="M134.147 106.496C134.147 106.496 129.118 105.932 125.677 105.163L131.722 96.3324L134.148 106.495L134.147 106.496Z" fill="white"/>
<path d="M128.194 64.7305C128.194 64.7305 155.002 60.8011 158.615 64.6502C159.873 65.9903 159.791 68.9067 154.485 70.8556C145.895 74.0091 130.788 78.0655 130.788 78.0655L128.195 64.7311L128.194 64.7305Z" fill="white"/>
<path d="M130.718 78.1998C130.718 78.1998 130.711 78.1964 130.708 78.1947C130.673 78.172 130.647 78.1355 130.639 78.0946L128.046 64.7602C128.038 64.7193 128.047 64.6767 128.072 64.6435C128.096 64.6103 128.133 64.5865 128.174 64.5811C128.241 64.5719 134.963 63.5919 142.041 63.0962C151.582 62.4283 157.196 62.9153 158.727 64.5477C159.342 65.2025 159.573 66.0926 159.361 66.9879C159.096 68.1076 158.043 69.7124 154.538 70.9987C146.041 74.1185 130.979 78.1716 130.829 78.2125C130.791 78.2224 130.752 78.2177 130.718 78.1998ZM128.376 64.8589L130.908 77.8764C132.542 77.4343 146.417 73.6564 154.435 70.7135C157.071 69.7462 158.715 68.3976 159.066 66.9174C159.254 66.1216 159.051 65.3339 158.508 64.7553C155.132 61.1602 130.592 64.5454 128.377 64.8594L128.376 64.8589Z" fill="#31313B"/>
<path d="M72.7641 122.754C72.7641 122.754 78.0551 133.59 75.4685 135.921C72.882 138.251 67.8422 125.793 67.8422 125.793L72.7635 122.755L72.7641 122.754Z" fill="#31313C"/>
<path d="M75.6219 80.6578C75.6219 80.6578 69.6315 85.5986 60.7401 93.2873C51.8488 100.976 44.4946 106.252 44.4946 106.252L70.0939 136.49L102.159 104.23L75.623 80.6583L75.6219 80.6578Z" fill="white"/>
<path d="M69.9633 136.734C69.9326 136.718 69.9053 136.695 69.8818 136.668L44.282 106.43C44.2319 106.371 44.2091 106.294 44.2189 106.217C44.2282 106.14 44.2694 106.07 44.3326 106.025C44.4066 105.972 51.7802 100.667 60.559 93.0763C69.3471 85.4779 76.32 79.2488 76.3895 79.1866C76.4463 79.1355 76.5219 79.1104 76.5973 79.1165C76.6727 79.1225 76.7435 79.16 76.7909 79.2189L98.6551 106.564C98.7415 106.672 98.7347 106.828 98.6398 106.928L70.294 136.678C70.2396 136.734 70.1634 136.766 70.0847 136.763C70.0419 136.762 70.0004 136.751 69.9634 136.732L69.9633 136.734ZM44.8982 106.3L70.1039 136.075L98.0693 106.724L76.5382 79.7963C75.2892 80.9098 68.8407 86.6471 60.9188 93.497C53.0144 100.332 46.2453 105.318 44.8966 106.3L44.8982 106.3Z" fill="#31313C"/>
<path d="M76.8467 86.2557C76.8467 86.2557 69.8077 92.0747 68.8518 88.941C65.5706 78.1817 73.0073 68.2738 78.4495 64.5735C84.9223 60.1725 94.9383 47.0647 96.9373 50.9686C98.1513 53.3382 93.9875 58.6104 90.8699 63.3188C88.8516 66.3671 87.5109 69.3406 87.5371 70.5913C87.5904 73.1959 88.4437 75.9936 87.7197 77.8454C84.9828 84.8467 76.8472 86.2573 76.8472 86.2573L76.8467 86.2557Z" fill="white"/>
<path d="M68.7232 89.1854C68.6607 89.1523 68.6112 89.095 68.5882 89.0232C66.542 82.4367 68.7087 76.5356 70.8856 72.7448C73.4475 68.2828 77.1517 64.7952 79.6859 63.3162C81.6675 62.1596 84.4122 59.4483 87.0671 56.8249C91.4989 52.4463 94.5306 49.6024 96.2254 49.9629C96.672 50.0584 96.9991 50.3616 97.1963 50.8669C98.3807 53.8913 95.769 57.3083 93.0044 60.9248C90.1917 64.6039 87.2824 68.4093 88.1129 72.0564C88.814 75.1339 88.4056 77.8815 86.8996 80.223C83.7936 85.0527 77.1831 86.4685 76.9032 86.5263C76.7525 86.5577 76.607 86.4617 76.5756 86.311C76.5443 86.1603 76.6409 86.0136 76.791 85.9834C76.8577 85.9699 83.4575 84.5538 86.4347 79.9215C87.8552 77.7108 88.2378 75.1066 87.5718 72.1805C86.6835 68.2792 89.6723 64.3696 92.5634 60.5884C95.2308 57.0993 97.7503 53.8028 96.6802 51.0692C96.5108 50.6368 96.2736 50.5397 96.11 50.506C94.5794 50.1808 90.7954 53.9216 87.4565 57.2206C84.778 59.8681 82.0074 62.605 79.9656 63.7961C77.495 65.2369 73.8782 68.6489 71.366 73.0221C69.2438 76.7172 67.1315 82.4642 69.1179 88.8592C69.1638 89.0054 69.0815 89.161 68.9342 89.2063C68.8614 89.2287 68.785 89.2195 68.7226 89.1864L68.7232 89.1854Z" fill="#31313C"/>
<path d="M75.4653 135.922L64.2383 148.848C50.0705 163.612 43.341 152.647 32.1034 143.906C29.1472 141.606 13.8475 131.043 9.50047 128.837L53.6833 98.7158C53.6833 98.7158 53.707 98.8503 53.7648 99.1071C54.1562 100.871 56.0968 108.435 62.3399 118.143C64.2641 121.137 66.293 124.024 68.1637 126.57C70.1269 129.242 71.9173 131.538 73.2336 133.187C73.2544 133.212 73.2742 133.239 73.295 133.263C74.6322 134.937 75.4642 135.921 75.4642 135.921L75.4653 135.922Z" fill="#505ECE"/>
<path d="M65.5847 103.937L100.545 129.077C102.434 130.436 105.158 129.864 106.628 127.802L155.447 59.3011C156.917 57.2383 156.577 54.4643 154.687 53.1052L119.727 27.9659C117.837 26.6069 115.113 27.178 113.643 29.2408L64.8254 97.7419C63.3558 99.8047 63.6961 102.579 65.5857 103.938L65.5847 103.937Z" fill="#2C233D"/>
<path d="M67.4805 105.212L102.902 130.683C104.664 131.95 107.205 131.418 108.576 129.495L157.668 60.6101C159.039 58.6864 158.721 56.0987 156.959 54.8316L121.538 29.3603C119.776 28.0931 117.235 28.6245 115.864 30.5482L66.7722 99.4329C65.4006 101.357 65.7189 103.944 67.4811 105.211L67.4805 105.212Z" fill="white"/>
<path d="M94.9301 59.9243L94.9229 59.9327L94.8836 59.9891L94.8603 60.0228L94.7546 60.1714C94.7605 60.1732 94.7663 60.1749 94.7738 60.1762C94.7818 60.1763 94.7914 60.1787 94.7999 60.1805C94.8026 60.1806 94.8047 60.1817 94.8063 60.1812C94.864 60.19 94.9194 60.2004 94.9754 60.2097L95.787 59.0679L94.9317 59.9238L94.9301 59.9243ZM94.9301 59.9243L94.9229 59.9327L94.8836 59.9891L94.8603 60.0228L94.7546 60.1714C94.7605 60.1732 94.7669 60.1739 94.7738 60.1762C94.7818 60.1763 94.7914 60.1787 94.7999 60.1805C94.8026 60.1806 94.8047 60.1817 94.8063 60.1812C94.864 60.19 94.9194 60.2004 94.9754 60.2097L95.787 59.0679L94.9317 59.9238L94.9301 59.9243ZM139.118 86.2913L139.015 86.4335C139.015 86.4335 139.029 86.4285 139.037 86.426C139.06 86.418 139.081 86.4099 139.104 86.4018C139.126 86.3932 139.148 86.3857 139.171 86.3777C139.188 86.3716 139.208 86.3646 139.225 86.3591C139.249 86.3511 139.27 86.3435 139.294 86.3371C139.299 86.3346 139.306 86.3326 139.313 86.3295L139.321 86.327C139.254 86.3159 139.186 86.303 139.118 86.2902L139.118 86.2913ZM134.428 93.3916C134.426 93.3781 134.425 93.3626 134.422 93.3491C134.417 93.3222 134.414 93.2975 134.412 93.2707C134.411 93.2621 134.411 93.2551 134.411 93.2455C134.403 93.1778 134.397 93.1097 134.394 93.0416C134.391 93.0035 134.39 92.9638 134.389 92.9253L131.78 96.5887L131.822 96.7627C131.843 96.7412 131.865 96.7203 131.885 96.6999C131.905 96.6778 131.927 96.6585 131.947 96.6381C131.992 96.5952 132.037 96.5513 132.082 96.51C132.084 96.5084 132.084 96.5074 132.086 96.5058C132.086 96.5058 132.087 96.5053 132.089 96.5043C132.14 96.4567 132.191 96.4108 132.242 96.3648C132.286 96.3257 132.329 96.2876 132.374 96.2517C132.409 96.223 132.444 96.1928 132.481 96.1647C132.501 96.1469 132.524 96.1303 132.544 96.1142C132.595 96.0747 132.645 96.0373 132.695 96.0004L134.45 93.5372C134.442 93.4883 134.434 93.4394 134.428 93.3916ZM139.118 86.2913L139.015 86.4335C139.015 86.4335 139.029 86.4285 139.037 86.426C139.059 86.4174 139.081 86.4099 139.104 86.4018C139.126 86.3932 139.148 86.3857 139.171 86.3777C139.188 86.3716 139.208 86.3646 139.225 86.3591C139.249 86.3511 139.27 86.3435 139.294 86.3371C139.299 86.3346 139.306 86.3326 139.313 86.3295L139.321 86.327C139.254 86.3159 139.186 86.303 139.118 86.2902L139.118 86.2913ZM134.422 93.3491C134.417 93.3222 134.414 93.2975 134.412 93.2707C134.411 93.2621 134.411 93.2551 134.411 93.2455C134.403 93.1778 134.397 93.1097 134.394 93.0416C134.391 93.0035 134.39 92.9638 134.389 92.9253L131.78 96.5887L131.822 96.7627C131.842 96.7406 131.864 96.7197 131.885 96.6999C131.905 96.6778 131.927 96.6585 131.947 96.6381C131.992 96.5942 132.037 96.5513 132.082 96.51C132.084 96.5084 132.084 96.5074 132.086 96.5058C132.086 96.5058 132.087 96.5053 132.089 96.5043C132.14 96.4567 132.191 96.4108 132.242 96.3648C132.286 96.3257 132.329 96.2876 132.374 96.2517C132.411 96.2209 132.445 96.1917 132.481 96.1647C132.501 96.1469 132.523 96.1314 132.544 96.1142C132.595 96.0747 132.645 96.0373 132.695 96.0004L134.45 93.5372C134.442 93.4883 134.434 93.4394 134.428 93.3916C134.426 93.3781 134.425 93.3626 134.422 93.3491ZM157.087 54.6511L121.666 29.1808C121.373 28.9689 121.057 28.8058 120.729 28.6879L120.724 28.6851C118.991 28.0688 116.909 28.7345 115.7 30.4311L103.798 47.1328L103.603 47.4036L98.4871 54.5829L96.3472 57.5845L96.3416 57.5951L94.53 60.1352L94.0601 60.7927L94.0524 60.8022L89.6696 66.9541L87.7915 69.589L87.6387 69.8035L87.0188 70.6728L78.809 82.1926L78.2433 82.9877L74.8629 87.7317L72.7109 90.7513L72.4291 91.1481L66.6089 99.3148C66.4372 99.5572 66.2895 99.8081 66.17 100.067C65.8772 100.684 65.7282 101.34 65.7171 101.983C65.6982 102.96 65.9949 103.91 66.5876 104.658L66.5887 104.659C66.5887 104.659 66.5903 104.661 66.5913 104.661L66.5934 104.663C66.8088 104.936 67.0608 105.179 67.3542 105.39L86.5622 119.201L86.9773 119.499L101.485 129.931L102.777 130.86C104.626 132.191 107.303 131.63 108.744 129.609L110.369 127.33L111.468 125.788L112.511 124.324L112.637 124.147L112.865 123.828L114.885 120.994L121.664 111.482L123.745 108.561L126.102 105.255L129.258 100.827L129.753 100.131L131.908 97.109L132.698 95.9994L134.453 93.5362L139.562 86.369L139.656 86.2363L140.93 84.4491L144.053 80.0659L147.069 75.8361L149.37 72.6068L155.889 63.4607L157.838 60.7251C159.277 58.7061 158.943 55.9798 157.092 54.6496L157.087 54.6511ZM157.504 60.4903L155.447 63.376L148.72 72.8167L146.561 75.8463L143.925 79.5456L140.758 83.9882L139.117 86.2897L139.015 86.4319L134.389 92.9236L131.779 96.5871L129.437 99.8733L125.859 104.894L125.857 104.899L123.666 107.97L121.52 110.982L114.802 120.409L112.929 123.037L112.271 123.96L112.195 124.066L111.1 125.601L110.164 126.916L108.411 129.374C107.112 131.197 104.699 131.704 103.029 130.502L101.921 129.705L101.919 129.704L101.3 129.259L87.2893 119.183L86.8663 118.88L86.8652 118.879L67.6084 105.03C66.6828 104.366 66.1774 103.314 66.1336 102.199C66.1063 101.549 66.2353 100.878 66.5283 100.25C66.6405 100.01 66.7755 99.7754 66.9355 99.5499L72.7397 91.4059L73.0972 90.9043L75.8753 87.0064L78.5466 83.2592L79.0713 82.5211L87.5357 70.6457L87.6143 70.5355L87.6995 70.4154L89.9828 67.212L94.9744 60.2092L95.7865 59.0663L95.7931 59.059L98.8873 54.7148L98.8967 54.7021L98.9348 54.6505L103.981 47.5681L104.193 47.2715L116.027 30.6641C117.327 28.8416 119.741 28.3357 121.411 29.5375L155.719 54.207L155.723 54.2093L156.83 55.0066C158.5 56.2074 158.802 58.6656 157.503 60.4871L157.504 60.4903ZM134.427 93.391C134.425 93.3776 134.423 93.362 134.421 93.3486C134.416 93.3217 134.413 93.297 134.411 93.2701C134.41 93.2615 134.41 93.2546 134.41 93.2449C134.402 93.1773 134.396 93.1091 134.393 93.041C134.39 93.0029 134.389 92.9633 134.388 92.9247L131.779 96.5881L131.821 96.7621C131.842 96.7406 131.864 96.7197 131.884 96.6993C131.904 96.6773 131.926 96.658 131.946 96.6375C131.991 96.5947 132.036 96.5507 132.08 96.5094C132.083 96.5079 132.083 96.5068 132.085 96.5053C132.085 96.5053 132.086 96.5047 132.088 96.5037C132.138 96.4561 132.19 96.4102 132.241 96.3643C132.285 96.3251 132.328 96.287 132.373 96.2511C132.408 96.2225 132.443 96.1922 132.48 96.1641C132.5 96.1464 132.522 96.1298 132.543 96.1136C132.594 96.0741 132.644 96.0367 132.694 95.9998L134.449 93.5366C134.441 93.4877 134.433 93.4388 134.427 93.391ZM139.117 86.2907L139.014 86.433C139.014 86.433 139.028 86.4279 139.036 86.4254C139.059 86.4174 139.08 86.4093 139.103 86.4013C139.125 86.3927 139.147 86.3851 139.17 86.3771C139.187 86.3711 139.207 86.364 139.224 86.3586C139.248 86.3505 139.269 86.343 139.293 86.3366C139.298 86.334 139.305 86.332 139.312 86.329L139.32 86.3265C139.253 86.3153 139.185 86.3025 139.117 86.2897L139.117 86.2907ZM134.427 93.391C134.425 93.3776 134.423 93.362 134.421 93.3486C134.416 93.3217 134.413 93.297 134.411 93.2701C134.41 93.2615 134.41 93.2546 134.41 93.2449C134.402 93.1773 134.396 93.1091 134.393 93.041C134.39 93.0029 134.389 92.9633 134.388 92.9247L131.779 96.5881L131.821 96.7621C131.842 96.7406 131.864 96.7197 131.884 96.6993C131.904 96.6773 131.926 96.658 131.946 96.6375C131.991 96.5947 132.036 96.5507 132.08 96.5094C132.083 96.5079 132.083 96.5068 132.085 96.5053C132.085 96.5053 132.086 96.5047 132.088 96.5037C132.138 96.4561 132.19 96.4102 132.241 96.3643C132.285 96.3251 132.328 96.287 132.373 96.2511C132.408 96.2225 132.443 96.1922 132.48 96.1641C132.5 96.1464 132.522 96.1298 132.543 96.1136C132.594 96.0741 132.644 96.0367 132.694 95.9998L134.449 93.5366C134.441 93.4877 134.433 93.4388 134.427 93.391ZM139.117 86.2907L139.014 86.433C139.014 86.433 139.028 86.4279 139.036 86.4254C139.059 86.4174 139.08 86.4093 139.103 86.4013C139.125 86.3927 139.147 86.3851 139.17 86.3771C139.187 86.3711 139.207 86.364 139.224 86.3586C139.248 86.3505 139.269 86.343 139.293 86.3366C139.298 86.334 139.305 86.332 139.312 86.329L139.32 86.3265C139.253 86.3153 139.185 86.3025 139.117 86.2897L139.117 86.2907ZM94.929 59.9237L94.9219 59.9321L94.8825 59.9885L94.8593 60.0223L94.7535 60.1709C94.7594 60.1726 94.7658 60.1733 94.7727 60.1756C94.7807 60.1758 94.7903 60.1781 94.7989 60.1799C94.8015 60.18 94.8036 60.1811 94.8053 60.1806C94.8629 60.1895 94.9184 60.1998 94.9744 60.2092L95.7859 59.0674L94.9306 59.9232L94.929 59.9237Z" fill="#31313B"/>
<path d="M106.419 124.311C106.336 124.267 106.257 124.218 106.18 124.163L72.5721 99.9963C71.5859 99.2874 71.4035 97.8404 72.1657 96.7714L108.19 46.22L116.935 33.95C117.319 33.411 117.898 33.0431 118.524 32.9391C119.093 32.8452 119.656 32.9723 120.108 33.2982L153.716 57.4647C154.702 58.1736 154.885 59.6206 154.123 60.6896L128.561 96.5583L109.352 123.512C108.969 124.05 108.391 124.419 107.764 124.523C107.292 124.602 106.822 124.527 106.418 124.313L106.419 124.311ZM119.679 33.51C119.353 33.3375 118.974 33.2779 118.59 33.3413C118.07 33.4278 117.588 33.7348 117.266 34.1863L108.521 46.4564L72.4966 97.0088C71.865 97.895 72.0051 99.0866 72.8095 99.6654L106.418 123.832C106.783 124.094 107.237 124.196 107.697 124.119C108.217 124.033 108.698 123.725 109.019 123.275L128.228 96.3214L153.79 60.4527C154.422 59.5665 154.282 58.3749 153.477 57.7961L119.87 33.6285C119.809 33.5842 119.745 33.5447 119.679 33.51Z" fill="#31313C"/>
<path d="M138.467 44.544C138.74 44.1604 138.677 43.6448 138.326 43.3925C137.974 43.1401 137.467 43.2457 137.194 43.6293C136.92 44.0128 136.983 44.5284 137.335 44.7808C137.686 45.0331 138.193 44.9275 138.467 44.544Z" fill="#31313B"/>
<path d="M83.3782 113.66L89.8195 118.292C90.253 118.604 90.8838 118.472 91.2214 117.998L91.7323 117.281C92.0694 116.807 91.9911 116.165 91.5575 115.852L85.1163 111.22C84.6827 110.908 84.052 111.04 83.7143 111.515L83.2034 112.232C82.8663 112.705 82.9447 113.348 83.3782 113.66Z" fill="white"/>
<path d="M91.6856 115.674L91.1588 115.295L90.9892 115.172L90.641 114.922L90.6399 114.921L85.2433 111.041C84.7413 110.679 84.0254 110.808 83.6044 111.322C83.5861 111.347 83.5663 111.371 83.5475 111.397L83.0366 112.114C82.6286 112.687 82.7227 113.462 83.2479 113.839L88.2457 117.433L88.704 117.763L89.6886 118.472C90.2143 118.85 90.9737 118.69 91.3838 118.117L91.8953 117.399C92.3033 116.826 92.2097 116.053 91.684 115.674L91.6856 115.674ZM91.5682 117.163L91.0573 117.88C90.7888 118.256 90.29 118.359 89.9465 118.113L89.0193 117.446L88.5541 117.112L83.5052 113.481C83.1607 113.233 83.0996 112.727 83.3664 112.35L83.8773 111.633C83.9083 111.59 83.9408 111.552 83.9759 111.516C84.256 111.238 84.6836 111.18 84.9881 111.4L88.2517 113.747L90.3336 115.244L90.8441 115.61L91.4288 116.031C91.7728 116.279 91.8339 116.786 91.5671 117.162L91.5682 117.163Z" fill="#31313B"/>
<g opacity="0.2">
<path d="M153.957 60.5698L128.395 96.4385L108.356 46.3382L117.101 34.0681C117.799 33.0887 119.093 32.8181 119.989 33.4633L153.597 57.6299C154.494 58.275 154.655 59.5904 153.958 60.5704L153.957 60.5698Z" fill="#A5A6F6"/>
</g>
<g opacity="0.2">
<path d="M95.6171 64.2116L72.329 96.8894C71.631 97.8678 71.7939 99.1853 72.6894 99.83L106.298 123.997C107.194 124.642 108.488 124.37 109.185 123.391L117.263 112.056L95.6171 64.2116Z" fill="#A5A6F6"/>
</g>
<path d="M134.146 106.496C136.104 106.731 140.344 104.747 140.021 99.3775C139.906 97.4677 135.32 91.298 130.489 98.41C126.558 104.198 131.427 106.172 134.146 106.496Z" fill="white"/>
<path d="M131.212 105.769C130.327 105.3 129.573 104.642 129.173 103.765C128.506 102.299 128.906 100.469 130.363 98.3245C132.679 94.9172 134.858 94.6687 136.28 95.0594C138.536 95.6803 140.105 98.238 140.173 99.3696C140.35 102.323 139.169 104.091 138.148 105.054C136.798 106.326 135.157 106.771 134.129 106.648L134.147 106.497L134.129 106.648C133.182 106.535 132.128 106.254 131.213 105.769L131.212 105.769ZM137.04 95.6891C136.773 95.5479 136.492 95.4333 136.199 95.3526C134.298 94.8298 132.367 95.9174 130.615 98.4958C129.222 100.547 128.831 102.277 129.451 103.639C129.951 104.735 131.451 106.021 134.165 106.347C135.093 106.457 136.669 106.031 137.939 104.833C138.915 103.915 140.041 102.223 139.87 99.3883C139.816 98.4777 138.709 96.5728 137.041 95.6896L137.04 95.6891Z" fill="#31313B"/>
<path d="M135.5 105.032C135.479 105.021 135.461 105.006 135.446 104.985C135.399 104.916 135.415 104.821 135.484 104.773C138.893 102.391 138.899 99.1709 138.898 99.1393C138.898 99.0552 138.964 98.986 139.048 98.9858C139.132 98.9856 139.201 99.052 139.202 99.1361C139.202 99.1715 139.206 100.004 138.77 101.151C138.37 102.204 137.505 103.732 135.658 105.023C135.609 105.056 135.549 105.058 135.5 105.032Z" fill="#31313B"/>
<path d="M116.152 85.5909L96.5016 71.9768C96.2776 71.8216 96.2205 71.5097 96.3756 71.2856L96.405 71.2429C96.5601 71.0189 96.8721 70.9619 97.0961 71.117L116.747 84.7311C116.971 84.8862 117.028 85.1982 116.873 85.4222L116.843 85.4649C116.688 85.69 116.376 85.746 116.152 85.5909Z" fill="#31313C"/>
<path d="M110.564 93.9051L90.9173 80.3758C90.6811 80.2128 90.6202 79.8853 90.7831 79.6491C90.946 79.4129 91.2736 79.352 91.5097 79.5149L111.156 93.0443C111.393 93.2072 111.453 93.5348 111.291 93.7709C111.128 94.0071 110.8 94.0681 110.564 93.9051Z" fill="#31313C"/>
<path d="M106.752 81.9976L95.0799 74.2016C94.888 74.0734 94.6285 74.125 94.5004 74.3169L94.384 74.4912C94.2558 74.6831 94.3075 74.9425 94.4994 75.0707L106.172 82.8667C106.364 82.9949 106.623 82.9432 106.751 82.7513L106.868 82.5771C106.996 82.3852 106.944 82.1257 106.752 81.9976Z" fill="#31313C"/>
<path d="M115.917 89.6427L108.49 84.4972C108.254 84.3333 108.195 84.0062 108.359 83.7706C108.523 83.535 108.85 83.4751 109.085 83.6391L116.512 88.7845C116.747 88.9485 116.807 89.2755 116.643 89.5111C116.479 89.7467 116.152 89.8066 115.917 89.6427Z" fill="#31313C"/>
<path d="M120.092 54.5545L112.666 49.4091C112.43 49.2451 112.37 48.9181 112.534 48.6825C112.698 48.4469 113.025 48.387 113.261 48.5509L120.688 53.6964C120.923 53.8604 120.983 54.1874 120.819 54.423C120.655 54.6586 120.328 54.7185 120.092 54.5545Z" fill="#31313C"/>
<path d="M116.735 59.4029L109.308 54.2575C109.073 54.0935 109.013 53.7665 109.177 53.5309C109.341 53.2953 109.668 53.2354 109.903 53.3993L117.33 58.5448C117.566 58.7088 117.626 59.0358 117.462 59.2714C117.298 59.507 116.971 59.5669 116.735 59.4029Z" fill="#31313C"/>
<path d="M121.989 59.4852L110.973 51.8532C110.737 51.6892 110.677 51.3622 110.841 51.1266C111.005 50.891 111.332 50.8311 111.568 50.995L122.584 58.6271C122.82 58.7911 122.88 59.1181 122.716 59.3537C122.552 59.5893 122.225 59.6492 121.989 59.4852Z" fill="#31313C"/>
<path d="M113.641 63.6825L106.215 58.537C105.979 58.373 105.919 58.046 106.083 57.8104C106.247 57.5748 106.574 57.5149 106.81 57.6789L114.236 62.8243C114.472 62.9883 114.532 63.3153 114.368 63.5509C114.204 63.7865 113.877 63.8464 113.641 63.6825Z" fill="#31313C"/>
<path d="M110.28 68.5291L102.853 63.3837C102.618 63.2197 102.558 62.8927 102.722 62.6571C102.886 62.4215 103.213 62.3616 103.448 62.5256L110.875 67.671C111.111 67.835 111.171 68.162 111.007 68.3976C110.843 68.6332 110.516 68.6931 110.28 68.5291Z" fill="#31313C"/>
<path d="M115.536 68.6129L104.519 60.9809C104.284 60.8169 104.224 60.4899 104.388 60.2543C104.552 60.0187 104.879 59.9587 105.114 60.1227L116.131 67.7548C116.367 67.9187 116.427 68.2458 116.263 68.4814C116.099 68.717 115.772 68.7769 115.536 68.6129Z" fill="#31313C"/>
<path d="M101.239 89.9172L89.6781 81.9569C89.4881 81.8261 89.2279 81.874 89.097 82.0641L88.9782 82.2367C88.8473 82.4267 88.8953 82.6869 89.0854 82.8178L100.646 90.778C100.836 90.9089 101.097 90.8609 101.227 90.6708L101.346 90.4983C101.477 90.3082 101.429 90.048 101.239 89.9172Z" fill="#31313C"/>
<path d="M110.452 97.5318L103.011 92.4075C102.775 92.2446 102.714 91.917 102.877 91.6808C103.04 91.4447 103.367 91.3837 103.603 91.5466L111.044 96.671C111.28 96.8339 111.341 97.1614 111.178 97.3976C111.015 97.6338 110.688 97.6948 110.452 97.5318Z" fill="#31313C"/>
<path d="M104.517 102.079L85.054 88.2876C84.8195 88.1215 84.7638 87.7941 84.9299 87.5596C85.096 87.3251 85.4235 87.2695 85.6579 87.4355L105.121 101.227C105.356 101.393 105.411 101.72 105.245 101.955C105.079 102.189 104.752 102.245 104.517 102.079Z" fill="#31313C"/>
<path d="M94.6672 98.8367L83.159 90.6818C82.9867 90.5595 82.9462 90.3186 83.0675 90.1457L83.2275 89.9202C83.3498 89.7479 83.5907 89.7074 83.7636 89.8287L95.2718 97.9836C95.4441 98.1059 95.4845 98.3468 95.3633 98.5196L95.2033 98.7452C95.0809 98.9175 94.8401 98.958 94.6672 98.8367Z" fill="#31313C"/>
<path d="M104.355 105.703L96.9836 100.48C96.7492 100.314 96.6935 99.9864 96.8596 99.7519C97.0257 99.5175 97.3531 99.4618 97.5876 99.6279L104.959 104.851C105.194 105.017 105.25 105.345 105.083 105.579C104.917 105.814 104.59 105.87 104.355 105.703Z" fill="#31313C"/>
</g>
<path d="M194.001 16.6303C194.001 7.97357 186.355 0.956055 176.924 0.956055C167.493 0.956055 159.848 7.97357 159.848 16.6303C159.848 25.287 167.493 32.3045 176.924 32.3045C178.83 32.3045 180.662 32.0179 182.374 31.489C183.817 33.09 186.17 34.8375 189.911 35.7148C189.911 35.7148 187.472 32.9447 186.681 29.4942C191.106 26.6622 194.001 21.9571 194.001 16.6303Z" fill="#FF8B7C"/>
<path d="M152.422 28.5758C152.422 21.5047 158.668 15.7717 166.372 15.7717C174.076 15.7717 180.321 21.5047 180.321 28.5758C180.321 35.647 174.076 41.38 166.372 41.38C164.815 41.38 163.317 41.1459 161.919 40.714C160.741 42.0222 158.818 43.449 155.762 44.1665C155.762 44.1665 157.754 41.9037 158.401 39.0851C154.788 36.7707 152.422 32.9274 152.422 28.5758Z" fill="#307388"/>
<path d="M155.331 42.1068L155.65 41.7449C155.669 41.7232 157.574 39.5346 158.229 36.8367C154.495 34.4057 152.27 30.4593 152.27 26.2573C152.27 19.1119 158.596 13.2996 166.371 13.2996C174.146 13.2996 180.474 19.113 180.474 26.2573C180.474 33.4016 174.147 39.215 166.371 39.215C164.865 39.215 163.384 38.9985 161.966 38.5696C160.429 40.2439 158.353 41.3964 155.796 41.9964L155.33 42.1057L155.331 42.1068ZM166.371 13.6068C158.764 13.6068 152.574 19.282 152.574 26.2573C152.574 30.3872 154.783 34.2676 158.483 36.6356L158.574 36.6944L158.55 36.8006C158.052 38.9686 156.755 40.8284 156.17 41.5861C158.499 40.9655 160.394 39.8583 161.807 38.2903L161.872 38.2181L161.963 38.247C163.38 38.6851 164.863 38.9068 166.372 38.9068C173.98 38.9068 180.17 33.2315 180.17 26.2573C180.17 19.2831 173.98 13.6078 166.372 13.6078L166.371 13.6068Z" fill="#2C233D"/>
</svg>
