<svg width="187" height="130" viewBox="0 0 187 130" fill="none" xmlns="http://www.w3.org/2000/svg">
<g clip-path="url(#clip0_3202_1754)">
<path d="M22.7237 7.11719L0.0770367 124.45C-0.382793 126.831 1.44375 129.059 3.87063 129.059H15.8134L22.7237 7.11719Z" fill="#FF8B7C"/>
<path d="M22.9908 6.63106L7.9825 121.839C7.48435 125.654 10.4477 129.046 14.2924 129.046H36.3131L23.8977 6.22144L22.9908 6.63106Z" fill="#8E99F5"/>
<path d="M22.9918 6.63086L16.2732 121.097C16.0177 125.411 19.4409 129.033 23.7454 129.033H56.5849L22.9918 6.63086Z" fill="#6372E7"/>
<path d="M22.7363 7.56543L26.0062 121.097C25.7508 125.411 29.1739 129.033 33.4785 129.033H66.318L22.7363 7.56543Z" fill="#505ECE"/>
<path d="M179.973 129.046H50.4797C47.2481 129.046 44.4763 126.729 43.8888 123.542L24.1927 15.5531C23.2986 10.6503 27.0539 6.13159 32.0354 6.13159H160.009C163.24 6.13159 166.012 8.44856 166.599 11.636L186.577 121.135C187.317 125.257 184.162 129.046 179.973 129.046Z" fill="#E5E2F6"/>
<path d="M26.7585 29.5829H169.944L166.279 9.19101C165.959 7.42448 164.426 6.13159 162.625 6.13159H23.9357C23.1821 6.13159 22.6073 6.82284 22.7478 7.56529L26.7585 29.5829Z" fill="#FF8B7C"/>
<path d="M30.1061 0C26.683 0 23.8984 2.7906 23.8984 6.22124H25.0863C25.0863 3.44344 27.3344 1.19048 30.1061 1.19048C32.8779 1.19048 35.1259 3.44344 35.1259 6.22124C35.1259 6.77168 35.0365 7.30932 34.8705 7.80855C34.3723 9.28066 33.2228 10.4583 31.7539 10.9704C31.3196 11.124 30.8725 11.2136 30.3999 11.2392V12.4297C30.9492 12.4041 31.4856 12.3145 31.9838 12.1481C34.0019 11.508 35.573 9.8695 36.1095 7.80855C36.2372 7.29652 36.3138 6.77168 36.3138 6.22124C36.3138 2.7906 33.5293 0 30.1061 0Z" fill="#78ACEA"/>
<path d="M32.0222 11.7897C32.0222 11.9177 32.0094 12.0329 31.9711 12.1481C31.8178 12.7241 31.2941 13.1337 30.681 13.1337C29.9402 13.1337 29.3398 12.5321 29.3398 11.7897C29.3398 11.0472 29.9402 10.4456 30.681 10.4456C31.1153 10.4456 31.4985 10.6504 31.7412 10.9704C31.92 11.2008 32.0222 11.4824 32.0222 11.7897Z" fill="#78ACEA"/>
<path d="M52.3679 0C48.9447 0 46.1602 2.7906 46.1602 6.22124H47.3481C47.3481 3.44344 49.5961 1.19048 52.3679 1.19048C55.1396 1.19048 57.3877 3.44344 57.3877 6.22124C57.3877 6.77168 57.2983 7.30932 57.1322 7.80855C56.6341 9.28066 55.4845 10.4583 54.0156 10.9704C53.5813 11.124 53.1342 11.2136 52.6616 11.2392V12.4297C53.2109 12.4041 53.7474 12.3145 54.2455 12.1481C56.2636 11.508 57.8347 9.8695 58.3712 7.80855C58.4989 7.29652 58.5756 6.77168 58.5756 6.22124C58.5756 2.7906 55.791 0 52.3679 0Z" fill="#78ACEA"/>
<path d="M54.2839 11.7899C54.2839 11.9179 54.2711 12.0331 54.2328 12.1483C54.0795 12.7244 53.5558 13.134 52.9427 13.134C52.2019 13.134 51.6016 12.5323 51.6016 11.7899C51.6016 11.0474 52.2019 10.4458 52.9427 10.4458C53.377 10.4458 53.7602 10.6506 54.0029 10.9706C54.1817 11.2011 54.2839 11.4827 54.2839 11.7899Z" fill="#78ACEA"/>
<path d="M74.6198 0C71.1966 0 68.4121 2.7906 68.4121 6.22124H69.6C69.6 3.44344 71.8481 1.19048 74.6198 1.19048C77.3916 1.19048 79.6396 3.44344 79.6396 6.22124C79.6396 6.77168 79.5502 7.30932 79.3842 7.80855C78.886 9.28066 77.7364 10.4583 76.2675 10.9704C75.8333 11.124 75.3862 11.2136 74.9136 11.2392V12.4297C75.4628 12.4041 75.9993 12.3145 76.4975 12.1481C78.5156 11.508 80.0867 9.8695 80.6232 7.80855C80.7509 7.29652 80.8275 6.77168 80.8275 6.22124C80.8275 2.7906 78.043 0 74.6198 0Z" fill="#78ACEA"/>
<path d="M76.5359 11.7897C76.5359 11.9177 76.5231 12.0329 76.4848 12.1481C76.3315 12.7241 75.8078 13.1337 75.1947 13.1337C74.4538 13.1337 73.8535 12.5321 73.8535 11.7897C73.8535 11.0472 74.4538 10.4456 75.1947 10.4456C75.629 10.4456 76.0122 10.6504 76.2548 10.9704C76.4337 11.2008 76.5359 11.4824 76.5359 11.7897Z" fill="#78ACEA"/>
<path d="M96.8854 0C93.4623 0 90.6777 2.7906 90.6777 6.22124H91.8656C91.8656 3.44344 94.1137 1.19048 96.8854 1.19048C99.6572 1.19048 101.905 3.44344 101.905 6.22124C101.905 6.77168 101.816 7.30932 101.65 7.80855C101.152 9.28066 100.002 10.4583 98.5332 10.9704C98.0989 11.124 97.6518 11.2136 97.1792 11.2392V12.4297C97.7285 12.4041 98.2649 12.3145 98.7631 12.1481C100.781 11.508 102.352 9.8695 102.889 7.80855C103.016 7.29652 103.093 6.77168 103.093 6.22124C103.093 2.7906 100.309 0 96.8854 0Z" fill="#78ACEA"/>
<path d="M98.7995 11.7899C98.7995 11.9179 98.7868 12.0331 98.7484 12.1483C98.5952 12.7244 98.0715 13.134 97.4584 13.134C96.7175 13.134 96.1172 12.5323 96.1172 11.7899C96.1172 11.0474 96.7175 10.4458 97.4584 10.4458C97.8926 10.4458 98.2758 10.6506 98.5185 10.9706C98.6973 11.2011 98.7995 11.4827 98.7995 11.7899Z" fill="#78ACEA"/>
<path d="M119.133 0C115.71 0 112.926 2.7906 112.926 6.22124H114.114C114.114 3.44344 116.362 1.19048 119.133 1.19048C121.905 1.19048 124.153 3.44344 124.153 6.22124C124.153 6.77168 124.064 7.30932 123.898 7.80855C123.4 9.28066 122.25 10.4583 120.781 10.9704C120.36 11.124 119.9 11.2136 119.427 11.2392V12.4297C119.977 12.4041 120.513 12.3145 121.011 12.1481C123.029 11.508 124.6 9.8695 125.137 7.80855C125.277 7.29652 125.341 6.77168 125.341 6.22124C125.341 2.7906 122.557 0 119.133 0Z" fill="#78ACEA"/>
<path d="M121.05 11.7899C121.05 11.9179 121.037 12.0331 120.998 12.1483C120.845 12.7244 120.321 13.134 119.708 13.134C118.968 13.134 118.367 12.5323 118.367 11.7899C118.367 11.0474 118.968 10.4458 119.708 10.4458C120.143 10.4458 120.526 10.6506 120.769 10.9706C120.947 11.2011 121.05 11.4827 121.05 11.7899Z" fill="#78ACEA"/>
<path d="M141.399 0C137.976 0 135.191 2.7906 135.191 6.22124H136.379C136.379 3.44344 138.627 1.19048 141.399 1.19048C144.171 1.19048 146.419 3.44344 146.419 6.22124C146.419 6.77168 146.33 7.30932 146.163 7.80855C145.665 9.28066 144.516 10.4583 143.047 10.9704C142.625 11.124 142.165 11.2136 141.693 11.2392V12.4297C142.242 12.4041 142.779 12.3145 143.277 12.1481C145.295 11.508 146.866 9.8695 147.402 7.80855C147.53 7.29652 147.607 6.77168 147.607 6.22124C147.607 2.7906 144.822 0 141.399 0Z" fill="#78ACEA"/>
<path d="M143.313 11.7899C143.313 11.9179 143.3 12.0331 143.262 12.1483C143.109 12.7244 142.585 13.134 141.972 13.134C141.231 13.134 140.631 12.5323 140.631 11.7899C140.631 11.0474 141.231 10.4458 141.972 10.4458C142.406 10.4458 142.79 10.6506 143.032 10.9706C143.211 11.2011 143.313 11.4827 143.313 11.7899Z" fill="#78ACEA"/>
<path d="M163.647 0C160.224 0 157.439 2.7906 157.439 6.22124H158.627C158.627 3.44344 160.875 1.19048 163.647 1.19048C166.419 1.19048 168.667 3.44344 168.667 6.22124C168.667 6.77168 168.578 7.30932 168.412 7.80855C167.913 9.28066 166.764 10.4583 165.295 10.9704C164.861 11.124 164.414 11.2136 163.941 11.2392V12.4297C164.49 12.4041 165.027 12.3145 165.525 12.1481C167.543 11.508 169.114 9.8695 169.65 7.80855C169.778 7.29652 169.855 6.77168 169.855 6.22124C169.855 2.7906 167.07 0 163.647 0Z" fill="#78ACEA"/>
<path d="M165.563 11.7899C165.563 11.9179 165.55 12.0331 165.512 12.1483C165.359 12.7244 164.835 13.134 164.222 13.134C163.481 13.134 162.881 12.5323 162.881 11.7899C162.881 11.0474 163.481 10.4458 164.222 10.4458C164.656 10.4458 165.04 10.6506 165.282 10.9706C165.461 11.2011 165.563 11.4827 165.563 11.7899Z" fill="#78ACEA"/>
<path d="M109.567 67.8838H102.325C101.482 67.8838 100.677 67.1926 100.511 66.3605L99.119 59.1024C98.9529 58.2576 99.5149 57.5791 100.345 57.5791H107.588C108.431 57.5791 109.235 58.2704 109.401 59.1024L110.794 66.3605C110.96 67.1926 110.398 67.8838 109.567 67.8838Z" fill="#B2B9EE"/>
<path d="M127.833 67.8838H120.591C119.748 67.8838 118.943 67.1926 118.777 66.3605L117.385 59.1024C117.219 58.2576 117.781 57.5791 118.611 57.5791H125.853C126.696 57.5791 127.501 58.2704 127.667 59.1024L129.059 66.3605C129.225 67.1926 128.663 67.8838 127.833 67.8838Z" fill="#B2B9EE"/>
<path d="M146.099 67.8838H138.856C138.013 67.8838 137.209 67.1926 137.042 66.3605L135.65 59.1024C135.484 58.2576 136.046 57.5791 136.876 57.5791H144.119C144.962 57.5791 145.766 58.2704 145.933 59.1024L147.325 66.3605C147.491 67.1926 146.929 67.8838 146.099 67.8838Z" fill="#6372E7"/>
<path d="M54.7704 67.8838H47.5281C46.6851 67.8838 45.8804 67.1926 45.7144 66.3605L44.3221 59.1024C44.156 58.2576 44.7181 57.5791 45.5483 57.5791H52.7906C53.6336 57.5791 54.4384 58.2704 54.6044 59.1024L55.9967 66.3605C56.1499 67.1926 55.6007 67.8838 54.7704 67.8838Z" fill="#B2B9EE"/>
<path d="M46.8388 46.1093H43.7222C43.3645 46.1093 43.0069 45.8149 42.943 45.4564L42.3427 42.333C42.2788 41.9746 42.5087 41.6802 42.8664 41.6802H45.983C46.3406 41.6802 46.6983 41.9746 46.7621 42.333L47.3625 45.4564C47.4263 45.8149 47.1964 46.1093 46.8388 46.1093Z" fill="#FF8B7C"/>
<path d="M73.0361 67.8838H65.7938C64.9507 67.8838 64.146 67.1926 63.98 66.3605L62.5877 59.1024C62.4217 58.2576 62.9837 57.5791 63.8139 57.5791H71.0563C71.8993 57.5791 72.704 58.2704 72.87 59.1024L74.2623 66.3605C74.4156 67.1926 73.8663 67.8838 73.0361 67.8838Z" fill="#B2B9EE"/>
<path d="M91.3017 67.8838H84.0594C83.2164 67.8838 82.4117 67.1926 82.2456 66.3605L80.8533 59.1024C80.6873 58.2576 81.2493 57.5791 82.0796 57.5791H89.3219C90.1649 57.5791 90.9696 58.2704 91.1357 59.1024L92.5279 66.3605C92.694 67.1926 92.1319 67.8838 91.3017 67.8838Z" fill="#B2B9EE"/>
<path d="M164.364 67.8838H157.122C156.279 67.8838 155.474 67.1926 155.308 66.3605L153.916 59.1024C153.75 58.2576 154.312 57.5791 155.142 57.5791H162.384C163.227 57.5791 164.032 58.2704 164.198 59.1024L165.59 66.3605C165.756 67.1926 165.194 67.8838 164.364 67.8838Z" fill="#6372E7"/>
<path d="M106.528 52.1255H99.2859C98.4429 52.1255 97.6382 51.4343 97.4722 50.6022L96.0799 43.3441C95.9139 42.4992 96.4759 41.8208 97.3061 41.8208H104.548C105.391 41.8208 106.196 42.512 106.362 43.3441L107.754 50.6022C107.921 51.4471 107.371 52.1255 106.528 52.1255Z" fill="#B2B9EE"/>
<path d="M124.792 52.1255H117.55C116.707 52.1255 115.902 51.4343 115.736 50.6022L114.344 43.3441C114.178 42.4992 114.74 41.8208 115.57 41.8208H122.812C123.655 41.8208 124.46 42.512 124.626 43.3441L126.018 50.6022C126.184 51.4471 125.635 52.1255 124.792 52.1255Z" fill="#B2B9EE"/>
<path d="M143.058 52.1255H135.815C134.972 52.1255 134.168 51.4343 134.001 50.6022L132.609 43.3441C132.443 42.4992 133.005 41.8208 133.835 41.8208H141.078C141.921 41.8208 142.725 42.512 142.892 43.3441L144.284 50.6022C144.45 51.4471 143.901 52.1255 143.058 52.1255Z" fill="#6372E7"/>
<path d="M161.323 52.1258H154.081C153.238 52.1258 152.433 51.4345 152.267 50.6025L150.875 43.3444C150.709 42.4995 151.271 41.821 152.101 41.821H159.343C160.186 41.821 160.991 42.5123 161.157 43.3444L162.549 50.6025C162.715 51.4473 162.166 52.1258 161.323 52.1258Z" fill="#6372E7"/>
<path d="M112.774 84.5889H105.532C104.689 84.5889 103.884 83.8977 103.718 83.0656L102.326 75.8075C102.16 74.9626 102.722 74.2842 103.552 74.2842H110.795C111.638 74.2842 112.442 74.9754 112.608 75.8075L114.001 83.0656C114.167 83.8977 113.617 84.5889 112.774 84.5889Z" fill="#B2B9EE"/>
<path d="M131.038 84.5889H123.796C122.953 84.5889 122.148 83.8977 121.982 83.0656L120.59 75.8075C120.424 74.9626 120.986 74.2842 121.816 74.2842H129.058C129.901 74.2842 130.706 74.9754 130.872 75.8075L132.264 83.0656C132.43 83.8977 131.881 84.5889 131.038 84.5889Z" fill="#B2B9EE"/>
<path d="M149.304 84.5889H142.061C141.218 84.5889 140.414 83.8977 140.248 83.0656L138.855 75.8075C138.689 74.9626 139.251 74.2842 140.082 74.2842H147.324C148.167 74.2842 148.972 74.9754 149.138 75.8075L150.53 83.0656C150.696 83.8977 150.147 84.5889 149.304 84.5889Z" fill="#6372E7"/>
<path d="M57.9755 84.5889H50.7332C49.8902 84.5889 49.0855 83.8977 48.9194 83.0656L47.5272 75.8075C47.3611 74.9626 47.9231 74.2842 48.7534 74.2842H55.9957C56.8387 74.2842 57.6434 74.9754 57.8095 75.8075L59.2017 83.0656C59.3678 83.8977 58.8185 84.5889 57.9755 84.5889Z" fill="#B2B9EE"/>
<path d="M76.2431 84.5889H69.0008C68.1578 84.5889 67.3531 83.8977 67.187 83.0656L65.7947 75.8075C65.6287 74.9626 66.1907 74.2842 67.021 74.2842H74.2633C75.1063 74.2842 75.911 74.9754 76.0771 75.8075L77.4693 83.0656C77.6354 83.8977 77.0861 84.5889 76.2431 84.5889Z" fill="#B2B9EE"/>
<path d="M94.5087 84.5889H87.2664C86.4234 84.5889 85.6187 83.8977 85.4526 83.0656L84.0604 75.8075C83.8943 74.9626 84.4563 74.2842 85.2866 74.2842H92.5289C93.3719 74.2842 94.1766 74.9754 94.3427 75.8075L95.7349 83.0656C95.901 83.8977 95.3518 84.5889 94.5087 84.5889Z" fill="#B2B9EE"/>
<path d="M167.569 84.5889H160.327C159.484 84.5889 158.679 83.8977 158.513 83.0656L157.121 75.8075C156.955 74.9626 157.517 74.2842 158.347 74.2842H165.589C166.432 74.2842 167.237 74.9754 167.403 75.8075L168.795 83.0656C168.962 83.8977 168.412 84.5889 167.569 84.5889Z" fill="#6372E7"/>
<path d="M115.991 101.281H108.749C107.906 101.281 107.101 100.59 106.935 99.758L105.543 92.4999C105.377 91.655 105.939 90.9766 106.769 90.9766H114.011C114.854 90.9766 115.659 91.6678 115.825 92.4999L117.217 99.758C117.383 100.603 116.834 101.281 115.991 101.281Z" fill="#B2B9EE"/>
<path d="M134.257 101.281H127.014C126.171 101.281 125.367 100.59 125.201 99.758L123.808 92.4999C123.642 91.655 124.204 90.9766 125.035 90.9766H132.277C133.12 90.9766 133.925 91.6678 134.091 92.4999L135.483 99.758C135.649 100.603 135.1 101.281 134.257 101.281Z" fill="#B2B9EE"/>
<path d="M152.522 101.281H145.28C144.437 101.281 143.632 100.59 143.466 99.7577L142.074 92.4996C141.908 91.6548 142.47 90.9763 143.3 90.9763H150.543C151.386 90.9763 152.19 91.6676 152.356 92.4996L153.749 99.7577C153.915 100.603 153.365 101.281 152.522 101.281Z" fill="#6372E7"/>
<path d="M61.1962 101.281H53.9539C53.1109 101.281 52.3062 100.59 52.1401 99.758L50.7479 92.4999C50.5818 91.655 51.1438 90.9766 51.9741 90.9766H59.2164C60.0594 90.9766 60.8641 91.6678 61.0302 92.4999L62.4224 99.758C62.5885 100.603 62.0265 101.281 61.1962 101.281Z" fill="#B2B9EE"/>
<path d="M79.4619 101.281H72.2195C71.3765 101.281 70.5718 100.59 70.4058 99.7577L69.0135 92.4996C68.8474 91.6548 69.4095 90.9763 70.2397 90.9763H77.482C78.3251 90.9763 79.1298 91.6676 79.2958 92.4996L80.6881 99.7577C80.8541 100.603 80.3049 101.281 79.4619 101.281Z" fill="#FF8B7C"/>
<path d="M97.7275 101.281H90.4852C89.6421 101.281 88.8374 100.59 88.6714 99.758L87.2791 92.4999C87.1131 91.655 87.6751 90.9766 88.5053 90.9766H95.7477C96.5907 90.9766 97.3954 91.6678 97.5614 92.4999L98.9537 99.758C99.1197 100.603 98.5705 101.281 97.7275 101.281Z" fill="#B2B9EE"/>
<path d="M170.788 101.281H163.546C162.703 101.281 161.898 100.59 161.732 99.758L160.34 92.4999C160.174 91.655 160.736 90.9766 161.566 90.9766H168.808C169.651 90.9766 170.456 91.6678 170.622 92.4999L172.014 99.758C172.18 100.603 171.631 101.281 170.788 101.281Z" fill="#6372E7"/>
<path d="M119.02 117.039H111.778C110.935 117.039 110.13 116.348 109.964 115.516L108.572 108.257C108.406 107.413 108.968 106.734 109.798 106.734H117.041C117.884 106.734 118.688 107.425 118.854 108.257L120.247 115.516C120.413 116.348 119.863 117.039 119.02 117.039Z" fill="#B2B9EE"/>
<path d="M137.284 117.039H130.042C129.199 117.039 128.394 116.348 128.228 115.516L126.836 108.257C126.67 107.413 127.232 106.734 128.062 106.734H135.304C136.147 106.734 136.952 107.425 137.118 108.257L138.51 115.516C138.676 116.348 138.127 117.039 137.284 117.039Z" fill="#B2B9EE"/>
<path d="M155.55 117.039H148.307C147.464 117.039 146.66 116.348 146.494 115.516L145.101 108.257C144.935 107.413 145.497 106.734 146.328 106.734H153.57C154.413 106.734 155.218 107.425 155.384 108.257L156.776 115.516C156.942 116.348 156.393 117.039 155.55 117.039Z" fill="#6372E7"/>
<path d="M64.2216 117.039H56.9793C56.1363 117.039 55.3316 116.348 55.1655 115.516L53.7733 108.257C53.6072 107.413 54.1692 106.734 54.9995 106.734H62.2418C63.0848 106.734 63.8895 107.425 64.0556 108.257L65.4478 115.516C65.6139 116.348 65.0646 117.039 64.2216 117.039Z" fill="#B2B9EE"/>
<path d="M82.4872 117.039H75.2449C74.4019 117.039 73.5972 116.348 73.4312 115.516L72.0389 108.257C71.8728 107.413 72.4349 106.734 73.2651 106.734H80.5074C81.3504 106.734 82.1551 107.425 82.3212 108.257L83.7135 115.516C83.8795 116.348 83.3303 117.039 82.4872 117.039Z" fill="#B2B9EE"/>
<path d="M100.755 117.039H93.5125C92.6695 117.039 91.8648 116.348 91.6987 115.516L90.3065 108.257C90.1404 107.413 90.7024 106.734 91.5327 106.734H98.775C99.618 106.734 100.423 107.425 100.589 108.257L101.981 115.516C102.147 116.348 101.598 117.039 100.755 117.039Z" fill="#B2B9EE"/>
<path d="M68.7712 43.2421H49.5988C49.3178 43.2421 49.0879 43.0117 49.0879 42.7301C49.0879 42.4484 49.3178 42.218 49.5988 42.218H68.7712C69.0522 42.218 69.2821 42.4484 69.2821 42.7301C69.2821 43.0117 69.0522 43.2421 68.7712 43.2421Z" fill="#B2B9EE"/>
<path d="M69.3571 45.5717H50.1848C49.9037 45.5717 49.6738 45.3413 49.6738 45.0596C49.6738 44.778 49.9037 44.5476 50.1848 44.5476H69.3571C69.6381 44.5476 69.868 44.778 69.868 45.0596C69.868 45.3413 69.6381 45.5717 69.3571 45.5717Z" fill="#B2B9EE"/>
<path d="M48.2062 25.9091H41.6281C41.0916 25.9091 40.6445 25.4611 40.6445 24.9234C40.6445 24.3858 41.0916 23.9377 41.6281 23.9377H48.2062C48.7426 23.9377 49.1897 24.3858 49.1897 24.9234C49.1897 25.4739 48.7426 25.9091 48.2062 25.9091Z" fill="white"/>
<path d="M66.2667 25.9091H59.6886C59.1521 25.9091 58.7051 25.4611 58.7051 24.9234C58.7051 24.3858 59.1521 23.9377 59.6886 23.9377H66.2667C66.8032 23.9377 67.2502 24.3858 67.2502 24.9234C67.2375 25.4739 66.8032 25.9091 66.2667 25.9091Z" fill="white"/>
<path d="M84.3155 25.9091H77.7374C77.201 25.9091 76.7539 25.4611 76.7539 24.9234C76.7539 24.3858 77.201 23.9377 77.7374 23.9377H84.3155C84.852 23.9377 85.2991 24.3858 85.2991 24.9234C85.2991 25.4739 84.8648 25.9091 84.3155 25.9091Z" fill="white"/>
<path d="M102.376 25.9091H95.798C95.2615 25.9091 94.8145 25.4611 94.8145 24.9234C94.8145 24.3858 95.2615 23.9377 95.798 23.9377H102.376C102.913 23.9377 103.36 24.3858 103.36 24.9234C103.36 25.4739 102.913 25.9091 102.376 25.9091Z" fill="white"/>
<path d="M120.437 25.9091H113.859C113.322 25.9091 112.875 25.4611 112.875 24.9234C112.875 24.3858 113.322 23.9377 113.859 23.9377H120.437C120.973 23.9377 121.42 24.3858 121.42 24.9234C121.407 25.4739 120.973 25.9091 120.437 25.9091Z" fill="white"/>
<path d="M138.487 25.9091H131.909C131.373 25.9091 130.926 25.4611 130.926 24.9234C130.926 24.3858 131.373 23.9377 131.909 23.9377H138.487C139.024 23.9377 139.471 24.3858 139.471 24.9234C139.471 25.4739 139.037 25.9091 138.487 25.9091Z" fill="white"/>
<path d="M156.546 25.9091H149.968C149.431 25.9091 148.984 25.4611 148.984 24.9234C148.984 24.3858 149.431 23.9377 149.968 23.9377H156.546C157.082 23.9377 157.53 24.3858 157.53 24.9234C157.53 25.4739 157.082 25.9091 156.546 25.9091Z" fill="white"/>
<path d="M114.932 52.2662C113.476 52.2662 112.415 51.8054 111.841 50.9093C110.729 49.194 111.585 46.7746 114.382 43.7408C116.426 41.5262 118.802 39.7725 118.827 39.7469C118.917 39.6829 119.057 39.6957 119.121 39.7981C119.185 39.8877 119.172 40.0285 119.07 40.0925C118.981 40.1565 109.81 46.9666 112.198 50.6789C112.952 51.8566 114.574 51.9334 115.8 51.7925C118.074 51.5237 121.037 50.3076 123.719 48.5155C126.504 46.6594 128.471 44.5728 129.097 42.7807C129.518 41.603 129.391 40.771 128.714 40.3101C127.845 39.7085 126.031 39.7085 123.86 40.3101C121.778 40.8862 119.696 41.923 118.406 43.0111C118.316 43.0879 118.189 43.0751 118.112 42.9855C118.035 42.8959 118.048 42.7679 118.138 42.6911C119.466 41.5646 121.625 40.4893 123.745 39.9005C126.07 39.2605 127.96 39.2861 128.944 39.9645C129.531 40.3741 130.093 41.2062 129.48 42.9215C128.816 44.7904 126.798 46.9538 123.937 48.8611C121.19 50.6917 118.163 51.9334 115.826 52.215C115.519 52.2534 115.213 52.2662 114.932 52.2662Z" fill="#FF5A5F"/>
</g>
<defs>
<clipPath id="clip0_3202_1754">
<rect width="186.678" height="129.046" fill="white"/>
</clipPath>
</defs>
</svg>
