<svg width="162" height="159" viewBox="0 0 162 159" fill="none" xmlns="http://www.w3.org/2000/svg">
<rect x="23.9883" y="30.8987" width="115.133" height="114.879" rx="4.80505" fill="#307388"/>
<path d="M109.184 102.984C137.607 102.984 160.649 79.9934 160.649 51.6325C160.649 23.2717 137.607 0.280762 109.184 0.280762C80.7604 0.280762 57.7188 23.2717 57.7188 51.6325C57.7188 79.9934 80.7604 102.984 109.184 102.984Z" fill="white"/>
<path d="M109.184 103.137C102.216 103.137 95.456 101.775 89.092 99.0895C82.9456 96.4955 77.4253 92.7815 72.6846 88.0519C67.9439 83.3216 64.2224 77.8135 61.6227 71.6806C58.9315 65.3306 57.5664 58.5854 57.5664 51.6328C57.5664 44.6801 58.9315 37.9349 61.6227 31.585C64.2224 25.4521 67.9446 19.9439 72.6846 15.2136C77.4253 10.4834 82.9456 6.77006 89.092 4.17605C95.456 1.49006 102.216 0.12793 109.184 0.12793C116.152 0.12793 122.912 1.49006 129.276 4.17532C135.422 6.76932 140.943 10.4834 145.683 15.2129C150.424 19.9432 154.146 25.4513 156.745 31.5842C159.437 37.9342 160.802 44.6794 160.802 51.632C160.802 58.5847 159.436 65.3299 156.745 71.6798C154.146 77.8127 150.423 83.3209 145.683 88.0512C140.943 92.7815 135.423 96.4947 129.276 99.0888C122.912 101.775 116.152 103.136 109.184 103.136V103.137ZM109.184 0.434059C102.257 0.434059 95.5371 1.78809 89.2115 4.45716C83.1012 7.03572 77.6141 10.7277 72.9015 15.4293C68.1888 20.1316 64.4894 25.6066 61.9052 31.7034C59.2295 38.0159 57.8725 44.7206 57.8725 51.6328C57.8725 58.545 59.2295 65.2497 61.9044 71.5614C64.4887 77.6582 68.1888 83.1332 72.9007 87.8355C77.6134 92.5379 83.1005 96.2291 89.2108 98.8076C95.5364 101.477 102.257 102.831 109.183 102.831C116.11 102.831 122.83 101.477 129.156 98.8076C135.266 96.2291 140.753 92.5371 145.466 87.8355C150.179 83.1332 153.878 77.6582 156.462 71.5614C159.138 65.2497 160.494 58.5442 160.494 51.6328C160.494 44.7213 159.137 38.0159 156.462 31.7042C153.878 25.6073 150.178 20.1323 145.466 15.43C140.753 10.7277 135.266 7.03645 129.156 4.4579C122.83 1.78809 116.11 0.434795 109.183 0.434795L109.184 0.434059Z" fill="#2C233D"/>
<path d="M109.182 97.5121C134.576 97.5121 155.163 76.9711 155.163 51.6324C155.163 26.2937 134.576 5.75269 109.182 5.75269C83.7875 5.75269 63.2012 26.2937 63.2012 51.6324C63.2012 76.9711 83.7875 97.5121 109.182 97.5121Z" fill="#FFC75A"/>
<path d="M144.206 2.75366H139.478L108.838 47.0394L89.0264 24.7781H84.2982L84.858 28.4715L72.5312 39.3943L107.343 84.0223H111.964L161.999 15.7664L144.206 2.75366Z" fill="#2C233D"/>
<path d="M107.31 83.7846L67.8027 39.3943L84.2986 24.7781L105.665 48.7864L139.478 2.75366L157.272 15.7664L107.31 83.7846Z" fill="white"/>
<path d="M107.32 84.0272L107.194 83.8859L67.5859 39.3816L84.3105 24.5622L84.4122 24.6763L105.653 48.5426L139.444 2.54004L157.485 15.7331L157.394 15.8567L107.319 84.0279L107.32 84.0272ZM68.0189 39.4073L107.297 83.5415L157.057 15.7985L139.511 2.96685L105.676 49.0291L84.2854 24.9942L68.0189 39.4073Z" fill="#2C233D"/>
<g clip-path="url(#clip0_3202_1858)">
<path d="M107.65 137.044L108.129 133.03L114.782 131.447L129.132 140.227L107.65 137.042V137.044ZM108.606 133.454L108.23 136.603L126.676 139.338L114.694 132.006L108.606 133.454Z" fill="#2C233D"/>
<path d="M129.526 140.599L108.732 127.136L88.9941 126.504L129.526 140.599Z" fill="#F7F5F1"/>
<path d="M115.18 126.218L129.525 140.6L120.853 117.094L115.18 126.218Z" fill="#F7F5F1"/>
<path d="M115.182 126.218L114.791 131.06L129.526 140.6L115.182 126.218Z" fill="#2C233D"/>
<path d="M7.27377 157.493C4.06391 156.736 1.72098 155.148 0.628105 152.769C-0.825787 149.6 0.271999 145.408 3.71517 140.965C7.61514 135.934 14.4695 130.607 23.5416 125.558C33.4094 120.067 43.9919 116.489 54.9919 114.923C57.8333 114.519 60.7067 114.247 63.5998 114.11C66.1097 107.54 67.4212 101.578 67.8117 97.2283L68.3323 97.2748C67.9443 101.615 66.6451 107.547 64.1696 114.085C70.049 113.84 76.0144 114.144 81.9945 114.997C97.5182 117.212 107.899 122.439 108.002 122.493L107.764 122.956C107.661 122.905 97.3438 117.712 81.9011 115.509C75.8842 114.651 69.882 114.352 63.9682 114.615C62.1852 119.226 59.8153 124.127 56.7675 128.967C51.1484 137.894 41.2487 149.703 26 155.254C18.7011 157.91 12.0382 158.616 7.28113 157.493H7.27377ZM63.391 114.642C60.5889 114.784 57.8063 115.048 55.0508 115.443C44.1196 117.001 33.6034 120.559 23.7946 126.017C14.7839 131.03 7.98352 136.309 4.12776 141.286C0.809841 145.567 -0.265842 149.568 1.10209 152.551C2.2932 155.148 5.27221 156.851 9.48899 157.344C14.0643 157.878 19.708 156.986 25.8133 154.764C40.9245 149.265 50.7407 137.549 56.3181 128.69C59.2995 123.953 61.6277 119.163 63.391 114.642Z" fill="#2C233D"/>
</g>
<defs>
<clipPath id="clip0_3202_1858">
<rect width="129.524" height="60.7797" fill="white" transform="translate(0.00195312 97.2283)"/>
</clipPath>
</defs>
</svg>
