<svg width="95" height="88" viewBox="0 0 95 88" fill="none" xmlns="http://www.w3.org/2000/svg">
<path d="M1.1623 69.6799H94M1.1623 52.51H94M1.1623 86.8499H94M1.1623 35.34H94M1.1623 18.17H94M1.1623 1H94M75.2702 87V1.15009M93.8377 87V1.15009M1 87L1 1.15009M38.1351 87V1.15009M19.5675 87L19.5675 1.15009M56.7026 87L56.7026 1.15009" stroke="url(#paint0_radial_2807_2976)"/>
<path d="M57.6667 37.3333H36.3333C34.8606 37.3333 33.6667 38.5272 33.6667 40V53.3333C33.6667 54.8061 34.8606 56 36.3333 56H57.6667C59.1394 56 60.3333 54.8061 60.3333 53.3333V40C60.3333 38.5272 59.1394 37.3333 57.6667 37.3333Z" stroke="#505ECE" stroke-width="2.5" stroke-linecap="round" stroke-linejoin="round"/>
<path d="M52.3333 56V34.6667C52.3333 33.9594 52.0524 33.2811 51.5523 32.781C51.0522 32.281 50.3739 32 49.6667 32H44.3333C43.6261 32 42.9478 32.281 42.4477 32.781C41.9476 33.2811 41.6667 33.9594 41.6667 34.6667V56" stroke="#505ECE" stroke-width="2.5" stroke-linecap="round" stroke-linejoin="round"/>
<defs>
<radialGradient id="paint0_radial_2807_2976" cx="0" cy="0" r="1" gradientUnits="userSpaceOnUse" gradientTransform="translate(47.5 42.3462) rotate(90) scale(36.1538 39.0966)">
<stop stop-color="#505ECE" stop-opacity="0.2"/>
<stop offset="1" stop-color="#505ECE" stop-opacity="0"/>
</radialGradient>
</defs>
</svg>
