<svg width="35" height="35" viewBox="0 0 35 35" fill="none" xmlns="http://www.w3.org/2000/svg">
<path d="M21.997 15.4301C29.3264 15.6636 34.707 16.4363 34.707 17.3535C34.707 18.2707 29.3264 19.0434 21.997 19.2769C27.0146 24.6247 30.2729 28.9757 29.6243 29.6243C28.9757 30.2729 24.6247 27.0146 19.2769 21.997C19.0434 29.3264 18.2707 34.707 17.3535 34.707C16.4363 34.707 15.6636 29.3264 15.4301 21.997C10.0823 27.0146 5.73129 30.2729 5.08273 29.6243C4.43416 28.9757 7.69246 24.6247 12.71 19.2769C5.38062 19.0434 0 18.2707 0 17.3535C0 16.4363 5.38062 15.6636 12.71 15.4301C7.69245 10.0823 4.43415 5.7313 5.08272 5.08273C5.73129 4.43416 10.0823 7.69247 15.4301 12.71C15.6636 5.38063 16.4363 0 17.3535 0C18.2707 0 19.0434 5.38062 19.2769 12.71C24.6247 7.69245 28.9757 4.43415 29.6243 5.08272C30.2729 5.73129 27.0146 10.0823 21.997 15.4301Z" fill="#FF5A5F"/>
</svg>
