<svg width="35" height="35" viewBox="0 0 35 35" fill="none" xmlns="http://www.w3.org/2000/svg">
<path fill-rule="evenodd" clip-rule="evenodd" d="M17.5 4.66667C10.4123 4.66667 4.66667 10.4123 4.66667 17.5C4.66667 24.5877 10.4123 30.3333 17.5 30.3333C24.5877 30.3333 30.3333 24.5877 30.3333 17.5C30.3333 10.4123 24.5877 4.66667 17.5 4.66667ZM0 17.5C0 7.83502 7.83502 0 17.5 0C27.165 0 35 7.83502 35 17.5C35 27.165 27.165 35 17.5 35C7.83502 35 0 27.165 0 17.5Z" fill="#42AF8F"/>
<path fill-rule="evenodd" clip-rule="evenodd" d="M17.5013 12.8346C14.924 12.8346 12.8346 14.924 12.8346 17.5013C12.8346 20.0786 14.924 22.168 17.5013 22.168C20.0786 22.168 22.168 20.0786 22.168 17.5013C22.168 14.924 20.0786 12.8346 17.5013 12.8346ZM8.16797 17.5013C8.16797 12.3466 12.3466 8.16797 17.5013 8.16797C22.656 8.16797 26.8346 12.3466 26.8346 17.5013C26.8346 22.656 22.656 26.8346 17.5013 26.8346C12.3466 26.8346 8.16797 22.656 8.16797 17.5013Z" fill="#42AF8F"/>
</svg>
