<svg width="40" height="40" viewBox="0 0 40 40" fill="none" xmlns="http://www.w3.org/2000/svg">
<rect opacity="0.1" width="40" height="40" rx="8" fill="#505ECE"/>
<path d="M23.75 12.5C24.5456 12.5 25.3087 12.8161 25.8713 13.3787C26.4339 13.9413 26.75 14.7044 26.75 15.5V24.5C26.75 25.2956 26.4339 26.0587 25.8713 26.6213C25.3087 27.1839 24.5456 27.5 23.75 27.5H16.25C15.4544 27.5 14.6913 27.1839 14.1287 26.6213C13.5661 26.0587 13.25 25.2956 13.25 24.5V15.5C13.25 14.7044 13.5661 13.9413 14.1287 13.3787C14.6913 12.8161 15.4544 12.5 16.25 12.5H23.75ZM23.75 14H16.25C15.8716 13.9999 15.5071 14.1428 15.2296 14.4001C14.9521 14.6574 14.7821 15.0101 14.7538 15.3875L14.75 15.5V24.5C14.7499 24.8784 14.8928 25.2429 15.1501 25.5204C15.4074 25.7979 15.7601 25.9679 16.1375 25.9963L16.25 26H23.75C24.1284 26.0001 24.4929 25.8572 24.7704 25.5999C25.0479 25.3426 25.2179 24.9899 25.2463 24.6125L25.25 24.5V15.5C25.25 15.1022 25.092 14.7206 24.8107 14.4393C24.5294 14.158 24.1478 14 23.75 14ZM23 18.5C23.1989 18.5 23.3897 18.579 23.5303 18.7197C23.671 18.8603 23.75 19.0511 23.75 19.25V23.75C23.75 23.9489 23.671 24.1397 23.5303 24.2803C23.3897 24.421 23.1989 24.5 23 24.5H17C16.8011 24.5 16.6103 24.421 16.4697 24.2803C16.329 24.1397 16.25 23.9489 16.25 23.75V19.25C16.25 19.0511 16.329 18.8603 16.4697 18.7197C16.6103 18.579 16.8011 18.5 17 18.5H23ZM20 15.5C20.1989 15.5 20.3897 15.579 20.5303 15.7197C20.671 15.8603 20.75 16.0511 20.75 16.25C20.75 16.4489 20.671 16.6397 20.5303 16.7803C20.3897 16.921 20.1989 17 20 17H17C16.8011 17 16.6103 16.921 16.4697 16.7803C16.329 16.6397 16.25 16.4489 16.25 16.25C16.25 16.0511 16.329 15.8603 16.4697 15.7197C16.6103 15.579 16.8011 15.5 17 15.5H20Z" fill="#505ECE"/>
</svg>
