<svg width="40" height="40" viewBox="0 0 40 40" fill="none" xmlns="http://www.w3.org/2000/svg">
<rect opacity="0.1" width="40" height="40" rx="8" fill="#FF5A5F"/>
<path d="M17.4271 12.9999C15.765 12.9999 15.1739 13.1142 14.5649 13.4393C14.0845 13.6924 13.6921 14.085 13.4394 14.5656C13.1143 15.1738 13 15.7649 13 17.427V22.5728C13 24.2349 13.1143 24.826 13.4394 25.435C13.7016 25.9242 14.0757 26.2983 14.5657 26.5604C15.1739 26.8856 15.765 26.9999 17.4271 26.9999H22.5729C24.235 26.9999 24.8261 26.8856 25.4351 26.5604C25.9155 26.3074 26.3079 25.9148 26.5606 25.4342C26.8857 24.826 27 24.2349 27 22.5728V17.427C27 15.7649 26.8857 15.1738 26.5606 14.5648C26.3075 14.0844 25.9149 13.692 25.4343 13.4393C24.8261 13.1142 24.235 12.9999 22.5729 12.9999H17.4271ZM17.4271 11.4443H22.5729C24.6534 11.4443 25.4079 11.6606 26.1686 12.0673C26.9201 12.4652 27.5347 13.0798 27.9326 13.8313C28.3393 14.592 28.5556 15.3464 28.5556 17.427V22.5728C28.5556 24.6533 28.3393 25.4078 27.9326 26.1684C27.5347 26.92 26.9201 27.5346 26.1686 27.9324C25.4079 28.3392 24.6534 28.5554 22.5729 28.5554H17.4271C15.3466 28.5554 14.5921 28.3392 13.8314 27.9324C13.0799 27.5346 12.4653 26.92 12.0674 26.1684C11.6607 25.4078 11.4444 24.6533 11.4444 22.5728V17.427C11.4444 15.3464 11.6607 14.592 12.0674 13.8313C12.4655 13.0797 13.0804 12.465 13.8322 12.0673C14.5921 11.6606 15.3466 11.4443 17.4271 11.4443ZM17.6667 23.8888C17.6667 24.0951 17.5847 24.2929 17.4389 24.4388C17.293 24.5846 17.0952 24.6666 16.8889 24.6666C16.6826 24.6666 16.4848 24.5846 16.3389 24.4388C16.1931 24.2929 16.1111 24.0951 16.1111 23.8888V19.2221C16.1111 19.0158 16.1931 18.818 16.3389 18.6721C16.4848 18.5263 16.6826 18.4443 16.8889 18.4443C17.0952 18.4443 17.293 18.5263 17.4389 18.6721C17.5847 18.818 17.6667 19.0158 17.6667 19.2221V23.8888ZM20.7778 23.8888C20.7778 24.0951 20.6958 24.2929 20.55 24.4388C20.4041 24.5846 20.2063 24.6666 20 24.6666C19.7937 24.6666 19.5959 24.5846 19.45 24.4388C19.3042 24.2929 19.2222 24.0951 19.2222 23.8888V16.111C19.2222 15.9047 19.3042 15.7069 19.45 15.561C19.5959 15.4152 19.7937 15.3332 20 15.3332C20.2063 15.3332 20.4041 15.4152 20.55 15.561C20.6958 15.7069 20.7778 15.9047 20.7778 16.111V23.8888ZM23.8889 23.8888C23.8889 24.0951 23.8069 24.2929 23.6611 24.4388C23.5152 24.5846 23.3174 24.6666 23.1111 24.6666C22.9048 24.6666 22.707 24.5846 22.5611 24.4388C22.4153 24.2929 22.3333 24.0951 22.3333 23.8888V20.7777C22.3333 20.5714 22.4153 20.3736 22.5611 20.2277C22.707 20.0818 22.9048 19.9999 23.1111 19.9999C23.3174 19.9999 23.5152 20.0818 23.6611 20.2277C23.8069 20.3736 23.8889 20.5714 23.8889 20.7777V23.8888Z" fill="#FF5A5F"/>
</svg>
