<svg width="95" height="88" viewBox="0 0 95 88" fill="none" xmlns="http://www.w3.org/2000/svg">
<path d="M1.1623 69.6799H94M1.1623 52.51H94M1.1623 86.8499H94M1.1623 35.34H94M1.1623 18.17H94M1.1623 1H94M75.2702 87L75.2702 1.15009M93.8377 87V1.15009M1 87L1 1.15009M38.1351 87L38.1351 1.15009M19.5675 87L19.5675 1.15009M56.7026 87L56.7026 1.15009" stroke="url(#paint0_radial_3125_3889)"/>
<path fill-rule="evenodd" clip-rule="evenodd" d="M53.25 37H42.75C41.7835 37 41 37.7835 41 38.75V49.25C41 50.2165 41.7835 51 42.75 51H53.25C54.2165 51 55 50.2165 55 49.25V38.75C55 37.7835 54.2165 37 53.25 37ZM42.75 33.5C39.8505 33.5 37.5 35.8505 37.5 38.75V49.25C37.5 52.1496 39.8505 54.5 42.75 54.5H53.25C56.1496 54.5 58.5 52.1496 58.5 49.25V38.75C58.5 35.8505 56.1496 33.5 53.25 33.5H42.75Z" fill="#505ECE" stroke="white" stroke-width="0.7"/>
<path fill-rule="evenodd" clip-rule="evenodd" d="M30.5 51C30.5 50.0335 31.2835 49.25 32.25 49.25H34C34.9665 49.25 35.75 50.0335 35.75 51C35.75 51.9666 34.9665 52.75 34 52.75H32.25C31.2835 52.75 30.5 51.9666 30.5 51Z" fill="#505ECE" stroke="white" stroke-width="0.7"/>
<path fill-rule="evenodd" clip-rule="evenodd" d="M60.25 51C60.25 50.0335 61.0335 49.25 62 49.25H63.7501C64.7166 49.25 65.5 50.0335 65.5 51C65.5 51.9666 64.7166 52.75 63.7501 52.75H62C61.0335 52.75 60.25 51.9666 60.25 51Z" fill="#505ECE" stroke="white" stroke-width="0.7"/>
<path fill-rule="evenodd" clip-rule="evenodd" d="M30.5 43.9999C30.5 43.0334 31.2835 42.25 32.25 42.25H34C34.9665 42.25 35.75 43.0334 35.75 43.9999C35.75 44.9665 34.9665 45.75 34 45.75H32.25C31.2835 45.75 30.5 44.9665 30.5 43.9999Z" fill="#505ECE" stroke="white" stroke-width="0.7"/>
<path fill-rule="evenodd" clip-rule="evenodd" d="M60.25 43.9999C60.25 43.0334 61.0335 42.25 62 42.25H63.7501C64.7166 42.25 65.5 43.0334 65.5 43.9999C65.5 44.9665 64.7166 45.75 63.7501 45.75H62C61.0335 45.75 60.25 44.9665 60.25 43.9999Z" fill="#505ECE" stroke="white" stroke-width="0.7"/>
<path fill-rule="evenodd" clip-rule="evenodd" d="M30.5 37C30.5 36.0335 31.2835 35.25 32.25 35.25H34C34.9665 35.25 35.75 36.0335 35.75 37C35.75 37.9666 34.9665 38.7501 34 38.7501H32.25C31.2835 38.7501 30.5 37.9666 30.5 37Z" fill="#505ECE" stroke="white" stroke-width="0.7"/>
<path fill-rule="evenodd" clip-rule="evenodd" d="M60.25 37C60.25 36.0335 61.0335 35.25 62 35.25H63.7501C64.7166 35.25 65.5 36.0335 65.5 37C65.5 37.9666 64.7166 38.7501 63.7501 38.7501H62C61.0335 38.7501 60.25 37.9666 60.25 37Z" fill="#505ECE" stroke="white" stroke-width="0.7"/>
<path fill-rule="evenodd" clip-rule="evenodd" d="M55 26.4999C55.9666 26.4999 56.75 27.2834 56.75 28.2499V29.9999C56.75 30.9664 55.9666 31.7499 55 31.7499C54.0335 31.7499 53.25 30.9664 53.25 29.9999V28.2499C53.25 27.2834 54.0335 26.4999 55 26.4999Z" fill="#505ECE" stroke="white" stroke-width="0.7"/>
<path fill-rule="evenodd" clip-rule="evenodd" d="M55 56.25C55.9666 56.25 56.75 57.0335 56.75 58V59.7501C56.75 60.7166 55.9666 61.5 55 61.5C54.0335 61.5 53.25 60.7166 53.25 59.7501V58C53.25 57.0335 54.0335 56.25 55 56.25Z" fill="#505ECE" stroke="white" stroke-width="0.7"/>
<path fill-rule="evenodd" clip-rule="evenodd" d="M47.9999 26.4999C48.9665 26.4999 49.75 27.2834 49.75 28.2499V29.9999C49.75 30.9664 48.9665 31.7499 47.9999 31.7499C47.0334 31.7499 46.25 30.9664 46.25 29.9999V28.2499C46.25 27.2834 47.0334 26.4999 47.9999 26.4999Z" fill="#505ECE" stroke="white" stroke-width="0.7"/>
<path fill-rule="evenodd" clip-rule="evenodd" d="M47.9999 56.25C48.9665 56.25 49.75 57.0335 49.75 58V59.7501C49.75 60.7166 48.9665 61.5 47.9999 61.5C47.0334 61.5 46.25 60.7166 46.25 59.7501V58C46.25 57.0335 47.0334 56.25 47.9999 56.25Z" fill="#505ECE" stroke="white" stroke-width="0.7"/>
<path fill-rule="evenodd" clip-rule="evenodd" d="M41 26.4999C41.9666 26.4999 42.7501 27.2834 42.7501 28.2499V29.9999C42.7501 30.9664 41.9666 31.7499 41 31.7499C40.0335 31.7499 39.25 30.9664 39.25 29.9999V28.2499C39.25 27.2834 40.0335 26.4999 41 26.4999Z" fill="#505ECE" stroke="white" stroke-width="0.7"/>
<path fill-rule="evenodd" clip-rule="evenodd" d="M41 56.25C41.9666 56.25 42.7501 57.0335 42.7501 58V59.7501C42.7501 60.7166 41.9666 61.5 41 61.5C40.0335 61.5 39.25 60.7166 39.25 59.7501V58C39.25 57.0335 40.0335 56.25 41 56.25Z" fill="#505ECE" stroke="white" stroke-width="0.7"/>
<defs>
<radialGradient id="paint0_radial_3125_3889" cx="0" cy="0" r="1" gradientUnits="userSpaceOnUse" gradientTransform="translate(47.5 42.3462) rotate(90) scale(36.1538 39.0966)">
<stop stop-color="#505ECE" stop-opacity="0.2"/>
<stop offset="1" stop-color="#505ECE" stop-opacity="0"/>
</radialGradient>
</defs>
</svg>
