<svg
 width="40"
 height="40"
 viewBox="0 0 40 40"
 fill="none"
 xmlns="http://www.w3.org/2000/svg">
 <circle cx="20" cy="20" r="20" fill="#307388" />
 <path
    d="M20.136 14.231C20.3503 14.2801 20.5434 14.3604 20.7292 14.477C20.9171 14.5942 21.0617 14.7177 21.3583 15.0153L23.9296 17.5856C24.2268 17.8833 24.3503 18.0274 24.468 18.2152C24.5828 18.3976 24.6658 18.5982 24.7134 18.8085C24.763 19.0243 24.7778 19.2133 24.7778 19.6339V23.2608C24.7778 24.3058 24.6801 24.8125 24.3978 25.3397C24.1462 25.8139 23.7583 26.2017 23.2842 26.4533C22.7569 26.7357 22.2503 26.8333 21.2053 26.8333H17.7953C16.7503 26.8333 16.2436 26.7357 15.7164 26.4533C15.2422 26.2017 14.8543 25.8139 14.6028 25.3397C14.3193 24.8119 14.2222 24.3053 14.2222 23.2603V17.3682C14.2222 16.69 14.3447 16.1416 14.6022 15.6603C14.8538 15.1861 15.2417 14.7982 15.7158 14.5467C16.1972 14.2886 16.7455 14.1667 17.4237 14.1667H19.3105C19.7312 14.1667 19.9201 14.1814 20.136 14.231ZM19.4082 15.2227L17.4237 15.2222C16.9107 15.2222 16.5328 15.3067 16.2141 15.4771C15.9236 15.6303 15.6861 15.8676 15.5327 16.158C15.3622 16.4778 15.2778 16.8557 15.2778 17.3687V23.2613C15.2778 24.1469 15.3438 24.4895 15.5327 24.842C15.6905 25.1376 15.919 25.3656 16.2135 25.5234C16.5671 25.7123 16.9091 25.7783 17.7948 25.7783H21.2053C22.0909 25.7783 22.4334 25.7123 22.786 25.5234C23.0764 25.3702 23.3139 25.1329 23.4673 24.8425C23.6563 24.4889 23.7222 24.1469 23.7222 23.2613V19.6344C23.7222 19.5621 23.7222 19.4993 23.7212 19.4444H20.8195C20.4695 19.4444 20.1339 19.3054 19.8865 19.058C19.639 18.8105 19.5 18.4749 19.5 18.125L19.5005 15.2233L19.4082 15.2227ZM20.612 15.7611L20.5556 15.7051V18.125C20.5555 18.1868 20.5772 18.2466 20.6167 18.294C20.6563 18.3415 20.7112 18.3735 20.772 18.3847L20.8195 18.3889L23.2404 18.3899L23.1834 18.3319L20.612 15.7616V15.7611Z"
    fill="white"
/>
</svg>
