<svg width="21" height="22" viewBox="0 0 21 22" fill="none" xmlns="http://www.w3.org/2000/svg">
<path d="M5.25 13.2969C5.25 13.1228 5.31914 12.9559 5.44221 12.8328C5.56528 12.7098 5.7322 12.6406 5.90625 12.6406C6.0803 12.6406 6.24722 12.7098 6.37029 12.8328C6.49336 12.9559 6.5625 13.1228 6.5625 13.2969V15.9219C6.5625 16.0959 6.63164 16.2628 6.75471 16.3859C6.87778 16.509 7.0447 16.5781 7.21875 16.5781H13.7812C13.9553 16.5781 14.1222 16.509 14.2453 16.3859C14.3684 16.2628 14.4375 16.0959 14.4375 15.9219V13.2969C14.4375 13.1228 14.5066 12.9559 14.6297 12.8328C14.7528 12.7098 14.9197 12.6406 15.0938 12.6406C15.2678 12.6406 15.4347 12.7098 15.5578 12.8328C15.6809 12.9559 15.75 13.1228 15.75 13.2969V15.9219C15.75 16.444 15.5426 16.9448 15.1734 17.314C14.8042 17.6832 14.3034 17.8906 13.7812 17.8906H7.21875C6.69661 17.8906 6.19585 17.6832 5.82663 17.314C5.45742 16.9448 5.25 16.444 5.25 15.9219V13.2969Z" fill="white"/>
<path d="M9.844 11.0566V5.09389C9.844 4.91984 9.91314 4.75292 10.0362 4.62985C10.1593 4.50678 10.3262 4.43764 10.5003 4.43764C10.6743 4.43764 10.8412 4.50678 10.9643 4.62985C11.0874 4.75292 11.1565 4.91984 11.1565 5.09389V11.0566L12.9894 9.22367C13.1132 9.10413 13.2789 9.03798 13.451 9.03948C13.6231 9.04097 13.7877 9.10999 13.9094 9.23167C14.031 9.35334 14.1 9.51794 14.1015 9.69C14.103 9.86207 14.0369 10.0278 13.9173 10.1516L10.9642 13.1047C10.8412 13.2278 10.6743 13.2969 10.5003 13.2969C10.3262 13.2969 10.1593 13.2278 10.0363 13.1047L7.08316 10.1516C7.02048 10.0911 6.97049 10.0187 6.93609 9.93859C6.9017 9.85853 6.88359 9.77241 6.88284 9.68528C6.88208 9.59814 6.89868 9.51173 6.93168 9.43108C6.96468 9.35043 7.01341 9.27715 7.07502 9.21554C7.13664 9.15392 7.20991 9.10519 7.29056 9.0722C7.37121 9.0392 7.45763 9.02259 7.54476 9.02335C7.6319 9.02411 7.71801 9.04221 7.79808 9.0766C7.87814 9.111 7.95056 9.16099 8.0111 9.22367L9.844 11.0566Z" fill="white"/>
</svg>
