<svg width="25" height="25" viewBox="0 0 25 25" fill="none" xmlns="http://www.w3.org/2000/svg">
<rect width="25" height="25" rx="5" fill="#3CAA89"/>
<path d="M7.99869 10.5V7.58333C7.99869 7.26119 8.25986 7 8.58202 7H11.4987C11.8208 7 12.082 7.26119 12.082 7.58333V9.91667C12.082 10.2388 11.8208 10.5 11.4987 10.5H10.332C10.332 13.0773 12.4214 15.1667 14.9987 15.1667V14C14.9987 13.6779 15.2599 13.4167 15.582 13.4167H17.9154C18.2375 13.4167 18.4987 13.6779 18.4987 14V16.9167C18.4987 17.2388 18.2375 17.5 17.9154 17.5H14.9987C11.1327 17.5 7.99869 14.366 7.99869 10.5Z" fill="white"/>
</svg>
