<svg width="95" height="88" viewBox="0 0 95 88" fill="none" xmlns="http://www.w3.org/2000/svg">
<path d="M1.1623 69.6799H94M1.1623 52.51H94M1.1623 86.8499H94M1.1623 35.34H94M1.1623 18.17H94M1.1623 1H94M75.2702 87L75.2702 1.15009M93.8377 87V1.15009M1 87L1 1.15009M38.1351 87L38.1351 1.15009M19.5675 87L19.5675 1.15009M56.7026 87L56.7026 1.15009" stroke="url(#paint0_radial_3125_3911)"/>
<path d="M48.0007 39.0416C48.0007 38.2362 47.3478 37.5833 46.5423 37.5833C45.7369 37.5833 45.084 38.2362 45.084 39.0416V41.9583H42.1673C41.3619 41.9583 40.709 42.6112 40.709 43.4166C40.709 44.2221 41.3619 44.8749 42.1673 44.8749H45.084V47.7916C45.084 48.5971 45.7369 49.2499 46.5423 49.2499C47.3478 49.2499 48.0007 48.5971 48.0007 47.7916V44.8749H50.9173C51.7228 44.8749 52.3757 44.2221 52.3757 43.4166C52.3757 42.6112 51.7228 41.9583 50.9173 41.9583H48.0007V39.0416Z" fill="#505ECE"/>
<path fill-rule="evenodd" clip-rule="evenodd" d="M56.7959 51.6092C58.592 49.3638 59.666 46.5157 59.666 43.4167C59.666 36.168 53.7898 30.2917 46.541 30.2917C39.2923 30.2917 33.416 36.168 33.416 43.4167C33.416 50.6655 39.2923 56.5417 46.541 56.5417C49.6399 56.5417 52.4881 55.4677 54.7335 53.6716L58.6349 57.5729C59.2043 58.1424 60.1277 58.1424 60.6972 57.5729C61.2667 57.0035 61.2667 56.08 60.6972 55.5106L56.7959 51.6092ZM56.7493 43.4167C56.7493 49.0546 52.1789 53.6251 46.541 53.6251C40.9032 53.6251 36.3327 49.0546 36.3327 43.4167C36.3327 37.7789 40.9032 33.2084 46.541 33.2084C52.1789 33.2084 56.7493 37.7789 56.7493 43.4167Z" fill="#505ECE"/>
<defs>
<radialGradient id="paint0_radial_3125_3911" cx="0" cy="0" r="1" gradientUnits="userSpaceOnUse" gradientTransform="translate(47.5 42.3462) rotate(90) scale(36.1538 39.0966)">
<stop stop-color="#505ECE" stop-opacity="0.2"/>
<stop offset="1" stop-color="#505ECE" stop-opacity="0"/>
</radialGradient>
</defs>
</svg>
