<svg width="34" height="34" viewBox="0 0 34 34" fill="none" xmlns="http://www.w3.org/2000/svg">
<path d="M17 0C7.61259 0 0 7.61259 0 17C0 26.3874 7.61259 34 17 34C26.3874 34 34 26.3874 34 17C34 7.61259 26.3874 0 17 0Z" fill="url(#paint0_radial_2715_2732)"/>
<path d="M17 0C7.61259 0 0 7.61259 0 17C0 26.3874 7.61259 34 17 34C26.3874 34 34 26.3874 34 17C34 7.61259 26.3874 0 17 0Z" fill="url(#paint1_radial_2715_2732)"/>
<path d="M17.0008 8C14.5566 8 14.2498 8.01069 13.2898 8.05438C12.3317 8.09825 11.6777 8.24994 11.1054 8.4725C10.5135 8.70238 10.0113 9.00988 9.51108 9.51031C9.01045 10.0106 8.70294 10.5127 8.47232 11.1044C8.24919 11.6769 8.09731 12.3311 8.05419 13.2888C8.01125 14.2488 8 14.5557 8 17C8 19.4443 8.01088 19.7501 8.05438 20.7101C8.09844 21.6682 8.25013 22.3222 8.47251 22.8944C8.70257 23.4864 9.01007 23.9885 9.51052 24.4888C10.0106 24.9894 10.5127 25.2976 11.1043 25.5275C11.6769 25.7501 12.3311 25.9018 13.2891 25.9456C14.2491 25.9893 14.5556 26 16.9997 26C19.4442 26 19.75 25.9893 20.71 25.9456C21.6681 25.9018 22.3229 25.7501 22.8955 25.5275C23.4873 25.2976 23.9887 24.9894 24.4887 24.4888C24.9894 23.9885 25.2969 23.4864 25.5275 22.8946C25.7487 22.3222 25.9006 21.668 25.9456 20.7103C25.9888 19.7503 26 19.4443 26 17C26 14.5557 25.9888 14.249 25.9456 13.289C25.9006 12.3309 25.7487 11.6769 25.5275 11.1046C25.2969 10.5127 24.9894 10.0106 24.4887 9.51031C23.9881 9.00969 23.4875 8.70219 22.895 8.4725C22.3212 8.24994 21.6668 8.09825 20.7087 8.05438C19.7487 8.01069 19.4431 8 16.998 8H17.0008ZM16.1935 9.62187C16.4331 9.6215 16.7005 9.62187 17.0008 9.62187C19.4039 9.62187 19.6887 9.6305 20.6376 9.67363C21.5151 9.71375 21.9914 9.86038 22.3086 9.98356C22.7287 10.1467 23.0281 10.3417 23.3429 10.6567C23.6579 10.9717 23.8529 11.2717 24.0164 11.6917C24.1396 12.0086 24.2864 12.4848 24.3264 13.3623C24.3695 14.3111 24.3789 14.5961 24.3789 16.9979C24.3789 19.3998 24.3695 19.6848 24.3264 20.6336C24.2862 21.5111 24.1396 21.9873 24.0164 22.3042C23.8533 22.7242 23.6579 23.0233 23.3429 23.3381C23.0279 23.6531 22.7288 23.8481 22.3086 24.0112C21.9918 24.1349 21.5151 24.2812 20.6376 24.3213C19.6889 24.3644 19.4039 24.3738 17.0008 24.3738C14.5976 24.3738 14.3128 24.3644 13.3641 24.3213C12.4865 24.2808 12.0103 24.1342 11.6929 24.011C11.2728 23.8479 10.9728 23.6529 10.6578 23.3379C10.3428 23.0229 10.1478 22.7236 9.98433 22.3034C9.86114 21.9866 9.71433 21.5103 9.67439 20.6328C9.63127 19.6841 9.62264 19.3991 9.62264 16.9957C9.62264 14.5923 9.63127 14.3088 9.67439 13.3601C9.71452 12.4826 9.86114 12.0063 9.98433 11.6891C10.1475 11.2691 10.3428 10.9691 10.6578 10.6541C10.9728 10.3391 11.2728 10.1441 11.6929 9.98056C12.0101 9.85681 12.4865 9.71056 13.3641 9.67025C14.1943 9.63275 14.5161 9.6215 16.1935 9.61963V9.62187ZM21.805 11.1162C21.2088 11.1162 20.725 11.5994 20.725 12.1959C20.725 12.7921 21.2088 13.2759 21.805 13.2759C22.4013 13.2759 22.885 12.7921 22.885 12.1959C22.885 11.5996 22.4013 11.1159 21.805 11.1159V11.1162ZM17.0008 12.3781C14.4484 12.3781 12.3789 14.4476 12.3789 17C12.3789 19.5524 14.4484 21.6209 17.0008 21.6209C19.5533 21.6209 21.622 19.5524 21.622 17C21.622 14.4476 19.5531 12.3781 17.0007 12.3781H17.0008ZM17.0008 14C18.6576 14 20.0009 15.3431 20.0009 17C20.0009 18.6567 18.6576 20 17.0008 20C15.3439 20 14.0008 18.6567 14.0008 17C14.0008 15.3431 15.3439 14 17.0008 14Z" fill="white"/>
<defs>
<radialGradient id="paint0_radial_2715_2732" cx="0" cy="0" r="1" gradientUnits="userSpaceOnUse" gradientTransform="translate(9.03129 36.6187) rotate(-90) scale(33.6965 31.3404)">
<stop stop-color="#FFDD55"/>
<stop offset="0.1" stop-color="#FFDD55"/>
<stop offset="0.5" stop-color="#FF543E"/>
<stop offset="1" stop-color="#C837AB"/>
</radialGradient>
<radialGradient id="paint1_radial_2715_2732" cx="0" cy="0" r="1" gradientUnits="userSpaceOnUse" gradientTransform="translate(-5.69518 2.4493) rotate(78.6806) scale(15.0625 62.0882)">
<stop stop-color="#3771C8"/>
<stop offset="0.128" stop-color="#3771C8"/>
<stop offset="1" stop-color="#6600FF" stop-opacity="0"/>
</radialGradient>
</defs>
</svg>
