<svg width="95" height="88" viewBox="0 0 95 88" fill="none" xmlns="http://www.w3.org/2000/svg">
<path d="M1.1623 69.6799H94M1.1623 52.51H94M1.1623 86.8499H94M1.1623 35.34H94M1.1623 18.17H94M1.1623 1H94M75.2702 87L75.2702 1.15009M93.8377 87V1.15009M1 87L1 1.15009M38.1351 87L38.1351 1.15009M19.5675 87L19.5675 1.15009M56.7026 87L56.7026 1.15009" stroke="url(#paint0_radial_521_8)"/>
<path d="M57.5428 54.8138L56.153 50.2199C55.5674 48.2849 56.2482 46.1898 57.8592 44.9685L61.6838 42.0688C63.0689 41.0187 62.3514 38.8103 60.6136 38.7749L55.8149 38.6771C53.7936 38.636 52.0118 37.3411 51.348 35.4317L49.7721 30.8981M57.5428 54.8138L58.9785 54.3794M57.5428 54.8138C58.0461 56.4775 56.1676 57.8424 54.7408 56.8495L50.8011 54.108C49.1418 52.9533 46.939 52.9533 45.2797 54.108L41.34 56.8495M41.34 56.8495L42.1968 58.0807M41.34 56.8495C39.9132 57.8424 38.0347 56.4775 38.5381 54.8138L39.9279 50.2198C40.5133 48.2849 39.8328 46.1899 38.2217 44.9686L34.397 42.0688C33.0118 41.0187 33.7293 38.8103 35.4672 38.7749L40.2659 38.6771C42.2871 38.636 44.0691 37.3413 44.7328 35.4317M44.7328 35.4317L43.316 34.9392M44.7328 35.4317L46.3087 30.8981C46.8794 29.2563 49.2014 29.2563 49.7721 30.8981M49.7721 30.8981C49.7721 30.8981 49.7721 30.8981 49.7721 30.8981Z" stroke="#505ECE" stroke-width="3"/>
<defs>
<radialGradient id="paint0_radial_521_8" cx="0" cy="0" r="1" gradientUnits="userSpaceOnUse" gradientTransform="translate(47.5 42.3462) rotate(90) scale(36.1538 39.0966)">
<stop stop-color="#505ECE" stop-opacity="0.2"/>
<stop offset="1" stop-color="#505ECE" stop-opacity="0"/>
</radialGradient>
</defs>
</svg>
