<svg width="95" height="88" viewBox="0 0 95 88" fill="none" xmlns="http://www.w3.org/2000/svg">
<path d="M1.1623 69.6799H94M1.1623 52.51H94M1.1623 86.8499H94M1.1623 35.34H94M1.1623 18.17H94M1.1623 1H94M75.2702 87L75.2702 1.15009M93.8377 87V1.15009M1 87L1 1.15009M38.1351 87L38.1351 1.15009M19.5675 87L19.5675 1.15009M56.7026 87L56.7026 1.15009" stroke="url(#paint0_radial_2807_2979)"/>
<path d="M59.28 49.1867C58.4318 51.1927 57.1051 52.9603 55.4158 54.3351C53.7266 55.7099 51.7264 56.6499 49.5899 57.0731C47.4535 57.4962 45.2459 57.3895 43.1602 56.7624C41.0745 56.1353 39.1742 55.0068 37.6254 53.4756C36.0766 51.9443 34.9264 50.057 34.2755 47.9786C33.6246 45.9002 33.4928 43.694 33.8915 41.5529C34.2902 39.4117 35.2073 37.4008 36.5627 35.6961C37.9181 33.9913 39.6705 32.6444 41.6667 31.7733" stroke="#505ECE" stroke-width="2.5" stroke-linecap="round" stroke-linejoin="round"/>
<path d="M60.3333 44C60.3333 42.249 59.9885 40.5152 59.3184 38.8975C58.6483 37.2799 57.6662 35.81 56.4281 34.5719C55.19 33.3338 53.7201 32.3517 52.1024 31.6816C50.4848 31.0115 48.751 30.6667 47 30.6667V44H60.3333Z" stroke="#505ECE" stroke-width="2.5" stroke-linecap="round" stroke-linejoin="round"/>
<defs>
<radialGradient id="paint0_radial_2807_2979" cx="0" cy="0" r="1" gradientUnits="userSpaceOnUse" gradientTransform="translate(47.5 42.3462) rotate(90) scale(36.1538 39.0966)">
<stop stop-color="#505ECE" stop-opacity="0.2"/>
<stop offset="1" stop-color="#505ECE" stop-opacity="0"/>
</radialGradient>
</defs>
</svg>
