<svg width="95" height="88" viewBox="0 0 95 88" fill="none" xmlns="http://www.w3.org/2000/svg">
<path d="M1.1623 69.6799H94M1.1623 52.51H94M1.1623 86.8499H94M1.1623 35.34H94M1.1623 18.17H94M1.1623 1H94M75.2702 87L75.2702 1.15009M93.8377 87V1.15009M1 87L1 1.15009M38.1351 87L38.1351 1.15009M19.5675 87L19.5675 1.15009M56.7026 87L56.7026 1.15009" stroke="url(#paint0_radial_3125_3876)"/>
<path d="M48 51.0186C50.4853 51.0186 52.5 49.0038 52.5 46.5186C52.5 44.0333 50.4853 42.0186 48 42.0186C45.5147 42.0186 43.5 44.0333 43.5 46.5186C43.5 49.0038 45.5147 51.0186 48 51.0186Z" stroke="#505ECE" stroke-width="2.5"/>
<path d="M48 34.5C49.3807 34.5 50.5 33.3807 50.5 32C50.5 30.6193 49.3807 29.5 48 29.5C46.6193 29.5 45.5 30.6193 45.5 32C45.5 33.3807 46.6193 34.5 48 34.5Z" stroke="#505ECE" stroke-width="2.5"/>
<path d="M36 40.5C37.3807 40.5 38.5 39.3807 38.5 38C38.5 36.6193 37.3807 35.5 36 35.5C34.6193 35.5 33.5 36.6193 33.5 38C33.5 39.3807 34.6193 40.5 36 40.5Z" stroke="#505ECE" stroke-width="2.5"/>
<path d="M60 40.5C61.3807 40.5 62.5 39.3807 62.5 38C62.5 36.6193 61.3807 35.5 60 35.5C58.6193 35.5 57.5 36.6193 57.5 38C57.5 39.3807 58.6193 40.5 60 40.5Z" stroke="#505ECE" stroke-width="2.5"/>
<path d="M56.0005 61.9787C57.6574 61.9787 59.0429 60.6057 58.5476 59.0246C58.0315 57.3771 57.0868 55.8605 55.7787 54.6235C53.7158 52.6728 50.9179 51.5769 48.0005 51.5769C45.0831 51.5769 42.2852 52.6728 40.2223 54.6235C38.9142 55.8605 37.9695 57.3771 37.4534 59.0246C36.9581 60.6057 38.3436 61.9787 40.0005 61.9787H48.0005H56.0005Z" stroke="#505ECE" stroke-width="2.5"/>
<defs>
<radialGradient id="paint0_radial_3125_3876" cx="0" cy="0" r="1" gradientUnits="userSpaceOnUse" gradientTransform="translate(47.5 42.3462) rotate(90) scale(36.1538 39.0966)">
<stop stop-color="#505ECE" stop-opacity="0.2"/>
<stop offset="1" stop-color="#505ECE" stop-opacity="0"/>
</radialGradient>
</defs>
</svg>
