<svg width="25" height="25" viewBox="0 0 25 25" fill="none" xmlns="http://www.w3.org/2000/svg">
<rect opacity="0.1" width="25" height="25" rx="5" fill="#FF5A5F"/>
<path d="M16.6249 8.37479C16.7342 8.48419 16.7957 8.63256 16.7957 8.78727C16.7957 8.94198 16.7342 9.09035 16.6249 9.19975L13.325 12.4996L16.6249 15.7994C16.7342 15.9088 16.7957 16.0572 16.7957 16.2119C16.7957 16.3666 16.7342 16.515 16.6249 16.6244C16.5155 16.7338 16.3671 16.7952 16.2124 16.7952C16.0577 16.7952 15.9093 16.7338 15.7999 16.6244L12.5001 13.3245L9.20023 16.6244C9.09083 16.7338 8.94246 16.7952 8.78775 16.7952C8.63304 16.7952 8.48467 16.7338 8.37527 16.6244C8.26587 16.515 8.20442 16.3666 8.20442 16.2119C8.20442 16.0572 8.26588 15.9088 8.37527 15.7994L11.6751 12.4996L8.37527 9.19975C8.26588 9.09035 8.20442 8.94198 8.20442 8.78727C8.20442 8.63256 8.26588 8.48419 8.37527 8.37479C8.48467 8.26539 8.63304 8.20394 8.78775 8.20394C8.94246 8.20394 9.09083 8.26539 9.20023 8.37479L12.5001 11.6746L15.7999 8.37479C15.9093 8.26539 16.0577 8.20394 16.2124 8.20394C16.3671 8.20394 16.5155 8.26539 16.6249 8.37479Z" fill="#FF5A5F"/>
</svg>
