<svg width="12" height="12" viewBox="0 0 12 12" fill="none" xmlns="http://www.w3.org/2000/svg">
<path fill-rule="evenodd" clip-rule="evenodd" d="M6 1.625C6.67929 1.62449 7.34933 1.7824 7.95691 2.08619C8.56448 2.38997 9.09284 2.83127 9.5 3.375V2.5C9.5 2.38397 9.54609 2.27269 9.62814 2.19064C9.71019 2.10859 9.82147 2.0625 9.9375 2.0625C10.0535 2.0625 10.1648 2.10859 10.2469 2.19064C10.3289 2.27269 10.375 2.38397 10.375 2.5V4.25C10.375 4.36603 10.3289 4.47731 10.2469 4.55936C10.1648 4.64141 10.0535 4.6875 9.9375 4.6875H8.1875C8.07147 4.6875 7.96019 4.64141 7.87814 4.55936C7.79609 4.47731 7.75 4.36603 7.75 4.25C7.75 4.13397 7.79609 4.02269 7.87814 3.94064C7.96019 3.85859 8.07147 3.8125 8.1875 3.8125H8.73219C8.21574 3.16746 7.48772 2.72594 6.67701 2.5661C5.8663 2.40627 5.02518 2.53842 4.30255 2.93918C3.57991 3.33993 3.02237 3.98343 2.72862 4.75577C2.43487 5.52812 2.42386 6.37948 2.69753 7.15917C2.9712 7.93885 3.5119 8.59657 4.22392 9.01588C4.93594 9.4352 5.77336 9.58907 6.58794 9.45026C7.40251 9.31146 8.14171 8.88892 8.67468 8.25746C9.20764 7.62599 9.5 6.82632 9.5 6H10.375C10.375 8.41631 8.41631 10.375 6 10.375C3.58369 10.375 1.625 8.41631 1.625 6C1.625 3.58369 3.58369 1.625 6 1.625ZM6 3.8125C6.20913 3.8125 6.40688 3.98225 6.43444 4.19925L6.4375 4.25V6L7.91056 6.46463C8.12363 6.54163 8.23825 6.78838 8.16606 7.01675C8.09869 7.22806 7.89481 7.34838 7.69487 7.30288L7.64894 7.28975L5.83944 6.63481C5.69069 6.581 5.58569 6.43794 5.566 6.27431L5.5625 6.21875V4.25C5.5625 4.00938 5.77469 3.8125 6 3.8125Z" fill="white"/>
</svg>
