<svg width="52" height="52" viewBox="0 0 52 52" fill="none" xmlns="http://www.w3.org/2000/svg">
<rect opacity="0.1" width="52" height="52" rx="10" fill="white"/>
<path d="M30.6773 15.6775C31.7476 15.6775 32.774 16.1027 33.5309 16.8595C34.2877 17.6163 34.7129 18.6428 34.7129 19.7131V31.8198C34.7129 32.8901 34.2877 33.9166 33.5309 34.6734C32.774 35.4302 31.7476 35.8554 30.6773 35.8554H20.5883C19.518 35.8554 18.4915 35.4302 17.7347 34.6734C16.9779 33.9166 16.5527 32.8901 16.5527 31.8198V19.7131C16.5527 18.6428 16.9779 17.6163 17.7347 16.8595C18.4915 16.1027 19.518 15.6775 20.5883 15.6775H30.6773ZM30.6773 17.6953H20.5883C20.0793 17.6951 19.5889 17.8874 19.2157 18.2335C18.8424 18.5797 18.6138 19.0541 18.5756 19.5617L18.5705 19.7131V31.8198C18.5704 32.3289 18.7626 32.8192 19.1088 33.1925C19.4549 33.5657 19.9294 33.7944 20.437 33.8326L20.5883 33.8376H30.6773C31.1863 33.8378 31.6767 33.6455 32.0499 33.2994C32.4232 32.9532 32.6518 32.4788 32.69 31.9712L32.6951 31.8198V19.7131C32.6951 19.1779 32.4825 18.6647 32.1041 18.2863C31.7257 17.9079 31.2124 17.6953 30.6773 17.6953ZM29.6684 23.7487C29.936 23.7487 30.1926 23.855 30.3818 24.0442C30.571 24.2334 30.6773 24.49 30.6773 24.7576V30.8109C30.6773 31.0785 30.571 31.3351 30.3818 31.5243C30.1926 31.7135 29.936 31.8198 29.6684 31.8198H21.5972C21.3296 31.8198 21.073 31.7135 20.8838 31.5243C20.6946 31.3351 20.5883 31.0785 20.5883 30.8109V24.7576C20.5883 24.49 20.6946 24.2334 20.8838 24.0442C21.073 23.855 21.3296 23.7487 21.5972 23.7487H29.6684ZM25.6328 19.7131C25.9004 19.7131 26.157 19.8194 26.3462 20.0086C26.5354 20.1978 26.6417 20.4544 26.6417 20.722C26.6417 20.9895 26.5354 21.2462 26.3462 21.4354C26.157 21.6246 25.9004 21.7309 25.6328 21.7309H21.5972C21.3296 21.7309 21.073 21.6246 20.8838 21.4354C20.6946 21.2462 20.5883 20.9895 20.5883 20.722C20.5883 20.4544 20.6946 20.1978 20.8838 20.0086C21.073 19.8194 21.3296 19.7131 21.5972 19.7131H25.6328Z" fill="white"/>
</svg>
