<svg width="95" height="88" viewBox="0 0 95 88" fill="none" xmlns="http://www.w3.org/2000/svg">
<path d="M1.1623 69.6799H94M1.1623 52.51H94M1.1623 86.8499H94M1.1623 35.34H94M1.1623 18.17H94M1.1623 1H94M75.2702 87L75.2702 1.15009M93.8377 87V1.15009M1 87L1 1.15009M38.1351 87L38.1351 1.15009M19.5675 87L19.5675 1.15009M56.7026 87L56.7026 1.15009" stroke="url(#paint0_radial_2915_4064)"/>
<path d="M60.5 50.0001V38.0001C60.4995 37.474 60.3606 36.9573 60.0973 36.5018C59.834 36.0464 59.4556 35.6681 59 35.4051L48.5 29.4051C48.0439 29.1418 47.5266 29.0032 47 29.0032C46.4734 29.0032 45.9561 29.1418 45.5 29.4051L35 35.4051C34.5444 35.6681 34.166 36.0464 33.9027 36.5018C33.6394 36.9573 33.5005 37.474 33.5 38.0001V50.0001C33.5005 50.5262 33.6394 51.0429 33.9027 51.4984C34.166 51.9538 34.5444 52.3321 35 52.5951L45.5 58.5951C45.9561 58.8584 46.4734 58.997 47 58.997C47.5266 58.997 48.0439 58.8584 48.5 58.5951L59 52.5951C59.4556 52.3321 59.834 51.9538 60.0973 51.4984C60.3606 51.0429 60.4995 50.5262 60.5 50.0001Z" stroke="#505ECE" stroke-width="2" stroke-linecap="round" stroke-linejoin="round"/>
<path d="M33.9048 36.4399L46.9998 44.0149L60.0948 36.4399" stroke="#505ECE" stroke-width="2" stroke-linecap="round" stroke-linejoin="round"/>
<path d="M47 59.12V44" stroke="#505ECE" stroke-width="2" stroke-linecap="round" stroke-linejoin="round"/>
<defs>
<radialGradient id="paint0_radial_2915_4064" cx="0" cy="0" r="1" gradientUnits="userSpaceOnUse" gradientTransform="translate(47.5 42.3462) rotate(90) scale(36.1538 39.0966)">
<stop stop-color="#505ECE" stop-opacity="0.2"/>
<stop offset="1" stop-color="#505ECE" stop-opacity="0"/>
</radialGradient>
</defs>
</svg>
