<svg width="95" height="88" viewBox="0 0 95 88" fill="none" xmlns="http://www.w3.org/2000/svg">
<path d="M1.1623 69.6799H94M1.1623 52.51H94M1.1623 86.8499H94M1.1623 35.34H94M1.1623 18.17H94M1.1623 1H94M75.2702 87L75.2702 1.15009M93.8377 87V1.15009M1 87L1 1.15009M38.1351 87L38.1351 1.15009M19.5675 87L19.5675 1.15009M56.7026 87L56.7026 1.15009" stroke="url(#paint0_radial_2915_4092)"/>
<path d="M61.8151 49.835C60.8608 52.0917 59.3683 54.0803 57.4679 55.6269C55.5676 57.1736 53.3173 58.2311 50.9138 58.7072C48.5103 59.1832 46.0268 59.0632 43.6803 58.3577C41.3339 57.6522 39.1961 56.3826 37.4536 54.66C35.7112 52.9374 34.4173 50.8141 33.6851 48.4759C32.9528 46.1377 32.8045 43.6557 33.253 41.2469C33.7016 38.8382 34.7334 36.5759 36.2582 34.658C37.783 32.7401 39.7544 31.225 42.0001 30.245" stroke="#80496A" stroke-width="2" stroke-linecap="round" stroke-linejoin="round"/>
<path d="M63 44C63 42.0302 62.612 40.0796 61.8582 38.2597C61.1044 36.4399 59.9995 34.7863 58.6066 33.3934C57.2137 32.0005 55.5601 30.8956 53.7403 30.1418C51.9204 29.388 49.9698 29 48 29V44H63Z" stroke="#80496A" stroke-width="2" stroke-linecap="round" stroke-linejoin="round"/>
<defs>
<radialGradient id="paint0_radial_2915_4092" cx="0" cy="0" r="1" gradientUnits="userSpaceOnUse" gradientTransform="translate(47.5 42.3462) rotate(90) scale(36.1538 39.0966)">
<stop stop-color="#80496A" stop-opacity="0.2"/>
<stop offset="1" stop-color="#80496A" stop-opacity="0"/>
</radialGradient>
</defs>
</svg>
