<svg width="112" height="84" viewBox="0 0 112 84" fill="none" xmlns="http://www.w3.org/2000/svg">
<g clip-path="url(#clip0_361_1308)">
<path d="M82.4273 44.7105C80.3193 44.7105 78.6629 44.4846 77.0066 43.9576C78.9641 38.6121 80.6957 33.7937 80.8463 33.1914C81.3733 31.7609 81.7498 31.3092 82.3521 31.3092C82.9544 31.3092 83.3308 31.7609 83.8578 33.1914C84.0837 33.7937 85.8153 38.6121 87.7728 43.8823C86.2671 44.4846 84.5354 44.7105 82.4273 44.7105ZM89.4292 29.1258C87.9234 25.8131 85.6647 24.5332 82.7285 24.5332H82.4273H82.1262C79.19 24.5332 76.9313 25.8884 75.4255 29.2011C73.3175 33.7937 63.6806 59.467 63.6806 59.467H71.5858C71.5858 59.467 73.0163 55.3261 74.7479 50.5077C77.2325 51.0347 79.7923 51.3358 82.5026 51.3358C85.213 51.3358 87.8481 51.0347 90.2573 50.4324C91.989 55.2508 93.57 59.467 93.57 59.467H101.4C101.325 59.467 91.5372 33.7184 89.4292 29.1258ZM28.6715 44.7105C26.5634 44.7105 24.9071 44.4846 23.2507 43.9576C25.1329 38.6121 26.8646 33.7937 27.0904 33.1914C27.6175 31.7609 27.9939 31.3092 28.5962 31.3092C29.1985 31.3092 29.575 31.7609 30.102 33.1914C30.3278 33.7937 32.0595 38.6121 34.017 43.8823C32.5112 44.4846 30.7796 44.7105 28.6715 44.7105ZM28.9727 24.5332H28.6715H28.3703C25.4341 24.5332 23.1755 25.8884 21.6697 29.2011C19.5616 33.7937 10 59.467 10 59.467H17.9053C17.9053 59.467 19.3357 55.3261 21.0674 50.5077C23.4766 51.0347 26.1117 51.3358 28.8221 51.3358C31.5325 51.3358 34.1675 51.0347 36.5768 50.4324C38.3084 55.2508 39.8895 59.467 39.8895 59.467H47.7194C47.7194 59.467 37.932 33.7184 35.7486 29.2011C34.0923 25.8884 31.9089 24.5332 28.9727 24.5332ZM51.785 59.467H59.3891V24.9849H51.785V59.467Z" fill="#D41245"/>
</g>
<defs>
<clipPath id="clip0_361_1308">
<rect width="91.4" height="34.9338" fill="white" transform="translate(10 24.5332)"/>
</clipPath>
</defs>
</svg>
