<svg width="75" height="84" viewBox="0 0 75 84" fill="none" xmlns="http://www.w3.org/2000/svg">
<g clip-path="url(#clip0_361_1310)">
<path d="M64.3999 15.0005H10.4004V69H64.3999V15.0005Z" fill="#00008F"/>
<path d="M40.7615 41.6679H43.8626L64.3998 15H61.3665L40.7615 41.6679Z" fill="#FF1721"/>
<path d="M51.6613 53.5685C52.6025 56.2017 54.542 63.0543 55.313 63.6003H50.2213C50.206 62.9945 50.1259 62.392 49.9823 61.8032C49.7628 61.02 47.921 55.0948 47.921 55.0948H39.8332L38.5617 56.8975C38.5617 56.8975 40.089 61.6785 40.1838 61.9129C40.3485 62.3353 41.0778 63.6003 41.0778 63.6003H36.1981C36.1981 63.6003 36.0717 62.8701 36.0242 62.566C35.986 62.3204 35.5619 60.9754 35.5619 60.9754C35.5619 60.9754 34.4559 62.1874 34.1546 62.7492C33.8503 63.3101 33.7155 63.6003 33.7155 63.6003H29.8981C29.8981 63.6003 29.7706 62.8701 29.7232 62.566C29.6861 62.3204 29.219 60.8675 29.219 60.8675C29.219 60.8675 28.1503 62.1651 27.8461 62.7259C27.5438 63.2878 27.4136 63.6003 27.4136 63.6003H23.6381C23.6381 63.6003 24.705 62.5845 25.078 62.1483C25.7067 61.4088 28.0499 58.3467 28.0499 58.3467L27.1104 55.0948H19.084C19.084 55.0948 14.5075 61.1084 14.3271 61.2944C14.1448 61.4777 12.8109 63.392 12.7811 63.6003H10.3999V62.086C10.4294 62.0539 10.4608 62.0234 10.4938 61.9949C10.5674 61.9409 13.9634 57.7253 17.0832 53.5684C19.8867 49.9436 22.5172 46.4182 22.7479 46.0824C23.3069 45.2704 24.1125 43.5171 24.1125 43.5171H28.2619C28.2619 43.5171 28.3903 45.1299 28.5112 45.5215C28.6191 45.8676 31.1473 54.1628 31.2068 54.2521L32.6049 52.4643L30.2153 45.1085C30.2153 45.1085 29.6553 43.7244 29.473 43.5171H34.3201C34.303 43.962 34.3564 44.4068 34.4782 44.8351C34.6754 45.4416 35.7145 49.1911 35.7145 49.1911C35.7145 49.1911 39.0203 45.0472 39.2137 44.7495C39.4486 44.3783 39.5888 43.9551 39.6221 43.5171H43.6608C43.6608 43.5171 42.9214 44.0574 41.6256 45.6964C41.1903 46.248 36.9255 51.6681 36.9255 51.6681C36.9255 51.6681 37.2976 52.9369 37.479 53.5685C37.5283 53.7498 37.5627 53.8726 37.5627 53.8856C37.5627 53.8913 37.6566 53.7759 37.8184 53.5685C38.9188 52.1741 43.9241 45.6109 44.2274 45.049C44.472 44.5951 44.8319 44.0789 45.0431 43.5171H48.9833C48.9833 43.5171 49.0744 44.6937 49.1944 45.0193L51.6613 53.5685ZM45.6653 47.3558C45.0868 48.6004 41.6814 52.7462 41.6814 52.7462H47.0746C47.0746 52.7462 46.0291 49.5268 45.8468 48.8013C45.7536 48.3374 45.718 47.8638 45.7407 47.3912C45.7407 47.3252 45.7286 47.2182 45.6653 47.3558ZM24.944 47.3558C24.3654 48.6004 20.9601 52.7462 20.9601 52.7462H26.3532C26.3532 52.7462 25.3087 49.5268 25.1264 48.8013C25.0332 48.3374 24.9976 47.8638 25.0203 47.3912C25.0203 47.3252 25.0073 47.2182 24.944 47.3558ZM33.0635 59.9261L34.548 57.8872C34.4113 57.7403 33.5751 55.2046 33.5751 55.2046L32.1398 57.0668L33.0635 59.9261Z" fill="white"/>
</g>
<defs>
<clipPath id="clip0_361_1310">
<rect width="54" height="54" fill="white" transform="translate(10.3999 15)"/>
</clipPath>
</defs>
</svg>
