<svg width="221" height="84" viewBox="0 0 221 84" fill="none" xmlns="http://www.w3.org/2000/svg">
<path fill-rule="evenodd" clip-rule="evenodd" d="M51.3261 54.1462L52.3943 53.7527C53.9121 53.1343 54.137 52.7408 54.0246 51.7289V47.6812C55.1489 50.6045 56.2733 52.6283 58.4657 52.6283C58.7468 52.6283 59.0841 52.5721 59.4214 52.5159L60.2647 52.3472L59.6463 51.6726C59.2971 51.3234 59.1249 51.0184 58.9335 50.6792C58.9092 50.6361 58.8846 50.5926 58.8593 50.5483C58.8031 50.464 58.7609 50.3796 58.7187 50.2953L58.7187 50.2952C58.6765 50.2109 58.6344 50.1266 58.5782 50.0423C58.0722 49.1991 56.8354 48.918 55.8235 49.3677C55.3912 48.5031 54.9589 47.3787 54.4267 45.9945L54.3619 45.826L54.2494 45.5449C54.1932 45.4325 54.1511 45.3201 54.1089 45.2076C54.0667 45.0952 54.0246 44.9828 53.9684 44.8703V44.8141C53.6311 44.0271 53.2375 43.2962 52.844 42.5654C52.4505 41.8908 52.057 41.3286 51.6072 40.8227C50.4267 39.4735 48.9088 38.6302 47.0536 38.2929C45.7606 38.068 44.8611 38.0118 43.6806 37.9556C43.4557 37.9556 43.1746 37.9556 42.9498 37.8994C42.7325 37.8752 42.4117 37.8511 42.0318 37.8225C41.5267 37.7845 40.9171 37.7387 40.3075 37.6745C39.5767 37.6183 38.9021 37.5621 38.3399 37.5059C38.3961 37.3372 38.3961 37.1686 38.3961 36.9999V36.9999V36.9999C38.3961 36.775 38.3961 36.5502 38.3399 36.3815H45.7606C47.672 36.3815 49.0774 35.5382 49.8645 33.8517C51.7759 33.8517 53.1251 32.9523 53.9684 31.3219H54.2494C56.217 31.3219 57.6225 30.4225 58.4657 28.6235L58.7468 28.1176H33.6739C32.0436 28.1176 30.6382 29.1857 30.076 30.8722V30.9284C29.6262 29.7479 28.8954 28.7359 27.8835 28.1176C26.4781 27.2743 24.904 26.9932 23.6672 27.3867C23.2737 27.4992 22.8239 27.6678 22.4866 27.8927C22.4232 27.9434 22.3512 27.997 22.2745 28.0541C22.0112 28.2501 21.6924 28.4874 21.4747 28.7922C21.1374 29.1857 20.8563 29.6916 20.6315 30.1414C20.4628 30.2538 20.3504 30.3663 20.2942 30.4787L20.0131 31.0409V31.0971C19.7057 31.8143 19.305 32.3447 18.981 32.7735C18.9495 32.8153 18.9187 32.8561 18.8887 32.896C18.5514 33.2896 18.5514 33.6831 18.5514 33.9079C18.6076 34.189 18.7201 34.4139 18.8887 34.5826C18.7763 34.7512 18.7201 34.9761 18.7201 35.1447C18.7201 35.8193 19.2822 36.3253 20.0131 36.3253C20.519 36.3253 20.9688 36.1004 21.4185 35.7631C21.5872 35.6507 22.0931 35.3134 22.2618 35.3134C22.4866 35.3134 22.6553 35.482 22.6553 35.7069C22.6553 36.2691 21.9807 36.5502 21.4747 36.5502L20.4628 36.6626C19.732 36.7188 19.3947 37.1123 19.3947 37.4496C19.3947 37.7869 19.5633 38.0118 19.6758 38.1242L19.732 38.1805L20.0131 38.4053L18.8325 40.2043C18.0455 39.4735 17.146 39.0799 16.3589 39.0237C15.853 39.0237 15.4032 39.1362 15.0659 39.4735C14.9535 39.5859 14.8973 39.6421 14.8411 39.7546C13.9978 39.7546 13.3232 40.2043 12.9859 40.7102C12.5924 41.2724 12.761 42.2281 13.2108 42.9589L10.3999 43.746V56.7884H60.4334V54.2024H51.3261V54.1462ZM57.7911 50.6045C57.8355 50.671 57.8711 50.7376 57.9048 50.8006C57.9567 50.8975 58.0041 50.9862 58.0722 51.0542L58.0723 51.0543C58.1847 51.2229 58.2971 51.3916 58.4095 51.6164C57.6225 51.5602 57.0041 51.1105 56.4981 50.3234C56.9479 50.0985 57.5663 50.2672 57.7911 50.6045ZM46.9412 39.4735C48.5715 39.7546 49.8645 40.4854 50.8764 41.6097C51.0188 41.7521 51.1387 41.9171 51.2645 42.0903C51.3374 42.1906 51.4123 42.2937 51.4948 42.3968C48.7964 42.0595 47.8407 41.6659 46.3228 39.361C46.5091 39.361 46.6568 39.3996 46.8298 39.4448L46.8299 39.4448C46.8657 39.4542 46.9026 39.4638 46.9412 39.4735ZM45.7606 35.5382H40.6448C41.0946 35.1447 41.4319 34.6388 41.713 34.0766H48.6277C48.0655 35.0885 47.1098 35.5382 45.7606 35.5382ZM49.8083 33.0647H44.6925C45.1422 32.6712 45.5358 32.1652 45.8168 31.5468H52.7316C52.1694 32.5587 51.2137 33.0647 49.8083 33.0647ZM50.2018 29.1857H57.0603C56.3857 30.0852 55.4862 30.5349 54.1932 30.5349H49.0774C49.5272 30.1414 49.9207 29.6916 50.2018 29.1857ZM22.318 29.4106C22.4866 29.1857 22.7677 28.9608 23.0488 28.7359C23.2737 28.5673 23.611 28.3986 23.9483 28.3424C24.4542 28.23 25.0164 28.23 25.5786 28.3424L23.7234 29.4668C23.611 29.4668 23.4985 29.4527 23.3861 29.4387C23.2737 29.4246 23.1612 29.4106 23.0488 29.4106C22.7451 29.4106 22.487 29.4106 22.2745 29.4516C22.2853 29.4433 22.2981 29.4304 22.318 29.4106L22.318 29.4106ZM20.1817 37.5059C20.1817 37.4496 20.2379 37.3934 20.2942 37.3934L21.1936 37.4496C22.2618 37.3934 23.3861 36.9437 23.4985 35.8193C23.4985 35.0323 22.9364 34.3015 22.2055 34.3015C21.812 34.3015 21.3061 34.5826 20.8001 34.9199C20.4628 35.1447 20.1817 35.3134 20.0131 35.3134C19.9006 35.3134 19.7882 35.2009 19.7882 35.1447V35.0885L20.3504 34.3015L19.8444 33.9642C19.732 33.9079 19.5633 33.7393 19.5633 33.6831C19.5633 33.655 19.5774 33.6269 19.5914 33.5988C19.6055 33.5706 19.6195 33.5425 19.6195 33.5144C19.8444 33.2896 20.0693 33.0085 20.2942 32.6149C20.312 32.5912 20.3285 32.5687 20.3441 32.5475C20.4766 32.3676 20.5428 32.2776 20.7439 32.2776C20.9688 32.2776 21.1936 32.4463 21.1936 32.7274C21.1936 32.896 21.3623 33.0085 21.5872 33.0085C21.7755 33.0085 21.885 32.8901 21.9817 32.7856L21.9817 32.7856C22.0004 32.7653 22.0187 32.7456 22.0369 32.7274C22.0369 32.7274 22.5429 32.2776 22.2618 32.0528C22.1748 31.9832 21.9964 31.9836 21.8014 31.984C21.3661 31.9849 20.8482 31.986 21.0812 31.2095L21.1936 31.0409C21.3061 30.8722 21.9245 30.4225 23.105 30.4225C23.3299 30.4225 23.5548 30.4225 23.8359 30.4787H24.0045L26.5905 28.9046C26.5905 28.9608 26.6467 29.017 26.6467 29.017C26.7592 29.8041 26.3094 30.7036 25.5224 31.1533L25.1851 31.3219L25.4099 32.5025C24.7353 32.7274 24.2856 33.2333 24.2856 33.8517C24.2856 34.0766 24.3418 34.3577 24.398 34.6388C24.4168 34.7699 24.4417 34.9011 24.4667 35.0323C24.5167 35.2946 24.5667 35.557 24.5667 35.8193C24.5667 37.0561 22.8802 37.8432 21.4747 37.7869H21.4185C21.3623 37.7869 20.4628 37.7307 20.2379 37.5621C20.1817 37.6183 20.1817 37.5621 20.1817 37.5059ZM13.7729 41.3286C13.9978 40.9913 14.4476 40.7665 15.0097 40.8227L15.4595 40.8789L15.6281 40.4854C15.6843 40.3729 15.7406 40.2605 15.7968 40.2043C15.9092 40.0919 16.1341 40.0356 16.3589 40.0356C16.9773 40.0356 17.7644 40.4854 18.3828 41.16C18.6076 41.3849 18.8325 41.7222 19.0012 42.0032C19.0293 42.0314 19.0433 42.0595 19.0574 42.0876C19.0714 42.1157 19.0855 42.1438 19.1136 42.1719C19.1698 42.2281 19.226 42.3405 19.226 42.3405C19.226 42.3687 19.3104 42.4951 19.3947 42.6216C19.479 42.7481 19.5633 42.8746 19.5633 42.9027C19.7882 42.6216 20.0131 42.2843 20.1817 42.0032V41.947C20.1536 41.8908 20.1115 41.8206 20.0693 41.7503L20.0693 41.7503C20.0271 41.68 19.985 41.6097 19.9569 41.5535L19.9006 41.4973C19.9006 41.4973 19.8444 41.4411 19.8444 41.3849C19.7882 41.2724 19.6758 41.1038 19.6195 41.0476L20.9688 38.9113C21.3061 38.9675 21.5871 38.9675 21.7558 38.9675H21.7558H21.812C23.7234 38.9675 25.691 37.8432 25.691 36.0442V35.988C25.691 35.6211 25.6319 35.2838 25.578 34.9761C25.5575 34.8594 25.5378 34.747 25.5224 34.6388C25.5073 34.5635 25.4923 34.4923 25.4783 34.4262L25.4783 34.426L25.4783 34.426C25.4401 34.2452 25.4099 34.1027 25.4099 34.0204C25.4099 33.7955 25.691 33.5706 26.0845 33.5706H26.7029L26.4219 31.9966C27.2651 31.3782 27.8273 30.31 27.7711 29.3543C28.7268 30.0852 29.3452 31.3219 29.4576 32.6149C29.5098 32.9801 29.4167 33.4422 29.3132 33.9561L29.2889 34.0766L29.2327 34.3015C29.0078 35.2009 28.6705 36.1566 28.5019 36.6064L28.3332 36.9999L28.7268 37.2248C29.4014 37.6183 29.8511 37.8994 29.8511 38.7989C29.8511 39.867 28.8954 40.654 27.9959 40.8227L26.7029 41.0476L27.7711 41.7784C28.1084 42.0032 28.3332 42.3968 28.3332 42.7903C28.3332 43.4649 27.7711 43.9709 27.0965 43.9709H26.7029L26.5905 44.3082C26.197 45.5449 25.8035 46.1633 24.4542 46.332V45.039V44.4768L24.398 43.2962L23.5548 44.1395C23.2737 44.4206 22.7677 44.6455 22.2055 44.7579V43.746L16.3027 42.1719L14.2227 42.7341C13.7729 42.2843 13.6605 41.4973 13.7729 41.3286ZM12.0864 54.1462L16.3589 53.0218L20.6315 54.1462H12.0864ZM21.1936 53.2467L16.3027 51.9537L11.4118 53.2467V44.533L16.3027 43.24L21.1936 44.533V53.2467ZM23.4985 51.5602C23.0488 52.1786 22.9926 53.0781 23.3299 54.1462H22.2618V45.826C22.6553 45.7698 23.0488 45.6574 23.4423 45.4887C23.4423 45.826 23.3861 46.1633 23.3299 46.5006C23.3299 46.5569 23.3158 46.599 23.3018 46.6412C23.2877 46.6833 23.2737 46.7255 23.2737 46.7817L23.1612 47.4001H23.7796C24.6791 47.4001 25.3537 47.2315 25.9159 47.0066V50.4921C25.9159 50.6045 25.8597 50.6607 25.7472 50.6607H25.5786C24.6791 50.6045 23.8921 50.9418 23.4985 51.5602ZM34.742 51.7851C34.3485 52.2348 34.0112 52.9656 34.2361 54.1462H27.8835C28.5581 54.09 29.0641 53.9213 29.4014 53.584C29.7949 53.1343 29.8511 52.5721 29.8511 52.1224C29.8511 52.0662 29.9073 51.9537 30.2446 51.7851L30.8068 51.5602L30.4695 51.0542C29.9073 50.211 30.1884 48.412 30.3571 47.4001H30.4133C32.4961 47.4001 33.8842 46.9726 35.307 46.5344L35.4166 46.5006C35.8102 46.3882 36.2037 46.2758 36.5972 46.1071C36.8188 46.0121 36.9334 45.9885 37.0917 45.9558C37.2145 45.9305 37.3635 45.8997 37.6091 45.826L39.6891 49.2553V49.3115C39.914 49.5926 39.914 49.8175 39.5205 50.211L38.5086 51.3353L36.8221 50.998C36.0912 50.8856 35.248 51.2229 34.742 51.7851ZM35.3042 54.1462C35.1355 53.4154 35.1918 52.8532 35.5291 52.4597C35.8664 52.0662 36.3161 52.0099 36.7096 52.0099L38.6772 52.3472H39.0145L40.42 50.8294L40.4424 50.8014C40.689 50.4954 41.3529 49.6717 40.6448 48.6369L38.7897 45.6012C39.0708 45.5449 39.4081 45.5449 39.6891 45.5449C39.9702 45.5449 40.6448 45.5449 41.6568 46.1071C41.7028 46.2223 41.7678 46.3564 41.84 46.5055L41.8401 46.5055L41.8401 46.5056C41.9441 46.7202 42.0632 46.9661 42.1627 47.2315C42.5562 48.0185 43.0622 49.0304 43.1746 49.4239C43.2308 49.5364 43.3433 49.9299 42.8935 50.4359L39.3518 54.2024H35.3042V54.1462ZM47.4471 54.1462H40.7011L43.5681 51.1105C44.1303 50.4921 44.3552 49.7612 44.0741 49.0866C43.9863 48.7795 43.7273 48.2325 43.4307 47.6061C43.3473 47.4301 43.261 47.2478 43.1746 47.0628C44.299 47.5688 46.0417 48.0747 49.5834 48.3558C50.0331 48.412 50.1456 48.5245 50.2018 48.918L50.3704 50.4359L48.5153 50.8294C47.8969 50.9418 47.3909 51.3353 47.1661 51.9537C46.9412 52.6283 47.0536 53.4154 47.4471 54.1462ZM48.178 52.3472C48.2904 52.0662 48.4591 51.8975 48.7401 51.8413L51.4948 51.2229L51.2699 48.7493V48.6931C51.2137 48.3558 50.9888 47.4001 49.6958 47.2877C44.776 46.8963 43.6369 46.1714 42.408 45.3893L42.3876 45.3763L42.3314 45.3201C41.0384 44.4768 39.7454 44.4768 39.6329 44.4768C38.2275 44.4768 36.4848 45.039 36.3161 45.0952C36.058 45.1597 35.8185 45.2427 35.5868 45.323L35.5868 45.3231C35.4147 45.3827 35.247 45.4408 35.0793 45.4887L34.9011 45.5461C33.4056 46.028 32.1268 46.4401 29.9635 46.332H29.57L29.4576 46.7255C29.4528 46.7495 29.4435 46.7899 29.4308 46.8447L29.4308 46.8448C29.2956 47.4318 28.7796 49.6708 29.3452 51.1105C28.783 51.5602 28.783 52.0099 28.783 52.1224C28.783 52.6845 28.6705 52.797 28.6143 52.8532C28.3332 53.1343 27.49 53.1343 26.7592 53.1343H26.7592H26.4781L26.3094 53.3592C25.8597 53.9775 24.904 54.1462 24.2856 53.9775C24.0045 53.1343 24.0045 52.5159 24.2856 52.1224C24.6229 51.6726 25.2413 51.6164 25.5224 51.6164H25.691C26.3656 51.6164 26.8716 51.0542 26.8716 50.4359V45.9947C27.037 45.7879 27.1416 45.5203 27.2524 45.2367C27.2923 45.1347 27.3329 45.0306 27.3775 44.9265C28.4457 44.7579 29.2889 43.8584 29.2889 42.7341C29.2889 42.2843 29.1765 41.8908 28.9516 41.5535C29.9635 41.0476 30.8068 40.0919 30.8068 38.7989C30.8068 37.5059 30.1322 36.8875 29.5138 36.5502L29.5138 36.5501L29.5139 36.55C29.6825 36.044 29.9636 35.2008 30.1884 34.3015L31.0317 31.2095C31.4252 29.9727 32.4371 29.1857 33.6177 29.1857H48.9088C48.2342 30.0852 47.3347 30.5349 46.0417 30.5349H36.8783L36.3723 31.5468H44.6925C44.0179 32.5587 43.0622 33.0647 41.713 33.0647H35.6977L35.1918 34.0766H40.5324C39.8578 35.0885 38.9583 35.5382 37.6091 35.5382H34.3485L33.8425 36.5502H37.2718C37.328 36.6064 37.3842 36.775 37.3842 37.1686C37.3842 37.8432 36.8221 38.3491 36.1475 38.3491C35.9226 38.3491 35.6977 38.2929 35.3604 38.1242C35.2761 38.0961 35.2058 38.068 35.1355 38.0399C35.0653 38.0118 34.995 37.9837 34.9107 37.9556L34.1236 38.6864C34.208 38.7145 34.2782 38.7426 34.3485 38.7707C34.4188 38.7989 34.489 38.827 34.5734 38.8551L34.6164 38.873C35.2649 39.1433 35.6524 39.3048 36.1475 39.3048C36.7658 39.3048 37.328 39.0237 37.7778 38.6302C38.3399 38.6864 39.2955 38.7426 40.2511 38.7988L40.2513 38.7989C40.9099 38.8647 41.5299 38.9113 42.0436 38.9499L42.0437 38.9499C42.4069 38.9772 42.7169 39.0004 42.9498 39.0237C43.2308 39.0237 43.4557 39.0237 43.7368 39.0799C43.9692 39.0799 44.2015 39.095 44.4262 39.1095C44.6363 39.123 44.8396 39.1362 45.0298 39.1362C47.1098 42.5092 48.178 42.9589 52.2256 43.4649C52.5067 43.9709 52.7878 44.533 53.0127 45.0952V52.1786C52.844 52.3472 52.2256 52.6283 52.057 52.6845L48.6277 54.09C48.178 53.4716 48.0093 52.8532 48.178 52.3472ZM16.8649 46.1072L20.1255 46.9505V45.8824L16.8649 45.0391V46.1072ZM15.7967 45.0391L12.5361 45.8824V46.9505L15.7967 46.1072V45.0391ZM15.7967 47.1754L12.5361 48.0186V49.0868L15.7967 48.2435V47.1754ZM16.8649 48.2435L20.1255 49.0868V48.0186L16.8649 47.1754V48.2435ZM16.8649 50.3798L20.1255 51.223V50.1549L16.8649 49.3116V50.3798ZM15.7967 49.3116L12.5361 50.1549V51.223L15.7967 50.3798V49.3116ZM93.8708 31.4306V41.3032V41.465H95.0037C98.7262 41.465 98.888 36.7715 98.888 36.7715H99.6973V47.777H98.888C98.4025 44.0545 97.1077 42.7598 95.0037 42.7598H93.709V53.2798H95.9748C100.83 53.2798 102.61 52.3087 103.42 45.5112H104.229V54.4127H86.7496V53.2798H89.9865V31.4306H87.0733V30.2976H104.067V38.7136H103.42C102.332 31.4127 100.201 31.4173 94.594 31.4295C94.3591 31.43 94.1181 31.4306 93.8708 31.4306ZM77.3625 41.6269H86.7496V42.5979H84.1601V54.089L81.085 51.6613C80.1139 52.9561 78.4954 54.2508 76.0678 54.2508C68.2991 54.2508 66.1951 46.3204 66.1951 41.7887C66.1951 36.7715 68.9465 29.6502 76.0678 29.6502C79.7902 29.6502 81.085 31.5924 81.085 31.5924C81.085 31.7542 83.9982 29.6502 83.9982 29.6502V38.3899H83.3508C82.5416 34.6675 80.4376 30.6213 76.2296 30.6213C70.5454 30.6213 70.5607 39.4015 70.5648 41.7839C70.5649 41.8435 70.565 41.8992 70.565 41.9506C70.565 42.0965 70.5632 42.2658 70.5613 42.4552C70.5306 45.4162 70.4491 53.2798 76.2296 53.2798C77.0388 53.2798 80.1139 52.4705 80.5994 50.5284V42.7598H77.3625V41.6269ZM190.978 53.1179C195.834 53.1179 197.614 52.1468 198.423 45.3493H199.556V54.2508H177.707V53.1179H180.458C180.297 53.1179 177.869 46.6441 177.869 46.6441H169.777C169.777 46.6441 168.158 50.5284 168.32 51.6613C168.482 53.1179 170.586 53.1179 170.91 53.1179V54.2508H165.083C160.068 54.2508 160.134 51.1097 160.198 48.085C160.254 45.448 160.308 42.8995 156.991 42.5979H152.945V53.1179H156.02V54.2508H146.147V53.1179H149.222V31.2687H146.147V30.1358H158.124C162.332 30.2976 164.921 32.0779 164.921 35.8004C164.921 40.9795 159.418 42.1124 159.418 42.1124C159.418 42.1581 159.587 42.191 159.857 42.2438C160.543 42.3777 161.888 42.6403 162.817 43.569C163.788 44.7019 163.95 47.1296 163.95 48.2625V52.4705C163.95 52.5055 163.948 52.5423 163.946 52.5801C163.93 52.8933 163.911 53.2798 164.921 53.2798C166.216 52.9561 166.702 51.1758 166.702 51.1758C166.702 51.0139 174.146 29.6502 174.146 29.6502H175.441L184.343 53.2798H186.77V31.4306H183.695V30.2976H193.73V31.4306H190.655V53.1179H190.978ZM152.945 41.465H156.829C159.904 41.465 161.037 38.8755 161.037 36.2859C161.037 35.3149 160.875 31.9161 157.962 31.4306H152.945V41.465ZM173.985 35.3149L170.424 45.673H177.707L173.985 35.3149ZM134.894 31.2677C134.659 31.2682 134.418 31.2687 134.17 31.2687H134.332V41.3032H135.465C139.188 41.3032 139.35 36.6096 139.35 36.6096H140.159V47.6152H139.35C138.864 43.8927 137.569 42.5979 135.465 42.5979H134.17V53.1179H136.436C141.292 53.1179 143.072 52.1468 143.881 45.3493H144.69V54.2508H127.211V53.1179H130.448V31.2687H127.697C126.726 31.2687 124.783 31.4306 124.622 33.2109V54.2508H124.136C124.026 54.2508 120.03 48.4971 116.059 42.7778C114.185 40.08 112.317 37.3898 110.865 35.3149V51.0139C110.865 52.7942 113.454 53.4416 114.587 53.4416V54.2508H106.009V53.4416C107.142 53.4416 109.732 52.7942 109.732 51.0139V33.2109C109.57 31.2687 107.951 31.2687 106.657 31.2687H105.686V30.1358H111.998L123.489 47.1296V33.2109C123.327 31.2687 121.223 31.2687 120.414 31.2687H119.766V30.1358H144.367V38.5518H143.719C142.787 31.2506 140.513 31.2555 134.894 31.2677ZM200.527 31.4306V30.1358H210.4V31.4306H207.163V53.1179H210.4V54.2508H200.527V53.1179H203.602V31.4306H200.527Z" fill="#C5281C"/>
</svg>
