<svg width="221" height="84" viewBox="0 0 221 84" fill="none" xmlns="http://www.w3.org/2000/svg">
<path d="M11.1404 25.446H209.854V58.5623H11.1404V25.446Z" fill="#004C8F"/>
<path d="M44.2607 25.446H209.854V58.5623H44.2607V25.446Z" fill="#004C8F"/>
<path d="M54.7915 49.8386V34.1695H59.9466V39.4577H64.7768V34.1695H69.9401V49.8386H64.7768V43.7592H59.9466V49.8386H54.7915Z" fill="white"/>
<path d="M78.0973 38.0628H79.434C80.3959 38.0628 81.0996 38.1627 81.5493 38.3626C81.8824 38.5083 82.153 38.7249 82.3904 39.0497C82.6069 39.3703 82.7818 39.7743 82.9109 40.2823C83.0275 40.7862 83.0899 41.319 83.0899 41.8812C83.0899 42.7973 82.965 43.5635 82.6943 44.1839C82.432 44.8043 82.0531 45.2499 81.5659 45.5247C81.0787 45.8037 80.3542 45.9369 79.3965 45.9369L78.0973 45.9453V38.0628ZM80.0877 49.8386C81.3035 49.8386 82.3113 49.7387 83.1358 49.518C83.9644 49.3056 84.6389 49.0224 85.1553 48.6852C85.6799 48.3396 86.1546 47.8732 86.5919 47.2945C87.0249 46.6948 87.4038 45.9412 87.6994 45.0168C88.0034 44.0965 88.1492 43.0596 88.1492 41.8854C88.1492 40.1615 87.8203 38.7041 87.154 37.4882C86.4795 36.2973 85.5634 35.4354 84.3933 34.9274C83.2274 34.4194 81.8366 34.1695 80.221 34.1695H73.0547V49.8386H80.0877Z" fill="white"/>
<path d="M90.5103 49.8386V34.1695H102.736V38.0337H95.5986V40.5446H101.307V44.3046H95.5986V49.8386H90.5103Z" fill="white"/>
<path d="M120 40.1615H115.132C115.04 39.3829 114.757 38.7667 114.287 38.3253C113.812 37.8922 113.216 37.6799 112.484 37.6799C111.572 37.6799 110.831 38.0338 110.26 38.7333C109.685 39.4412 109.398 40.5863 109.398 42.1603C109.398 43.2596 109.527 44.084 109.765 44.6461C110.01 45.2249 110.356 45.6413 110.785 45.9203C111.226 46.1993 111.763 46.3285 112.425 46.3285C113.217 46.3285 113.849 46.1285 114.312 45.6705C114.786 45.2416 115.061 44.6004 115.153 43.7426H120.108C120 44.717 119.804 45.5331 119.521 46.1994C119.25 46.8614 118.767 47.5193 118.113 48.1813C117.451 48.8517 116.66 49.3681 115.748 49.7262C114.836 50.0885 113.783 50.2593 112.575 50.2593C111.384 50.2593 110.273 50.0886 109.269 49.7388C108.253 49.3807 107.395 48.8726 106.712 48.2355C106.017 47.5734 105.476 46.8322 105.088 45.9953C104.53 44.8169 104.268 43.522 104.268 42.077C104.268 40.8695 104.464 39.7243 104.859 38.675C105.255 37.634 105.8 36.747 106.496 36.0308C107.195 35.3188 107.957 34.7859 108.807 34.4278C109.881 33.9697 111.064 33.7491 112.375 33.7491C113.516 33.7491 114.574 33.9155 115.573 34.2528C116.568 34.5901 117.385 35.0815 118.022 35.7352C118.667 36.389 119.163 37.1385 119.508 37.9921C119.758 38.5875 119.916 39.3079 120 40.1615Z" fill="white"/>
<path d="M136.51 37.6965C137.239 37.6965 137.709 37.7297 137.942 37.7964C138.242 37.8838 138.492 38.0545 138.671 38.2794C138.854 38.5126 138.95 38.7833 138.95 39.0956C138.95 39.4953 138.792 39.8242 138.488 40.0741C138.163 40.3364 137.609 40.4572 136.814 40.4572H134.873V37.6965H136.51ZM137.805 49.8386C139.025 49.8386 139.883 49.7803 140.387 49.672C140.882 49.5554 141.394 49.3723 141.915 49.1308C142.423 48.8643 142.814 48.6145 143.072 48.3396C143.472 47.9691 143.768 47.5192 143.984 46.9779C144.201 46.4324 144.309 45.8162 144.309 45.1541C144.309 44.2089 144.076 43.4302 143.601 42.7973C143.127 42.1602 142.489 41.7397 141.686 41.5106C143.047 40.6529 143.726 39.5453 143.726 38.1961C143.726 36.8012 143.126 35.7352 141.94 35.0106C141.024 34.4526 139.595 34.1695 137.659 34.1695H129.885V49.8386H137.805ZM136.976 43.2762C137.996 43.2762 138.659 43.4011 138.992 43.6634C139.3 43.9174 139.466 44.2672 139.466 44.7377C139.466 45.2124 139.3 45.5872 138.962 45.8495C138.642 46.1285 137.971 46.2451 136.976 46.2451H134.873V43.2762H136.976Z" fill="white"/>
<path d="M155.631 44.5712H152.354L153.969 38.8707L155.631 44.5712ZM150.813 49.8386L151.409 47.7817H156.539L157.138 49.8386H162.264L156.643 34.1695H151.409L145.783 49.8386H150.813Z" fill="white"/>
<path d="M164.429 49.8386V34.1695H169.23L174.648 42.56V34.1695H179.586V49.8386H174.681L169.38 41.6564V49.8386H164.429Z" fill="white"/>
<path d="M183.022 49.8386V34.1695H188.014V39.337L192.674 34.1695H198.728L192.986 40.0699L199.324 49.8386H193.153L189.384 43.5968L188.014 44.95V49.8386H183.022Z" fill="white"/>
<path d="M11.1404 25.446H44.2566V58.5623H11.1404V25.446Z" fill="#ED232A"/>
<path d="M16.9365 31.2421H38.4644V52.77H16.9365V31.2421Z" fill="white"/>
<path d="M26.0432 25.446H29.3535V58.5623H26.0432V25.446Z" fill="white"/>
<path d="M11.1404 40.353H44.2566V43.6633H11.1404V40.353Z" fill="white"/>
<path d="M22.7329 37.0385H32.6681V46.9739H22.7329V37.0385Z" fill="#004C8F"/>
</svg>
