<svg width="176" height="38" viewBox="0 0 176 38" fill="none" xmlns="http://www.w3.org/2000/svg">
<g clip-path="url(#clip0_2916_984)">
<path d="M73.1936 7.59904V30.399H69.2837V12.5074H69.2315L62.2458 30.399H59.6391L52.4969 12.5074H52.4448V30.399H48.8477V7.59904H54.478L60.9424 24.4879H61.0467L67.8761 7.59904H73.1936ZM76.4259 9.34071C76.4259 8.70738 76.6344 8.1796 77.1036 7.75738C77.5728 7.33516 78.0941 7.12405 78.7197 7.12405C79.3974 7.12405 79.9709 7.33516 80.3879 7.75738C80.805 8.1796 81.0657 8.70738 81.0657 9.34071C81.0657 9.97405 80.8571 10.5018 80.3879 10.924C79.9187 11.3463 79.3974 11.5574 78.7197 11.5574C78.042 11.5574 77.5206 11.3463 77.1036 10.924C76.6865 10.449 76.4259 9.92127 76.4259 9.34071ZM80.6486 14.0379V30.399H76.8429V14.0379H80.6486ZM92.1699 27.6018C92.7434 27.6018 93.369 27.4963 94.0467 27.1796C94.7244 26.9157 95.35 26.5463 95.9235 26.124V29.7129C95.2979 30.0824 94.6202 30.3463 93.8382 30.5046C93.0562 30.6629 92.2221 30.7685 91.2837 30.7685C88.8856 30.7685 86.9567 30.0296 85.4969 28.499C83.9851 26.9685 83.2552 25.0157 83.2552 22.6935C83.2552 20.0546 84.0372 17.8907 85.5491 16.2018C87.0609 14.5129 89.1984 13.6685 92.0135 13.6685C92.7434 13.6685 93.4732 13.774 94.151 13.9324C94.8808 14.0907 95.4543 14.3546 95.8713 14.5657V18.2602C95.2979 17.8379 94.6723 17.4685 94.0988 17.2574C93.4732 17.0463 92.8476 16.8879 92.2221 16.8879C90.7102 16.8879 89.5112 17.3629 88.5728 18.3657C87.6344 19.3685 87.2173 20.6879 87.2173 22.3768C87.2173 24.0129 87.6865 25.3324 88.5728 26.2296C89.459 27.1268 90.6581 27.6018 92.1699 27.6018ZM106.715 13.774C107.028 13.774 107.288 13.774 107.549 13.8268C107.81 13.8796 108.018 13.9324 108.175 13.9852V17.8907C107.966 17.7324 107.705 17.574 107.288 17.4685C106.871 17.3629 106.454 17.2574 105.881 17.2574C104.942 17.2574 104.16 17.6796 103.535 18.4713C102.909 19.2629 102.544 20.4768 102.544 22.1657V30.399H98.7386V14.0379H102.544V16.624H102.596C102.961 15.7268 103.483 15.0407 104.16 14.5129C104.89 14.0379 105.724 13.774 106.715 13.774ZM108.383 22.4824C108.383 19.7907 109.165 17.6268 110.625 16.0435C112.137 14.4602 114.222 13.6685 116.881 13.6685C119.383 13.6685 121.364 14.4074 122.772 15.9379C124.179 17.4685 124.909 19.5268 124.909 22.1129C124.909 24.7518 124.127 26.8629 122.668 28.4463C121.156 30.0296 119.123 30.8213 116.516 30.8213C114.014 30.8213 112.032 30.0824 110.573 28.6046C109.113 27.074 108.383 25.0157 108.383 22.4824ZM112.345 22.324C112.345 24.0129 112.71 25.3324 113.492 26.2296C114.274 27.1268 115.369 27.6018 116.777 27.6018C118.132 27.6018 119.227 27.1796 119.957 26.2296C120.687 25.3324 121.051 24.0129 121.051 22.2185C121.051 20.4768 120.687 19.1574 119.957 18.2074C119.227 17.3102 118.132 16.8352 116.829 16.8352C115.421 16.8352 114.378 17.3102 113.596 18.2602C112.71 19.2629 112.345 20.5824 112.345 22.324ZM130.592 18.3657C130.592 18.8935 130.748 19.3685 131.113 19.6852C131.478 20.0018 132.208 20.3713 133.407 20.8463C134.919 21.4796 136.014 22.1657 136.587 22.9046C137.213 23.6963 137.525 24.5935 137.525 25.7018C137.525 27.2324 136.952 28.4463 135.753 29.3963C134.606 30.3463 132.99 30.7685 131.009 30.7685C130.331 30.7685 129.601 30.6629 128.767 30.5046C127.933 30.3463 127.255 30.1352 126.682 29.8713V26.0713C127.359 26.5463 128.141 26.9685 128.923 27.2324C129.705 27.4963 130.435 27.6546 131.113 27.6546C131.947 27.6546 132.625 27.549 132.99 27.2852C133.407 27.0213 133.615 26.6518 133.615 26.0713C133.615 25.5435 133.407 25.1213 132.99 24.699C132.573 24.3296 131.739 23.9074 130.592 23.4324C129.184 22.8518 128.194 22.1657 127.62 21.4268C127.047 20.6879 126.734 19.7379 126.734 18.5768C126.734 17.099 127.307 15.8852 128.454 14.9352C129.601 13.9852 131.113 13.5102 132.938 13.5102C133.511 13.5102 134.137 13.5629 134.814 13.7213C135.492 13.8796 136.118 14.0379 136.587 14.1963V17.9435C136.066 17.6268 135.492 17.3102 134.814 17.0463C134.137 16.7824 133.459 16.6768 132.833 16.6768C132.104 16.6768 131.53 16.8352 131.165 17.099C130.8 17.4685 130.592 17.8379 130.592 18.3657ZM139.141 22.4824C139.141 19.7907 139.923 17.6268 141.383 16.0435C142.895 14.4602 144.98 13.6685 147.639 13.6685C150.141 13.6685 152.123 14.4074 153.53 15.9379C154.938 17.4685 155.668 19.5268 155.668 22.1129C155.668 24.7518 154.886 26.8629 153.426 28.4463C151.914 30.0296 149.881 30.8213 147.274 30.8213C144.772 30.8213 142.791 30.0824 141.331 28.6046C139.923 27.074 139.141 25.0157 139.141 22.4824ZM143.104 22.324C143.104 24.0129 143.469 25.3324 144.25 26.2296C145.032 27.1268 146.127 27.6018 147.535 27.6018C148.89 27.6018 149.985 27.1796 150.715 26.2296C151.445 25.3324 151.81 24.0129 151.81 22.2185C151.81 20.4768 151.445 19.1574 150.715 18.2074C149.985 17.3102 148.89 16.8352 147.587 16.8352C146.179 16.8352 145.137 17.3102 144.355 18.2602C143.521 19.2629 143.104 20.5824 143.104 22.324ZM168.336 17.2046H162.653V30.399H158.796V17.2046H156.085V14.0379H158.796V11.7685C158.796 10.0796 159.369 8.6546 160.464 7.54627C161.559 6.43793 162.966 5.91016 164.687 5.91016C165.156 5.91016 165.573 5.96293 165.938 5.96293C166.303 5.96293 166.615 6.06849 166.876 6.17405V9.49904C166.772 9.44627 166.511 9.34071 166.198 9.23516C165.886 9.1296 165.521 9.07682 165.104 9.07682C164.322 9.07682 163.696 9.34071 163.279 9.81571C162.862 10.2907 162.653 11.0824 162.653 12.0324V13.9852H168.336V10.2907L172.141 9.1296V13.9852H175.999V17.1518H172.141V24.8046C172.141 25.8074 172.35 26.4935 172.663 26.9157C173.028 27.3379 173.601 27.549 174.383 27.549C174.592 27.549 174.852 27.4963 175.165 27.3907C175.478 27.2852 175.739 27.1796 175.947 27.0213V30.1879C175.687 30.3463 175.322 30.4518 174.748 30.5574C174.175 30.6629 173.653 30.7157 173.08 30.7157C171.464 30.7157 170.265 30.2935 169.483 29.449C168.701 28.6046 168.284 27.2852 168.284 25.5435L168.336 17.2046Z" fill="#868383"/>
<path d="M17.8294 0H0V18.05H17.8294V0Z" fill="#F25022"/>
<path d="M37.5364 0H19.707V18.05H37.5364V0Z" fill="#7FBA00"/>
<path d="M17.8294 19.9492H0V37.9992H17.8294V19.9492Z" fill="#00A4EF"/>
<path d="M37.5364 19.9492H19.707V37.9992H37.5364V19.9492Z" fill="#FFB900"/>
</g>
<defs>
<clipPath id="clip0_2916_984">
<rect width="176" height="38" fill="white"/>
</clipPath>
</defs>
</svg>
