<svg width="465" height="233" viewBox="0 0 465 233" fill="none" xmlns="http://www.w3.org/2000/svg">
<path d="M166 105.5H393C432.765 105.5 465 137.735 465 177.5V228.5H166V105.5Z" fill="#3A405A"/>
<circle cx="166.5" cy="137" r="92.5" fill="#307388"/>
<path d="M298.5 186V185H298.095L297.804 185.282L298.5 186ZM335.5 186V187H336.099L336.382 186.472L335.5 186ZM370.957 121.21C370.797 120.681 370.239 120.383 369.71 120.543L361.097 123.153C360.568 123.313 360.27 123.872 360.43 124.4C360.59 124.929 361.148 125.227 361.677 125.067L369.333 122.747L371.653 130.403C371.813 130.932 372.372 131.23 372.9 131.07C373.429 130.91 373.727 130.352 373.567 129.823L370.957 121.21ZM252.196 232.218L299.196 186.718L297.804 185.282L250.804 230.782L252.196 232.218ZM298.5 187H335.5V185H298.5V187ZM336.382 186.472L370.882 121.972L369.118 121.028L334.618 185.528L336.382 186.472Z" fill="#FAFAFA"/>
<mask id="mask0_2976_4327" style="mask-type:alpha" maskUnits="userSpaceOnUse" x="0" y="0" width="259" height="230">
<path d="M259 137C259 188.086 217.586 229.5 166.5 229.5C115.414 229.5 0 170.586 0 119.5C0 68.4137 73.4137 0 124.5 0C175.586 0 259 85.9137 259 137Z" fill="#FF5A5F"/>
</mask>
<g mask="url(#mask0_2976_4327)">
<path d="M190.706 184.827H77.7068C75.3884 184.827 73.5078 182.947 73.5078 180.628H193.519V182.013C193.519 183.566 192.26 184.826 190.706 184.826V184.827Z" fill="#2C233D"/>
<path d="M78.6647 181.678L73.6881 181.847L51 75.6422L55.2649 74.7245L78.6647 181.678Z" fill="#2C233D"/>
<path d="M55.2656 74.7245L76.8105 91.917L95.5509 173.63L78.653 181.623L55.2656 74.7245Z" fill="#61616C"/>
<path d="M56.9258 77.4365L76.5571 92.5145L94.6579 172.111L78.6622 177.169L56.9258 77.4365Z" fill="#2C233D"/>
<path d="M193.522 180.628L178.464 173.63H95.5529L78.2461 181.681L193.522 180.628Z" fill="white"/>
<path d="M78.2485 181.738C78.2217 181.738 78.1981 181.72 78.1929 181.694C78.1867 181.667 78.2001 181.641 78.2248 181.629L95.5316 173.578C95.5388 173.575 95.547 173.573 95.5553 173.573H178.467C178.475 173.573 178.483 173.575 178.491 173.578L193.548 180.577C193.573 180.588 193.586 180.615 193.58 180.64C193.575 180.667 193.551 180.686 193.524 180.686L78.2485 181.738V181.738ZM95.5676 173.688L78.5132 181.621L193.27 180.573L178.455 173.686H95.5676V173.688Z" fill="#31313B"/>
<path d="M94.6602 179.381H149.454L144.897 174.101H102.543L94.6602 179.381Z" fill="#31313B"/>
<path d="M157.086 174.591H171.414C171.649 174.591 171.88 174.638 172.096 174.73L180.498 178.307C180.803 178.436 180.71 178.892 180.378 178.892H161.478C160.817 178.892 160.187 178.616 159.738 178.131L156.886 175.048C156.724 174.874 156.848 174.591 157.086 174.591V174.591Z" fill="white"/>
<path d="M180.381 178.948H161.481C160.806 178.948 160.156 178.664 159.698 178.169L156.846 175.086C156.756 174.988 156.733 174.852 156.786 174.73C156.84 174.608 156.955 174.532 157.089 174.532H171.417C171.66 174.532 171.898 174.581 172.122 174.676L180.524 178.253C180.711 178.334 180.766 178.515 180.737 178.659C180.707 178.803 180.587 178.948 180.383 178.948H180.381ZM157.088 174.648C156.984 174.648 156.918 174.714 156.891 174.776C156.865 174.839 156.861 174.933 156.931 175.009L159.782 178.092C160.219 178.563 160.838 178.834 161.481 178.834H180.381C180.53 178.834 180.604 178.728 180.623 178.636C180.641 178.545 180.615 178.418 180.478 178.359L172.076 174.782C171.865 174.693 171.644 174.648 171.415 174.648H157.087H157.088Z" fill="#31313B"/>
<path d="M109.441 173.84L103.93 179.781L104.098 179.937L109.61 173.996L109.441 173.84Z" fill="#EAEEF1"/>
<path d="M115.945 173.982L113.648 179.81L113.862 179.894L116.159 174.066L115.945 173.982Z" fill="#EAEEF1"/>
<path d="M123.108 173.893L122.879 173.911L123.338 179.855L123.567 179.837L123.108 173.893Z" fill="#EAEEF1"/>
<path d="M130.565 173.859L130.359 173.962L133.341 179.905L133.546 179.802L130.565 173.859Z" fill="#EAEEF1"/>
<path d="M137.884 173.896L137.695 174.027L141.809 179.915L141.997 179.784L137.884 173.896Z" fill="#EAEEF1"/>
<path d="M145.331 165.529C144.977 165.529 144.623 165.455 144.272 165.306C144.015 165.197 143.535 164.994 145.986 152.446C147.185 146.311 148.52 140.147 148.533 140.085L148.599 139.779L154.879 145.979L154.861 146.07C154.853 146.111 154.023 150.238 152.614 154.625C150.711 160.545 148.709 164.095 146.665 165.176C146.221 165.411 145.775 165.528 145.33 165.528L145.331 165.529ZM144.433 165C145.125 165.285 145.804 165.243 146.504 164.872C151.024 162.481 154.233 147.411 154.504 146.094L148.803 140.464C148.524 141.76 147.412 146.956 146.384 152.204C144.28 162.929 144.307 164.738 144.433 165Z" fill="#31313C"/>
<path d="M137.372 175.546C136.189 175.382 137.348 165.337 138.61 156.453C139.621 149.329 146.701 144.748 153.613 146.745L157.83 147.964C157.83 147.964 149.087 150.171 146.623 159.74C144.281 168.835 142.165 176.209 137.373 175.546H137.372Z" fill="white"/>
<path d="M126.573 165.718C126.481 165.718 126.392 165.716 126.302 165.713C124.525 165.645 123.08 164.885 122.005 163.454C121.861 163.263 121.949 162.948 122.83 161.977C123.414 161.334 124.312 160.444 125.5 159.331C127.496 157.463 130.339 154.938 133.95 151.828C140.097 146.535 146.426 141.307 146.488 141.255L146.729 141.055L147.967 150.878L147.916 150.937C147.883 150.975 144.557 154.747 140.263 158.431C134.625 163.268 130.021 165.718 126.573 165.718V165.718ZM122.297 163.268C123.304 164.598 124.656 165.305 126.315 165.369C126.398 165.372 126.482 165.374 126.566 165.374C130.752 165.374 136.184 161.477 140.038 158.17C144.025 154.749 147.171 151.255 147.606 150.767L146.466 141.72C145.271 142.71 139.837 147.217 134.468 151.837C123.65 161.142 122.334 162.936 122.297 163.269V163.268Z" fill="#31313C"/>
<path d="M138.013 175.782C137.807 175.782 137.598 175.768 137.384 175.738C137.272 175.722 137.175 175.66 137.094 175.553C136.35 174.568 136.815 168.14 138.475 156.45C138.964 153.005 140.92 149.945 143.842 148.056C146.763 146.166 150.355 145.635 153.697 146.601L158.523 147.996L157.907 148.151C157.886 148.156 155.714 148.72 153.274 150.433C151.026 152.01 148.084 154.917 146.825 159.803C145.635 164.425 144.533 168.489 143.106 171.399C141.649 174.371 140.018 175.782 138.013 175.782V175.782ZM137.431 175.397C141.933 176.018 144.026 169.291 146.492 159.717C147.778 154.723 150.788 151.754 153.087 150.142C154.853 148.904 156.45 148.265 157.262 147.989L153.601 146.931C150.355 145.993 146.866 146.508 144.028 148.343C141.191 150.178 139.29 153.151 138.816 156.498C136.657 171.704 136.982 174.833 137.369 175.345C137.382 175.363 137.408 175.393 137.43 175.396L137.431 175.397Z" fill="#31313C"/>
<path d="M133.95 153.101C138.128 147.102 145.397 141.902 156.785 133.257C163.425 128.216 182.008 132.426 203.605 132.234C216.463 132.121 247.217 133.151 248.263 130.768L232.039 143.293C226.065 153.981 218.39 164.018 210.737 163.755C210.592 163.75 186.525 157.896 186.646 157.815C191.152 154.829 185.803 151.415 161.885 148.56C159.105 148.229 154.687 151.372 149.304 153.466C145.774 154.839 146.011 157.951 141.206 160.654C138.526 162.162 134.95 175.937 126.357 172.7C124.948 172.169 131.64 156.415 133.948 153.101H133.95Z" fill="white"/>
<path d="M128.911 173.368C128.067 173.368 127.199 173.199 126.303 172.861C126.219 172.829 126.106 172.751 126.047 172.558C125.435 170.589 131.554 156.249 133.813 153.004C137.61 147.552 143.95 142.757 153.547 135.499C154.557 134.735 155.603 133.944 156.687 133.121C161.039 129.817 170.428 130.438 182.314 131.225C188.734 131.649 196.01 132.131 203.61 132.064C216.229 131.953 253.723 132.983 257.094 134.042L257.207 134.078L257.214 134.196L258.905 163.248L258.688 163.206C238.298 159.261 228.702 158.493 222.005 158.262C221.963 158.262 220.764 158.254 218.951 158.244C214.63 158.219 206.587 158.172 199.589 158.123C195.695 158.096 192.636 158.072 190.499 158.051C189.274 158.039 188.33 158.028 187.691 158.018C186.916 158.007 186.514 157.956 186.487 157.867L186.451 157.744L186.558 157.673C187.607 156.978 188.06 156.294 187.905 155.639C187.711 154.823 186.448 153.559 181.533 152.166C177.132 150.92 170.517 149.764 161.871 148.731C160.152 148.526 157.692 149.737 154.842 151.138C153.199 151.947 151.336 152.862 149.373 153.627C147.698 154.279 146.888 155.34 145.951 156.569C144.938 157.897 143.792 159.401 141.299 160.804C140.552 161.224 139.677 162.746 138.662 164.507C137.419 166.667 135.871 169.356 133.887 171.183C132.302 172.643 130.658 173.368 128.912 173.368H128.911ZM133.954 153.101L134.095 153.2C133.066 154.679 131.007 158.942 129.199 163.338C127.212 168.171 126.13 171.665 126.375 172.456C126.392 172.51 126.412 172.535 126.425 172.539C127.303 172.87 128.129 173.02 128.905 173.02C133.364 173.02 136.203 168.088 138.362 164.336C139.445 162.456 140.299 160.972 141.129 160.504C143.56 159.137 144.684 157.662 145.676 156.361C146.645 155.09 147.481 153.993 149.248 153.306C151.197 152.548 153.053 151.636 154.69 150.83C157.588 149.405 160.09 148.173 161.912 148.39C178.728 150.399 187.585 152.811 188.238 155.56C188.406 156.267 188.044 156.975 187.16 157.664C190.63 157.734 211.677 157.856 218.951 157.899C221.11 157.911 221.988 157.916 222.015 157.917C228.702 158.148 238.268 158.912 258.533 162.825L256.874 134.337C252.878 133.298 216.086 132.297 203.61 132.408C195.996 132.475 188.714 131.993 182.289 131.569C170.474 130.787 161.141 130.169 156.892 133.396C155.808 134.219 154.761 135.01 153.751 135.774C144.181 143.012 137.859 147.794 134.093 153.201L133.952 153.102L133.954 153.101Z" fill="#31313C"/>
<path d="M190.41 150.353C188.803 157.148 172.391 165.102 167.636 168.22C161.531 172.225 164.542 176.856 173.557 175.465C180.61 174.376 191.443 168.973 205.632 167.786C217.442 166.797 223.078 156.596 223.078 156.596L190.411 150.353H190.41Z" fill="white"/>
<path d="M170.51 175.77C167.335 175.77 165.063 174.856 164.432 173.217C163.815 171.608 164.976 169.643 167.541 167.961C168.487 167.341 169.963 166.474 171.673 165.472C178.549 161.439 190.057 154.688 190.237 150.347C190.241 150.255 190.317 150.183 190.409 150.183C190.411 150.183 190.414 150.183 190.416 150.183C190.511 150.187 190.585 150.267 190.581 150.362C190.498 152.37 188.26 154.951 183.739 158.252C179.967 161.007 175.274 163.759 171.847 165.769C170.141 166.769 168.668 167.635 167.729 168.249C165.31 169.837 164.198 171.647 164.754 173.094C165.096 173.983 166.065 174.686 167.482 175.075C169.069 175.509 171.161 175.545 173.53 175.18C176.131 174.778 179.261 173.783 182.886 172.631C189.027 170.678 196.67 168.248 205.617 167.5C211.664 166.994 216.045 164.005 218.657 161.588C221.492 158.963 222.912 156.424 222.927 156.398C222.973 156.315 223.077 156.285 223.161 156.331C223.244 156.378 223.274 156.482 223.229 156.565C223.214 156.591 221.773 159.171 218.901 161.833C216.249 164.291 211.796 167.33 205.647 167.844C196.738 168.589 189.116 171.013 182.991 172.96C179.353 174.117 176.211 175.116 173.583 175.522C172.492 175.691 171.461 175.772 170.511 175.772L170.51 175.77Z" fill="#31313C"/>
<path d="M260.434 127.303L223.756 131.697C223.756 131.697 219.863 159.518 231.854 165.358L262.001 168.955L260.434 127.303Z" fill="#FF8B7C"/>
<path d="M90.6796 183.858H85.1695C84.7905 183.858 84.4805 183.548 84.4805 183.169C84.4805 182.79 84.7905 182.48 85.1695 182.48H90.6796C91.0586 182.48 91.3686 182.79 91.3686 183.169C91.3686 183.548 91.0586 183.858 90.6796 183.858Z" fill="#61616C"/>
<path d="M99.0233 183.858H93.5132C93.1342 183.858 92.8242 183.548 92.8242 183.169C92.8242 182.79 93.1342 182.48 93.5132 182.48H99.0233C99.4023 182.48 99.7123 182.79 99.7123 183.169C99.7123 183.548 99.4023 183.858 99.0233 183.858Z" fill="#61616C"/>
</g>
</svg>
