<svg width="334" height="269" viewBox="0 0 334 269" fill="none" xmlns="http://www.w3.org/2000/svg">
<circle cx="122.5" cy="146.5" r="122.5" fill="#FFC75A"/>
<mask id="mask0_2976_4365" style="mask-type:alpha" maskUnits="userSpaceOnUse" x="0" y="24" width="313" height="245">
<path d="M312.5 117.5C312.5 185.155 190.155 269 122.5 269C54.8451 269 0 214.155 0 146.5C0 78.8451 54.8451 24 122.5 24C190.155 24 312.5 49.8451 312.5 117.5Z" fill="#FFC75A"/>
</mask>
<g mask="url(#mask0_2976_4365)">
<path d="M249.779 148.902C249.779 148.902 241.103 147.928 235.165 146.601L245.596 131.366L249.78 148.9L249.779 148.902Z" fill="white"/>
<path d="M249.78 148.903C253.158 149.307 260.474 145.884 259.917 136.62C259.719 133.325 251.807 122.68 243.471 134.95C236.688 144.937 245.089 148.343 249.78 148.903V148.903Z" fill="white"/>
<path d="M244.716 147.646C243.19 146.839 241.888 145.703 241.199 144.189C240.048 141.661 240.737 138.503 243.252 134.802C247.246 128.924 251.007 128.495 253.46 129.169C257.352 130.24 260.06 134.653 260.176 136.606C260.483 141.701 258.445 144.753 256.682 146.414C254.355 148.608 251.522 149.376 249.748 149.164C248.116 148.969 246.297 148.483 244.718 147.647L244.716 147.646ZM254.771 130.255C254.311 130.012 253.826 129.814 253.32 129.675C250.04 128.773 246.709 130.649 243.687 135.098C241.283 138.638 240.607 141.623 241.678 143.972C242.54 145.863 245.127 148.084 249.811 148.644C251.411 148.836 254.131 148.1 256.323 146.032C258.006 144.448 259.95 141.529 259.655 136.638C259.561 135.067 257.652 131.78 254.773 130.256L254.771 130.255Z" fill="#31313B"/>
<path d="M240.741 167.341C244.111 166.864 251.908 160.625 248.994 151.812C247.959 148.677 239.605 142.408 232.516 152.178C225.427 161.951 236.062 168 240.74 167.34L240.741 167.341Z" fill="white"/>
<path d="M235.26 166.346C233.577 165.455 232.011 164.138 231.018 162.486C229.715 160.32 228.88 156.748 232.308 152.025C235.988 146.952 239.828 146.365 242.402 146.766C245.983 147.322 248.678 150.006 249.249 151.731C250.729 156.207 249.412 159.764 248.05 161.958C246.505 164.445 243.364 167.237 240.782 167.602C239.233 167.82 237.172 167.358 235.262 166.347L235.26 166.346ZM245.179 148.297C244.177 147.766 243.143 147.411 242.322 147.283C239.893 146.904 236.259 147.474 232.734 152.333C229.477 156.823 230.249 160.186 231.47 162.216C233.589 165.737 238.28 167.423 240.71 167.08C242.618 166.812 245.718 164.717 247.606 161.68C248.909 159.58 250.167 156.179 248.752 151.893C248.257 150.395 246.756 149.129 245.182 148.296L245.179 148.297Z" fill="#31313B"/>
<path d="M229.732 182.096C229.732 182.096 221.056 181.122 215.118 179.796L225.549 164.56L229.733 182.094L229.732 182.096Z" fill="white"/>
<path d="M219.464 110.034C219.464 110.034 265.719 103.255 271.952 109.896C274.122 112.208 273.981 117.24 264.825 120.602C250.005 126.043 223.94 133.042 223.94 133.042L219.466 110.035L219.464 110.034Z" fill="white"/>
<path d="M223.817 133.274C223.817 133.274 223.806 133.268 223.801 133.266C223.74 133.226 223.696 133.163 223.682 133.093L219.208 110.086C219.194 110.015 219.209 109.942 219.251 109.885C219.293 109.827 219.357 109.786 219.428 109.777C219.544 109.761 231.142 108.07 243.353 107.215C259.816 106.062 269.503 106.903 272.144 109.719C273.205 110.849 273.603 112.385 273.237 113.93C272.78 115.861 270.964 118.63 264.917 120.85C250.256 126.232 224.268 133.226 224.009 133.296C223.944 133.313 223.875 133.305 223.817 133.274V133.274ZM219.777 110.256L224.145 132.716C226.965 131.954 250.905 125.435 264.738 120.358C269.286 118.689 272.123 116.362 272.729 113.808C273.053 112.435 272.702 111.076 271.765 110.077C265.94 103.874 223.599 109.715 219.779 110.257L219.777 110.256Z" fill="#31313B"/>
<path d="M123.821 210.147C123.821 210.147 132.95 228.844 128.487 232.865C124.025 236.886 115.329 215.391 115.329 215.391L123.82 210.148L123.821 210.147Z" fill="#31313C"/>
<path d="M128.753 137.516C128.753 137.516 118.417 146.04 103.076 159.306C87.7355 172.572 75.0468 181.674 75.0468 181.674L119.215 233.848L174.54 178.187L128.755 137.517L128.753 137.516Z" fill="white"/>
<path d="M118.991 234.268C118.938 234.24 118.891 234.201 118.85 234.154L74.6809 181.983C74.5945 181.881 74.5551 181.748 74.572 181.614C74.588 181.482 74.6592 181.361 74.7682 181.283C74.896 181.192 87.6182 172.04 102.765 158.942C117.928 145.832 129.959 135.084 130.078 134.977C130.176 134.889 130.307 134.846 130.437 134.856C130.567 134.866 130.689 134.931 130.771 135.033L168.495 182.214C168.644 182.4 168.632 182.669 168.468 182.842L119.561 234.171C119.468 234.268 119.336 234.323 119.2 234.319C119.126 234.317 119.055 234.298 118.991 234.264L118.991 234.268ZM75.7441 181.758L119.233 233.13L167.484 182.49L130.335 136.029C128.18 137.95 117.054 147.849 103.386 159.668C89.7477 171.46 78.0684 180.064 75.7413 181.759L75.7441 181.758Z" fill="#31313C"/>
<path d="M130.864 147.174C130.864 147.174 118.719 157.214 117.07 151.807C111.408 133.244 124.239 116.149 133.629 109.764C144.797 102.171 162.078 79.5551 165.527 86.2908C167.622 90.3791 160.438 99.4757 155.059 107.599C151.577 112.859 149.263 117.989 149.309 120.147C149.401 124.641 150.873 129.468 149.624 132.663C144.902 144.743 130.864 147.177 130.864 147.177L130.864 147.174Z" fill="white"/>
<path d="M116.847 152.229C116.739 152.172 116.654 152.073 116.614 151.949C113.084 140.585 116.822 130.403 120.578 123.863C124.998 116.164 131.39 110.146 135.762 107.595C139.181 105.599 143.917 100.921 148.497 96.3947C156.144 88.84 161.375 83.9332 164.299 84.5552C165.069 84.7199 165.634 85.2431 165.974 86.1149C168.018 91.3331 163.511 97.2288 158.741 103.469C153.888 109.816 148.869 116.382 150.302 122.675C151.511 127.985 150.807 132.725 148.208 136.765C142.849 145.098 131.444 147.541 130.961 147.641C130.701 147.695 130.45 147.529 130.396 147.269C130.342 147.009 130.508 146.756 130.767 146.704C130.882 146.681 142.269 144.237 147.406 136.245C149.857 132.431 150.517 127.938 149.368 122.889C147.835 116.158 152.992 109.412 157.98 102.888C162.583 96.8682 166.93 91.1804 165.083 86.4639C164.791 85.7179 164.382 85.5505 164.1 85.4922C161.459 84.9312 154.93 91.3854 149.169 97.0774C144.548 101.645 139.767 106.368 136.245 108.423C131.982 110.909 125.741 116.796 121.407 124.341C117.745 130.716 114.101 140.632 117.528 151.666C117.607 151.918 117.465 152.187 117.211 152.265C117.086 152.303 116.954 152.288 116.846 152.23L116.847 152.229Z" fill="#31313C"/>
<path d="M128.487 232.867L109.117 255.169C84.672 280.643 73.0611 261.723 53.672 246.643C48.5715 242.674 22.1738 224.449 14.6735 220.643L90.9054 168.672C90.9054 168.672 90.9463 168.904 91.046 169.347C91.7213 172.39 95.0697 185.441 105.841 202.191C109.161 207.356 112.662 212.338 115.89 216.732C119.277 221.341 122.366 225.303 124.637 228.148C124.673 228.191 124.707 228.237 124.743 228.279C127.05 231.166 128.486 232.866 128.486 232.866L128.487 232.867Z" fill="#505ECE"/>
<path d="M111.438 177.681L171.757 221.056C175.017 223.401 179.717 222.415 182.253 218.856L266.484 100.667C269.02 97.1082 268.433 92.3219 265.173 89.9771L204.854 46.6024C201.593 44.2575 196.893 45.243 194.357 48.802L110.128 166.992C107.592 170.551 108.179 175.337 111.44 177.682L111.438 177.681Z" fill="#2C233D"/>
<path d="M114.715 179.881L175.83 223.827C178.87 226.013 183.254 225.096 185.621 221.777L270.322 102.925C272.688 99.6062 272.139 95.1414 269.099 92.955L207.984 49.0075C204.944 46.8211 200.56 47.7381 198.194 51.0571L113.493 169.909C111.126 173.228 111.675 177.693 114.716 179.879L114.715 179.881Z" fill="white"/>
<path d="M162.075 101.742L162.062 101.757L161.994 101.854L161.954 101.912L161.772 102.168C161.782 102.171 161.792 102.174 161.805 102.177C161.819 102.177 161.835 102.181 161.85 102.184C161.855 102.184 161.858 102.186 161.861 102.185C161.961 102.2 162.056 102.218 162.153 102.235L163.553 100.264L162.077 101.741L162.075 101.742ZM162.075 101.742L162.062 101.757L161.994 101.854L161.954 101.912L161.772 102.168C161.782 102.171 161.793 102.173 161.805 102.177C161.819 102.177 161.835 102.181 161.85 102.184C161.855 102.184 161.858 102.186 161.861 102.185C161.961 102.2 162.056 102.218 162.153 102.235L163.553 100.264L162.077 101.741L162.075 101.742ZM238.315 147.235L238.138 147.48C238.138 147.48 238.162 147.472 238.176 147.467C238.216 147.454 238.251 147.44 238.291 147.426C238.329 147.411 238.367 147.398 238.407 147.384C238.436 147.374 238.47 147.361 238.501 147.352C238.541 147.338 238.578 147.325 238.619 147.314C238.628 147.31 238.64 147.306 238.652 147.301L238.666 147.297C238.55 147.277 238.433 147.255 238.316 147.233L238.315 147.235ZM230.224 159.486C230.22 159.462 230.217 159.436 230.213 159.412C230.205 159.366 230.2 159.323 230.196 159.277C230.195 159.262 230.194 159.25 230.193 159.234C230.18 159.117 230.17 158.999 230.165 158.882C230.16 158.816 230.158 158.748 230.156 158.681L225.654 165.002L225.727 165.302C225.763 165.265 225.801 165.229 225.836 165.194C225.87 165.156 225.908 165.122 225.943 165.087C226.02 165.013 226.097 164.937 226.175 164.866C226.179 164.863 226.18 164.862 226.183 164.859C226.183 164.859 226.185 164.858 226.187 164.856C226.275 164.774 226.364 164.695 226.452 164.616C226.528 164.548 226.602 164.482 226.679 164.42C226.741 164.371 226.801 164.319 226.864 164.27C226.899 164.24 226.938 164.211 226.973 164.183C227.061 164.115 227.146 164.05 227.234 163.987L230.261 159.737C230.247 159.652 230.234 159.568 230.224 159.486V159.486ZM238.315 147.235L238.138 147.48C238.138 147.48 238.162 147.472 238.176 147.467C238.214 147.453 238.251 147.44 238.291 147.426C238.329 147.411 238.367 147.398 238.407 147.384C238.436 147.374 238.47 147.361 238.501 147.352C238.541 147.338 238.578 147.325 238.619 147.314C238.628 147.31 238.64 147.306 238.652 147.301L238.666 147.297C238.55 147.277 238.433 147.255 238.316 147.233L238.315 147.235ZM230.213 159.412C230.205 159.366 230.2 159.323 230.196 159.277C230.195 159.262 230.194 159.25 230.193 159.234C230.18 159.117 230.17 158.999 230.165 158.882C230.16 158.816 230.158 158.748 230.156 158.681L225.654 165.002L225.727 165.302C225.761 165.264 225.799 165.228 225.836 165.194C225.87 165.156 225.908 165.122 225.943 165.087C226.021 165.011 226.097 164.937 226.175 164.866C226.179 164.863 226.18 164.862 226.183 164.859C226.183 164.859 226.185 164.858 226.187 164.856C226.275 164.774 226.364 164.695 226.452 164.616C226.528 164.548 226.602 164.482 226.679 164.42C226.743 164.367 226.802 164.317 226.864 164.27C226.899 164.24 226.937 164.213 226.973 164.183C227.061 164.115 227.146 164.05 227.234 163.987L230.261 159.737C230.247 159.652 230.234 159.568 230.224 159.486C230.22 159.462 230.217 159.436 230.213 159.412V159.412ZM269.319 92.6437L208.204 48.698C207.699 48.3324 207.154 48.0509 206.588 47.8475L206.579 47.8427C203.589 46.7793 199.997 47.928 197.91 50.8552L177.375 79.6719L177.039 80.1391L168.212 92.5261L164.52 97.705L164.51 97.7233L161.384 102.106L160.574 103.24L160.56 103.257L152.998 113.871L149.758 118.417L149.494 118.787L148.425 120.287L134.26 140.163L133.284 141.535L127.451 149.72L123.738 154.93L123.252 155.615L113.21 169.705C112.914 170.124 112.659 170.557 112.453 171.004C111.948 172.069 111.69 173.199 111.671 174.308C111.639 175.995 112.151 177.633 113.173 178.925L113.175 178.926C113.175 178.926 113.178 178.929 113.18 178.93L113.183 178.932C113.555 179.405 113.99 179.824 114.496 180.188L147.637 204.016L148.353 204.531L173.384 222.53L175.614 224.133C178.804 226.429 183.423 225.461 185.909 221.974L188.712 218.042L190.609 215.381L192.408 212.856L192.626 212.55L193.02 211.999L196.505 207.111L208.201 190.698L211.791 185.659L215.857 179.954L221.303 172.314L222.158 171.114L225.876 165.9L227.239 163.985L230.267 159.735L239.081 147.369L239.244 147.14L241.442 144.056L246.83 136.494L252.034 129.196L256.004 123.624L267.251 107.844L270.614 103.124C273.098 99.6402 272.521 94.9364 269.328 92.6412L269.319 92.6437ZM270.038 102.719L266.489 107.698L254.882 123.986L251.157 129.214L246.608 135.596L241.145 143.261L238.314 147.232L238.138 147.478L230.155 158.678L225.653 164.999L221.613 170.669L215.438 179.332L215.435 179.34L211.656 184.639L207.952 189.835L196.362 206.1L193.13 210.634L191.994 212.228L191.863 212.411L189.975 215.06L188.359 217.327L185.335 221.57C183.094 224.714 178.929 225.588 176.049 223.514L174.137 222.141L174.134 222.139L173.066 221.37L148.892 203.986L148.162 203.462L148.16 203.461L114.935 179.567C113.337 178.42 112.466 176.606 112.39 174.682C112.343 173.561 112.565 172.403 113.071 171.319C113.264 170.905 113.497 170.5 113.774 170.111L123.788 156.06L124.405 155.194L129.198 148.469L133.807 142.004L134.712 140.73L149.317 120.24L149.452 120.05L149.599 119.843L153.539 114.316L162.151 102.234L163.552 100.262L163.564 100.249L168.902 92.7536L168.919 92.7318L168.984 92.6428L177.69 80.423L178.057 79.9113L198.476 51.2573C200.717 48.1128 204.883 47.2398 207.764 49.3134L266.958 91.8776L266.965 91.8815L268.875 93.2572C271.757 95.329 272.277 99.5704 270.036 102.713L270.038 102.719ZM230.222 159.485C230.218 159.461 230.216 159.435 230.211 159.411C230.203 159.365 230.198 159.322 230.194 159.276C230.193 159.261 230.192 159.249 230.192 159.233C230.179 159.116 230.168 158.998 230.163 158.881C230.158 158.815 230.157 158.747 230.154 158.68L225.652 165.001L225.725 165.301C225.761 165.264 225.799 165.228 225.834 165.193C225.868 165.155 225.906 165.121 225.941 165.086C226.018 165.012 226.096 164.936 226.173 164.865C226.177 164.862 226.178 164.861 226.181 164.858C226.181 164.858 226.183 164.857 226.185 164.855C226.273 164.773 226.362 164.694 226.45 164.615C226.526 164.547 226.6 164.481 226.678 164.419C226.739 164.37 226.799 164.318 226.862 164.269C226.897 164.239 226.936 164.21 226.971 164.182C227.059 164.114 227.145 164.049 227.232 163.986L230.259 159.736C230.246 159.652 230.232 159.567 230.222 159.485V159.485ZM238.313 147.234L238.137 147.479C238.137 147.479 238.16 147.471 238.174 147.466C238.214 147.453 238.249 147.439 238.289 147.425C238.328 147.41 238.365 147.397 238.405 147.383C238.434 147.373 238.468 147.36 238.499 147.351C238.539 147.337 238.576 147.324 238.617 147.313C238.627 147.309 238.638 147.305 238.65 147.3L238.664 147.296C238.548 147.276 238.431 147.254 238.314 147.232L238.313 147.234ZM230.222 159.485C230.218 159.461 230.216 159.435 230.211 159.411C230.203 159.365 230.198 159.322 230.194 159.276C230.193 159.261 230.192 159.249 230.192 159.233C230.179 159.116 230.168 158.998 230.163 158.881C230.158 158.815 230.157 158.747 230.154 158.68L225.652 165.001L225.725 165.301C225.761 165.264 225.799 165.228 225.834 165.193C225.868 165.155 225.906 165.121 225.941 165.086C226.018 165.012 226.096 164.936 226.173 164.865C226.177 164.862 226.178 164.861 226.181 164.858C226.181 164.858 226.183 164.857 226.185 164.855C226.273 164.773 226.362 164.694 226.45 164.615C226.526 164.547 226.6 164.481 226.678 164.419C226.739 164.37 226.799 164.318 226.862 164.269C226.897 164.239 226.936 164.21 226.971 164.182C227.059 164.114 227.145 164.049 227.232 163.986L230.259 159.736C230.246 159.652 230.232 159.567 230.222 159.485V159.485ZM238.313 147.234L238.137 147.479C238.137 147.479 238.16 147.471 238.174 147.466C238.214 147.453 238.249 147.439 238.289 147.425C238.328 147.41 238.365 147.397 238.405 147.383C238.434 147.373 238.468 147.36 238.499 147.351C238.539 147.337 238.576 147.324 238.617 147.313C238.627 147.309 238.638 147.305 238.65 147.3L238.664 147.296C238.548 147.276 238.431 147.254 238.314 147.232L238.313 147.234ZM162.073 101.741L162.061 101.756L161.993 101.853L161.953 101.911L161.77 102.167C161.78 102.17 161.791 102.172 161.803 102.176C161.817 102.176 161.834 102.18 161.848 102.183C161.853 102.183 161.857 102.185 161.859 102.184C161.959 102.2 162.054 102.217 162.151 102.234L163.551 100.264L162.076 101.74L162.073 101.741Z" fill="#31313B"/>
<path d="M181.891 212.833C181.748 212.758 181.611 212.673 181.479 212.578L123.492 170.882C121.791 169.659 121.476 167.162 122.791 165.317L184.946 78.0974L200.034 56.927C200.697 55.997 201.697 55.3622 202.776 55.1829C203.759 55.0208 204.73 55.2401 205.51 55.8024L263.496 97.4988C265.198 98.7218 265.512 101.218 264.197 103.063L220.093 164.95L186.951 211.454C186.291 212.383 185.293 213.019 184.212 213.199C183.396 213.336 182.586 213.206 181.889 212.837L181.891 212.833ZM204.769 56.1678C204.207 55.8702 203.553 55.7673 202.89 55.8768C201.993 56.026 201.161 56.5557 200.606 57.3348L185.518 78.5052L123.362 165.727C122.272 167.256 122.514 169.312 123.902 170.311L181.888 212.007C182.518 212.46 183.302 212.636 184.097 212.503C184.994 212.353 185.824 211.823 186.377 211.045L219.52 164.541L263.624 102.654C264.713 101.125 264.472 99.0691 263.084 98.0704L205.098 56.3723C204.994 56.2959 204.882 56.2278 204.769 56.1678Z" fill="#31313C"/>
<path d="M237.189 75.206C237.661 74.5442 237.552 73.6546 236.946 73.2192C236.339 72.7839 235.465 72.966 234.993 73.6278C234.521 74.2896 234.63 75.1792 235.236 75.6146C235.843 76.05 236.717 75.8678 237.189 75.206Z" fill="#31313B"/>
<path d="M142.136 194.456L153.25 202.448C153.998 202.987 155.086 202.759 155.669 201.94L156.55 200.703C157.132 199.887 156.997 198.778 156.248 198.239L145.135 190.247C144.387 189.709 143.299 189.937 142.716 190.755L141.835 191.992C141.253 192.808 141.388 193.918 142.136 194.456Z" fill="white"/>
<path d="M156.471 197.931L155.562 197.277L155.27 197.066L154.669 196.634L154.667 196.633L145.356 189.938C144.49 189.314 143.255 189.537 142.528 190.423C142.497 190.465 142.463 190.508 142.43 190.551L141.549 191.789C140.845 192.779 141.007 194.115 141.913 194.765L150.536 200.967L151.327 201.535L153.026 202.759C153.933 203.412 155.243 203.136 155.951 202.148L156.833 200.908C157.537 199.918 157.376 198.585 156.469 197.932L156.471 197.931ZM156.269 200.5L155.387 201.737C154.924 202.387 154.063 202.565 153.471 202.139L151.871 200.989L151.068 200.412L142.357 194.147C141.763 193.72 141.657 192.846 142.118 192.197L142.999 190.96C143.053 190.886 143.109 190.819 143.169 190.758C143.653 190.278 144.39 190.177 144.916 190.558L150.547 194.606L154.139 197.19L155.019 197.822L156.028 198.547C156.622 198.976 156.727 199.85 156.267 200.499L156.269 200.5Z" fill="#31313B"/>
<g opacity="0.2">
<path d="M263.913 102.856L219.809 164.743L185.234 78.3011L200.323 57.1306C201.528 55.4407 203.759 54.9739 205.306 56.0871L263.293 97.7834C264.84 98.8966 265.118 101.166 263.915 102.857L263.913 102.856Z" fill="#A5A6F6"/>
</g>
<g opacity="0.2">
<path d="M163.256 109.14L123.075 165.521C121.871 167.209 122.152 169.483 123.697 170.595L181.684 212.291C183.231 213.404 185.463 212.936 186.665 211.247L200.603 191.69L163.256 109.14Z" fill="#A5A6F6"/>
</g>
<path d="M229.729 182.097C233.108 182.501 240.423 179.078 239.866 169.814C239.668 166.519 231.756 155.874 223.42 168.145C216.637 178.131 225.038 181.537 229.729 182.097Z" fill="white"/>
<path d="M224.669 180.841C223.143 180.033 221.841 178.898 221.152 177.383C220.001 174.855 220.69 171.698 223.205 167.997C227.2 162.118 230.96 161.689 233.413 162.363C237.305 163.435 240.013 167.848 240.13 169.8C240.436 174.896 238.398 177.947 236.635 179.608C234.308 181.803 231.475 182.571 229.702 182.359L229.733 182.097L229.702 182.359C228.069 182.163 226.25 181.678 224.671 180.842L224.669 180.841ZM234.724 163.45C234.264 163.206 233.779 163.008 233.274 162.869C229.993 161.967 226.663 163.844 223.64 168.292C221.236 171.832 220.561 174.817 221.631 177.167C222.493 179.058 225.081 181.276 229.764 181.838C231.365 182.029 234.084 181.294 236.277 179.227C237.959 177.642 239.903 174.724 239.608 169.832C239.514 168.261 237.605 164.975 234.726 163.451L234.724 163.45Z" fill="#31313B"/>
<path d="M232.064 179.571C232.028 179.551 231.997 179.526 231.972 179.489C231.89 179.371 231.919 179.206 232.037 179.124C237.919 175.013 237.928 169.457 237.927 169.403C237.927 169.258 238.041 169.138 238.186 169.138C238.331 169.138 238.451 169.252 238.451 169.397C238.451 169.458 238.458 170.895 237.707 172.874C237.016 174.691 235.523 177.327 232.337 179.554C232.253 179.612 232.148 179.615 232.064 179.571V179.571Z" fill="#31313B"/>
<path d="M198.68 146.027L164.776 122.538C164.389 122.27 164.291 121.732 164.558 121.345L164.609 121.271C164.877 120.885 165.415 120.786 165.802 121.054L199.706 144.544C200.093 144.811 200.191 145.349 199.923 145.736L199.873 145.81C199.604 146.198 199.067 146.295 198.68 146.027V146.027Z" fill="#31313C"/>
<path d="M189.034 160.372L155.137 137.029C154.729 136.748 154.624 136.182 154.905 135.775C155.186 135.367 155.751 135.262 156.159 135.543L190.056 158.887C190.464 159.168 190.569 159.733 190.288 160.14C190.007 160.548 189.442 160.653 189.034 160.372V160.372Z" fill="#31313C"/>
<path d="M182.464 139.827L162.325 126.376C161.994 126.155 161.546 126.244 161.325 126.575L161.124 126.876C160.903 127.207 160.992 127.654 161.323 127.876L181.463 141.327C181.794 141.548 182.241 141.459 182.462 141.128L182.663 140.827C182.884 140.496 182.795 140.048 182.464 139.827Z" fill="#31313C"/>
<path d="M198.276 153.018L185.462 144.14C185.056 143.857 184.952 143.293 185.235 142.886C185.518 142.48 186.082 142.376 186.489 142.659L199.303 151.537C199.709 151.82 199.812 152.384 199.529 152.791C199.247 153.197 198.682 153.301 198.276 153.018Z" fill="#31313C"/>
<path d="M205.479 92.4776L192.665 83.5998C192.259 83.3168 192.155 82.7526 192.438 82.3461C192.721 81.9396 193.285 81.8362 193.692 82.1191L206.506 90.997C206.912 91.2799 207.016 91.8441 206.733 92.2506C206.45 92.6571 205.885 92.7605 205.479 92.4776Z" fill="#31313C"/>
<path d="M199.686 100.843L186.872 91.965C186.466 91.6821 186.362 91.1179 186.645 90.7114C186.928 90.3048 187.492 90.2015 187.899 90.4844L200.713 99.3622C201.119 99.6451 201.223 100.209 200.94 100.616C200.657 101.022 200.093 101.126 199.686 100.843V100.843Z" fill="#31313C"/>
<path d="M208.752 100.985L189.743 87.8166C189.337 87.5336 189.234 86.9694 189.516 86.5629C189.799 86.1564 190.364 86.053 190.77 86.3359L209.778 99.5041C210.185 99.787 210.288 100.351 210.005 100.758C209.722 101.164 209.158 101.268 208.752 100.985Z" fill="#31313C"/>
<path d="M194.346 108.227L181.532 99.3488C181.126 99.0659 181.023 98.5017 181.305 98.0951C181.588 97.6886 182.153 97.5852 182.559 97.8682L195.373 106.746C195.779 107.029 195.883 107.593 195.6 108C195.317 108.406 194.753 108.51 194.346 108.227V108.227Z" fill="#31313C"/>
<path d="M188.549 116.589L175.736 107.711C175.329 107.428 175.226 106.864 175.509 106.457C175.792 106.051 176.356 105.948 176.762 106.23L189.576 115.108C189.982 115.391 190.086 115.955 189.803 116.362C189.52 116.768 188.956 116.872 188.549 116.589Z" fill="#31313C"/>
<path d="M197.619 116.734L178.611 103.566C178.204 103.283 178.101 102.718 178.384 102.312C178.667 101.905 179.231 101.802 179.637 102.085L198.645 115.253C199.052 115.536 199.155 116.1 198.872 116.507C198.59 116.913 198.025 117.017 197.619 116.734Z" fill="#31313C"/>
<path d="M172.95 153.491L153.003 139.757C152.675 139.531 152.226 139.613 152 139.941L151.795 140.239C151.57 140.567 151.652 141.016 151.98 141.242L171.927 154.976C172.255 155.202 172.704 155.119 172.93 154.791L173.135 154.494C173.361 154.166 173.278 153.717 172.95 153.491Z" fill="#31313C"/>
<path d="M188.841 166.63L176.004 157.788C175.596 157.507 175.491 156.942 175.772 156.535C176.053 156.127 176.618 156.022 177.026 156.303L189.863 165.145C190.271 165.426 190.376 165.991 190.095 166.398C189.814 166.806 189.249 166.911 188.841 166.63Z" fill="#31313C"/>
<path d="M178.606 174.475L145.025 150.679C144.62 150.393 144.524 149.828 144.811 149.423C145.097 149.019 145.662 148.923 146.067 149.209L179.648 173.005C180.053 173.291 180.149 173.856 179.862 174.261C179.576 174.665 179.011 174.761 178.606 174.475Z" fill="#31313C"/>
<path d="M161.612 168.881L141.756 154.811C141.459 154.6 141.389 154.184 141.598 153.886L141.874 153.497C142.085 153.2 142.501 153.13 142.799 153.339L162.655 167.409C162.952 167.62 163.022 168.036 162.813 168.334L162.537 168.723C162.326 169.021 161.91 169.09 161.612 168.881Z" fill="#31313C"/>
<path d="M178.33 180.729L165.611 171.716C165.206 171.43 165.11 170.865 165.397 170.46C165.683 170.056 166.248 169.96 166.653 170.246L179.372 179.259C179.776 179.545 179.872 180.11 179.586 180.515C179.299 180.919 178.734 181.015 178.33 180.729Z" fill="#31313C"/>
</g>
<path d="M333.002 27.0439C333.002 12.1079 319.809 0 303.537 0C287.265 0 274.074 12.1079 274.074 27.0439C274.074 41.9799 287.265 54.0878 303.537 54.0878C306.826 54.0878 309.987 53.5933 312.941 52.6808C315.431 55.4432 319.49 58.4581 325.945 59.9718C325.945 59.9718 321.737 55.1924 320.372 49.239C328.006 44.3528 333.002 36.2346 333.002 27.0439V27.0439Z" fill="#FF5A5F"/>
<path d="M261.262 47.6544C261.262 35.454 272.038 25.5625 285.33 25.5625C298.623 25.5625 309.399 35.454 309.399 47.6544C309.399 59.8547 298.623 69.7463 285.33 69.7463C282.644 69.7463 280.061 69.3425 277.648 68.5972C275.615 70.8544 272.298 73.3162 267.025 74.5542C267.025 74.5542 270.462 70.6499 271.578 65.7868C265.343 61.7936 261.262 55.1624 261.262 47.6544Z" fill="#307388"/>
<path d="M266.282 71.0001L266.832 70.3757C266.865 70.3384 270.153 66.5621 271.282 61.9072C264.839 57.7129 261 50.9039 261 43.6538C261 31.3254 271.915 21.2969 285.33 21.2969C298.746 21.2969 309.662 31.3272 309.662 43.6538C309.662 55.9804 298.747 66.0107 285.33 66.0107C282.732 66.0107 280.177 65.6372 277.729 64.8972C275.078 67.7859 271.497 69.7745 267.085 70.8098L266.28 70.9983L266.282 71.0001ZM285.33 21.8269C272.205 21.8269 261.525 31.6189 261.525 43.6538C261.525 50.7794 265.336 57.4746 271.72 61.5603L271.878 61.6617L271.836 61.8449C270.977 65.5856 268.74 68.7944 267.73 70.1018C271.748 69.031 275.018 67.1207 277.455 64.4152L277.568 64.2907L277.726 64.3405C280.17 65.0965 282.728 65.4789 285.332 65.4789C298.459 65.4789 309.139 55.6869 309.139 43.6538C309.139 31.6207 298.459 21.8287 285.332 21.8287L285.33 21.8269Z" fill="#2C233D"/>
</svg>
